<?xml version="1.0" encoding="utf-8"?>
<!-- Generator: Adobe Illustrator 26.4.1, SVG Export Plug-In . SVG Version: 6.00 Build 0)  -->
<svg version="1.1" id="Layer_1" xmlns="http://www.w3.org/2000/svg" xmlns:xlink="http://www.w3.org/1999/xlink" x="0px" y="0px"
	 viewBox="0 0 274.7 77.7" style="enable-background:new 0 0 274.7 77.7;" xml:space="preserve">
<style type="text/css">
	.st0{fill:#DFF4FF;}
</style>
<g>
	<g>
		<path class="st0" d="M115.2,26.4l1.6-0.1c0.1,0.6,0.2,1.2,0.5,1.6s0.7,0.8,1.3,1c0.6,0.2,1.2,0.4,2,0.4c0.6,0,1.2-0.1,1.7-0.3
			c0.5-0.2,0.9-0.5,1.1-0.8s0.4-0.7,0.4-1.1s-0.1-0.8-0.3-1.1c-0.2-0.3-0.6-0.6-1.1-0.8c-0.3-0.1-1.1-0.3-2.3-0.6
			c-1.2-0.3-2-0.5-2.5-0.8c-0.6-0.3-1.1-0.7-1.4-1.2s-0.4-1-0.4-1.6s0.2-1.2,0.6-1.8c0.4-0.6,0.9-1,1.6-1.3s1.5-0.4,2.3-0.4
			c1,0,1.8,0.2,2.5,0.5s1.3,0.8,1.7,1.3c0.4,0.6,0.6,1.3,0.6,2l-1.6,0.1c-0.1-0.8-0.4-1.4-0.9-1.9c-0.5-0.4-1.2-0.6-2.2-0.6
			s-1.8,0.2-2.2,0.6c-0.5,0.4-0.7,0.8-0.7,1.4c0,0.5,0.2,0.8,0.5,1.1c0.3,0.3,1.2,0.6,2.5,0.9c1.4,0.3,2.3,0.6,2.8,0.8
			c0.8,0.3,1.3,0.8,1.6,1.3c0.4,0.5,0.5,1.1,0.5,1.8c0,0.7-0.2,1.3-0.6,1.9s-1,1.1-1.7,1.4s-1.6,0.5-2.5,0.5c-1.1,0-2.1-0.2-2.9-0.5
			s-1.4-0.8-1.8-1.5C115.5,28,115.2,27.3,115.2,26.4z"/>
		<path class="st0" d="M133.8,27.5l1.6,0.2c-0.3,0.9-0.7,1.7-1.4,2.2s-1.6,0.8-2.7,0.8c-1.4,0-2.4-0.4-3.2-1.2
			c-0.8-0.8-1.2-2-1.2-3.5c0-1.6,0.4-2.8,1.2-3.6c0.8-0.9,1.8-1.3,3.1-1.3c1.2,0,2.2,0.4,3,1.3c0.8,0.8,1.2,2,1.2,3.5
			c0,0.1,0,0.2,0,0.4h-6.9c0.1,1,0.3,1.8,0.9,2.3c0.5,0.5,1.2,0.8,1.9,0.8c0.6,0,1.1-0.1,1.5-0.5C133.3,28.7,133.6,28.2,133.8,27.5z
			 M128.7,25h5.2c-0.1-0.8-0.3-1.4-0.6-1.7c-0.5-0.6-1.1-0.9-2-0.9c-0.7,0-1.3,0.2-1.8,0.7C129,23.6,128.7,24.2,128.7,25z"/>
		<path class="st0" d="M143.4,27.1l1.5,0.2c-0.2,1.1-0.6,1.9-1.3,2.5s-1.5,0.9-2.6,0.9c-1.3,0-2.3-0.4-3-1.2c-0.8-0.8-1.2-2-1.2-3.6
			c0-1,0.2-1.9,0.5-2.6c0.3-0.8,0.8-1.3,1.5-1.7c0.7-0.4,1.4-0.6,2.2-0.6c1,0,1.8,0.3,2.5,0.8c0.6,0.5,1,1.2,1.2,2.2l-1.5,0.2
			c-0.1-0.6-0.4-1.1-0.8-1.4c-0.4-0.3-0.8-0.5-1.3-0.5c-0.8,0-1.4,0.3-1.9,0.9s-0.7,1.5-0.7,2.7s0.2,2.1,0.7,2.7s1.1,0.8,1.9,0.8
			c0.6,0,1.1-0.2,1.5-0.6C143.1,28.5,143.3,27.9,143.4,27.1z"/>
		<path class="st0" d="M146.3,30.5v-9.2h1.4v1.4c0.3-0.7,0.7-1.1,1-1.3c0.3-0.2,0.6-0.3,1-0.3c0.5,0,1.1,0.2,1.6,0.5l-0.5,1.5
			c-0.4-0.2-0.8-0.3-1.1-0.3c-0.4,0-0.7,0.1-0.9,0.3c-0.3,0.2-0.5,0.5-0.6,0.8c-0.2,0.6-0.3,1.2-0.3,1.8v4.8H146.3L146.3,30.5z"/>
		<path class="st0" d="M158.6,27.5l1.6,0.2c-0.3,0.9-0.7,1.7-1.4,2.2s-1.6,0.8-2.6,0.8c-1.4,0-2.4-0.4-3.2-1.2
			c-0.8-0.8-1.2-2-1.2-3.5c0-1.6,0.4-2.8,1.2-3.6c0.8-0.9,1.8-1.3,3.1-1.3c1.2,0,2.2,0.4,3,1.3c0.8,0.8,1.2,2,1.2,3.5
			c0,0.1,0,0.2,0,0.4h-6.9c0.1,1,0.3,1.8,0.9,2.3c0.5,0.5,1.2,0.8,1.9,0.8c0.6,0,1.1-0.1,1.5-0.5C158,28.7,158.3,28.2,158.6,27.5z
			 M153.4,25h5.2c-0.1-0.8-0.3-1.4-0.6-1.7c-0.5-0.6-1.1-0.9-1.9-0.9c-0.7,0-1.3,0.2-1.8,0.7C153.8,23.6,153.5,24.2,153.4,25z"/>
		<path class="st0" d="M165.6,29.1l0.2,1.4c-0.4,0.1-0.8,0.1-1.2,0.1c-0.5,0-1-0.1-1.3-0.3c-0.3-0.2-0.5-0.4-0.7-0.7
			c-0.1-0.3-0.2-0.9-0.2-1.9v-5.3h-1.1v-1.2h1.1V19l1.6-0.9v3.2h1.6v1.2H164v5.4c0,0.4,0,0.7,0.1,0.9c0.1,0.1,0.1,0.2,0.3,0.3
			c0.1,0.1,0.3,0.1,0.5,0.1S165.3,29.2,165.6,29.1z"/>
		<path class="st0" d="M173.1,29.4c-0.6,0.5-1.1,0.8-1.7,1c-0.5,0.2-1.1,0.3-1.7,0.3c-1,0-1.8-0.3-2.3-0.7c-0.6-0.5-0.8-1.1-0.8-1.9
			c0-0.5,0.1-0.9,0.3-1.2c0.2-0.4,0.5-0.7,0.8-0.9c0.3-0.2,0.7-0.4,1.1-0.5c0.3-0.1,0.8-0.2,1.4-0.2c1.3-0.1,2.2-0.3,2.8-0.5
			c0-0.2,0-0.4,0-0.4c0-0.6-0.1-1.1-0.4-1.4c-0.4-0.3-1-0.5-1.8-0.5c-0.7,0-1.3,0.1-1.6,0.4s-0.6,0.7-0.8,1.4l-1.5-0.2
			c0.1-0.7,0.4-1.2,0.7-1.6s0.8-0.7,1.4-0.9c0.6-0.2,1.3-0.3,2.1-0.3s1.4,0.1,1.9,0.3c0.5,0.2,0.9,0.4,1.1,0.7
			c0.2,0.3,0.4,0.6,0.5,1.1c0,0.3,0.1,0.7,0.1,1.5V27c0,1.5,0,2.4,0.1,2.8s0.2,0.8,0.4,1.1h-1.7C173.3,30.2,173.2,29.8,173.1,29.4z
			 M173,25.9c-0.6,0.2-1.4,0.4-2.6,0.6c-0.6,0.1-1.1,0.2-1.4,0.3c-0.3,0.1-0.5,0.3-0.6,0.5c-0.2,0.2-0.2,0.5-0.2,0.7
			c0,0.4,0.2,0.8,0.5,1.1c0.3,0.3,0.8,0.4,1.4,0.4c0.6,0,1.1-0.1,1.6-0.4s0.8-0.6,1-1.1c0.2-0.4,0.3-0.9,0.3-1.6V25.9L173,25.9z"/>
		<path class="st0" d="M177,30.5v-9.2h1.4v1.4c0.4-0.7,0.7-1.1,1-1.3c0.3-0.2,0.6-0.3,1-0.3c0.5,0,1.1,0.2,1.6,0.5l-0.5,1.5
			c-0.4-0.2-0.8-0.3-1.2-0.3c-0.3,0-0.6,0.1-0.9,0.3c-0.3,0.2-0.5,0.5-0.6,0.8c-0.2,0.6-0.3,1.2-0.3,1.8v4.8H177L177,30.5z"/>
		<path class="st0" d="M183.4,20.1l1.2-2.4h2.1l-1.9,2.4H183.4z M183.5,30.5v-9.2h1.6v9.2H183.5z"/>
		<path class="st0" d="M193.9,29.4c-0.6,0.5-1.1,0.8-1.7,1c-0.5,0.2-1.1,0.3-1.7,0.3c-1,0-1.8-0.3-2.3-0.7c-0.5-0.5-0.8-1.1-0.8-1.9
			c0-0.5,0.1-0.9,0.3-1.2c0.2-0.4,0.5-0.7,0.8-0.9c0.3-0.2,0.7-0.4,1.1-0.5c0.3-0.1,0.8-0.2,1.4-0.2c1.3-0.1,2.2-0.3,2.8-0.5
			c0-0.2,0-0.4,0-0.4c0-0.6-0.2-1.1-0.4-1.4c-0.4-0.3-1-0.5-1.8-0.5c-0.7,0-1.3,0.1-1.6,0.4c-0.4,0.3-0.6,0.7-0.8,1.4l-1.5-0.2
			c0.1-0.7,0.4-1.2,0.7-1.6s0.8-0.7,1.4-0.9c0.6-0.2,1.3-0.3,2.1-0.3s1.4,0.1,1.9,0.3c0.5,0.2,0.9,0.4,1.1,0.7
			c0.2,0.3,0.4,0.6,0.5,1.1c0.1,0.3,0.1,0.7,0.1,1.5V27c0,1.5,0,2.4,0.1,2.8s0.2,0.8,0.4,1.1h-1.6C194.1,30.2,194,29.8,193.9,29.4z
			 M193.8,25.9c-0.6,0.2-1.4,0.4-2.6,0.6c-0.6,0.1-1.1,0.2-1.4,0.3c-0.3,0.1-0.5,0.3-0.6,0.5S189,27.8,189,28c0,0.4,0.2,0.8,0.5,1.1
			c0.3,0.3,0.8,0.4,1.4,0.4c0.6,0,1.1-0.1,1.6-0.4s0.8-0.6,1-1.1c0.2-0.4,0.3-0.9,0.3-1.6V25.9z"/>
		<path class="st0" d="M121.6,51.9v-1.2c-0.6,0.9-1.5,1.4-2.6,1.4c-0.7,0-1.4-0.2-2-0.6c-0.6-0.4-1.1-1-1.4-1.7s-0.5-1.6-0.5-2.5
			s0.2-1.8,0.5-2.5c0.3-0.8,0.8-1.3,1.4-1.7s1.3-0.6,2.1-0.6c0.6,0,1.1,0.1,1.5,0.3s0.8,0.5,1.1,0.9v-4.6h1.6v12.8
			C123.3,51.9,121.6,51.9,121.6,51.9z M116.6,47.3c0,1.2,0.3,2.1,0.8,2.7c0.5,0.6,1.1,0.9,1.8,0.9c0.7,0,1.3-0.3,1.7-0.8
			c0.5-0.6,0.7-1.4,0.7-2.6c0-1.3-0.2-2.2-0.7-2.8s-1.1-0.9-1.8-0.9c-0.7,0-1.3,0.3-1.8,0.9C116.9,45.2,116.6,46.1,116.6,47.3z"/>
		<path class="st0" d="M131.8,48.9l1.6,0.2c-0.2,0.9-0.7,1.7-1.4,2.2s-1.6,0.8-2.7,0.8c-1.3,0-2.4-0.4-3.2-1.2
			c-0.8-0.8-1.2-2-1.2-3.5s0.4-2.7,1.2-3.6c0.8-0.8,1.8-1.3,3.1-1.3c1.2,0,2.3,0.4,3,1.3c0.8,0.9,1.2,2,1.2,3.6c0,0.1,0,0.2,0,0.4
			h-6.9c0.1,1,0.3,1.8,0.9,2.3c0.5,0.5,1.2,0.8,1.9,0.8c0.6,0,1.1-0.2,1.5-0.5C131.3,50.1,131.6,49.6,131.8,48.9z M126.7,46.4h5.2
			c-0.1-0.8-0.3-1.4-0.6-1.8c-0.5-0.6-1.1-0.9-1.9-0.9c-0.7,0-1.3,0.2-1.8,0.7C127,45,126.7,45.6,126.7,46.4z"/>
		<path class="st0" d="M144.2,51.9l-4.9-12.8h1.8l3.3,9.3c0.3,0.7,0.5,1.4,0.7,2.1c0.2-0.7,0.4-1.4,0.7-2.1l3.5-9.3h1.7l-5,12.8
			H144.2z"/>
		<path class="st0" d="M151.9,41v-1.8h1.6V41H151.9z M151.9,51.9v-9.2h1.6v9.2H151.9z"/>
		<path class="st0" d="M155.9,51.9v-9.2h1.4V44c0.7-1,1.7-1.5,2.9-1.5c0.6,0,1.1,0.1,1.5,0.3c0.5,0.2,0.8,0.5,1,0.8s0.4,0.7,0.5,1.2
			c0.1,0.3,0.1,0.8,0.1,1.5V52h-1.6v-5.6c0-0.6-0.1-1.1-0.2-1.4c-0.1-0.3-0.3-0.6-0.6-0.8s-0.7-0.3-1.1-0.3c-0.7,0-1.2,0.2-1.7,0.6
			c-0.5,0.4-0.7,1.2-0.7,2.4v5H155.9z"/>
		<path class="st0" d="M171.8,48.5l1.6,0.2c-0.2,1.1-0.6,1.9-1.3,2.5s-1.6,0.9-2.6,0.9c-1.2,0-2.3-0.4-3.1-1.2s-1.1-2-1.1-3.6
			c0-1,0.2-1.9,0.5-2.6c0.3-0.7,0.8-1.3,1.5-1.7s1.4-0.6,2.2-0.6c1,0,1.8,0.3,2.5,0.8c0.6,0.5,1.1,1.2,1.2,2.2l-1.5,0.2
			c-0.1-0.6-0.4-1.1-0.8-1.4c-0.4-0.3-0.8-0.5-1.3-0.5c-0.8,0-1.4,0.3-1.9,0.9c-0.5,0.6-0.7,1.4-0.7,2.7c0,1.2,0.2,2.1,0.7,2.7
			c0.5,0.6,1.1,0.9,1.9,0.9c0.6,0,1.1-0.2,1.5-0.6C171.5,49.9,171.7,49.3,171.8,48.5z"/>
		<path class="st0" d="M180.8,51.9v-1.4c-0.7,1-1.7,1.6-2.9,1.6c-0.5,0-1.1-0.1-1.5-0.3c-0.5-0.2-0.8-0.5-1.1-0.8
			c-0.2-0.3-0.4-0.7-0.5-1.2c-0.1-0.3-0.1-0.8-0.1-1.5v-5.7h1.6v5.1c0,0.8,0,1.4,0.1,1.7c0.1,0.4,0.3,0.7,0.6,1
			c0.3,0.2,0.7,0.4,1.2,0.4s0.9-0.1,1.3-0.4c0.4-0.2,0.7-0.6,0.9-1s0.3-1,0.3-1.8v-4.9h1.6v9.2L180.8,51.9L180.8,51.9z"/>
		<path class="st0" d="M184.6,51.9V39.2h1.6V52L184.6,51.9L184.6,51.9z"/>
		<path class="st0" d="M194.6,50.8c-0.6,0.5-1.1,0.8-1.7,1c-0.5,0.2-1.1,0.3-1.7,0.3c-1,0-1.8-0.2-2.3-0.7c-0.6-0.5-0.8-1.1-0.8-1.9
			c0-0.5,0.1-0.9,0.3-1.2c0.2-0.4,0.5-0.7,0.8-0.9s0.7-0.4,1.1-0.5c0.3-0.1,0.8-0.2,1.4-0.2c1.3-0.2,2.2-0.3,2.8-0.5
			c0-0.2,0-0.3,0-0.4c0-0.6-0.1-1.1-0.4-1.3c-0.4-0.4-1-0.5-1.8-0.5c-0.7,0-1.3,0.1-1.6,0.4c-0.4,0.2-0.6,0.7-0.8,1.4l-1.5-0.2
			c0.1-0.7,0.4-1.2,0.7-1.6c0.3-0.4,0.8-0.7,1.4-0.9c0.6-0.2,1.3-0.3,2.1-0.3s1.4,0.1,1.9,0.3s0.9,0.4,1.1,0.7
			c0.2,0.3,0.4,0.6,0.5,1.1c0.1,0.3,0.1,0.7,0.1,1.4V48c0,1.5,0,2.4,0.1,2.8c0.1,0.4,0.2,0.8,0.4,1.1h-1.6
			C194.8,51.6,194.7,51.2,194.6,50.8z M194.5,47.3c-0.6,0.2-1.4,0.4-2.6,0.6c-0.6,0.1-1.1,0.2-1.4,0.3c-0.3,0.1-0.5,0.3-0.6,0.5
			s-0.2,0.5-0.2,0.7c0,0.4,0.2,0.8,0.5,1.1s0.8,0.4,1.4,0.4c0.6,0,1.1-0.1,1.6-0.4c0.5-0.3,0.8-0.6,1-1.1c0.2-0.4,0.2-0.9,0.2-1.6
			v-0.5H194.5z"/>
		<path class="st0" d="M204.5,48.5l1.5,0.2c-0.2,1.1-0.6,1.9-1.3,2.5s-1.5,0.9-2.6,0.9c-1.3,0-2.3-0.4-3-1.2c-0.8-0.8-1.1-2-1.1-3.6
			c0-1,0.2-1.9,0.5-2.6c0.3-0.7,0.8-1.3,1.5-1.7s1.4-0.6,2.2-0.6c1,0,1.8,0.3,2.5,0.8c0.6,0.5,1,1.2,1.2,2.2l-1.5,0.2
			c-0.1-0.6-0.4-1.1-0.8-1.4c-0.4-0.3-0.8-0.5-1.3-0.5c-0.8,0-1.4,0.3-1.9,0.9c-0.5,0.6-0.7,1.4-0.7,2.7c0,1.2,0.2,2.1,0.7,2.7
			c0.5,0.6,1.1,0.9,1.9,0.9c0.6,0,1.1-0.2,1.5-0.6C204.2,49.9,204.4,49.3,204.5,48.5z"/>
		<path class="st0" d="M207.4,41v-1.8h1.6V41H207.4z M207.4,51.9v-9.2h1.6v9.2H207.4z"/>
		<path class="st0" d="M210.8,47.3c0-1.7,0.5-3,1.4-3.8c0.8-0.7,1.8-1,2.9-1c1.3,0,2.3,0.4,3.1,1.3c0.8,0.8,1.2,2,1.2,3.4
			c0,1.2-0.2,2.1-0.5,2.8c-0.4,0.7-0.9,1.2-1.6,1.6c-0.7,0.4-1.4,0.6-2.2,0.6c-1.3,0-2.3-0.4-3.1-1.2
			C211.2,50.1,210.8,48.9,210.8,47.3z M212.4,47.3c0,1.2,0.3,2.1,0.8,2.7c0.5,0.6,1.2,0.9,1.9,0.9c0.8,0,1.4-0.3,1.9-0.9
			c0.5-0.6,0.8-1.5,0.8-2.7c0-1.1-0.3-2-0.8-2.6s-1.2-0.9-1.9-0.9c-0.8,0-1.4,0.3-1.9,0.9C212.7,45.2,212.4,46.1,212.4,47.3z
			 M214.3,41.5l1.2-2.4h2.1l-1.9,2.4H214.3z"/>
		<path class="st0" d="M221.3,51.9v-9.2h1.4V44c0.7-1,1.7-1.5,2.9-1.5c0.6,0,1.1,0.1,1.5,0.3c0.5,0.2,0.8,0.5,1.1,0.8
			c0.2,0.3,0.4,0.7,0.5,1.2c0.1,0.3,0.1,0.8,0.1,1.5V52h-1.6v-5.6c0-0.6-0.1-1.1-0.2-1.4c-0.1-0.3-0.3-0.6-0.7-0.8
			c-0.3-0.2-0.7-0.3-1.1-0.3c-0.7,0-1.2,0.2-1.7,0.6c-0.5,0.4-0.7,1.2-0.7,2.4v5H221.3z"/>
		<path class="st0" d="M119,73.3V62.1h-4.2v-1.5H125v1.5h-4.2v11.3C120.7,73.3,119,73.3,119,73.3z"/>
		<path class="st0" d="M130.8,70.3l1.6,0.2c-0.3,0.9-0.7,1.7-1.4,2.2s-1.6,0.8-2.7,0.8c-1.4,0-2.4-0.4-3.2-1.3
			c-0.8-0.8-1.2-2-1.2-3.5s0.4-2.8,1.2-3.6c0.8-0.9,1.8-1.3,3.1-1.3c1.2,0,2.2,0.4,3,1.3c0.8,0.8,1.2,2,1.2,3.6c0,0.1,0,0.2,0,0.4
			h-6.9c0.1,1,0.3,1.8,0.9,2.3c0.5,0.5,1.2,0.8,1.9,0.8c0.6,0,1.1-0.1,1.5-0.5C130.3,71.5,130.6,71,130.8,70.3z M125.7,67.8h5.2
			c-0.1-0.8-0.3-1.4-0.6-1.8c-0.5-0.6-1.1-0.9-1.9-0.9c-0.7,0-1.3,0.2-1.8,0.7C126,66.3,125.7,67,125.7,67.8z"/>
		<path class="st0" d="M140.4,69.9l1.5,0.2c-0.2,1.1-0.6,1.9-1.3,2.5s-1.5,0.9-2.6,0.9c-1.3,0-2.3-0.4-3-1.2c-0.8-0.8-1.2-2-1.2-3.6
			c0-1,0.2-1.9,0.5-2.6s0.8-1.3,1.5-1.7c0.7-0.4,1.4-0.6,2.2-0.6c1,0,1.8,0.2,2.5,0.8c0.6,0.5,1.1,1.2,1.2,2.2l-1.5,0.2
			c-0.1-0.6-0.4-1.1-0.8-1.4c-0.4-0.3-0.8-0.5-1.3-0.5c-0.8,0-1.4,0.3-1.9,0.9s-0.7,1.5-0.7,2.7s0.2,2.1,0.7,2.7s1.1,0.9,1.9,0.9
			c0.6,0,1.1-0.2,1.6-0.6C140.1,71.3,140.3,70.7,140.4,69.9z"/>
		<path class="st0" d="M143.3,73.3v-9.2h1.4v1.3c0.7-1,1.7-1.5,2.9-1.5c0.5,0,1.1,0.1,1.5,0.3c0.5,0.2,0.8,0.5,1.1,0.8
			c0.2,0.3,0.4,0.7,0.5,1.2c0.1,0.3,0.1,0.8,0.1,1.5v5.7h-1.6v-5.6c0-0.6-0.1-1.1-0.2-1.4c-0.1-0.3-0.4-0.6-0.7-0.8
			c-0.3-0.2-0.7-0.3-1.1-0.3c-0.7,0-1.3,0.2-1.7,0.6c-0.5,0.4-0.7,1.2-0.7,2.4v5.1L143.3,73.3L143.3,73.3z"/>
		<path class="st0" d="M152.7,68.7c0-1.7,0.5-3,1.4-3.8c0.8-0.7,1.8-1,2.9-1c1.3,0,2.3,0.4,3.1,1.2c0.8,0.8,1.2,2,1.2,3.5
			c0,1.2-0.2,2.1-0.5,2.8c-0.4,0.7-0.9,1.2-1.6,1.6c-0.7,0.4-1.4,0.6-2.2,0.6c-1.3,0-2.3-0.4-3.1-1.2
			C153.1,71.4,152.7,70.3,152.7,68.7z M154.3,68.7c0,1.2,0.3,2.1,0.8,2.7s1.2,0.9,1.9,0.9c0.8,0,1.4-0.3,2-0.9
			c0.5-0.6,0.8-1.5,0.8-2.7c0-1.1-0.3-2-0.8-2.6s-1.2-0.9-2-0.9s-1.4,0.3-1.9,0.9C154.5,66.6,154.3,67.5,154.3,68.7z"/>
		<path class="st0" d="M163.1,73.3V60.5h1.6v12.8C164.7,73.3,163.1,73.3,163.1,73.3z"/>
		<path class="st0" d="M166.5,68.7c0-1.7,0.5-3,1.4-3.8c0.8-0.7,1.8-1,2.9-1c1.3,0,2.3,0.4,3.1,1.2c0.8,0.8,1.2,2,1.2,3.5
			c0,1.2-0.2,2.1-0.5,2.8c-0.4,0.7-0.9,1.2-1.6,1.6c-0.7,0.4-1.4,0.6-2.2,0.6c-1.3,0-2.4-0.4-3.1-1.2
			C166.9,71.4,166.5,70.3,166.5,68.7z M168.1,68.7c0,1.2,0.3,2.1,0.8,2.7s1.2,0.9,2,0.9s1.4-0.3,1.9-0.9s0.8-1.5,0.8-2.7
			c0-1.1-0.3-2-0.8-2.6s-1.2-0.9-1.9-0.9c-0.8,0-1.4,0.3-2,0.9C168.4,66.6,168.1,67.5,168.1,68.7z M170,62.9l1.2-2.4h2l-1.9,2.4H170
			z"/>
		<path class="st0" d="M176.7,74.1l1.5,0.2c0.1,0.5,0.2,0.8,0.5,1c0.4,0.3,0.9,0.4,1.6,0.4c0.7,0,1.3-0.1,1.7-0.4s0.7-0.7,0.8-1.2
			c0.1-0.3,0.1-1,0.1-2c-0.7,0.8-1.5,1.2-2.6,1.2c-1.3,0-2.2-0.5-2.9-1.4s-1-2-1-3.3c0-0.9,0.2-1.7,0.5-2.5c0.3-0.7,0.8-1.3,1.4-1.7
			c0.6-0.4,1.3-0.6,2.1-0.6c1.1,0,2,0.4,2.7,1.3V64h1.4v8c0,1.4-0.1,2.5-0.4,3.1c-0.3,0.6-0.8,1.1-1.4,1.4c-0.6,0.3-1.4,0.5-2.4,0.5
			c-1.1,0-2-0.3-2.7-0.8C177,75.8,176.7,75.1,176.7,74.1z M178,68.5c0,1.2,0.2,2.1,0.7,2.7s1.1,0.8,1.8,0.8s1.3-0.3,1.8-0.8
			c0.5-0.6,0.7-1.4,0.7-2.6c0-1.1-0.3-2-0.8-2.6s-1.1-0.9-1.8-0.9s-1.3,0.3-1.8,0.8C178.3,66.6,178,67.4,178,68.5z"/>
		<path class="st0" d="M186.9,62.4v-1.8h1.6v1.8H186.9z M186.9,73.3v-9.2h1.6v9.2H186.9z"/>
		<path class="st0" d="M196.9,69.9l1.5,0.2c-0.2,1.1-0.6,1.9-1.3,2.5s-1.5,0.9-2.6,0.9c-1.3,0-2.3-0.4-3-1.2c-0.8-0.8-1.2-2-1.2-3.6
			c0-1,0.2-1.9,0.5-2.6s0.8-1.3,1.5-1.7c0.7-0.4,1.4-0.6,2.2-0.6c1,0,1.8,0.2,2.5,0.8c0.6,0.5,1.1,1.2,1.2,2.2l-1.5,0.2
			c-0.1-0.6-0.4-1.1-0.8-1.4c-0.4-0.3-0.8-0.5-1.3-0.5c-0.8,0-1.4,0.3-1.9,0.9s-0.7,1.5-0.7,2.7s0.2,2.1,0.7,2.7s1.1,0.9,1.9,0.9
			c0.6,0,1.1-0.2,1.5-0.6C196.6,71.3,196.8,70.7,196.9,69.9z"/>
		<path class="st0" d="M205.9,72.2c-0.6,0.5-1.1,0.8-1.7,1c-0.5,0.2-1.1,0.3-1.7,0.3c-1,0-1.8-0.2-2.3-0.8c-0.5-0.5-0.8-1.1-0.8-1.9
			c0-0.5,0.1-0.9,0.3-1.2c0.2-0.4,0.5-0.7,0.8-0.9c0.3-0.2,0.7-0.4,1.1-0.5c0.3-0.1,0.8-0.2,1.4-0.2c1.3-0.1,2.2-0.3,2.8-0.5
			c0-0.2,0-0.4,0-0.4c0-0.6-0.2-1.1-0.5-1.3c-0.4-0.4-1-0.5-1.8-0.5c-0.7,0-1.3,0.1-1.6,0.4s-0.6,0.7-0.8,1.4l-1.5-0.2
			c0.1-0.7,0.4-1.2,0.7-1.6s0.8-0.7,1.4-0.9c0.6-0.2,1.3-0.3,2.1-0.3s1.4,0.1,1.9,0.3c0.5,0.2,0.9,0.4,1.1,0.7
			c0.2,0.3,0.4,0.7,0.5,1.1c0.1,0.3,0.1,0.7,0.1,1.4v2.1c0,1.5,0,2.4,0.1,2.8s0.2,0.8,0.4,1.1h-1.6C206,73,205.9,72.6,205.9,72.2z
			 M205.7,68.7c-0.6,0.2-1.4,0.4-2.6,0.6c-0.6,0.1-1.1,0.2-1.4,0.3c-0.3,0.1-0.5,0.3-0.6,0.5c-0.2,0.2-0.2,0.5-0.2,0.7
			c0,0.4,0.1,0.8,0.5,1c0.3,0.3,0.8,0.4,1.4,0.4c0.6,0,1.1-0.1,1.6-0.4s0.8-0.6,1.1-1.1c0.2-0.4,0.2-0.9,0.2-1.6V68.7L205.7,68.7z"
			/>
		<path class="st0" d="M214.6,76.9l-0.2-1.5c0.3,0.1,0.6,0.1,0.9,0.1c0.3,0,0.6-0.1,0.8-0.2s0.4-0.3,0.5-0.5s0.3-0.5,0.5-1.2
			c0-0.1,0.1-0.2,0.1-0.4l-3.5-9.3h1.7l1.9,5.4c0.2,0.7,0.5,1.4,0.7,2.1c0.2-0.7,0.4-1.4,0.6-2.1l2-5.4h1.6l-3.5,9.4
			c-0.4,1-0.7,1.7-0.9,2.1c-0.3,0.5-0.6,0.9-1,1.1s-0.8,0.4-1.3,0.4C215.3,77.1,215,77,214.6,76.9z"/>
		<path class="st0" d="M228.2,69.2l1.6-0.1c0.1,0.6,0.3,1.2,0.5,1.6c0.3,0.4,0.7,0.7,1.3,1s1.2,0.4,2,0.4c0.6,0,1.2-0.1,1.7-0.3
			c0.5-0.2,0.9-0.4,1.1-0.8c0.2-0.3,0.4-0.7,0.4-1.1s-0.1-0.8-0.3-1.1c-0.2-0.3-0.6-0.6-1.2-0.8c-0.3-0.1-1.1-0.3-2.3-0.6
			c-1.2-0.3-2-0.5-2.5-0.8c-0.6-0.3-1.1-0.7-1.4-1.2c-0.3-0.5-0.4-1-0.4-1.6s0.2-1.2,0.5-1.8c0.4-0.6,0.9-1,1.6-1.3
			c0.7-0.3,1.5-0.4,2.3-0.4c1,0,1.8,0.1,2.5,0.4c0.7,0.3,1.3,0.8,1.7,1.4c0.4,0.6,0.6,1.3,0.6,2l-1.6,0.1c-0.1-0.8-0.4-1.4-0.9-1.8
			c-0.5-0.4-1.2-0.6-2.2-0.6s-1.8,0.2-2.2,0.6c-0.5,0.4-0.7,0.8-0.7,1.4c0,0.4,0.2,0.8,0.5,1.1s1.2,0.6,2.5,0.9
			c1.4,0.3,2.3,0.6,2.8,0.8c0.7,0.3,1.3,0.8,1.6,1.3c0.4,0.5,0.5,1.1,0.5,1.8c0,0.7-0.2,1.3-0.6,1.9c-0.4,0.6-0.9,1.1-1.7,1.4
			c-0.7,0.3-1.6,0.5-2.5,0.5c-1.2,0-2.1-0.2-2.9-0.5c-0.8-0.3-1.4-0.8-1.8-1.5C228.4,70.8,228.2,70.1,228.2,69.2z"/>
		<path class="st0" d="M239.8,68.7c0-1.7,0.5-3,1.4-3.8c0.8-0.7,1.8-1,2.9-1c1.3,0,2.3,0.4,3.1,1.2c0.8,0.8,1.2,2,1.2,3.5
			c0,1.2-0.2,2.1-0.5,2.8c-0.4,0.7-0.9,1.2-1.6,1.6c-0.7,0.4-1.4,0.6-2.2,0.6c-1.3,0-2.4-0.4-3.1-1.2
			C240.3,71.4,239.8,70.3,239.8,68.7z M241.5,68.7c0,1.2,0.2,2.1,0.8,2.7c0.5,0.6,1.2,0.9,1.9,0.9c0.8,0,1.4-0.3,1.9-0.9
			s0.8-1.5,0.8-2.7c0-1.1-0.3-2-0.8-2.6s-1.2-0.9-1.9-0.9c-0.8,0-1.4,0.3-1.9,0.9C241.7,66.6,241.5,67.5,241.5,68.7z"/>
		<path class="st0" d="M256.4,69.9l1.5,0.2c-0.2,1.1-0.6,1.9-1.3,2.5c-0.7,0.6-1.5,0.9-2.5,0.9c-1.3,0-2.3-0.4-3.1-1.2
			c-0.8-0.8-1.1-2-1.1-3.6c0-1,0.2-1.9,0.5-2.6s0.9-1.3,1.5-1.7c0.7-0.4,1.4-0.6,2.2-0.6c1,0,1.8,0.2,2.5,0.8c0.6,0.5,1,1.2,1.2,2.2
			l-1.5,0.2c-0.1-0.6-0.4-1.1-0.8-1.4c-0.4-0.3-0.8-0.5-1.3-0.5c-0.8,0-1.4,0.3-1.9,0.9s-0.7,1.5-0.7,2.7s0.2,2.1,0.7,2.7
			s1.1,0.9,1.9,0.9c0.6,0,1.1-0.2,1.5-0.6C256,71.3,256.3,70.7,256.4,69.9z"/>
		<path class="st0" d="M259.3,62.4v-1.8h1.6v1.8H259.3z M259.3,73.3v-9.2h1.6v9.2H259.3z"/>
		<path class="st0" d="M269.2,72.2c-0.6,0.5-1.1,0.8-1.7,1c-0.5,0.2-1.1,0.3-1.7,0.3c-1,0-1.8-0.2-2.3-0.8c-0.5-0.5-0.8-1.1-0.8-1.9
			c0-0.5,0.1-0.9,0.3-1.2c0.2-0.4,0.5-0.7,0.8-0.9c0.3-0.2,0.7-0.4,1.1-0.5c0.3-0.1,0.8-0.2,1.4-0.2c1.3-0.1,2.2-0.3,2.8-0.5
			c0-0.2,0-0.4,0-0.4c0-0.6-0.1-1.1-0.4-1.3c-0.4-0.4-1-0.5-1.8-0.5c-0.7,0-1.3,0.1-1.6,0.4c-0.4,0.3-0.6,0.7-0.8,1.4l-1.5-0.2
			c0.1-0.7,0.4-1.2,0.7-1.6c0.3-0.4,0.8-0.7,1.4-0.9c0.6-0.2,1.3-0.3,2.1-0.3c0.8,0,1.4,0.1,1.9,0.3c0.5,0.2,0.9,0.4,1.1,0.7
			c0.2,0.3,0.4,0.7,0.5,1.1c0,0.3,0.1,0.7,0.1,1.4v2.1c0,1.5,0,2.4,0.1,2.8s0.2,0.8,0.4,1.1h-1.6C269.4,73,269.3,72.6,269.2,72.2z
			 M269.1,68.7c-0.6,0.2-1.4,0.4-2.6,0.6c-0.6,0.1-1.1,0.2-1.4,0.3c-0.3,0.1-0.5,0.3-0.6,0.5s-0.2,0.5-0.2,0.7c0,0.4,0.2,0.8,0.5,1
			c0.3,0.3,0.8,0.4,1.4,0.4s1.1-0.1,1.6-0.4s0.8-0.6,1-1.1c0.2-0.4,0.3-0.9,0.3-1.6L269.1,68.7L269.1,68.7z"/>
		<path class="st0" d="M273.1,73.3V60.5h1.6v12.8H273.1z"/>
	</g>
	<g>
		<polygon class="st0" points="73,58.4 60.5,58.4 55.6,58.4 34.9,58.4 25.6,58.4 0,58.4 0,77.7 25.6,77.7 34.9,77.7 55.6,77.7 
			60.5,77.7 73,77.7 82,77.7 104.4,77.7 104.4,58.4 82,58.4 		"/>
		<path class="st0" d="M102.5,33.3L82,28.5l-2.4-0.6c-0.4-0.1-0.7-0.5-0.7-0.8V25c0-2.2,1-3.4,3.1-3.6c0.2,0,0.4,0,0.6,0H102
			c0.4,0,0.8-0.4,0.8-0.8v-5.2H82.7c-0.2,0-0.4,0-0.6,0c-5.6,0.2-9.5,4-9.5,9.7V30c0,1.2,0.9,2.2,2.1,2.4l7.4,1.8l15.8,3.9
			c0.4,0.1,0.7,0.4,0.7,0.7v3.5c0,2.4-2.2,3.8-4.6,3.8H81.3h-7.4h-7.4c-2.4,0-4.3-2-4.3-4.4V21.4h9.2c0.4,0,0.8-0.3,0.8-0.8v-5.3
			h-7.8c-0.9,0-1.8,0.5-2.1,1.3V2.1c0-0.4-0.4-0.8-0.8-0.8h-5.6v14h-1.3c-0.4,0-0.8,0.3-1,0.7L43,42.1l-8.1-20.8l-2.1-5.4
			c-0.1-0.4-0.5-0.7-0.9-0.7h-6.3H10.1C4.1,15.3,0,19,0,25v5c0,1.2,0.9,2.2,2.1,2.4l23.2,5.7c0.1,0,0.2,0.1,0.3,0.2
			c0.2,0.1,0.3,0.3,0.3,0.6v3.5c0,0.6-0.1,1-0.3,1.5c-0.7,1.5-2.4,2.3-4.3,2.3H0.8C0.3,46.2,0,46.6,0,47v5.2h21.3
			c1.5,0,3-0.2,4.3-0.7c3.8-1.3,6.3-4.4,6.3-9.2v-6.6c0-1.2-0.8-2.2-2-2.4l-4.3-1L7.1,27.9c-0.4-0.1-0.7-0.5-0.7-0.8V25
			c0-2.4,1.3-3.6,3.7-3.6h15.5h2.5l6.8,16.5l5.7,13.9c0.1,0.4,0.5,0.6,0.9,0.6h3c0.4,0,0.7-0.2,0.9-0.6l10.2-24.6v14.3
			c0,3.8,2,7.1,4.9,9c1.7,1.1,3.7,1.7,5.9,1.7H73h9h11.9c6,0,10.5-3.5,10.5-9.9v-6.6C104.4,34.5,103.6,33.5,102.5,33.3z"/>
	</g>
</g>
</svg>
