<?xml version="1.0" encoding="utf-8"?>
<!-- Generator: Adobe Illustrator 26.4.1, SVG Export Plug-In . SVG Version: 6.00 Build 0)  -->
<svg version="1.1" id="Layer_1" xmlns="http://www.w3.org/2000/svg" xmlns:xlink="http://www.w3.org/1999/xlink" x="0px" y="0px"
	 viewBox="0 0 104.4 77.7" style="enable-background:new 0 0 104.4 77.7;" xml:space="preserve">
<style type="text/css">
	.st0{fill:#DFF4FF;}
</style>
<g>
	<g>
		<polygon class="st0" points="73,58.4 60.5,58.4 55.6,58.4 34.9,58.4 25.6,58.4 0,58.4 0,77.7 25.6,77.7 34.9,77.7 55.6,77.7 
			60.5,77.7 73,77.7 82,77.7 104.4,77.7 104.4,58.4 82,58.4 		"/>
		<path class="st0" d="M102.5,33.3L82,28.5l-2.4-0.6c-0.4-0.1-0.7-0.5-0.7-0.8V25c0-2.2,1-3.4,3.1-3.6c0.2,0,0.4,0,0.6,0H102
			c0.4,0,0.8-0.4,0.8-0.8v-5.2H82.7c-0.2,0-0.4,0-0.6,0c-5.6,0.2-9.5,4-9.5,9.7V30c0,1.2,0.9,2.2,2.1,2.4l7.4,1.8l15.8,3.9
			c0.4,0.1,0.7,0.4,0.7,0.7v3.5c0,2.4-2.2,3.8-4.6,3.8H81.3h-7.4h-7.4c-2.4,0-4.3-2-4.3-4.4V21.4h9.2c0.4,0,0.8-0.3,0.8-0.8v-5.3
			h-7.8c-0.9,0-1.8,0.5-2.1,1.3V2.1c0-0.4-0.4-0.8-0.8-0.8h-5.6v14h-1.3c-0.4,0-0.8,0.3-1,0.7L43,42.1l-8.1-20.8l-2.1-5.4
			c-0.1-0.4-0.5-0.7-0.9-0.7h-6.3H10.1C4.1,15.3,0,19,0,25v5c0,1.2,0.9,2.2,2.1,2.4l23.2,5.7c0.1,0,0.2,0.1,0.3,0.2
			c0.2,0.1,0.3,0.3,0.3,0.6v3.5c0,0.6-0.1,1-0.3,1.5c-0.7,1.5-2.4,2.3-4.3,2.3H0.8C0.3,46.2,0,46.6,0,47v5.2h21.3
			c1.5,0,3-0.2,4.3-0.7c3.8-1.3,6.3-4.4,6.3-9.2v-6.6c0-1.2-0.8-2.2-2-2.4l-4.3-1L7.1,27.9c-0.4-0.1-0.7-0.5-0.7-0.8V25
			c0-2.4,1.3-3.6,3.7-3.6h15.5h2.5l6.8,16.5l5.7,13.9c0.1,0.4,0.5,0.6,0.9,0.6h3c0.4,0,0.7-0.2,0.9-0.6l10.2-24.6v14.3
			c0,3.8,2,7.1,4.9,9c1.7,1.1,3.7,1.7,5.9,1.7H73h9h11.9c6,0,10.5-3.5,10.5-9.9v-6.6C104.4,34.5,103.6,33.5,102.5,33.3z"/>
	</g>
</g>
</svg>
