<?xml version="1.0" encoding="utf-8"?>
<!-- Generator: Adobe Illustrator 26.4.1, SVG Export Plug-In . SVG Version: 6.00 Build 0)  -->
<svg version="1.1" id="Layer_1" xmlns="http://www.w3.org/2000/svg" xmlns:xlink="http://www.w3.org/1999/xlink" x="0px" y="0px"
	 viewBox="0 0 123 141.3" style="enable-background:new 0 0 123 141.3;" xml:space="preserve">
<style type="text/css">
	.st0{fill-rule:evenodd;clip-rule:evenodd;}
	.st1{fill-rule:evenodd;clip-rule:evenodd;fill:#3ABEEE;}
	.st2{fill-rule:evenodd;clip-rule:evenodd;fill:#FFFFFF;}
	.st3{fill:#231F20;}
</style>
<g>
	<path class="st0" d="M68.3,0c3.3,0,6.6,0,9.9,0c25.8,4.2,40.8,19.2,45,45c0,3.3,0,6.6,0,9.9c-2.9,19.4-11.8,30.9-25.5,38.7
		c-13,7.4-31,8.2-45,1.7c-1.3-0.6-4.1-2.7-5.3-2.6c-2,0-6.9,5.9-8.7,7.7c-5.9,5.9-10.3,10.3-16.1,16.1c-3,3-5.8,5.8-10.1,6.7
		c-1.4,0-2.9,0-4.3,0c-4.1-1.3-6.9-4-8.2-8.2c0-1.4,0-2.9,0-4.3c0.6-1.7,1.3-4,2.4-5.5c3.5-5,9.4-9.6,14.2-14.4
		c2.1-2.1,4.5-4.5,7.2-7.2c1.8-1.8,6.7-5.9,6.7-7.7c0-1.3-2.1-4-2.6-5.3c-0.9-1.9-1.8-3.7-2.4-5.5c-4.4-13.4-1.9-28.9,4.1-39.4
		C37.4,11.8,49.2,2.8,68.3,0z M38.5,37.8c-6,17.1,1.5,32.1,10.6,39.9c10.9,9.5,28.1,11.8,41.4,4.8c10.5-5.6,20.9-17.2,19.5-35.6
		c-0.5-5.9-3-12.8-6-17.3C97.9,20.7,86,11.9,69.5,13.5C53.9,15,42.6,26.1,38.5,37.8z"/>
	<path class="st1" d="M69.5,13.5c16.5-1.6,28.5,7.2,34.4,16.1c3,4.5,5.6,11.4,6,17.3c1.4,18.4-9,30-19.5,35.6
		c-13.2,7-30.4,4.7-41.4-4.8c-9-7.8-16.6-22.8-10.6-39.9C42.6,26.1,53.9,15,69.5,13.5z M50.5,43.8c-1.6,1.7-4.6,4.6-4.6,6.5
		c0,1.8,3.1,5.2,4.6,6.7c5.4,5.6,13.5,10.9,23.1,10.8c9.6-0.1,17.5-5.6,22.6-11.1c1.7-1.8,4.6-4.6,4.6-6.7c-0.1-1.6-2.9-4.7-4.6-6.5
		c-5.6-5.9-14-11-23.1-10.8C63.3,32.9,55.8,38.2,50.5,43.8z"/>
	<path class="st0" d="M73.1,32.7c9.1-0.2,17.5,5,23.1,10.8c1.7,1.8,4.5,4.9,4.6,6.5c0.1,2.1-2.9,5-4.6,6.7c-5.1,5.4-13,11-22.6,11.1
		C64,67.9,55.9,62.6,50.5,57c-1.5-1.5-4.5-4.9-4.6-6.7c0-1.9,2.9-4.8,4.6-6.5C55.8,38.2,63.3,32.9,73.1,32.7z M64.4,41.6
		c-1.4,1.4-2.8,3-3.4,6.5c-1,7,3.9,12.4,8.4,13.9c7.4,2.5,17.7-3.4,16.1-13.9c-0.1-0.7-1.3-3.8-1.9-4.8c-1.4-2.1-5.8-5.4-10.6-5.3
		C69.3,38.1,66.4,39.6,64.4,41.6z"/>
	<path class="st2" d="M73.1,38c4.7-0.2,9.2,3.2,10.6,5.3c0.7,1,1.8,4.1,1.9,4.8c1.6,10.6-8.7,16.4-16.1,13.9
		c-4.5-1.5-9.5-6.9-8.4-13.9c0.5-3.5,2-5.1,3.4-6.5C66.4,39.6,69.3,38.1,73.1,38z M70.7,56.3c10.6,4.1,12.7-14.6,1.2-12.3
		C65.2,45.3,66.2,54.5,70.7,56.3z"/>
	<path class="st0" d="M71.9,44c11.5-2.3,9.4,16.4-1.2,12.3C66.2,54.5,65.2,45.3,71.9,44z"/>
</g>
<g>
	<path class="st3" d="M86.5,113.1c-0.1,0.2-0.2,0.3-0.3,0.3c-0.1,0.1-0.2,0.1-0.4,0.1c-0.1,0-0.3,0-0.5-0.1
		c-0.2-0.1-0.4-0.2-0.6-0.3s-0.5-0.2-0.7-0.3c-0.3-0.1-0.6-0.1-0.9-0.1c-0.6,0-1,0.1-1.3,0.4c-0.3,0.3-0.4,0.6-0.4,1
		c0,0.3,0.1,0.5,0.3,0.7c0.2,0.2,0.4,0.3,0.7,0.5s0.6,0.3,1,0.4c0.4,0.1,0.7,0.2,1.1,0.4c0.4,0.1,0.8,0.3,1.1,0.5
		c0.4,0.2,0.7,0.4,1,0.7c0.3,0.3,0.5,0.6,0.7,1s0.3,0.9,0.3,1.5c0,0.6-0.1,1.2-0.3,1.8c-0.2,0.6-0.5,1-1,1.4s-0.9,0.7-1.5,1
		c-0.6,0.2-1.3,0.4-2.1,0.4c-0.4,0-0.9,0-1.3-0.1c-0.4-0.1-0.9-0.2-1.3-0.4c-0.4-0.2-0.8-0.4-1.2-0.6s-0.7-0.5-1-0.7l0.9-1.5
		c0.1-0.1,0.2-0.2,0.3-0.3s0.3-0.1,0.4-0.1c0.2,0,0.4,0.1,0.6,0.2c0.2,0.1,0.4,0.3,0.7,0.4c0.2,0.1,0.5,0.3,0.8,0.4
		c0.3,0.1,0.7,0.2,1.1,0.2c0.6,0,1-0.1,1.4-0.4c0.3-0.3,0.5-0.7,0.5-1.2c0-0.3-0.1-0.6-0.3-0.8c-0.2-0.2-0.4-0.4-0.7-0.5
		c-0.3-0.1-0.6-0.2-1-0.4c-0.4-0.1-0.7-0.2-1.1-0.3c-0.4-0.1-0.8-0.3-1.1-0.5c-0.4-0.2-0.7-0.4-1-0.7c-0.3-0.3-0.5-0.7-0.7-1.1
		s-0.3-1-0.3-1.6c0-0.5,0.1-1,0.3-1.5c0.2-0.5,0.5-0.9,0.9-1.3c0.4-0.4,0.9-0.7,1.5-0.9c0.6-0.2,1.3-0.3,2-0.3c0.4,0,0.8,0,1.2,0.1
		c0.4,0.1,0.8,0.2,1.1,0.3s0.7,0.3,1,0.5c0.3,0.2,0.6,0.4,0.8,0.6L86.5,113.1z"/>
	<path class="st3" d="M88,110.3h2.6c0.3,0,0.5,0.1,0.7,0.2c0.2,0.1,0.3,0.3,0.4,0.5l2.7,7.4c0.1,0.3,0.2,0.7,0.4,1
		c0.1,0.4,0.2,0.8,0.3,1.2c0.1-0.4,0.2-0.8,0.3-1.2s0.2-0.7,0.3-1l2.6-7.4c0.1-0.2,0.2-0.3,0.4-0.5c0.2-0.1,0.4-0.2,0.7-0.2h2.6
		l-5.5,13.8h-2.9L88,110.3z"/>
	<path class="st3" d="M113,110.3v2.5h-3.9v11.2h-3.2v-11.2h-3.9v-2.5H113z"/>
	<path class="st3" d="M122,113.1c-0.1,0.2-0.2,0.3-0.3,0.3c-0.1,0.1-0.2,0.1-0.4,0.1c-0.1,0-0.3,0-0.5-0.1c-0.2-0.1-0.4-0.2-0.6-0.3
		s-0.5-0.2-0.7-0.3c-0.3-0.1-0.6-0.1-0.9-0.1c-0.6,0-1,0.1-1.3,0.4c-0.3,0.3-0.4,0.6-0.4,1c0,0.3,0.1,0.5,0.3,0.7s0.4,0.3,0.7,0.5
		c0.3,0.1,0.6,0.3,1,0.4c0.4,0.1,0.7,0.2,1.1,0.4c0.4,0.1,0.8,0.3,1.1,0.5c0.4,0.2,0.7,0.4,1,0.7c0.3,0.3,0.5,0.6,0.7,1
		s0.3,0.9,0.3,1.5c0,0.6-0.1,1.2-0.3,1.8c-0.2,0.6-0.5,1-1,1.4s-0.9,0.7-1.5,1c-0.6,0.2-1.3,0.4-2.1,0.4c-0.4,0-0.9,0-1.3-0.1
		c-0.4-0.1-0.9-0.2-1.3-0.4c-0.4-0.2-0.8-0.4-1.2-0.6c-0.4-0.2-0.7-0.5-1-0.7l0.9-1.5c0.1-0.1,0.2-0.2,0.3-0.3
		c0.1-0.1,0.3-0.1,0.4-0.1c0.2,0,0.4,0.1,0.6,0.2c0.2,0.1,0.4,0.3,0.7,0.4c0.2,0.1,0.5,0.3,0.8,0.4c0.3,0.1,0.7,0.2,1.1,0.2
		c0.6,0,1-0.1,1.4-0.4c0.3-0.3,0.5-0.7,0.5-1.2c0-0.3-0.1-0.6-0.3-0.8c-0.2-0.2-0.4-0.4-0.7-0.5s-0.6-0.2-1-0.4
		c-0.4-0.1-0.7-0.2-1.1-0.3c-0.4-0.1-0.8-0.3-1.1-0.5c-0.4-0.2-0.7-0.4-1-0.7s-0.5-0.7-0.7-1.1c-0.2-0.4-0.3-1-0.3-1.6
		c0-0.5,0.1-1,0.3-1.5c0.2-0.5,0.5-0.9,0.9-1.3c0.4-0.4,0.9-0.7,1.5-0.9c0.6-0.2,1.3-0.3,2-0.3c0.4,0,0.8,0,1.2,0.1
		c0.4,0.1,0.8,0.2,1.1,0.3s0.7,0.3,1,0.5s0.6,0.4,0.8,0.6L122,113.1z"/>
</g>
<g>
	<path class="st3" d="M30.5,134.9c0,0.9-0.2,1.8-0.5,2.6c-0.3,0.8-0.8,1.5-1.3,2.1c-0.6,0.6-1.2,1-2,1.4c-0.8,0.3-1.7,0.5-2.6,0.5
		c-1,0-1.9-0.2-2.7-0.5c-0.8-0.3-1.5-0.8-2.1-1.4c-0.6-0.6-1-1.3-1.3-2.1c-0.3-0.8-0.5-1.7-0.5-2.6c0-0.9,0.2-1.8,0.5-2.6
		c0.3-0.8,0.8-1.5,1.3-2.1s1.3-1,2.1-1.4c0.8-0.3,1.7-0.5,2.7-0.5c1,0,1.9,0.2,2.6,0.5c0.8,0.3,1.5,0.8,2,1.4c0.6,0.6,1,1.3,1.3,2.1
		C30.4,133.1,30.5,134,30.5,134.9z M28.1,134.9c0-0.7-0.1-1.3-0.3-1.9c-0.2-0.6-0.5-1-0.8-1.4c-0.3-0.4-0.8-0.7-1.3-0.9
		s-1.1-0.3-1.7-0.3s-1.2,0.1-1.7,0.3s-0.9,0.5-1.3,0.9c-0.4,0.4-0.6,0.9-0.8,1.4c-0.2,0.6-0.3,1.2-0.3,1.9c0,0.7,0.1,1.3,0.3,1.9
		c0.2,0.6,0.5,1,0.8,1.4c0.4,0.4,0.8,0.7,1.3,0.9c0.5,0.2,1.1,0.3,1.7,0.3c0.6,0,1.2-0.1,1.7-0.3c0.5-0.2,0.9-0.5,1.3-0.9
		c0.3-0.4,0.6-0.9,0.8-1.4S28.1,135.6,28.1,134.9z"/>
	<path class="st3" d="M32.3,141.3v-13.2h2.2v5.2c0.4-0.4,0.8-0.7,1.2-0.9c0.5-0.2,1-0.3,1.6-0.3c0.5,0,0.9,0.1,1.4,0.3
		c0.4,0.2,0.8,0.5,1.1,0.9c0.3,0.4,0.5,0.9,0.7,1.4c0.2,0.6,0.2,1.2,0.2,2c0,0.7-0.1,1.3-0.3,1.9c-0.2,0.6-0.4,1.1-0.8,1.5
		c-0.3,0.4-0.8,0.8-1.2,1c-0.5,0.2-1,0.4-1.6,0.4c-0.3,0-0.5,0-0.8-0.1s-0.4-0.1-0.6-0.2c-0.2-0.1-0.4-0.2-0.5-0.4
		c-0.2-0.1-0.3-0.3-0.5-0.5l-0.1,0.6c0,0.2-0.1,0.3-0.2,0.3c-0.1,0.1-0.2,0.1-0.4,0.1L32.3,141.3L32.3,141.3z M36.6,133.8
		c-0.5,0-0.8,0.1-1.2,0.3c-0.3,0.2-0.6,0.5-0.9,0.8v4.1c0.2,0.3,0.5,0.5,0.8,0.6c0.3,0.1,0.6,0.2,1,0.2c0.3,0,0.6-0.1,0.9-0.2
		c0.3-0.1,0.5-0.3,0.7-0.6s0.3-0.6,0.4-1c0.1-0.4,0.2-0.8,0.2-1.4c0-0.5,0-1-0.1-1.4c-0.1-0.4-0.2-0.7-0.4-0.9
		c-0.2-0.2-0.4-0.4-0.6-0.5C37.1,133.8,36.9,133.8,36.6,133.8z"/>
	<path class="st3" d="M47.8,134c-0.1,0.1-0.1,0.2-0.2,0.2c-0.1,0-0.1,0.1-0.2,0.1c-0.1,0-0.2,0-0.3-0.1s-0.3-0.1-0.4-0.2
		c-0.2-0.1-0.3-0.1-0.5-0.2c-0.2-0.1-0.4-0.1-0.7-0.1c-0.4,0-0.8,0.1-1,0.3c-0.2,0.2-0.4,0.4-0.4,0.7c0,0.2,0.1,0.4,0.2,0.5
		s0.3,0.2,0.5,0.4c0.2,0.1,0.4,0.2,0.7,0.3s0.5,0.2,0.8,0.3c0.3,0.1,0.5,0.2,0.8,0.3s0.5,0.3,0.7,0.5c0.2,0.2,0.4,0.4,0.5,0.7
		s0.2,0.6,0.2,0.9c0,0.4-0.1,0.8-0.2,1.2c-0.2,0.4-0.4,0.7-0.7,1c-0.3,0.3-0.7,0.5-1.1,0.6s-1,0.2-1.6,0.2c-0.3,0-0.6,0-0.9-0.1
		s-0.6-0.1-0.9-0.2c-0.3-0.1-0.5-0.2-0.8-0.4c-0.2-0.1-0.4-0.3-0.6-0.4l0.5-0.8c0.1-0.1,0.1-0.2,0.2-0.2c0.1-0.1,0.2-0.1,0.3-0.1
		c0.1,0,0.3,0,0.4,0.1c0.1,0.1,0.3,0.2,0.4,0.2c0.2,0.1,0.3,0.2,0.6,0.2c0.2,0.1,0.5,0.1,0.8,0.1c0.3,0,0.5,0,0.7-0.1
		c0.2-0.1,0.3-0.1,0.5-0.2c0.1-0.1,0.2-0.2,0.3-0.4s0.1-0.3,0.1-0.4c0-0.2-0.1-0.4-0.2-0.5s-0.3-0.3-0.5-0.4
		c-0.2-0.1-0.4-0.2-0.7-0.3s-0.5-0.2-0.8-0.3c-0.3-0.1-0.6-0.2-0.8-0.3s-0.5-0.3-0.7-0.5s-0.4-0.4-0.5-0.7s-0.2-0.6-0.2-1
		c0-0.4,0.1-0.7,0.2-1.1c0.1-0.3,0.4-0.6,0.7-0.9c0.3-0.2,0.6-0.5,1.1-0.6c0.4-0.1,0.9-0.2,1.5-0.2c0.6,0,1.2,0.1,1.7,0.3
		s0.9,0.5,1.3,0.8L47.8,134z"/>
	<path class="st3" d="M53.9,132.1c0.6,0,1.1,0.1,1.6,0.3c0.5,0.2,0.9,0.4,1.2,0.8c0.3,0.4,0.6,0.8,0.8,1.3c0.2,0.5,0.3,1.1,0.3,1.7
		c0,0.2,0,0.3,0,0.4c0,0.1,0,0.2-0.1,0.3c0,0.1-0.1,0.1-0.2,0.1c-0.1,0-0.1,0-0.2,0h-5.6c0.1,0.9,0.3,1.6,0.8,2.1
		c0.4,0.4,1,0.7,1.7,0.7c0.4,0,0.7,0,0.9-0.1s0.5-0.2,0.7-0.3c0.2-0.1,0.4-0.2,0.5-0.3c0.1-0.1,0.3-0.1,0.4-0.1c0.1,0,0.2,0,0.2,0.1
		c0.1,0,0.1,0.1,0.2,0.1l0.6,0.8c-0.2,0.3-0.5,0.5-0.8,0.7c-0.3,0.2-0.6,0.3-0.9,0.5s-0.7,0.2-1,0.2c-0.3,0-0.7,0.1-1,0.1
		c-0.6,0-1.2-0.1-1.8-0.3c-0.5-0.2-1-0.5-1.4-0.9c-0.4-0.4-0.7-0.9-0.9-1.5c-0.2-0.6-0.3-1.3-0.3-2.1c0-0.6,0.1-1.2,0.3-1.7
		c0.2-0.5,0.5-1,0.9-1.4s0.8-0.7,1.4-1C52.6,132.2,53.2,132.1,53.9,132.1z M53.9,133.6c-0.6,0-1.1,0.2-1.5,0.5
		c-0.4,0.4-0.6,0.9-0.7,1.5h4.1c0-0.3,0-0.6-0.1-0.8s-0.2-0.5-0.4-0.7c-0.2-0.2-0.4-0.3-0.6-0.4S54.3,133.6,53.9,133.6z"/>
	<path class="st3" d="M59.6,141.3v-9.1h1.3c0.2,0,0.4,0,0.5,0.1c0.1,0.1,0.1,0.2,0.2,0.4l0.1,1.1c0.3-0.6,0.7-1,1.1-1.3
		s0.9-0.5,1.5-0.5c0.4,0,0.8,0.1,1.1,0.3l-0.3,1.6c0,0.1-0.1,0.2-0.1,0.2s-0.1,0.1-0.2,0.1c-0.1,0-0.2,0-0.4-0.1
		c-0.2,0-0.4-0.1-0.6-0.1c-0.5,0-0.8,0.1-1.2,0.4c-0.3,0.3-0.6,0.6-0.8,1.1v5.7L59.6,141.3L59.6,141.3z"/>
	<path class="st3" d="M71.4,141.3h-2l-3.6-9.1h1.8c0.2,0,0.3,0,0.4,0.1c0.1,0.1,0.2,0.2,0.2,0.3l1.8,4.9c0.1,0.3,0.2,0.6,0.3,0.8
		c0.1,0.3,0.1,0.5,0.2,0.8c0.1-0.3,0.1-0.5,0.2-0.8c0.1-0.3,0.2-0.5,0.3-0.8l1.8-4.9c0-0.1,0.1-0.2,0.2-0.3c0.1-0.1,0.2-0.1,0.4-0.1
		H75L71.4,141.3z"/>
	<path class="st3" d="M83.4,141.3h-1c-0.2,0-0.4,0-0.5-0.1c-0.1-0.1-0.2-0.2-0.3-0.4l-0.2-0.6c-0.2,0.2-0.5,0.4-0.7,0.5
		s-0.5,0.3-0.7,0.4c-0.2,0.1-0.5,0.2-0.8,0.2c-0.3,0.1-0.6,0.1-0.9,0.1c-0.4,0-0.7-0.1-1.1-0.2s-0.6-0.3-0.8-0.5s-0.4-0.5-0.5-0.8
		c-0.1-0.3-0.2-0.7-0.2-1.1c0-0.3,0.1-0.7,0.3-1c0.2-0.3,0.5-0.6,0.9-0.9c0.4-0.3,1-0.5,1.7-0.7c0.7-0.2,1.6-0.3,2.6-0.3v-0.5
		c0-0.6-0.1-1.1-0.4-1.4s-0.6-0.4-1.1-0.4c-0.4,0-0.6,0-0.9,0.1c-0.2,0.1-0.4,0.2-0.6,0.3c-0.2,0.1-0.3,0.2-0.5,0.3
		c-0.1,0.1-0.3,0.1-0.5,0.1c-0.1,0-0.3,0-0.4-0.1c-0.1-0.1-0.2-0.2-0.3-0.3l-0.4-0.7c1-1,2.3-1.4,3.8-1.4c0.5,0,1,0.1,1.4,0.3
		s0.8,0.4,1.1,0.7c0.3,0.3,0.5,0.7,0.7,1.1s0.2,0.9,0.2,1.4L83.4,141.3L83.4,141.3z M79.2,139.9c0.2,0,0.4,0,0.6-0.1
		s0.4-0.1,0.5-0.2c0.2-0.1,0.3-0.2,0.5-0.3s0.3-0.3,0.5-0.4v-1.5c-0.6,0-1.2,0-1.6,0.1s-0.8,0.2-1,0.3s-0.4,0.3-0.6,0.4
		s-0.2,0.3-0.2,0.5c0,0.4,0.1,0.7,0.3,0.8C78.5,139.9,78.8,139.9,79.2,139.9z"/>
	<path class="st3" d="M88.5,141.4c-0.8,0-1.4-0.2-1.8-0.7c-0.4-0.4-0.6-1.1-0.6-1.8v-5.1h-0.9c-0.1,0-0.2,0-0.3-0.1
		c-0.1-0.1-0.1-0.2-0.1-0.3v-0.9l1.5-0.2l0.5-2.5c0-0.1,0.1-0.2,0.2-0.3c0.1-0.1,0.2-0.1,0.3-0.1h1.1v2.9h2.4v1.6h-2.4v4.9
		c0,0.3,0.1,0.5,0.2,0.7c0.1,0.2,0.3,0.2,0.6,0.2c0.1,0,0.2,0,0.3,0c0.1,0,0.2-0.1,0.2-0.1c0.1,0,0.1-0.1,0.2-0.1c0.1,0,0.1,0,0.2,0
		c0.1,0,0.1,0,0.2,0c0,0,0.1,0.1,0.1,0.1l0.7,1.1c-0.3,0.3-0.7,0.5-1.1,0.6C89.4,141.4,89,141.4,88.5,141.4z"/>
	<path class="st3" d="M96.3,132.1c0.7,0,1.3,0.1,1.8,0.3c0.6,0.2,1,0.5,1.4,0.9c0.4,0.4,0.7,0.9,0.9,1.5c0.2,0.6,0.3,1.2,0.3,1.9
		c0,0.7-0.1,1.4-0.3,1.9c-0.2,0.6-0.5,1.1-0.9,1.5c-0.4,0.4-0.9,0.7-1.4,0.9c-0.6,0.2-1.2,0.3-1.8,0.3c-0.7,0-1.3-0.1-1.9-0.3
		c-0.6-0.2-1-0.5-1.4-0.9s-0.7-0.9-0.9-1.5c-0.2-0.6-0.3-1.2-0.3-1.9c0-0.7,0.1-1.4,0.3-1.9c0.2-0.6,0.5-1.1,0.9-1.5
		c0.4-0.4,0.9-0.7,1.4-0.9C95,132.2,95.6,132.1,96.3,132.1z M96.3,139.8c0.8,0,1.3-0.3,1.7-0.8c0.4-0.5,0.5-1.3,0.5-2.2
		s-0.2-1.7-0.5-2.2c-0.4-0.5-0.9-0.8-1.7-0.8c-0.8,0-1.3,0.3-1.7,0.8c-0.4,0.5-0.5,1.3-0.5,2.2s0.2,1.7,0.5,2.2
		C95,139.5,95.5,139.8,96.3,139.8z"/>
	<path class="st3" d="M102.5,141.3v-9.1h1.3c0.2,0,0.4,0,0.5,0.1c0.1,0.1,0.1,0.2,0.2,0.4l0.1,1.1c0.3-0.6,0.7-1,1.1-1.3
		c0.4-0.3,0.9-0.5,1.5-0.5c0.4,0,0.8,0.1,1.1,0.3L108,134c0,0.1-0.1,0.2-0.1,0.2c-0.1,0-0.1,0.1-0.2,0.1c-0.1,0-0.2,0-0.4-0.1
		c-0.2,0-0.4-0.1-0.6-0.1c-0.5,0-0.8,0.1-1.2,0.4c-0.3,0.3-0.6,0.6-0.8,1.1v5.7L102.5,141.3L102.5,141.3z"/>
	<path class="st3" d="M112.4,129.6c0,0.2,0,0.4-0.1,0.5c-0.1,0.2-0.2,0.3-0.3,0.4c-0.1,0.1-0.3,0.2-0.4,0.3
		c-0.2,0.1-0.4,0.1-0.5,0.1c-0.2,0-0.4,0-0.5-0.1c-0.2-0.1-0.3-0.2-0.4-0.3c-0.1-0.1-0.2-0.3-0.3-0.4c-0.1-0.2-0.1-0.3-0.1-0.5
		c0-0.2,0-0.4,0.1-0.5c0.1-0.2,0.2-0.3,0.3-0.4c0.1-0.1,0.3-0.2,0.4-0.3c0.2-0.1,0.3-0.1,0.5-0.1c0.2,0,0.4,0,0.5,0.1
		c0.2,0.1,0.3,0.2,0.4,0.3c0.1,0.1,0.2,0.3,0.3,0.4C112.3,129.2,112.4,129.4,112.4,129.6z M112,132.2v9.1h-2.2v-9.1H112z"/>
	<path class="st3" d="M118.4,132.1c0.7,0,1.3,0.1,1.8,0.3c0.6,0.2,1,0.5,1.4,0.9c0.4,0.4,0.7,0.9,0.9,1.5s0.3,1.2,0.3,1.9
		c0,0.7-0.1,1.4-0.3,1.9s-0.5,1.1-0.9,1.5s-0.9,0.7-1.4,0.9c-0.6,0.2-1.2,0.3-1.8,0.3c-0.7,0-1.3-0.1-1.9-0.3
		c-0.6-0.2-1-0.5-1.4-0.9c-0.4-0.4-0.7-0.9-0.9-1.5c-0.2-0.6-0.3-1.2-0.3-1.9c0-0.7,0.1-1.4,0.3-1.9c0.2-0.6,0.5-1.1,0.9-1.5
		c0.4-0.4,0.9-0.7,1.4-0.9S117.7,132.1,118.4,132.1z M118.4,139.8c0.8,0,1.3-0.3,1.7-0.8s0.5-1.3,0.5-2.2s-0.2-1.7-0.5-2.2
		s-0.9-0.8-1.7-0.8c-0.8,0-1.3,0.3-1.7,0.8c-0.4,0.5-0.5,1.3-0.5,2.2s0.2,1.7,0.5,2.2C117.1,139.5,117.6,139.8,118.4,139.8z"/>
</g>
</svg>
