<?xml version="1.0" encoding="utf-8"?>
<!-- Generator: Adobe Illustrator 16.0.0, SVG Export Plug-In . SVG Version: 6.00 Build 0)  -->
<!DOCTYPE svg PUBLIC "-//W3C//DTD SVG 1.1//EN" "http://www.w3.org/Graphics/SVG/1.1/DTD/svg11.dtd">
<svg version="1.1" id="Layer_1" xmlns="http://www.w3.org/2000/svg" xmlns:xlink="http://www.w3.org/1999/xlink" x="0px" y="0px"
	 width="352.569px" height="125.045px" viewBox="122.844 122.167 352.569 125.045"
	 enable-background="new 122.844 122.167 352.569 125.045" xml:space="preserve">
<g>
	<g>
		<g>
			<path fill="#231F20" d="M268.423,174.668h-3.72l-0.816,2.649h-2.684l3.941-11.858h3.058l3.806,11.858h-2.854L268.423,174.668z
				 M266.656,167.738h-0.034l-1.409,4.926h2.666L266.656,167.738z"/>
			<path fill="#231F20" d="M278.31,170.693c-0.363-0.147-0.714-0.264-1.054-0.348c-0.34-0.085-0.708-0.129-1.104-0.129
				c-0.351,0-0.605,0.068-0.764,0.204c-0.159,0.137-0.238,0.285-0.238,0.441c0,0.138,0.027,0.253,0.085,0.351
				c0.057,0.096,0.155,0.191,0.298,0.289c0.141,0.096,0.33,0.191,0.568,0.288s0.538,0.212,0.9,0.349
				c0.227,0.091,0.45,0.194,0.671,0.313c0.222,0.119,0.419,0.276,0.595,0.477c0.176,0.198,0.317,0.44,0.425,0.729
				c0.108,0.289,0.161,0.645,0.161,1.062c0,0.498-0.084,0.92-0.255,1.266c-0.17,0.346-0.405,0.626-0.704,0.841
				c-0.301,0.217-0.648,0.373-1.045,0.477c-0.396,0.102-0.816,0.153-1.258,0.153c-0.396,0-0.861-0.028-1.393-0.085
				c-0.533-0.058-1.037-0.172-1.512-0.341l0.067-2.072c0.329,0.191,0.685,0.343,1.07,0.449c0.385,0.108,0.765,0.162,1.138,0.162
				c0.317,0,0.564-0.024,0.74-0.077c0.175-0.051,0.308-0.114,0.398-0.194c0.091-0.079,0.147-0.167,0.17-0.263
				c0.023-0.098,0.033-0.195,0.033-0.299c0-0.191-0.164-0.354-0.492-0.482c-0.328-0.13-0.781-0.314-1.359-0.554
				c-0.237-0.103-0.467-0.227-0.688-0.372c-0.221-0.147-0.416-0.329-0.586-0.545c-0.17-0.215-0.309-0.47-0.416-0.766
				c-0.108-0.294-0.161-0.639-0.161-1.035c0-0.237,0.048-0.51,0.144-0.815c0.096-0.307,0.27-0.596,0.519-0.866
				c0.249-0.272,0.589-0.502,1.019-0.688c0.432-0.188,0.975-0.281,1.632-0.281c0.555,0,1.048,0.04,1.478,0.12
				c0.431,0.079,0.759,0.159,0.985,0.237L278.31,170.693z"/>
			<path fill="#231F20" d="M280.06,172.867c0-0.654,0.09-1.266,0.271-1.825c0.181-0.561,0.444-1.039,0.789-1.436
				c0.346-0.396,0.779-0.708,1.301-0.935c0.521-0.226,1.121-0.341,1.801-0.341s1.279,0.115,1.801,0.341
				c0.521,0.227,0.953,0.538,1.299,0.935c0.346,0.397,0.609,0.875,0.79,1.436c0.181,0.561,0.272,1.171,0.272,1.825
				c0,0.669-0.092,1.284-0.272,1.845c-0.181,0.561-0.444,1.045-0.79,1.452c-0.346,0.407-0.778,0.726-1.299,0.95
				c-0.521,0.229-1.121,0.341-1.801,0.341s-1.28-0.112-1.801-0.341c-0.521-0.226-0.955-0.543-1.301-0.95
				c-0.345-0.407-0.608-0.893-0.789-1.452C280.15,174.151,280.06,173.536,280.06,172.867z M282.846,172.867
				c0,0.873,0.111,1.551,0.332,2.031c0.221,0.481,0.568,0.721,1.045,0.721c0.476,0,0.823-0.238,1.044-0.721
				c0.221-0.481,0.332-1.158,0.332-2.031c0-0.871-0.111-1.54-0.332-2.005c-0.221-0.463-0.568-0.695-1.044-0.695
				c-0.477,0-0.824,0.232-1.045,0.695C282.957,171.327,282.846,171.996,282.846,172.867z"/>
			<path fill="#231F20" d="M296.284,177.08c-0.396,0.103-0.793,0.19-1.189,0.265c-0.396,0.073-0.81,0.109-1.239,0.109
				c-0.567,0-1.065-0.074-1.495-0.221c-0.431-0.146-0.799-0.341-1.104-0.578c-0.307-0.236-0.561-0.512-0.765-0.823
				c-0.204-0.312-0.365-0.635-0.484-0.97c-0.118-0.334-0.203-0.662-0.255-0.983c-0.051-0.323-0.076-0.62-0.076-0.893
				c0-0.681,0.096-1.306,0.289-1.878c0.192-0.571,0.475-1.062,0.85-1.47c0.373-0.407,0.832-0.727,1.376-0.959
				c0.544-0.232,1.166-0.35,1.868-0.35c0.215,0,0.414,0.012,0.595,0.035c0.181,0.023,0.354,0.057,0.519,0.102
				c0.164,0.046,0.328,0.094,0.492,0.145c0.164,0.051,0.343,0.1,0.535,0.145l-0.136,2.021c-0.249-0.09-0.501-0.175-0.757-0.255
				c-0.254-0.079-0.523-0.119-0.807-0.119c-0.509,0-0.903,0.119-1.18,0.356c-0.277,0.237-0.479,0.508-0.604,0.808
				c-0.125,0.301-0.199,0.592-0.221,0.874c-0.023,0.284-0.034,0.465-0.034,0.545c0,0.464,0.065,0.854,0.195,1.172
				c0.13,0.316,0.3,0.572,0.51,0.766c0.209,0.191,0.441,0.328,0.696,0.406c0.255,0.079,0.513,0.119,0.773,0.119
				c0.283,0,0.552-0.043,0.807-0.127c0.255-0.085,0.507-0.174,0.756-0.264L296.284,177.08z"/>
			<path fill="#231F20" d="M297.66,164.578h2.684v2.379h-2.684V164.578z M297.66,168.468h2.684v8.851h-2.684V168.468z"/>
			<path fill="#231F20" d="M302.91,168.893c0.17-0.057,0.371-0.115,0.604-0.179c0.23-0.062,0.473-0.122,0.723-0.178
				c0.25-0.057,0.506-0.104,0.772-0.145c0.266-0.039,0.519-0.061,0.756-0.061c0.78,0,1.419,0.077,1.911,0.23
				c0.492,0.152,0.88,0.373,1.164,0.662c0.281,0.289,0.479,0.634,0.586,1.037c0.105,0.4,0.16,0.846,0.16,1.334v3.227
				c0,0.328,0,0.617,0,0.866c0,0.238,0.003,0.453,0.009,0.646c0.006,0.192,0.015,0.367,0.024,0.526
				c0.013,0.158,0.023,0.312,0.035,0.458h-2.447l-0.066-1.223h-0.034c-0.034,0.136-0.118,0.283-0.255,0.44
				c-0.136,0.159-0.312,0.307-0.525,0.441c-0.215,0.135-0.465,0.249-0.748,0.34c-0.283,0.092-0.584,0.137-0.9,0.137
				c-0.826,0-1.489-0.243-1.986-0.729c-0.5-0.487-0.748-1.139-0.748-1.954c0-0.487,0.088-0.9,0.264-1.24s0.398-0.62,0.67-0.841
				c0.273-0.221,0.576-0.391,0.91-0.51c0.334-0.118,0.662-0.207,0.984-0.264c0.323-0.057,0.623-0.092,0.9-0.102
				c0.277-0.012,0.494-0.019,0.654-0.019h0.814c0-0.418-0.068-0.744-0.204-0.978c-0.136-0.231-0.294-0.401-0.476-0.51
				c-0.182-0.107-0.362-0.169-0.545-0.186c-0.18-0.019-0.321-0.026-0.424-0.026c-0.34,0-0.703,0.051-1.088,0.153
				c-0.385,0.101-0.844,0.312-1.375,0.629L302.91,168.893z M307.14,173.055c-0.271,0-0.566,0.012-0.884,0.033
				c-0.316,0.022-0.614,0.085-0.892,0.188c-0.279,0.103-0.511,0.255-0.697,0.458c-0.187,0.205-0.279,0.493-0.279,0.867
				c0,0.295,0.051,0.519,0.152,0.671c0.103,0.153,0.218,0.267,0.349,0.34s0.258,0.116,0.382,0.128s0.215,0.018,0.271,0.018
				c0.058,0,0.173-0.016,0.349-0.043c0.176-0.028,0.356-0.11,0.544-0.246c0.188-0.137,0.352-0.352,0.492-0.646
				c0.143-0.294,0.213-0.714,0.213-1.257V173.055z"/>
			<path fill="#231F20" d="M317.671,177.08c-0.395,0.103-0.793,0.19-1.188,0.265c-0.396,0.073-0.809,0.109-1.239,0.109
				c-0.566,0-1.064-0.074-1.494-0.221c-0.432-0.146-0.799-0.341-1.104-0.578c-0.305-0.236-0.562-0.512-0.765-0.823
				c-0.203-0.312-0.365-0.635-0.484-0.97c-0.117-0.334-0.203-0.662-0.254-0.983c-0.051-0.323-0.077-0.62-0.077-0.893
				c0-0.681,0.097-1.306,0.289-1.878c0.192-0.571,0.476-1.062,0.851-1.47c0.373-0.407,0.832-0.727,1.375-0.959
				c0.545-0.232,1.166-0.35,1.869-0.35c0.215,0,0.414,0.012,0.594,0.035c0.183,0.023,0.354,0.057,0.52,0.102
				c0.164,0.046,0.328,0.094,0.492,0.145c0.164,0.051,0.344,0.1,0.535,0.145l-0.137,2.021c-0.248-0.09-0.5-0.175-0.756-0.255
				c-0.255-0.079-0.522-0.119-0.807-0.119c-0.51,0-0.904,0.119-1.182,0.356c-0.276,0.237-0.479,0.508-0.604,0.808
				c-0.124,0.301-0.197,0.592-0.221,0.874c-0.021,0.284-0.034,0.465-0.034,0.545c0,0.464,0.065,0.854,0.194,1.172
				c0.131,0.316,0.302,0.572,0.511,0.766c0.209,0.192,0.44,0.328,0.696,0.406c0.255,0.079,0.513,0.119,0.772,0.119
				c0.283,0,0.552-0.043,0.808-0.127c0.254-0.085,0.506-0.174,0.756-0.264L317.671,177.08z"/>
			<path fill="#231F20" d="M319.048,164.578h2.686v2.379h-2.686V164.578z M319.048,168.468h2.686v8.851h-2.686V168.468z"/>
			<path fill="#231F20" d="M323.464,172.867c0-0.654,0.092-1.266,0.271-1.825c0.182-0.561,0.445-1.039,0.791-1.436
				c0.346-0.396,0.777-0.708,1.299-0.935c0.521-0.226,1.121-0.341,1.801-0.341s1.279,0.115,1.801,0.341
				c0.521,0.227,0.955,0.538,1.301,0.935s0.607,0.875,0.791,1.436c0.18,0.561,0.27,1.171,0.27,1.825c0,0.669-0.09,1.284-0.27,1.845
				c-0.184,0.561-0.445,1.045-0.791,1.452s-0.777,0.726-1.301,0.95c-0.52,0.229-1.121,0.341-1.801,0.341s-1.279-0.112-1.801-0.341
				c-0.521-0.226-0.953-0.543-1.299-0.95s-0.609-0.893-0.791-1.452C323.556,174.151,323.464,173.536,323.464,172.867z
				 M326.251,172.867c0,0.873,0.109,1.551,0.33,2.031c0.221,0.481,0.57,0.721,1.045,0.721c0.479,0,0.824-0.238,1.045-0.721
				c0.223-0.481,0.332-1.158,0.332-2.031c0-0.871-0.109-1.54-0.332-2.005c-0.221-0.463-0.566-0.695-1.045-0.695
				c-0.475,0-0.824,0.232-1.045,0.695C326.361,171.327,326.251,171.996,326.251,172.867z M327.22,164.985h2.346l-1.699,2.479h-1.564
				L327.22,164.985z"/>
			<path fill="#231F20" d="M338.33,171.865c0-0.555-0.104-0.926-0.312-1.112c-0.211-0.187-0.451-0.279-0.725-0.279
				c-0.43,0-0.732,0.169-0.908,0.51c-0.176,0.34-0.264,0.798-0.264,1.376v4.96h-2.684v-6.999c0-0.43-0.006-0.79-0.018-1.079
				s-0.027-0.546-0.051-0.772h2.445c0.021,0.192,0.041,0.413,0.051,0.662c0.012,0.25,0.018,0.521,0.018,0.816h0.035
				c0.203-0.488,0.494-0.878,0.873-1.173c0.381-0.294,0.922-0.442,1.623-0.442c0.486,0,0.898,0.085,1.232,0.256
				c0.334,0.17,0.602,0.399,0.807,0.688c0.203,0.289,0.348,0.627,0.434,1.011c0.084,0.385,0.127,0.798,0.127,1.241v5.792h-2.684
				V171.865L338.33,171.865z"/>
			<path fill="#231F20" d="M355.181,175.33c0,0.283,0.004,0.527,0.01,0.731c0.006,0.202,0.01,0.381,0.016,0.534
				c0.006,0.152,0.012,0.285,0.02,0.399c0.006,0.112,0.014,0.222,0.023,0.321h-2.547c-0.023-0.169-0.041-0.37-0.053-0.603
				s-0.018-0.501-0.018-0.809h-0.033c-0.068,0.137-0.158,0.293-0.271,0.468c-0.113,0.177-0.264,0.347-0.449,0.51
				c-0.188,0.166-0.42,0.301-0.697,0.408c-0.275,0.107-0.607,0.161-0.992,0.161c-0.498,0-0.941-0.116-1.326-0.348
				s-0.709-0.559-0.977-0.979c-0.268-0.418-0.469-0.924-0.604-1.512c-0.137-0.589-0.203-1.233-0.203-1.937
				c0-0.589,0.055-1.15,0.17-1.684c0.111-0.531,0.293-0.994,0.543-1.384c0.248-0.392,0.572-0.702,0.967-0.935
				c0.396-0.232,0.873-0.35,1.43-0.35c0.623,0,1.117,0.143,1.484,0.426c0.369,0.283,0.631,0.623,0.791,1.019h0.033v-5.198h2.686
				v10.757H355.181z M349.865,172.902c0,0.227,0.008,0.489,0.025,0.789c0.018,0.301,0.068,0.587,0.152,0.858
				c0.084,0.271,0.215,0.501,0.391,0.688c0.176,0.188,0.416,0.279,0.723,0.279c0.271,0,0.496-0.087,0.672-0.263
				c0.174-0.177,0.312-0.396,0.416-0.662c0.102-0.269,0.17-0.55,0.203-0.851c0.035-0.301,0.051-0.58,0.051-0.841
				c0-0.352-0.02-0.689-0.059-1.02c-0.041-0.328-0.107-0.621-0.205-0.875c-0.096-0.256-0.232-0.458-0.406-0.612
				c-0.176-0.152-0.4-0.229-0.672-0.229c-0.295,0-0.529,0.076-0.705,0.229c-0.176,0.154-0.307,0.356-0.391,0.612
				c-0.086,0.254-0.139,0.547-0.162,0.875C349.876,172.212,349.865,172.551,349.865,172.902z"/>
			<path fill="#231F20" d="M364.593,173.598h-5.215c0,0.261,0.041,0.514,0.127,0.756c0.084,0.244,0.219,0.46,0.398,0.646
				c0.182,0.188,0.412,0.338,0.688,0.45c0.277,0.112,0.605,0.169,0.979,0.169c0.465,0,0.916-0.069,1.352-0.212
				c0.436-0.141,0.818-0.303,1.146-0.482l0.051,2.021c-0.43,0.158-0.889,0.282-1.375,0.373c-0.488,0.092-0.963,0.137-1.428,0.137
				c-0.781,0-1.453-0.112-2.016-0.341c-0.559-0.226-1.023-0.54-1.393-0.94c-0.367-0.403-0.641-0.886-0.814-1.444
				c-0.176-0.561-0.264-1.181-0.264-1.861c0-0.588,0.084-1.156,0.254-1.707c0.172-0.549,0.422-1.033,0.758-1.452
				c0.332-0.419,0.744-0.753,1.23-1.003c0.486-0.249,1.047-0.374,1.682-0.374c0.137,0,0.324,0.01,0.562,0.026
				c0.236,0.017,0.5,0.067,0.789,0.152c0.287,0.085,0.58,0.219,0.875,0.399c0.295,0.183,0.561,0.445,0.799,0.791
				c0.236,0.345,0.434,0.781,0.586,1.308c0.152,0.525,0.229,1.175,0.229,1.943V173.598L364.593,173.598z M362.146,172.138
				c0-0.283-0.02-0.555-0.059-0.815c-0.041-0.261-0.113-0.493-0.221-0.697c-0.109-0.204-0.252-0.364-0.436-0.483
				c-0.182-0.119-0.406-0.179-0.68-0.179c-0.34,0-0.604,0.091-0.789,0.272c-0.188,0.181-0.322,0.393-0.408,0.638
				c-0.086,0.242-0.137,0.486-0.152,0.729c-0.018,0.244-0.025,0.423-0.025,0.536H362.146L362.146,172.138z"/>
			<path fill="#231F20" d="M370.658,165.459h2.785v8.002c0,0.601,0.119,1.069,0.357,1.409c0.238,0.342,0.641,0.511,1.205,0.511
				c0.566,0,0.969-0.169,1.207-0.511c0.238-0.34,0.357-0.81,0.357-1.409v-8.002h2.785v7.561c0,1.474-0.393,2.591-1.174,3.354
				c-0.779,0.766-1.84,1.146-3.176,1.146c-1.338,0-2.396-0.382-3.178-1.146s-1.172-1.882-1.172-3.354v-7.561H370.658z"/>
			<path fill="#231F20" d="M386.185,171.865c0-0.555-0.105-0.926-0.314-1.112s-0.449-0.279-0.723-0.279
				c-0.43,0-0.732,0.169-0.908,0.51c-0.176,0.34-0.264,0.798-0.264,1.376v4.96h-2.684v-6.999c0-0.43-0.006-0.79-0.018-1.079
				c-0.014-0.289-0.029-0.546-0.053-0.772h2.447c0.021,0.192,0.039,0.413,0.051,0.662c0.012,0.25,0.018,0.521,0.018,0.816h0.035
				c0.203-0.488,0.494-0.878,0.873-1.173c0.381-0.294,0.922-0.442,1.623-0.442c0.486,0,0.896,0.085,1.23,0.256
				c0.334,0.17,0.604,0.399,0.809,0.688c0.201,0.289,0.348,0.627,0.434,1.011c0.084,0.385,0.127,0.798,0.127,1.241v5.792h-2.684
				V171.865L386.185,171.865z"/>
			<path fill="#231F20" d="M390.822,164.578h2.686v2.379h-2.686V164.578z M390.822,168.468h2.686v8.851h-2.686V168.468z"/>
			<path fill="#231F20" d="M394.595,168.468h2.785l1.631,6.303h0.033l1.615-6.303h2.615l-2.77,8.851h-3.16L394.595,168.468z"/>
			<path fill="#231F20" d="M411.82,173.598h-5.215c0,0.261,0.043,0.514,0.127,0.756c0.086,0.244,0.219,0.46,0.398,0.646
				c0.182,0.188,0.412,0.338,0.689,0.45c0.275,0.112,0.602,0.169,0.977,0.169c0.465,0,0.914-0.069,1.352-0.212
				c0.436-0.141,0.816-0.303,1.145-0.482l0.051,2.021c-0.43,0.158-0.889,0.282-1.375,0.373c-0.486,0.092-0.963,0.137-1.428,0.137
				c-0.781,0-1.451-0.112-2.014-0.341c-0.561-0.226-1.023-0.54-1.393-0.94c-0.369-0.403-0.641-0.886-0.814-1.444
				c-0.176-0.561-0.266-1.181-0.266-1.861c0-0.588,0.086-1.156,0.258-1.707c0.17-0.549,0.42-1.033,0.756-1.452
				c0.332-0.419,0.744-0.753,1.229-1.003c0.488-0.249,1.049-0.374,1.684-0.374c0.137,0,0.322,0.01,0.561,0.026
				c0.238,0.016,0.502,0.067,0.791,0.152s0.58,0.219,0.875,0.399c0.293,0.183,0.561,0.445,0.799,0.791
				c0.236,0.345,0.434,0.781,0.586,1.308c0.152,0.525,0.229,1.175,0.229,1.943V173.598L411.82,173.598z M409.375,172.138
				c0-0.283-0.02-0.555-0.061-0.815c-0.039-0.261-0.113-0.493-0.221-0.697c-0.107-0.204-0.252-0.364-0.434-0.483
				s-0.408-0.179-0.68-0.179c-0.34,0-0.604,0.091-0.789,0.272c-0.188,0.181-0.322,0.393-0.408,0.638
				c-0.084,0.242-0.135,0.486-0.152,0.729c-0.018,0.244-0.025,0.423-0.025,0.536H409.375L409.375,172.138z"/>
			<path fill="#231F20" d="M413.4,170.319c0-0.43-0.006-0.79-0.018-1.079s-0.027-0.546-0.051-0.772h2.447
				c0.01,0.261,0.02,0.526,0.033,0.798c0.012,0.272,0.021,0.538,0.033,0.799h0.033c0.137-0.237,0.271-0.461,0.4-0.67
				c0.129-0.211,0.281-0.395,0.457-0.554c0.176-0.157,0.391-0.282,0.646-0.373c0.254-0.09,0.574-0.137,0.959-0.137h0.391v2.481
				c-0.146-0.034-0.285-0.061-0.416-0.077c-0.131-0.016-0.291-0.024-0.484-0.024c-0.395,0-0.707,0.076-0.934,0.229
				c-0.227,0.153-0.402,0.357-0.527,0.611c-0.125,0.255-0.203,0.542-0.236,0.857c-0.035,0.317-0.053,0.635-0.053,0.951v3.958h-2.684
				v-6.998H413.4z"/>
			<path fill="#231F20" d="M425.105,170.693c-0.361-0.147-0.713-0.264-1.053-0.348c-0.34-0.085-0.709-0.129-1.104-0.129
				c-0.354,0-0.607,0.068-0.766,0.204c-0.158,0.137-0.238,0.285-0.238,0.441c0,0.138,0.027,0.253,0.086,0.351
				c0.057,0.096,0.156,0.191,0.297,0.289c0.141,0.096,0.332,0.191,0.57,0.288c0.236,0.097,0.537,0.212,0.898,0.349
				c0.229,0.091,0.451,0.194,0.672,0.313s0.418,0.276,0.596,0.477c0.174,0.198,0.316,0.44,0.424,0.729s0.162,0.645,0.162,1.062
				c0,0.498-0.086,0.92-0.256,1.266s-0.404,0.626-0.705,0.841c-0.301,0.217-0.648,0.373-1.045,0.477
				c-0.396,0.102-0.814,0.153-1.258,0.153c-0.395,0-0.859-0.028-1.393-0.085c-0.533-0.058-1.037-0.172-1.512-0.341l0.066-2.072
				c0.328,0.191,0.686,0.343,1.07,0.449c0.385,0.108,0.764,0.162,1.139,0.162c0.316,0,0.562-0.024,0.738-0.077
				c0.176-0.051,0.309-0.114,0.4-0.194c0.09-0.079,0.146-0.167,0.17-0.263c0.021-0.098,0.031-0.195,0.031-0.299
				c0-0.191-0.164-0.354-0.49-0.482c-0.33-0.13-0.781-0.314-1.359-0.554c-0.238-0.103-0.467-0.227-0.689-0.372
				c-0.221-0.147-0.416-0.329-0.586-0.545c-0.17-0.215-0.309-0.47-0.416-0.766c-0.107-0.294-0.16-0.639-0.16-1.035
				c0-0.237,0.047-0.51,0.145-0.815c0.096-0.307,0.27-0.596,0.52-0.866c0.246-0.272,0.588-0.502,1.018-0.688
				c0.432-0.188,0.975-0.281,1.633-0.281c0.555,0,1.047,0.04,1.479,0.12c0.43,0.079,0.758,0.159,0.984,0.237L425.105,170.693z"/>
			<path fill="#231F20" d="M427.16,164.578h2.686v2.379h-2.686V164.578z M427.16,168.468h2.686v8.851h-2.686V168.468z"/>
			<path fill="#231F20" d="M439.681,175.33c0,0.283,0.004,0.527,0.01,0.731c0.006,0.202,0.012,0.381,0.018,0.534
				c0.006,0.152,0.012,0.285,0.018,0.399c0.006,0.112,0.014,0.222,0.025,0.321h-2.549c-0.023-0.169-0.039-0.37-0.051-0.603
				c-0.014-0.233-0.018-0.501-0.018-0.809h-0.033c-0.068,0.137-0.158,0.293-0.271,0.468c-0.113,0.177-0.264,0.347-0.451,0.51
				c-0.186,0.166-0.418,0.301-0.695,0.408s-0.609,0.161-0.994,0.161c-0.498,0-0.939-0.116-1.326-0.348
				c-0.385-0.231-0.709-0.559-0.977-0.979c-0.266-0.418-0.467-0.924-0.604-1.512c-0.135-0.589-0.203-1.233-0.203-1.937
				c0-0.589,0.057-1.15,0.17-1.684c0.113-0.531,0.295-0.994,0.543-1.384c0.25-0.392,0.572-0.702,0.969-0.935
				c0.396-0.233,0.871-0.35,1.428-0.35c0.623,0,1.119,0.143,1.486,0.426c0.367,0.283,0.631,0.623,0.789,1.019H437v-5.198h2.684
				v10.757H439.681z M434.365,172.902c0,0.227,0.008,0.489,0.025,0.789c0.016,0.301,0.066,0.587,0.152,0.858
				c0.084,0.271,0.215,0.501,0.391,0.688c0.176,0.188,0.416,0.279,0.723,0.279c0.271,0,0.494-0.087,0.67-0.263
				c0.176-0.177,0.314-0.396,0.416-0.662c0.104-0.269,0.17-0.55,0.205-0.851c0.033-0.301,0.051-0.58,0.051-0.841
				c0-0.352-0.02-0.689-0.059-1.02c-0.041-0.328-0.109-0.621-0.205-0.875c-0.096-0.256-0.232-0.458-0.408-0.612
				c-0.176-0.152-0.398-0.229-0.67-0.229c-0.295,0-0.529,0.076-0.705,0.229c-0.176,0.154-0.307,0.356-0.391,0.612
				c-0.086,0.254-0.141,0.547-0.162,0.875C434.376,172.212,434.365,172.551,434.365,172.902z"/>
			<path fill="#231F20" d="M442.162,168.893c0.17-0.057,0.371-0.115,0.605-0.179c0.229-0.062,0.471-0.122,0.721-0.178
				c0.25-0.057,0.506-0.104,0.771-0.145c0.268-0.039,0.52-0.061,0.758-0.061c0.779,0,1.418,0.077,1.91,0.23
				c0.492,0.152,0.881,0.373,1.164,0.662c0.281,0.289,0.479,0.634,0.586,1.037c0.107,0.4,0.16,0.846,0.16,1.334v3.227
				c0,0.328,0,0.617,0,0.866c0,0.238,0.004,0.453,0.008,0.646c0.008,0.191,0.016,0.367,0.027,0.526
				c0.012,0.158,0.021,0.312,0.033,0.458h-2.447l-0.066-1.223h-0.033c-0.033,0.136-0.119,0.283-0.256,0.44
				c-0.137,0.159-0.312,0.307-0.525,0.441c-0.215,0.135-0.465,0.249-0.748,0.34c-0.283,0.092-0.582,0.137-0.898,0.137
				c-0.828,0-1.49-0.243-1.988-0.729c-0.498-0.487-0.748-1.139-0.748-1.954c0-0.487,0.088-0.9,0.264-1.24s0.398-0.62,0.672-0.841
				s0.574-0.391,0.908-0.51c0.334-0.118,0.662-0.207,0.986-0.264c0.32-0.057,0.621-0.092,0.898-0.102
				c0.277-0.012,0.496-0.019,0.654-0.019h0.814c0-0.418-0.066-0.744-0.203-0.978c-0.137-0.231-0.295-0.401-0.477-0.51
				c-0.182-0.107-0.361-0.169-0.545-0.186c-0.18-0.019-0.322-0.026-0.424-0.026c-0.34,0-0.703,0.051-1.088,0.153
				c-0.385,0.101-0.844,0.312-1.375,0.629L442.162,168.893z M446.39,173.055c-0.27,0-0.564,0.012-0.883,0.033
				c-0.316,0.022-0.613,0.085-0.893,0.188c-0.277,0.103-0.508,0.255-0.695,0.458c-0.188,0.205-0.281,0.493-0.281,0.867
				c0,0.295,0.053,0.519,0.154,0.671c0.102,0.153,0.217,0.267,0.348,0.34s0.258,0.116,0.383,0.128s0.215,0.018,0.271,0.018
				c0.055,0,0.172-0.016,0.35-0.043c0.174-0.028,0.355-0.11,0.543-0.246c0.186-0.136,0.352-0.352,0.492-0.646
				c0.143-0.294,0.211-0.714,0.211-1.257V173.055z"/>
			<path fill="#231F20" d="M458.556,175.33c0,0.283,0.004,0.527,0.01,0.731c0.006,0.202,0.01,0.381,0.016,0.534
				c0.006,0.152,0.012,0.285,0.018,0.399c0.006,0.112,0.016,0.222,0.025,0.321h-2.549c-0.023-0.169-0.039-0.37-0.051-0.603
				s-0.018-0.501-0.018-0.809h-0.035c-0.066,0.137-0.156,0.293-0.27,0.468c-0.113,0.177-0.264,0.347-0.451,0.51
				c-0.186,0.166-0.418,0.301-0.695,0.408s-0.609,0.161-0.994,0.161c-0.498,0-0.939-0.116-1.324-0.348s-0.711-0.559-0.979-0.979
				c-0.266-0.418-0.467-0.924-0.604-1.512c-0.135-0.589-0.203-1.233-0.203-1.937c0-0.589,0.057-1.15,0.17-1.684
				c0.113-0.531,0.295-0.994,0.545-1.384c0.248-0.392,0.57-0.702,0.967-0.935c0.396-0.232,0.873-0.35,1.428-0.35
				c0.623,0,1.119,0.143,1.486,0.426c0.369,0.283,0.631,0.623,0.789,1.019h0.035v-5.198h2.684V175.33L458.556,175.33z
				 M453.238,172.902c0,0.227,0.008,0.489,0.025,0.789c0.018,0.301,0.068,0.587,0.152,0.858c0.084,0.271,0.215,0.501,0.391,0.688
				c0.176,0.188,0.416,0.279,0.723,0.279c0.271,0,0.496-0.087,0.672-0.263c0.174-0.177,0.312-0.396,0.416-0.662
				c0.102-0.269,0.17-0.55,0.203-0.851c0.035-0.301,0.051-0.58,0.051-0.841c0-0.352-0.02-0.689-0.059-1.02
				c-0.039-0.328-0.107-0.621-0.205-0.875c-0.096-0.256-0.232-0.458-0.406-0.612c-0.176-0.152-0.4-0.229-0.672-0.229
				c-0.295,0-0.529,0.076-0.705,0.229c-0.176,0.154-0.305,0.356-0.391,0.612c-0.086,0.254-0.139,0.547-0.162,0.875
				C453.25,172.212,453.238,172.551,453.238,172.902z"/>
			<path fill="#231F20" d="M467.966,173.598h-5.215c0,0.261,0.043,0.514,0.127,0.756c0.084,0.244,0.219,0.46,0.398,0.646
				c0.182,0.188,0.412,0.338,0.688,0.45c0.277,0.112,0.604,0.169,0.979,0.169c0.465,0,0.914-0.069,1.35-0.212
				c0.438-0.141,0.818-0.303,1.146-0.482l0.051,2.021c-0.43,0.158-0.889,0.282-1.375,0.373c-0.486,0.092-0.963,0.137-1.428,0.137
				c-0.781,0-1.451-0.112-2.014-0.341c-0.561-0.226-1.023-0.54-1.393-0.94c-0.369-0.403-0.641-0.886-0.816-1.444
				c-0.176-0.561-0.262-1.181-0.262-1.861c0-0.588,0.084-1.156,0.254-1.707c0.17-0.549,0.422-1.033,0.756-1.452
				s0.744-0.753,1.232-1.003c0.486-0.249,1.047-0.374,1.682-0.374c0.137,0,0.322,0.01,0.561,0.026
				c0.238,0.017,0.502,0.067,0.791,0.152s0.578,0.219,0.875,0.399c0.293,0.183,0.561,0.445,0.799,0.791
				c0.236,0.345,0.432,0.781,0.586,1.308c0.152,0.526,0.229,1.175,0.229,1.943V173.598L467.966,173.598z M465.519,172.138
				c0-0.283-0.02-0.555-0.059-0.815c-0.041-0.261-0.113-0.493-0.221-0.697c-0.109-0.204-0.252-0.364-0.436-0.483
				c-0.182-0.119-0.406-0.179-0.68-0.179c-0.34,0-0.604,0.091-0.789,0.272c-0.188,0.181-0.322,0.393-0.408,0.638
				c-0.084,0.242-0.135,0.486-0.152,0.729c-0.018,0.244-0.023,0.423-0.023,0.536H465.519L465.519,172.138z"/>
			<path fill="#231F20" d="M474.812,170.693c-0.361-0.147-0.713-0.264-1.053-0.348c-0.34-0.085-0.709-0.129-1.104-0.129
				c-0.352,0-0.607,0.068-0.766,0.204c-0.158,0.137-0.238,0.285-0.238,0.441c0,0.138,0.027,0.253,0.086,0.351
				c0.057,0.096,0.156,0.191,0.297,0.289c0.141,0.096,0.332,0.191,0.57,0.288c0.236,0.097,0.537,0.212,0.898,0.349
				c0.229,0.091,0.451,0.194,0.672,0.313s0.418,0.276,0.596,0.477c0.174,0.198,0.316,0.44,0.424,0.729s0.162,0.645,0.162,1.062
				c0,0.498-0.086,0.92-0.256,1.266s-0.404,0.626-0.705,0.841c-0.301,0.217-0.648,0.373-1.045,0.477
				c-0.396,0.102-0.814,0.153-1.258,0.153c-0.395,0-0.859-0.028-1.393-0.085c-0.533-0.058-1.037-0.172-1.512-0.341l0.066-2.072
				c0.328,0.191,0.686,0.343,1.07,0.449c0.385,0.108,0.764,0.162,1.139,0.162c0.316,0,0.562-0.024,0.738-0.077
				c0.176-0.051,0.309-0.114,0.4-0.194c0.09-0.079,0.146-0.167,0.17-0.263c0.021-0.098,0.031-0.195,0.031-0.299
				c0-0.191-0.164-0.354-0.49-0.482c-0.328-0.13-0.781-0.314-1.359-0.554c-0.238-0.103-0.467-0.227-0.689-0.372
				c-0.221-0.147-0.416-0.329-0.586-0.545c-0.17-0.215-0.309-0.47-0.416-0.766c-0.107-0.294-0.16-0.639-0.16-1.035
				c0-0.237,0.047-0.51,0.145-0.815c0.096-0.307,0.268-0.596,0.518-0.866c0.248-0.272,0.59-0.502,1.02-0.688
				c0.432-0.188,0.975-0.281,1.633-0.281c0.555,0,1.047,0.04,1.479,0.12c0.43,0.079,0.758,0.159,0.984,0.237L474.812,170.693z"/>
		</g>
		<g>
			<g>
				<path fill="#231F20" d="M268.26,193.267h5.674v8.65c-0.43,0.199-1.1,0.391-2.006,0.576c-0.908,0.186-2.016,0.277-3.322,0.277
					c-0.753,0-1.576-0.117-2.467-0.348c-0.893-0.23-1.727-0.656-2.502-1.279c-0.777-0.623-1.424-1.479-1.938-2.572
					c-0.516-1.092-0.773-2.498-0.773-4.221c0-0.982,0.146-1.967,0.438-2.951c0.292-0.982,0.769-1.867,1.43-2.65
					c0.661-0.785,1.522-1.42,2.583-1.904s2.361-0.729,3.898-0.729c0.953,0,1.771,0.074,2.456,0.221s1.272,0.289,1.765,0.428
					l-0.23,3.16c-0.4-0.188-0.908-0.381-1.522-0.588c-0.616-0.209-1.339-0.312-2.168-0.312c-1,0-1.811,0.199-2.434,0.6
					c-0.622,0.4-1.106,0.889-1.453,1.465c-0.346,0.578-0.58,1.178-0.703,1.799c-0.123,0.623-0.185,1.164-0.185,1.627
					c0,0.754,0.088,1.453,0.266,2.098c0.176,0.646,0.441,1.211,0.795,1.697c0.354,0.482,0.797,0.863,1.326,1.141
					c0.531,0.277,1.157,0.416,1.88,0.416c0.569,0,1.007-0.076,1.315-0.23v-3.645h-2.123V193.267L268.26,193.267z"/>
				<path fill="#231F20" d="M276.77,186.396h5.904c0.661,0,1.287,0.076,1.88,0.23c0.592,0.152,1.114,0.395,1.568,0.727
					c0.453,0.33,0.811,0.76,1.072,1.291c0.262,0.531,0.393,1.164,0.393,1.902c0,0.17-0.021,0.438-0.059,0.809
					c-0.038,0.369-0.161,0.76-0.369,1.176c-0.207,0.414-0.526,0.807-0.957,1.178c-0.431,0.367-1.037,0.629-1.822,0.783v0.045
					c0.293,0.031,0.546,0.102,0.762,0.207c0.215,0.107,0.407,0.268,0.576,0.475c0.17,0.209,0.323,0.477,0.461,0.807
					c0.139,0.33,0.285,0.734,0.438,1.211l1.661,5.26h-3.967l-1.246-4.312c-0.153-0.553-0.308-0.977-0.461-1.268
					c-0.154-0.295-0.322-0.51-0.508-0.646c-0.184-0.139-0.402-0.219-0.657-0.242c-0.253-0.021-0.55-0.035-0.888-0.035v6.504h-3.782
					L276.77,186.396L276.77,186.396z M280.414,193.267h1.177c0.738,0,1.291-0.205,1.66-0.621c0.369-0.416,0.554-0.914,0.554-1.5
					c0-0.168-0.023-0.367-0.069-0.6c-0.046-0.232-0.142-0.453-0.288-0.668c-0.146-0.217-0.369-0.396-0.668-0.541
					c-0.301-0.146-0.704-0.221-1.211-0.221h-1.154L280.414,193.267L280.414,193.267z"/>
				<path fill="#231F20" d="M290.285,186.396h3.783v10.863c0,0.812,0.161,1.451,0.484,1.912c0.322,0.463,0.868,0.693,1.637,0.693
					c0.77,0,1.315-0.23,1.638-0.693c0.323-0.461,0.485-1.1,0.485-1.912v-10.863h3.781v10.264c0,1.998-0.53,3.518-1.592,4.555
					c-1.061,1.037-2.499,1.559-4.312,1.559s-3.252-0.521-4.312-1.559c-1.061-1.037-1.592-2.557-1.592-4.555V186.396L290.285,186.396
					z"/>
				<path fill="#231F20" d="M304.976,186.396h5.143c1.724,0,3.071,0.414,4.049,1.244c0.977,0.832,1.465,2.123,1.465,3.875
					c0,0.693-0.098,1.346-0.288,1.961c-0.192,0.615-0.496,1.154-0.911,1.615s-0.941,0.83-1.579,1.105
					c-0.639,0.275-1.396,0.414-2.272,0.414h-1.82v5.883h-3.783v-16.098H304.976z M309.82,193.798c0.584,0,1.068-0.195,1.453-0.586
					c0.383-0.395,0.576-0.967,0.576-1.721c0-0.799-0.186-1.379-0.555-1.74c-0.367-0.361-0.93-0.543-1.684-0.543h-0.99v4.59H309.82z"
					/>
				<path fill="#231F20" d="M317.337,194.445c0-1.184,0.141-2.283,0.416-3.299c0.277-1.014,0.695-1.895,1.258-2.641
					c0.562-0.744,1.271-1.328,2.135-1.752c0.857-0.424,1.865-0.637,3.02-0.637c1.152,0,2.158,0.213,3.021,0.637
					c0.859,0.424,1.574,1.008,2.145,1.752c0.568,0.746,0.992,1.627,1.268,2.641c0.277,1.016,0.416,2.115,0.416,3.299
					s-0.139,2.283-0.416,3.297c-0.275,1.018-0.697,1.896-1.268,2.643s-1.285,1.33-2.145,1.752c-0.861,0.424-1.867,0.637-3.021,0.637
					s-2.162-0.213-3.02-0.637c-0.861-0.422-1.572-1.006-2.135-1.752s-0.98-1.625-1.258-2.643
					C317.476,196.728,317.337,195.628,317.337,194.445z M321.212,194.445c0,0.77,0.051,1.496,0.15,2.18
					c0.1,0.686,0.266,1.279,0.496,1.787s0.533,0.906,0.91,1.199s0.842,0.439,1.396,0.439c0.553,0,1.018-0.146,1.395-0.439
					s0.68-0.691,0.91-1.199s0.4-1.104,0.508-1.787s0.162-1.41,0.162-2.18s-0.055-1.496-0.162-2.18s-0.275-1.279-0.508-1.787
					c-0.23-0.508-0.533-0.906-0.91-1.199s-0.842-0.438-1.395-0.438c-0.555,0-1.02,0.145-1.396,0.438s-0.68,0.691-0.91,1.199
					s-0.396,1.104-0.496,1.787S321.212,193.675,321.212,194.445z"/>
				<path fill="#231F20" d="M352.74,189.763h-0.045l-3.621,12.73h-2.49l-3.482-12.73h-0.047v12.73h-3.459v-16.1h5.695l2.605,10.355
					h0.047l2.814-10.355h5.441v16.1h-3.459V189.763L352.74,189.763z"/>
				<path fill="#231F20" d="M358.783,194.445c0-1.184,0.139-2.283,0.414-3.299c0.277-1.014,0.697-1.895,1.258-2.641
					c0.561-0.744,1.271-1.328,2.133-1.752s1.869-0.637,3.021-0.637s2.16,0.213,3.021,0.637s1.576,1.008,2.145,1.752
					c0.568,0.746,0.992,1.627,1.27,2.641c0.277,1.016,0.414,2.115,0.414,3.299s-0.137,2.283-0.414,3.297
					c-0.275,1.018-0.699,1.896-1.27,2.643c-0.568,0.746-1.283,1.33-2.145,1.752c-0.861,0.424-1.869,0.637-3.021,0.637
					s-2.16-0.213-3.021-0.637c-0.859-0.422-1.572-1.006-2.133-1.752s-0.98-1.625-1.258-2.643
					C358.921,196.728,358.783,195.628,358.783,194.445z M362.658,194.445c0,0.77,0.049,1.496,0.148,2.18
					c0.102,0.686,0.266,1.279,0.496,1.787s0.533,0.906,0.91,1.199s0.842,0.439,1.396,0.439s1.02-0.146,1.396-0.439
					s0.682-0.691,0.91-1.199c0.23-0.508,0.4-1.104,0.508-1.787s0.162-1.41,0.162-2.18s-0.055-1.496-0.162-2.18
					s-0.275-1.279-0.508-1.787c-0.229-0.508-0.533-0.906-0.91-1.199s-0.842-0.438-1.396-0.438s-1.02,0.145-1.396,0.438
					s-0.68,0.691-0.91,1.199s-0.396,1.104-0.496,1.787S362.658,193.675,362.658,194.445z"/>
				<path fill="#231F20" d="M374.974,186.396h4.43l4.682,11.162h0.045v-11.162h3.322v16.098h-4.475l-4.637-11.646h-0.047v11.646
					h-3.32V186.396z"/>
				<path fill="#231F20" d="M392.779,189.302h-3.506v-2.906h10.793v2.906h-3.506v13.191h-3.781V189.302L392.779,189.302z"/>
				<path fill="#231F20" d="M401.957,186.396h9.295v2.812h-5.648v3.6h5.373v2.811h-5.373v4.062h5.926v2.812h-9.57v-16.098H401.957z"
					/>
				<path fill="#231F20" d="M412.589,186.396h4.061l2.838,11.738h0.045l2.906-11.738h3.875l-4.867,16.098h-4.061L412.589,186.396z"
					/>
				<path fill="#231F20" d="M428.019,186.396h3.781v16.098h-3.781V186.396z"/>
				<path fill="#231F20" d="M434.845,186.396h5.721c0.906,0,1.791,0.143,2.65,0.426c0.861,0.285,1.631,0.75,2.309,1.396
					c0.676,0.645,1.219,1.486,1.627,2.525c0.406,1.037,0.609,2.318,0.609,3.84c0,1.385-0.213,2.574-0.635,3.574
					c-0.424,1-0.982,1.822-1.684,2.469c-0.699,0.646-1.516,1.117-2.445,1.42c-0.93,0.299-1.902,0.447-2.916,0.447h-5.236V186.396
					L434.845,186.396z M438.628,199.681h1.199c0.691,0,1.287-0.127,1.787-0.383c0.5-0.252,0.91-0.605,1.232-1.061
					c0.324-0.453,0.562-0.992,0.717-1.613c0.152-0.623,0.23-1.305,0.23-2.041c0-1.66-0.336-2.973-1.004-3.934
					c-0.67-0.961-1.734-1.441-3.195-1.441h-0.969v10.473H438.628z"/>
				<path fill="#231F20" d="M450.228,186.396h9.295v2.812h-5.65v3.6h5.373v2.811h-5.373v4.062h5.928v2.812h-9.57v-16.098H450.228z"
					/>
				<path fill="#231F20" d="M461.736,194.445c0-1.184,0.139-2.283,0.416-3.299c0.275-1.014,0.695-1.895,1.258-2.641
					c0.561-0.744,1.271-1.328,2.133-1.752s1.867-0.637,3.021-0.637c1.152,0,2.158,0.213,3.02,0.637s1.576,1.008,2.146,1.752
					c0.568,0.746,0.99,1.627,1.268,2.641c0.277,1.016,0.416,2.115,0.416,3.299s-0.139,2.283-0.416,3.297
					c-0.275,1.018-0.699,1.896-1.268,2.643c-0.57,0.746-1.285,1.33-2.146,1.752c-0.859,0.424-1.867,0.637-3.02,0.637
					c-1.154,0-2.16-0.213-3.021-0.637c-0.861-0.422-1.572-1.006-2.133-1.752c-0.562-0.746-0.98-1.625-1.258-2.643
					C461.875,196.728,461.736,195.628,461.736,194.445z M465.611,194.445c0,0.77,0.051,1.496,0.15,2.18
					c0.1,0.686,0.266,1.279,0.496,1.787s0.533,0.906,0.91,1.199s0.842,0.439,1.396,0.439c0.553,0,1.018-0.146,1.395-0.439
					s0.68-0.691,0.91-1.199s0.4-1.104,0.508-1.787s0.162-1.41,0.162-2.18s-0.055-1.496-0.162-2.18s-0.277-1.279-0.508-1.787
					s-0.533-0.906-0.91-1.199s-0.842-0.438-1.395-0.438c-0.557,0-1.021,0.145-1.396,0.438c-0.377,0.293-0.68,0.691-0.91,1.199
					s-0.396,1.104-0.496,1.787S465.611,193.675,465.611,194.445z"/>
			</g>
		</g>
	</g>
	<g>
		<path fill="#D72127" d="M182.971,134.827c0-2.762,1.073-5.002,2.397-5.002c1.323,0,2.397,2.24,2.397,5.002
			c0,0.935,0.039,12.172,0.074,22.188c1.214,0.108,2.405,0.292,3.568,0.552c-0.093-9.443-0.219-22.506-0.219-24.599
			c0-5.394-2.606-10.8-5.821-10.8c-3.216,0-5.821,5.406-5.821,10.8c0,2.093-0.126,15.155-0.219,24.599
			c1.163-0.26,2.354-0.443,3.569-0.552C182.932,146.998,182.971,135.761,182.971,134.827z"/>
		<path fill="#F7C445" d="M187.765,234.554c0,2.764-1.074,5.004-2.397,5.004c-1.324,0-2.397-2.24-2.397-5.004
			c0-0.936-0.038-12.17-0.073-22.188c-1.215-0.107-2.406-0.293-3.569-0.551c0.093,9.443,0.219,22.506,0.219,24.6
			c0,5.395,2.605,10.797,5.821,10.797c3.215,0,5.821-5.402,5.821-10.797c0-2.094,0.126-15.154,0.219-24.6
			c-1.163,0.258-2.354,0.443-3.568,0.551C187.805,222.384,187.765,233.621,187.765,234.554z"/>
		<path fill="#009E4A" d="M135.504,187.087c-2.762,0-5.002-1.073-5.002-2.396s2.24-2.396,5.002-2.396
			c0.934,0,12.172-0.039,22.188-0.074c0.106-1.215,0.291-2.407,0.55-3.57c-9.444,0.094-22.506,0.221-24.6,0.221
			c-5.393,0-10.798,2.605-10.798,5.821c0,3.213,5.405,5.821,10.798,5.821c2.094,0,15.155,0.127,24.6,0.221
			c-0.259-1.166-0.443-2.354-0.55-3.57C147.676,187.128,136.437,187.087,135.504,187.087z"/>
		<path fill="#1378BD" d="M235.231,182.294c2.763,0,5.003,1.073,5.003,2.396s-2.24,2.397-5.003,2.397
			c-0.934,0-12.172,0.039-22.188,0.072c-0.106,1.217-0.292,2.406-0.55,3.572c9.443-0.094,22.506-0.223,24.6-0.223
			c5.393,0,10.798-2.605,10.798-5.82c0-3.216-5.405-5.821-10.798-5.821c-2.094,0-15.156-0.127-24.6-0.221
			c0.258,1.163,0.443,2.355,0.55,3.57C223.059,182.255,234.298,182.294,235.231,182.294z"/>
		<path fill="#1378BD" d="M158.36,142.707c-1.382-2.394-1.573-4.868-0.426-5.532c1.146-0.662,3.194,0.741,4.577,3.135
			c0.467,0.809,6.12,10.522,11.158,19.178c1.104-0.514,2.229-0.95,3.367-1.309c-4.803-8.131-11.444-19.38-12.491-21.194
			c-2.696-4.67-7.656-8.048-10.44-6.439c-2.783,1.606-2.338,7.591,0.357,12.261c1.049,1.814,7.47,13.188,12.109,21.413
			c0.88-0.805,1.819-1.561,2.816-2.26C164.412,153.267,158.826,143.515,158.36,142.707z"/>
		<path fill="#009E4A" d="M212.375,226.677c1.383,2.393,1.572,4.867,0.427,5.527c-1.147,0.662-3.196-0.738-4.579-3.131
			c-0.465-0.811-6.119-10.521-11.157-19.18c-1.104,0.514-2.229,0.949-3.366,1.309c4.803,8.133,11.443,19.381,12.49,21.195
			c2.696,4.668,7.656,8.047,10.439,6.439c2.785-1.609,2.339-7.594-0.356-12.262c-1.048-1.814-7.47-13.189-12.108-21.416
			c-0.881,0.807-1.819,1.562-2.818,2.264C206.323,216.117,211.91,225.867,212.375,226.677z"/>
		<path fill="#D72127" d="M143.383,211.699c-2.392,1.383-4.868,1.572-5.53,0.426s0.741-3.195,3.134-4.576
			c0.809-0.467,10.521-6.119,19.178-11.16c-0.514-1.104-0.95-2.229-1.309-3.365c-8.132,4.803-19.381,11.443-21.193,12.49
			c-4.67,2.695-8.049,7.656-6.441,10.439c1.608,2.785,7.592,2.34,12.262-0.355c1.813-1.049,13.188-7.471,21.414-12.109
			c-0.806-0.879-1.562-1.816-2.26-2.816C153.943,205.646,144.191,211.232,143.383,211.699z"/>
		<path fill="#F7C445" d="M227.353,157.684c2.392-1.381,4.869-1.572,5.531-0.425c0.661,1.146-0.742,3.194-3.135,4.575
			c-0.81,0.468-10.522,6.121-19.179,11.161c0.515,1.104,0.95,2.229,1.31,3.363c8.131-4.802,19.381-11.442,21.193-12.489
			c4.67-2.696,8.049-7.655,6.44-10.44c-1.606-2.783-7.593-2.339-12.261,0.357c-1.814,1.049-13.189,7.47-21.416,12.11
			c0.807,0.878,1.563,1.819,2.262,2.816C216.792,163.735,226.545,158.15,227.353,157.684z"/>
		<path fill="#F7C445" d="M140.986,161.833c-2.393-1.381-3.796-3.429-3.134-4.575c0.662-1.147,3.138-0.956,5.53,0.425
			c0.809,0.467,10.561,6.052,19.254,11.029c0.697-0.997,1.454-1.938,2.26-2.816c-8.226-4.641-19.601-11.062-21.414-12.11
			c-4.67-2.696-10.654-3.141-12.262-0.357c-1.607,2.785,1.771,7.744,6.441,10.44c1.812,1.047,13.062,7.688,21.192,12.489
			c0.359-1.136,0.796-2.26,1.31-3.363C151.508,167.955,141.795,162.302,140.986,161.833z"/>
		<path fill="#D72127" d="M229.75,207.546c2.393,1.381,3.796,3.43,3.135,4.578c-0.662,1.145-3.141,0.955-5.531-0.426
			c-0.809-0.467-10.562-6.053-19.254-11.029c-0.698,1-1.455,1.938-2.262,2.816c8.227,4.639,19.602,11.062,21.416,12.109
			c4.67,2.695,10.653,3.141,12.261,0.355c1.606-2.783-1.771-7.744-6.44-10.439c-1.812-1.047-13.062-7.688-21.193-12.49
			c-0.359,1.139-0.795,2.262-1.31,3.365C219.227,201.429,228.94,207.08,229.75,207.546z"/>
		<path fill="#1378BD" d="M162.512,229.074c-1.381,2.395-3.431,3.795-4.577,3.133c-1.147-0.66-0.956-3.137,0.426-5.529
			c0.466-0.811,6.052-10.561,11.028-19.252c-0.997-0.699-1.937-1.457-2.816-2.264c-4.64,8.229-11.061,19.602-12.109,21.416
			c-2.695,4.67-3.141,10.652-0.357,12.262c2.784,1.607,7.744-1.771,10.44-6.439c1.047-1.814,7.688-13.062,12.49-21.193
			c-1.137-0.359-2.262-0.797-3.366-1.311C168.632,218.552,162.978,228.265,162.512,229.074z"/>
		<path fill="#009E4A" d="M208.223,140.31c1.383-2.394,3.432-3.797,4.579-3.135c1.146,0.664,0.956,3.139-0.427,5.532
			c-0.465,0.808-6.052,10.56-11.027,19.252c0.997,0.699,1.937,1.455,2.816,2.262c4.639-8.227,11.061-19.601,12.108-21.415
			c2.695-4.67,3.142-10.654,0.356-12.261c-2.783-1.608-7.743,1.77-10.439,6.439c-1.048,1.814-7.688,13.063-12.49,21.194
			c1.137,0.358,2.262,0.795,3.366,1.309C202.103,150.832,207.757,141.119,208.223,140.31z"/>
	</g>
</g>
</svg>
