<?xml version="1.0" encoding="utf-8"?>
<!-- Generator: Adobe Illustrator 16.0.0, SVG Export Plug-In . SVG Version: 6.00 Build 0)  -->
<!DOCTYPE svg PUBLIC "-//W3C//DTD SVG 1.1//EN" "http://www.w3.org/Graphics/SVG/1.1/DTD/svg11.dtd">
<svg version="1.1" id="Layer_1" xmlns="http://www.w3.org/2000/svg" xmlns:xlink="http://www.w3.org/1999/xlink" x="0px" y="0px"
	 width="304.83px" height="139.762px" viewBox="0 0 304.83 139.762" enable-background="new 0 0 304.83 139.762"
	 xml:space="preserve">
<g>
	<rect x="0" fill="#096569" width="304.83" height="139.762"/>
	<g>
		<path fill="#FFFFFF" d="M31.803,33.571v26.704h46.301V33.571H31.803z M53.671,44.176h-3.125v-1.125c0-1.252-0.196-2.07-1.519-2.07
			c-1.328,0-1.636,0.818-1.636,2.07v7.711c0,1.25,0.385,2.076,1.636,2.076c1.245,0,1.519-0.826,1.519-2.076v-1.554h3.125v1.519
			c0,3.008-1.645,4.565-4.644,4.565s-4.754-1.559-4.754-4.565v-7.676c0-3.007,1.755-4.523,4.754-4.523c3,0,4.644,1.518,4.644,4.523
			V44.176z M59.556,54.941h-3.118V44.176h3.118V54.941z M57.997,42.19c-1.015,0-1.832-0.825-1.832-1.839
			c0-1.008,0.816-1.824,1.832-1.824c1.014,0,1.832,0.816,1.832,1.824C59.829,41.365,59.011,42.19,57.997,42.19z M72.763,54.941
			h-3.16l-3.936-9.01v9.01h-2.922v-16.03h3.152l3.943,9.71v-9.71h2.922V54.941L72.763,54.941z"/>
	</g>
	<path fill="#FFFFFF" d="M100.083,42.143c3.629,0,6.181-1.596,6.181-7.047c0-4.881-2.315-6.14-6.565-6.14h-4.83v13.187H100.083z
		 M112.444,60.303h-4.684l-6.565-14.631h-6.326v14.631h-4.3V25.335h10.864c7.249,0,9.277,4.642,9.277,9.515
		c0,5.216-2.272,8.312-5.607,9.711L112.444,60.303z"/>
	<path fill="#FFFFFF" d="M129.103,45.622c0-4.299-0.965-7.299-4.488-7.299c-2.901,0-5.075,2.37-5.265,7.299H129.103z
		 M114.855,47.895c0-9.424,4.544-12.898,9.858-12.898c6.375,0,8.688,4.588,8.688,10.768c0,0.972-0.042,1.938-0.194,2.901h-13.905
		c0.098,6.326,2.076,8.738,5.648,8.738c2.853,0,4.062-1.784,4.587-4.489l3.67,0.82c-0.916,4.543-3.67,7.15-8.543,7.15
		C117.316,60.885,114.855,55.326,114.855,47.895"/>
	<path fill="#FFFFFF" d="M151.656,54.753V40.646c-1.447-1.153-3.04-2.077-5.216-2.077c-4.053,0-4.879,4.153-4.879,9.76
		c0,6.565,1.397,9.032,4.831,9.032C148.229,57.361,150.257,56.151,151.656,54.753 M137.024,48.469
		c0-8.551,2.846-13.474,8.549-13.474c2.992,0,4.824,1.203,6.082,2.272v-13.43h4.299v36.465h-3.669l-0.288-2.371l-0.098-0.041
		c-1.788,1.783-4.103,2.992-6.62,2.992C139.1,60.885,137.024,56.104,137.024,48.469"/>
	<polygon fill="#FFFFFF" points="168.699,60.303 161.073,33.6 165.799,33.6 171.501,56.34 171.693,56.34 177.151,33.6 181.548,33.6 
		174.452,60.303 	"/>
	<rect x="186.904" y="33.6" fill="#FFFFFF" width="4.301" height="26.703"/>
	<polygon fill="#FFFFFF" points="203.858,60.303 203.858,37.169 196.903,37.169 196.903,33.6 215.056,33.6 215.056,37.169 
		208.149,37.169 208.149,60.303 	"/>
	<polygon fill="#FFFFFF" points="225.005,56.727 235.729,56.727 235.729,60.303 220.705,60.303 220.705,33.6 235.142,33.6 
		235.142,37.122 225.005,37.122 225.005,45.092 234.52,45.092 234.52,48.615 225.005,48.615 	"/>
	<path fill="#FFFFFF" d="M240.939,47.118c0-9.563,4.437-14.01,10.912-14.01c5.559,0,9.081,2.852,9.466,9.18l-3.957,0.435
		c-0.286-4.058-1.978-6.082-5.553-6.082c-4.397,0-6.433,3.906-6.433,10.381c0,6.377,1.692,10.283,6.433,10.283
		c3.277,0,5.168-2.168,5.603-5.402l3.815,0.678c-0.873,6.081-5.312,8.158-9.513,8.158C243.546,60.738,240.939,54.704,240.939,47.118
		"/>
	<path fill="#FFFFFF" d="M93.581,74.062c1.272,0,2.146-0.551,2.146-2.447c0-1.721-0.86-2.104-2.3-2.104h-1.831v4.551H93.581z
		 M97.301,79.753h-1.104l-2.173-4.782h-2.426v4.782h-1.014V68.616h3.334c2.321,0,2.888,1.51,2.888,2.991
		c0,1.671-0.734,2.664-1.845,3.083L97.301,79.753z"/>
	<path fill="#FFFFFF" d="M102.887,75.165c0-1.476-0.35-2.563-1.628-2.563c-1.056,0-1.874,0.832-1.93,2.563H102.887z M98.244,75.83
		c0-3.048,1.462-4.089,3.033-4.089c1.964,0,2.657,1.461,2.657,3.334c0,0.308-0.015,0.601-0.062,0.924h-4.565
		c0.028,2.229,0.771,3.062,2.035,3.062c0.979,0,1.413-0.559,1.594-1.545l0.922,0.188c-0.293,1.449-1.118,2.229-2.6,2.229
		C98.937,79.934,98.244,78.102,98.244,75.83"/>
	<path fill="#FFFFFF" d="M109.927,78.139v-4.756c-0.503-0.433-1.077-0.769-1.888-0.769c-1.405,0-1.728,1.412-1.728,3.351
		c0,2.326,0.524,3.123,1.728,3.123C108.71,79.088,109.451,78.614,109.927,78.139 M105.222,75.999c0-2.657,0.874-4.258,2.72-4.258
		c0.986,0,1.572,0.397,1.985,0.733v-4.336h1.028v11.605h-0.889l-0.062-0.732h-0.028c-0.574,0.539-1.328,0.922-2.104,0.922
		C105.788,79.934,105.222,78.291,105.222,75.999"/>
	<path fill="#FFFFFF" d="M120.239,78.139v-4.756c-0.511-0.433-1.076-0.769-1.895-0.769c-1.392,0-1.72,1.412-1.72,3.351
		c0,2.326,0.518,3.123,1.72,3.123C119.022,79.088,119.763,78.614,120.239,78.139 M115.533,75.999c0-2.657,0.874-4.258,2.721-4.258
		c0.985,0,1.571,0.397,1.984,0.733v-4.336h1.027v11.605h-0.888l-0.062-0.732h-0.036c-0.565,0.539-1.32,0.922-2.104,0.922
		C116.1,79.934,115.533,78.291,115.533,75.999"/>
	<path fill="#FFFFFF" d="M127.627,75.165c0-1.476-0.356-2.563-1.628-2.563c-1.062,0-1.88,0.832-1.943,2.563H127.627z M122.979,75.83
		c0-3.048,1.46-4.089,3.034-4.089c1.964,0,2.664,1.461,2.664,3.334c0,0.308-0.021,0.601-0.063,0.924h-4.563
		c0.028,2.229,0.762,3.062,2.027,3.062c0.979,0,1.412-0.559,1.594-1.545l0.923,0.188c-0.287,1.449-1.119,2.229-2.594,2.229
		C123.678,79.934,122.979,78.102,122.979,75.83"/>
	<polygon fill="#FFFFFF" points="135.478,79.753 132.291,68.617 133.402,68.617 136.17,78.719 138.8,68.617 139.826,68.617 
		136.863,79.753 	"/>
	<path fill="#FFFFFF" d="M141.085,71.895h1.026v7.852h-1.026V71.895z M140.834,69.253c0-0.524,0.279-0.817,0.769-0.817
		c0.481,0,0.755,0.293,0.755,0.817c0,0.517-0.272,0.81-0.755,0.81C141.114,70.062,140.834,69.77,140.834,69.253"/>
	<path fill="#FFFFFF" d="M144.218,71.895h0.887l0.1,0.873c0.691-0.613,1.426-1.025,2.271-1.025c1.412,0,2.243,0.602,2.243,2.629
		v5.375h-1.027v-5.312c0-1.062-0.204-1.769-1.278-1.769c-0.903,0-1.615,0.489-2.167,1.015v6.066h-1.027L144.218,71.895
		L144.218,71.895z"/>
	<path fill="#FFFFFF" d="M151.39,75.881c0-2.867,1.167-4.14,3.104-4.14c1.707,0,2.461,1.092,2.538,2.629l-1,0.14
		c-0.118-1.267-0.606-1.832-1.544-1.832c-1.355,0-2.021,0.924-2.021,3.152c0,2.182,0.72,3.21,1.983,3.21
		c1.016,0,1.524-0.519,1.692-1.769l0.938,0.201c-0.176,1.26-0.847,2.461-2.678,2.461C152.173,79.934,151.39,78.242,151.39,75.881"/>
	<path fill="#FFFFFF" d="M158.612,71.895h1.035v5.41c0,1.231,0.412,1.68,1.244,1.68c0.874,0,1.643-0.538,2.118-1.014v-6.076h1.035
		v7.852h-0.896l-0.078-0.873c-0.628,0.566-1.25,1.033-2.271,1.033c-1.56,0-2.188-0.865-2.188-2.585L158.612,71.895L158.612,71.895z"
		/>
	<rect x="166.191" y="68.141" fill="#FFFFFF" width="1.026" height="11.612"/>
	<path fill="#FFFFFF" d="M173.014,78.055v-1.994c-0.127-0.033-0.504-0.076-0.706-0.076c-0.923,0-2.309,0.076-2.309,1.673
		c0,0.774,0.273,1.467,1.231,1.467C171.949,79.123,172.644,78.626,173.014,78.055 M168.987,77.816c0-2.23,1.644-2.65,3.166-2.65
		c0.379,0,0.734,0.037,0.861,0.064v-0.896c0-1.321-0.398-1.747-1.356-1.747c-1.078,0-1.32,0.475-1.477,1.397l-0.964-0.188
		c0.211-1.455,0.917-2.056,2.439-2.056c1.523,0,2.383,0.554,2.383,2.69v4.055c0,0.434,0.063,0.615,0.407,0.615
		c0.118,0,0.223-0.027,0.398-0.09l0.056,0.662c-0.26,0.155-0.553,0.211-0.861,0.211c-0.565,0-0.913-0.308-0.95-0.966
		c-0.475,0.615-1.201,1.015-2.091,1.015C169.28,79.934,168.987,78.564,168.987,77.816"/>
	<path fill="#FFFFFF" d="M175.775,75.881c0-2.867,1.168-4.14,3.104-4.14c1.711,0,2.461,1.092,2.544,2.629l-1.008,0.14
		c-0.117-1.267-0.614-1.832-1.546-1.832c-1.354,0-2.019,0.924-2.019,3.152c0,2.182,0.728,3.21,1.984,3.21
		c1.014,0,1.518-0.519,1.691-1.769l0.938,0.201c-0.168,1.26-0.847,2.461-2.679,2.461C176.557,79.934,175.775,78.242,175.775,75.881"
		/>
	<path fill="#FFFFFF" d="M183.031,71.895h1.027v7.852h-1.027V71.895z M182.78,69.253c0-0.524,0.28-0.817,0.77-0.817
		c0.476,0,0.762,0.293,0.762,0.817c0,0.517-0.286,0.81-0.762,0.81C183.06,70.062,182.78,69.77,182.78,69.253"/>
	<path fill="#FFFFFF" d="M188.652,70.958l-0.769-0.202l1.308-2.522h1.28L188.652,70.958z M190.757,75.754
		c0-1.936-0.441-3.126-1.916-3.126c-1.698,0-2.05,1.691-2.05,3.23c0,2.104,0.657,3.216,2.033,3.216
		C190.161,79.075,190.757,77.922,190.757,75.754 M185.749,75.859c0-2.951,1.386-4.117,3.133-4.117c2.278,0,2.936,1.748,2.936,4.014
		c0,2.258-0.705,4.18-3.104,4.18C186.213,79.934,185.749,77.703,185.749,75.859"/>
	<path fill="#FFFFFF" d="M193.579,71.895h0.896l0.091,0.873c0.7-0.613,1.425-1.025,2.279-1.025c1.412,0,2.243,0.602,2.243,2.629
		v5.375h-1.035v-5.312c0-1.062-0.193-1.769-1.271-1.769c-0.909,0-1.615,0.489-2.167,1.015v6.066h-1.035L193.579,71.895
		L193.579,71.895z"/>
	<polygon fill="#FFFFFF" points="205.906,79.753 205.906,69.512 203.122,69.512 203.122,68.617 209.659,68.617 209.659,69.512 
		206.934,69.512 206.934,79.753 	"/>
	<path fill="#FFFFFF" d="M213.988,75.165c0-1.476-0.35-2.563-1.629-2.563c-1.057,0-1.874,0.832-1.937,2.563H213.988z M209.345,75.83
		c0-3.048,1.462-4.089,3.026-4.089c1.972,0,2.663,1.461,2.663,3.334c0,0.308-0.014,0.601-0.062,0.924h-4.566
		c0.029,2.229,0.771,3.062,2.028,3.062c0.984,0,1.42-0.559,1.602-1.545l0.923,0.188c-0.294,1.449-1.118,2.229-2.601,2.229
		C210.045,79.934,209.345,78.102,209.345,75.83"/>
	<path fill="#FFFFFF" d="M216.322,75.881c0-2.867,1.169-4.14,3.104-4.14c1.706,0,2.461,1.092,2.538,2.629l-0.999,0.14
		c-0.12-1.267-0.616-1.832-1.554-1.832c-1.349,0-2.015,0.924-2.015,3.152c0,2.182,0.721,3.21,1.987,3.21
		c1.015,0,1.516-0.519,1.684-1.769l0.944,0.201c-0.168,1.26-0.847,2.461-2.679,2.461C217.106,79.934,216.322,78.242,216.322,75.881"
		/>
	<path fill="#FFFFFF" d="M223.559,71.895h0.893l0.094,0.873c0.69-0.613,1.425-1.025,2.271-1.025c1.412,0,2.251,0.602,2.251,2.629
		v5.375h-1.032v-5.312c0-1.062-0.197-1.769-1.273-1.769c-0.908,0-1.614,0.489-2.167,1.015v6.066h-1.033v-7.852H223.559z"/>
	<path fill="#FFFFFF" d="M235.743,75.754c0-1.936-0.44-3.126-1.915-3.126c-1.691,0-2.051,1.691-2.051,3.23
		c0,2.104,0.658,3.216,2.028,3.216C235.142,79.075,235.743,77.922,235.743,75.754 M230.739,75.859c0-2.951,1.382-4.117,3.13-4.117
		c2.281,0,2.938,1.748,2.938,4.014c0,2.258-0.705,4.18-3.104,4.18C231.199,79.934,230.739,77.703,230.739,75.859"/>
	<rect x="238.589" y="68.141" fill="#FFFFFF" width="1.025" height="11.612"/>
	<path fill="#FFFFFF" d="M244.242,70.958l-0.768-0.202l1.308-2.522h1.271L244.242,70.958z M246.35,75.754
		c0-1.936-0.441-3.126-1.925-3.126c-1.692,0-2.041,1.691-2.041,3.23c0,2.104,0.657,3.216,2.026,3.216
		C245.746,79.075,246.35,77.922,246.35,75.754 M241.335,75.859c0-2.951,1.385-4.117,3.139-4.117c2.273,0,2.936,1.748,2.936,4.014
		c0,2.258-0.704,4.18-3.108,4.18C241.797,79.934,241.335,77.703,241.335,75.859"/>
	<path fill="#FFFFFF" d="M251.235,72.587c-0.908,0-1.705,0.566-1.705,1.972c0,1.117,0.53,1.949,1.762,1.949
		c1.014,0,1.712-0.754,1.712-2.074C253.001,73.307,252.415,72.587,251.235,72.587 M252.143,79.662l-2.083-0.141
		c-0.467,0.427-0.791,0.922-0.791,1.566c0,0.69,0.393,1.307,2.045,1.307c1.487,0,2.271-0.615,2.271-1.615
		C253.583,80.18,253.338,79.732,252.143,79.662 M253.247,72.525c0.169-0.482,0.491-0.896,0.979-0.896
		c0.205,0,0.373,0.034,0.56,0.112v0.923c-0.434,0-0.937,0.076-1.279,0.196c0.311,0.432,0.497,0.921,0.497,1.586
		c0,1.873-1.176,2.901-2.601,2.901c-0.49,0-0.908-0.07-1.244-0.195c-0.204,0.23-0.475,0.551-0.475,0.936
		c0,0.273,0.195,0.573,0.846,0.603l1.488,0.092c1.504,0.091,2.552,0.278,2.552,1.972c0,1.979-1.748,2.475-3.306,2.475
		c-1.616,0-3.001-0.538-3.001-1.985c0-0.964,0.533-1.487,1.142-1.894c-0.428-0.226-0.728-0.504-0.728-0.994
		c0-0.697,0.386-1.098,0.84-1.496c-0.54-0.398-1.008-1.09-1.008-2.215c0-1.979,1.294-2.901,2.726-2.901
		C252.222,71.742,252.822,72.034,253.247,72.525"/>
	<path fill="#FFFFFF" d="M256.042,71.895h1.03v7.852h-1.03V71.895z M255.792,69.253c0-0.524,0.28-0.817,0.771-0.817
		c0.474,0,0.754,0.293,0.754,0.817c0,0.517-0.28,0.81-0.754,0.81C256.073,70.062,255.792,69.77,255.792,69.253"/>
	<path fill="#FFFFFF" d="M258.766,75.881c0-2.867,1.159-4.14,3.104-4.14c1.705,0,2.459,1.092,2.538,2.629l-1.001,0.14
		c-0.124-1.267-0.615-1.832-1.554-1.832c-1.355,0-2.011,0.924-2.011,3.152c0,2.182,0.717,3.21,1.978,3.21
		c1.021,0,1.525-0.519,1.692-1.769l0.935,0.201c-0.167,1.26-0.845,2.461-2.669,2.461C259.546,79.934,258.766,78.242,258.766,75.881"
		/>
	<path fill="#FFFFFF" d="M269.398,78.055v-1.994c-0.126-0.033-0.511-0.076-0.705-0.076c-0.925,0-2.307,0.076-2.307,1.673
		c0,0.774,0.278,1.467,1.227,1.467C268.333,79.123,269.029,78.626,269.398,78.055 M265.37,77.816c0-2.23,1.644-2.65,3.167-2.65
		c0.386,0,0.733,0.037,0.859,0.064v-0.896c0-1.321-0.398-1.747-1.35-1.747c-1.083,0-1.326,0.475-1.481,1.397l-0.964-0.188
		c0.21-1.455,0.921-2.056,2.445-2.056c1.518,0,2.376,0.554,2.376,2.69v4.055c0,0.434,0.062,0.615,0.397,0.615
		c0.128,0,0.231-0.027,0.408-0.09l0.062,0.662c-0.268,0.155-0.56,0.211-0.869,0.211c-0.573,0-0.921-0.308-0.951-0.966
		c-0.475,0.615-1.194,1.015-2.09,1.015C265.658,79.934,265.37,78.564,265.37,77.816"/>
	<path fill="#FFFFFF" d="M94.673,95.111v-4.752c-0.511-0.435-1.077-0.771-1.896-0.771c-1.397,0-1.72,1.413-1.72,3.356
		c0,2.312,0.518,3.116,1.72,3.116C93.455,96.062,94.197,95.586,94.673,95.111 M89.967,92.974c0-2.658,0.874-4.267,2.72-4.267
		c0.986,0,1.566,0.406,1.986,0.742v-4.335h1.028v11.612h-0.889l-0.062-0.742h-0.035c-0.566,0.538-1.322,0.923-2.105,0.923
		C90.534,96.908,89.967,95.259,89.967,92.974"/>
	<path fill="#FFFFFF" d="M102.062,92.142c0-1.476-0.356-2.566-1.629-2.566c-1.062,0-1.88,0.833-1.943,2.566H102.062z M97.412,92.805
		c0-3.048,1.461-4.098,3.033-4.098c1.966,0,2.664,1.469,2.664,3.343c0,0.309-0.021,0.602-0.069,0.924h-4.565
		c0.036,2.229,0.771,3.062,2.035,3.062c0.985,0,1.412-0.552,1.594-1.537l0.922,0.182c-0.286,1.445-1.118,2.229-2.594,2.229
		C98.105,96.908,97.412,95.076,97.412,92.805"/>
	<rect x="107.682" y="85.115" fill="#FFFFFF" width="1.028" height="11.612"/>
	<path fill="#FFFFFF" d="M114.506,95.035v-1.999c-0.126-0.028-0.51-0.078-0.706-0.078c-0.93,0-2.309,0.078-2.309,1.679
		c0,0.77,0.28,1.461,1.231,1.461C113.444,96.098,114.136,95.603,114.506,95.035 M110.479,94.79c0-2.237,1.643-2.648,3.167-2.648
		c0.384,0,0.734,0.032,0.86,0.062v-0.895c0-1.321-0.398-1.747-1.356-1.747c-1.068,0-1.32,0.474-1.475,1.396l-0.972-0.188
		c0.224-1.461,0.93-2.057,2.446-2.057c1.524,0,2.384,0.553,2.384,2.691v4.062c0,0.428,0.062,0.615,0.398,0.615
		c0.125,0,0.23-0.034,0.405-0.099l0.056,0.658c-0.259,0.159-0.552,0.224-0.86,0.224c-0.565,0-0.923-0.307-0.95-0.972
		c-0.476,0.613-1.203,1.013-2.09,1.013C110.766,96.908,110.479,95.545,110.479,94.79"/>
	<path fill="#FFFFFF" d="M122.265,90.924l-0.972,0.141c-0.125-1.028-0.502-1.489-1.412-1.489c-1,0-1.356,0.525-1.356,1.321
		c0,2.125,3.86,0.678,3.86,3.804c0,1.244-0.86,2.208-2.524,2.208c-1.468,0-2.397-0.678-2.594-2.397l0.938-0.151
		c0.153,0.922,0.489,1.677,1.72,1.677c0.818,0,1.447-0.32,1.447-1.322c0-0.846-0.398-1.089-1.477-1.396
		c-1.516-0.436-2.397-0.833-2.397-2.343c0-1.566,1.153-2.267,2.397-2.267C121.391,88.707,122.077,89.496,122.265,90.924"/>
	<path fill="#FFFFFF" d="M132.865,93.251V85.59h1.034v7.522c0,2.522-1.062,3.795-3.51,3.795c-1.978,0-3.334-0.812-3.334-3.592
		v-7.727h1.028v7.661c0,2.092,0.754,2.761,2.384,2.761C132.249,96.012,132.865,95.203,132.865,93.251"/>
	<path fill="#FFFFFF" d="M136.213,88.868h0.888l0.097,0.874c0.687-0.615,1.427-1.035,2.272-1.035c1.419,0,2.251,0.608,2.251,2.637
		v5.384h-1.036v-5.32c0-1.063-0.202-1.771-1.279-1.771c-0.901,0-1.614,0.49-2.167,1.015v6.076h-1.027v-7.859H136.213z"/>
	<path fill="#FFFFFF" d="M143.819,88.868h1.028v7.858h-1.028V88.868z M143.567,86.227c0-0.53,0.279-0.818,0.776-0.818
		c0.476,0,0.755,0.288,0.755,0.818c0,0.519-0.279,0.811-0.755,0.811C143.846,87.036,143.567,86.744,143.567,86.227"/>
	<polygon fill="#FFFFFF" points="145.966,88.868 147.09,88.868 149.062,95.567 149.09,95.567 151.054,88.868 152.104,88.868 
		149.656,96.728 148.504,96.728 	"/>
	<path fill="#FFFFFF" d="M157.402,92.142c0-1.476-0.355-2.566-1.629-2.566c-1.062,0-1.88,0.833-1.936,2.566H157.402z
		 M152.759,92.805c0-3.048,1.463-4.098,3.027-4.098c1.964,0,2.663,1.469,2.663,3.343c0,0.309-0.013,0.602-0.062,0.924h-4.564
		c0.027,2.229,0.762,3.062,2.026,3.062c0.984,0,1.413-0.552,1.602-1.537l0.922,0.182c-0.292,1.445-1.125,2.229-2.601,2.229
		C153.45,96.908,152.759,95.076,152.759,92.805"/>
	<path fill="#FFFFFF" d="M163.547,89.805c-0.152-0.027-0.309-0.048-0.447-0.048c-0.771,0-1.461,0.37-1.922,0.909v6.062h-1.028
		v-7.858h0.888l0.111,0.979c0.602-0.979,1.245-1.134,2.028-1.134c0.125,0,0.292,0.015,0.37,0.028V89.805z"/>
	<path fill="#FFFFFF" d="M169.112,90.924l-0.972,0.141c-0.124-1.028-0.503-1.489-1.411-1.489c-1.001,0-1.356,0.525-1.356,1.321
		c0,2.125,3.859,0.678,3.859,3.804c0,1.244-0.86,2.208-2.518,2.208c-1.477,0-2.398-0.678-2.602-2.397l0.937-0.151
		c0.154,0.922,0.497,1.677,1.721,1.677c0.818,0,1.448-0.32,1.448-1.322c0-0.846-0.398-1.089-1.478-1.396
		c-1.522-0.436-2.396-0.833-2.396-2.343c0-1.566,1.152-2.267,2.396-2.267C168.232,88.707,168.923,89.496,169.112,90.924"/>
	<path fill="#FFFFFF" d="M170.923,88.868h1.026v7.858h-1.026V88.868z M170.672,86.227c0-0.53,0.278-0.818,0.774-0.818
		c0.476,0,0.748,0.288,0.748,0.818c0,0.519-0.272,0.811-0.748,0.811C170.95,87.036,170.672,86.744,170.672,86.227"/>
	<path fill="#FFFFFF" d="M178.348,95.111v-4.752c-0.51-0.435-1.077-0.771-1.896-0.771c-1.398,0-1.72,1.413-1.72,3.356
		c0,2.312,0.522,3.116,1.72,3.116C177.131,96.062,177.87,95.586,178.348,95.111 M173.643,92.974c0-2.658,0.873-4.267,2.719-4.267
		c0.985,0,1.572,0.406,1.986,0.742v-4.335h1.025v11.612h-0.887l-0.063-0.742h-0.034c-0.566,0.538-1.321,0.923-2.104,0.923
		C174.207,96.908,173.643,95.259,173.643,92.974"/>
	<path fill="#FFFFFF" d="M185.161,95.035v-1.999c-0.125-0.028-0.502-0.078-0.705-0.078c-0.922,0-2.307,0.078-2.307,1.679
		c0,0.77,0.279,1.461,1.229,1.461C184.101,96.098,184.801,95.603,185.161,95.035 M181.138,94.79c0-2.237,1.642-2.648,3.166-2.648
		c0.385,0,0.732,0.032,0.857,0.062v-0.895c0-1.321-0.397-1.747-1.348-1.747c-1.077,0-1.322,0.474-1.476,1.396l-0.973-0.188
		c0.218-1.461,0.923-2.057,2.447-2.057s2.384,0.553,2.384,2.691v4.062c0,0.428,0.057,0.615,0.397,0.615
		c0.127,0,0.229-0.034,0.397-0.099l0.064,0.658c-0.268,0.159-0.561,0.224-0.86,0.224c-0.565,0-0.924-0.307-0.958-0.972
		c-0.477,0.613-1.195,1.013-2.091,1.013C181.43,96.908,181.138,95.545,181.138,94.79"/>
	<path fill="#FFFFFF" d="M192.63,95.111v-4.752c-0.505-0.435-1.077-0.771-1.89-0.771c-1.396,0-1.726,1.413-1.726,3.356
		c0,2.312,0.523,3.116,1.726,3.116C191.412,96.062,192.154,95.586,192.63,95.111 M187.924,92.974c0-2.658,0.882-4.267,2.728-4.267
		c0.985,0,1.566,0.406,1.979,0.742v-4.335h1.027v11.612h-0.889l-0.062-0.742h-0.027c-0.566,0.538-1.321,0.923-2.104,0.923
		C188.497,96.908,187.924,95.259,187.924,92.974"/>
	<path fill="#FFFFFF" d="M200.02,92.142c0-1.476-0.35-2.566-1.63-2.566c-1.062,0-1.873,0.833-1.937,2.566H200.02z M195.385,92.805
		c0-3.048,1.452-4.098,3.02-4.098c1.972,0,2.663,1.469,2.663,3.343c0,0.309-0.014,0.602-0.062,0.924h-4.566
		c0.029,2.229,0.77,3.062,2.028,3.062c0.984,0,1.419-0.552,1.602-1.537l0.923,0.182c-0.294,1.445-1.125,2.229-2.602,2.229
		C196.07,96.908,195.385,95.076,195.385,92.805"/>
	<path fill="#FFFFFF" d="M207.213,90.924l-0.973,0.141c-0.12-1.028-0.503-1.489-1.412-1.489c-1.001,0-1.349,0.525-1.349,1.321
		c0,2.125,3.858,0.678,3.858,3.804c0,1.244-0.866,2.208-2.523,2.208c-1.476,0-2.398-0.678-2.602-2.397l0.937-0.151
		c0.161,0.922,0.497,1.677,1.728,1.677c0.812,0,1.447-0.32,1.447-1.322c0-0.846-0.405-1.089-1.481-1.396
		c-1.519-0.436-2.398-0.833-2.398-2.343c0-1.566,1.154-2.267,2.398-2.267C206.339,88.707,207.032,89.496,207.213,90.924"/>
	<polygon fill="#FFFFFF" points="96.301,113.701 91.534,103.738 91.534,113.701 90.582,113.701 90.582,102.565 92.029,102.565 
		96.659,112.394 96.659,102.565 97.609,102.565 97.609,113.701 	"/>
	<path fill="#FFFFFF" d="M103.642,112.01v-2c-0.119-0.026-0.511-0.076-0.706-0.076c-0.923,0-2.307,0.076-2.307,1.677
		c0,0.771,0.271,1.455,1.229,1.455C102.578,113.065,103.271,112.576,103.642,112.01 M99.615,111.766c0-2.236,1.645-2.65,3.167-2.65
		c0.386,0,0.741,0.035,0.86,0.062v-0.895c0-1.319-0.398-1.748-1.356-1.748c-1.076,0-1.32,0.476-1.469,1.398l-0.971-0.182
		c0.216-1.461,0.922-2.062,2.439-2.062c1.523,0,2.391,0.552,2.391,2.691v4.062c0,0.426,0.056,0.616,0.397,0.616
		c0.12,0,0.225-0.037,0.399-0.1l0.055,0.655c-0.258,0.162-0.552,0.225-0.853,0.225c-0.573,0-0.93-0.307-0.958-0.972
		c-0.477,0.616-1.202,1.015-2.09,1.015C99.909,113.883,99.615,112.521,99.615,111.766"/>
	<path fill="#FFFFFF" d="M106.403,109.827c0-2.864,1.168-4.139,3.105-4.139c1.706,0,2.46,1.091,2.537,2.629l-0.993,0.141
		c-0.126-1.266-0.615-1.831-1.56-1.831c-1.35,0-2.014,0.921-2.014,3.15c0,2.184,0.72,3.216,1.985,3.216
		c1.014,0,1.523-0.529,1.691-1.767l0.938,0.194c-0.175,1.258-0.846,2.461-2.678,2.461
		C107.193,113.883,106.403,112.191,106.403,109.827"/>
	<path fill="#FFFFFF" d="M113.658,105.844h1.028v7.857h-1.028V105.844z M113.407,103.194c0-0.524,0.28-0.812,0.776-0.812
		c0.477,0,0.748,0.287,0.748,0.812c0,0.524-0.271,0.817-0.748,0.817C113.688,104.012,113.407,103.718,113.407,103.194"/>
	<path fill="#FFFFFF" d="M121.391,109.702c0-1.937-0.447-3.118-1.922-3.118c-1.692,0-2.042,1.686-2.042,3.223
		c0,2.111,0.658,3.216,2.027,3.216C120.791,113.022,121.391,111.869,121.391,109.702 M116.372,109.807
		c0-2.949,1.392-4.117,3.14-4.117c2.271,0,2.936,1.756,2.936,4.014c0,2.259-0.707,4.181-3.104,4.181
		C116.834,113.883,116.372,111.653,116.372,109.807"/>
	<path fill="#FFFFFF" d="M124.217,105.844h0.887l0.091,0.873c0.692-0.615,1.433-1.027,2.278-1.027c1.413,0,2.245,0.603,2.245,2.629
		v5.383h-1.028v-5.319c0-1.062-0.204-1.77-1.279-1.77c-0.908,0-1.615,0.49-2.167,1.015v6.074h-1.027L124.217,105.844
		L124.217,105.844z"/>
	<path fill="#FFFFFF" d="M135.465,112.01v-2c-0.126-0.026-0.51-0.076-0.706-0.076c-0.922,0-2.309,0.076-2.309,1.677
		c0,0.771,0.273,1.455,1.225,1.455C134.403,113.065,135.095,112.576,135.465,112.01 M131.438,111.766c0-2.236,1.636-2.65,3.167-2.65
		c0.384,0,0.734,0.035,0.86,0.062v-0.895c0-1.319-0.398-1.748-1.356-1.748c-1.076,0-1.32,0.476-1.476,1.398l-0.972-0.182
		c0.218-1.461,0.93-2.062,2.446-2.062c1.524,0,2.384,0.552,2.384,2.691v4.062c0,0.426,0.062,0.616,0.398,0.616
		c0.125,0,0.23-0.037,0.398-0.1l0.062,0.655c-0.258,0.162-0.552,0.225-0.86,0.225c-0.565,0-0.923-0.307-0.958-0.972
		c-0.468,0.616-1.195,1.015-2.09,1.015C131.724,113.883,131.438,112.521,131.438,111.766"/>
	<rect x="138.778" y="102.089" fill="#FFFFFF" width="1.028" height="11.611"/>
	<path fill="#FFFFFF" d="M146.174,109.115c0-1.475-0.356-2.565-1.628-2.565c-1.062,0-1.88,0.831-1.944,2.565H146.174z
		 M141.526,109.778c0-3.039,1.461-4.089,3.034-4.089c1.964,0,2.656,1.461,2.656,3.336c0,0.308-0.014,0.601-0.062,0.922h-4.564
		c0.035,2.229,0.769,3.056,2.034,3.056c0.979,0,1.411-0.547,1.594-1.532l0.924,0.184c-0.294,1.447-1.126,2.229-2.594,2.229
		C142.218,113.883,141.526,112.051,141.526,109.778"/>
	<path fill="#FFFFFF" d="M153.362,107.899l-0.965,0.146c-0.126-1.035-0.511-1.496-1.411-1.496c-1.008,0-1.356,0.523-1.356,1.321
		c0,2.125,3.858,0.679,3.858,3.804c0,1.235-0.866,2.209-2.522,2.209c-1.477,0-2.399-0.679-2.602-2.397l0.943-0.154
		c0.153,0.923,0.49,1.672,1.72,1.672c0.812,0,1.447-0.313,1.447-1.32c0-0.848-0.398-1.085-1.477-1.394
		c-1.523-0.434-2.403-0.838-2.403-2.34c0-1.567,1.152-2.26,2.403-2.26C152.488,105.689,153.179,106.473,153.362,107.899"/>
	<path fill="#FFFFFF" d="M162.303,112.085v-4.753c-0.504-0.426-1.076-0.771-1.889-0.771c-1.396,0-1.72,1.421-1.72,3.354
		c0,2.323,0.518,3.12,1.72,3.12C161.094,113.037,161.826,112.562,162.303,112.085 M157.605,109.947c0-2.656,0.875-4.258,2.72-4.258
		c0.979,0,1.565,0.398,1.979,0.732v-4.333h1.035v11.612h-0.896l-0.062-0.74h-0.028c-0.566,0.538-1.321,0.923-2.104,0.923
		C158.171,113.883,157.605,112.241,157.605,109.947"/>
	<path fill="#FFFFFF" d="M169.698,109.115c0-1.475-0.354-2.565-1.627-2.565c-1.062,0-1.881,0.831-1.943,2.565H169.698z
		 M165.049,109.778c0-3.039,1.463-4.089,3.028-4.089c1.973,0,2.662,1.461,2.662,3.336c0,0.308-0.013,0.601-0.062,0.922h-4.564
		c0.033,2.229,0.762,3.056,2.026,3.056c0.986,0,1.413-0.547,1.602-1.532l0.922,0.184c-0.293,1.447-1.124,2.229-2.592,2.229
		C165.741,113.883,165.049,112.051,165.049,109.778"/>
	<path fill="#FFFFFF" d="M178.515,103.417H178.5l-1.602,5.795h3.152L178.515,103.417z M179.205,102.565l3.232,11.136h-1.154
		l-0.973-3.587h-3.689l-0.951,3.587h-1.028l3.181-11.136H179.205z"/>
	<path fill="#FFFFFF" d="M187.345,106.78c-0.146-0.034-0.303-0.041-0.441-0.041c-0.768,0-1.461,0.363-1.922,0.901v6.061h-1.026
		v-7.856h0.888l0.104,0.985c0.602-0.985,1.245-1.141,2.028-1.141c0.125,0,0.292,0.014,0.37,0.026V106.78z"/>
	<path fill="#FFFFFF" d="M190.638,106.534c-0.909,0-1.706,0.567-1.706,1.965c0,1.126,0.538,1.957,1.763,1.957
		c1.021,0,1.704-0.754,1.704-2.075C192.399,107.255,191.818,106.534,190.638,106.534 M191.539,113.604l-2.069-0.135
		c-0.477,0.429-0.805,0.917-0.805,1.567c0,0.69,0.405,1.306,2.049,1.306c1.488,0,2.272-0.614,2.272-1.612
		C192.988,114.128,192.741,113.682,191.539,113.604 M192.651,106.473c0.168-0.477,0.489-0.896,0.986-0.896
		c0.194,0,0.362,0.035,0.552,0.111v0.923c-0.434,0-0.938,0.077-1.272,0.196c0.302,0.432,0.49,0.923,0.49,1.586
		c0,1.881-1.169,2.907-2.603,2.907c-0.488,0-0.9-0.074-1.244-0.201c-0.195,0.229-0.477,0.553-0.477,0.936
		c0,0.28,0.196,0.568,0.848,0.604l1.488,0.09c1.512,0.091,2.554,0.272,2.554,1.972c0,1.978-1.755,2.475-3.31,2.475
		c-1.613,0-2.99-0.535-2.99-1.984c0-0.972,0.519-1.489,1.133-1.889c-0.428-0.236-0.722-0.511-0.722-0.998
		c0-0.693,0.387-1.099,0.833-1.496c-0.539-0.398-1-1.093-1-2.209c0-1.986,1.286-2.909,2.721-2.909
		C191.621,105.689,192.218,105.983,192.651,106.473"/>
	<path fill="#FFFFFF" d="M199.397,109.115c0-1.475-0.356-2.565-1.629-2.565c-1.062,0-1.88,0.831-1.937,2.565H199.397z
		 M194.756,109.778c0-3.039,1.459-4.089,3.025-4.089c1.964,0,2.656,1.461,2.656,3.336c0,0.308-0.015,0.601-0.062,0.922h-4.564
		c0.035,2.229,0.769,3.056,2.034,3.056c0.984,0,1.412-0.547,1.602-1.532l0.922,0.184c-0.294,1.447-1.133,2.229-2.601,2.229
		C195.448,113.883,194.756,112.051,194.756,109.778"/>
	<path fill="#FFFFFF" d="M202.144,105.844h0.889l0.098,0.873c0.688-0.615,1.428-1.027,2.272-1.027c1.412,0,2.243,0.603,2.243,2.629
		v5.383h-1.027v-5.319c0-1.062-0.202-1.77-1.277-1.77c-0.911,0-1.615,0.49-2.168,1.015v6.074h-1.028L202.144,105.844
		L202.144,105.844z"/>
	<path fill="#FFFFFF" d="M213.128,113.422c-0.323,0.26-0.917,0.461-1.539,0.461c-1.286,0-1.859-0.63-1.859-2.104v-5.078h-1.027
		v-0.857h1.027v-2.26l1.034-0.152v2.412h1.826v0.857h-1.826v4.936c0,0.891,0.146,1.338,0.965,1.338c0.447,0,0.91-0.134,1.182-0.335
		L213.128,113.422z"/>
	<path fill="#FFFFFF" d="M214.371,105.844h1.026v7.857h-1.026V105.844z M214.126,103.194c0-0.524,0.272-0.812,0.771-0.812
		c0.475,0,0.754,0.287,0.754,0.812c0,0.524-0.279,0.817-0.754,0.817C214.4,104.012,214.126,103.718,214.126,103.194"/>
	<path fill="#FFFFFF" d="M217.51,105.844h0.889l0.091,0.873c0.691-0.615,1.435-1.027,2.279-1.027c1.412,0,2.243,0.603,2.243,2.629
		v5.383h-1.033v-5.319c0-1.062-0.195-1.77-1.272-1.77c-0.9,0-1.615,0.49-2.168,1.015v6.074h-1.027L217.51,105.844L217.51,105.844z"
		/>
	<path fill="#FFFFFF" d="M228.76,112.01v-2c-0.125-0.026-0.512-0.076-0.715-0.076c-0.915,0-2.301,0.076-2.301,1.677
		c0,0.771,0.273,1.455,1.225,1.455C227.698,113.065,228.388,112.576,228.76,112.01 M224.732,111.766c0-2.236,1.644-2.65,3.159-2.65
		c0.386,0,0.744,0.035,0.869,0.062v-0.895c0-1.319-0.404-1.748-1.356-1.748c-1.077,0-1.322,0.476-1.476,1.398l-0.973-0.182
		c0.218-1.461,0.924-2.062,2.447-2.062c1.524,0,2.383,0.552,2.383,2.691v4.062c0,0.426,0.062,0.616,0.398,0.616
		c0.126,0,0.23-0.037,0.397-0.1l0.062,0.655c-0.257,0.162-0.553,0.225-0.859,0.225c-0.571,0-0.921-0.307-0.958-0.972
		c-0.473,0.616-1.192,1.015-2.083,1.015C225.019,113.883,224.732,112.521,224.732,111.766"/>
</g>
</svg>
