<?xml version="1.0" encoding="utf-8"?>
<!-- Generator: Adobe Illustrator 26.4.1, SVG Export Plug-In . SVG Version: 6.00 Build 0)  -->
<svg version="1.1" id="Layer_1" xmlns="http://www.w3.org/2000/svg" xmlns:xlink="http://www.w3.org/1999/xlink" x="0px" y="0px"
	 viewBox="0 0 250.9 201.6" style="enable-background:new 0 0 250.9 201.6;" xml:space="preserve">
<style type="text/css">
	.st0{fill:#51A1D9;}
	.st1{fill:#4468B0;}
	.st2{fill:url(#SVGID_1_);}
	.st3{fill:url(#SVGID_00000098194744741406623630000002409727275038562185_);}
</style>
<g>
	<path class="st0" d="M0.4,116.5L0.4,116.5c0-7.2,5.3-13,12.7-13c4.5,0,7.3,1.6,9.8,4l-1.9,2.1c-2.1-2-4.5-3.5-7.9-3.5
		c-5.6,0-9.7,4.5-9.7,10.3v0.1c0,5.8,4.2,10.4,9.7,10.4c3.4,0,5.7-1.3,8.1-3.6L23,125c-2.6,2.6-5.5,4.4-10,4.4
		C5.8,129.5,0.4,123.8,0.4,116.5z"/>
	<path class="st0" d="M25.1,119.8L25.1,119.8c0-5.3,4.1-9.8,9.7-9.8c5.5,0,9.6,4.4,9.6,9.6v0.1c0,5.2-4.1,9.7-9.7,9.7
		C29.2,129.5,25.1,125.1,25.1,119.8z M41.6,119.8L41.6,119.8c0-4.1-3-7.3-6.9-7.3c-4,0-6.8,3.3-6.8,7.2v0.1c0,4,2.9,7.2,6.8,7.2
		C38.8,127,41.6,123.8,41.6,119.8z"/>
	<path class="st0" d="M48.6,110.5h2.8v3.2c1.2-2,3.2-3.6,6.4-3.6c4.5,0,7.1,3,7.1,7.4V129H62v-10.8c0-3.4-1.9-5.6-5.1-5.6
		c-3.2,0-5.6,2.3-5.6,5.8V129h-2.8V110.5L48.6,110.5z"/>
	<path class="st0" d="M68.6,119.8L68.6,119.8c0-5.3,4.1-9.8,9.5-9.8c3.5,0,5.7,1.5,7.4,3.3l-1.8,1.9c-1.5-1.5-3.1-2.8-5.6-2.8
		c-3.8,0-6.6,3.2-6.6,7.2v0.1c0,4,2.9,7.2,6.8,7.2c2.4,0,4.2-1.2,5.7-2.8l1.8,1.7c-1.9,2.1-4.1,3.6-7.6,3.6
		C72.7,129.5,68.6,125,68.6,119.8z"/>
	<path class="st0" d="M89.1,122v-11.5h2.8v10.8c0,3.4,1.9,5.6,5.1,5.6c3.2,0,5.5-2.3,5.5-5.8v-10.6h2.7V129h-2.7v-3.2
		c-1.3,2-3.2,3.6-6.3,3.6C91.7,129.4,89.1,126.4,89.1,122z"/>
	<path class="st0" d="M110.5,110.5h2.8v4.8c1.4-3.1,4-5.3,7.6-5.2v3h-0.2c-4.1,0-7.4,2.9-7.4,8.5v7.4h-2.8V110.5z"/>
	<path class="st0" d="M122.6,126.7l1.4-2c2,1.5,4.2,2.4,6.4,2.4c2.2,0,3.8-1.2,3.8-2.9V124c0-1.9-2.2-2.6-4.6-3.3
		c-2.9-0.8-6.1-1.8-6.1-5.2v-0.1c0-3.2,2.6-5.3,6.3-5.3c2.3,0,4.8,0.8,6.7,2l-1.3,2.1c-1.7-1.1-3.7-1.8-5.5-1.8
		c-2.2,0-3.6,1.1-3.6,2.7v0.1c0,1.8,2.3,2.4,4.8,3.2c2.9,0.9,6,2,6,5.3v0.1c0,3.5-2.9,5.6-6.6,5.6
		C127.6,129.4,124.7,128.3,122.6,126.7z"/>
	<path class="st0" d="M140,119.8L140,119.8c0-5.3,4.1-9.8,9.7-9.8c5.6,0,9.6,4.4,9.6,9.6v0.1c0,5.2-4.1,9.7-9.7,9.7
		C144,129.5,140,125.1,140,119.8z M156.5,119.8L156.5,119.8c0-4.1-3-7.3-6.9-7.3c-4,0-6.8,3.3-6.8,7.2v0.1c0,4,2.9,7.2,6.8,7.2
		C153.7,127,156.5,123.8,156.5,119.8z"/>
	<path class="st0" d="M1.1,154.6V140H4v14.4c0,5.4,2.9,8.5,7.7,8.5c4.6,0,7.6-2.8,7.6-8.3V140H22v14.4c0,7.3-4.2,11.1-10.5,11.1
		C5.4,165.5,1.1,161.7,1.1,154.6z"/>
	<path class="st0" d="M27.4,146.6h2.8v3.2c1.2-2,3.1-3.6,6.3-3.6c4.5,0,7.1,3,7.1,7.4v11.5h-2.8v-10.8c0-3.4-1.9-5.6-5.1-5.6
		c-3.2,0-5.6,2.3-5.6,5.8v10.6h-2.8V146.6L27.4,146.6z"/>
	<path class="st0" d="M48.7,139.5h3.2v3h-3.2V139.5z M48.9,146.6h2.8v18.5h-2.8V146.6z"/>
	<path class="st0" d="M55.3,146.6h3l6.2,15.4l6.3-15.4h3l-8.1,18.7h-2.4L55.3,146.6z"/>
	<path class="st0" d="M75.1,155.9L75.1,155.9c0-5.4,3.8-9.7,8.9-9.7c5.5,0,8.6,4.4,8.6,9.8c0,0.4,0,0.6,0,0.9H77.9
		c0.4,4,3.2,6.3,6.5,6.3c2.5,0,4.3-1,5.8-2.6l1.7,1.5c-1.9,2.1-4.1,3.5-7.6,3.5C79.2,165.5,75.1,161.6,75.1,155.9z M89.8,154.8
		c-0.3-3.4-2.2-6.3-5.9-6.3c-3.2,0-5.7,2.7-6,6.3H89.8z"/>
	<path class="st0" d="M96.5,146.6h2.8v4.8c1.4-3.1,4.1-5.3,7.6-5.2v3h-0.2c-4,0-7.3,2.9-7.3,8.5v7.4h-2.8V146.6z"/>
	<path class="st0" d="M108.6,162.7l1.4-2c2,1.5,4.2,2.4,6.4,2.4c2.2,0,3.8-1.1,3.8-2.9v-0.1c0-1.9-2.2-2.6-4.6-3.3
		c-2.9-0.8-6.1-1.8-6.1-5.2v-0.1c0-3.2,2.6-5.3,6.3-5.3c2.3,0,4.8,0.8,6.7,2l-1.3,2.1c-1.7-1.1-3.7-1.8-5.5-1.8
		c-2.2,0-3.6,1.1-3.6,2.7v0.1c0,1.8,2.3,2.4,4.8,3.2c2.9,0.9,6,2,6,5.3v0.1c0,3.5-2.9,5.6-6.6,5.6
		C113.7,165.5,110.7,164.4,108.6,162.7z"/>
	<path class="st0" d="M127.2,139.5h3.2v3h-3.2V139.5z M127.4,146.6h2.8v18.5h-2.8V146.6z"/>
	<path class="st0" d="M136.6,160.2V149h-2.6v-2.4h2.6V141h2.8v5.6h5.9v2.4h-5.9v10.8c0,2.3,1.3,3.1,3.1,3.1c0.9,0,1.7-0.2,2.7-0.6
		v2.4c-1,0.5-2,0.8-3.3,0.8C138.9,165.4,136.6,164,136.6,160.2z"/>
	<path class="st0" d="M147.9,159.7L147.9,159.7c0-4,3.2-6.1,7.9-6.1c2.4,0,4,0.3,5.7,0.8v-0.6c0-3.3-2-5.1-5.5-5.1
		c-2.2,0-3.9,0.6-5.6,1.4l-0.8-2.3c2-0.9,4-1.5,6.7-1.5c2.6,0,4.6,0.7,6,2c1.3,1.2,1.9,3,1.9,5.4v11.3h-2.6v-2.8
		c-1.3,1.7-3.4,3.2-6.7,3.2C151.3,165.5,147.9,163.5,147.9,159.7z M161.5,158.3v-1.8c-1.4-0.4-3.2-0.8-5.5-0.8
		c-3.5,0-5.4,1.5-5.4,3.8v0.1c0,2.3,2.2,3.7,4.7,3.7C158.7,163.3,161.5,161.2,161.5,158.3z"/>
	<path class="st0" d="M169.1,146.6h2.8v4.8c1.4-3.1,4.1-5.3,7.6-5.2v3h-0.2c-4.1,0-7.4,2.9-7.4,8.5v7.4h-2.8V146.6z"/>
	<path class="st0" d="M182.8,139.5h3.2v3h-3.2V139.5z M183,146.6h2.8v18.5H183V146.6z"/>
	<path class="st0" d="M190.2,155.9L190.2,155.9c0-5.3,4.1-9.8,9.7-9.8c5.6,0,9.6,4.4,9.6,9.6v0.1c0,5.2-4.1,9.7-9.7,9.7
		C194.2,165.5,190.2,161.2,190.2,155.9z M206.6,155.9L206.6,155.9c0-4-3-7.3-6.9-7.3c-4,0-6.8,3.3-6.8,7.2v0.1c0,4,2.9,7.2,6.8,7.2
		C203.8,163.1,206.6,159.8,206.6,155.9z"/>
	<path class="st0" d="M0,192L0,192c0-6.1,4.4-9.7,8.9-9.7c3.4,0,5.7,1.9,7.1,4V175h2.8v26.2h-2.8v-3.7c-1.5,2.2-3.7,4.1-7.1,4.1
		C4.4,201.6,0,198.1,0,192z M16.1,191.9L16.1,191.9c0-4.3-3.3-7.2-6.7-7.2c-3.6,0-6.5,2.7-6.5,7.1v0.1c0,4.4,3,7.2,6.5,7.2
		C12.8,199.1,16.1,196.2,16.1,191.9z"/>
	<path class="st0" d="M22.8,192L22.8,192c0-5.4,3.8-9.7,8.9-9.7c5.5,0,8.6,4.4,8.6,9.8c0,0.3,0,0.6,0,0.9H25.6
		c0.4,4,3.2,6.3,6.5,6.3c2.5,0,4.3-1,5.8-2.6l1.7,1.5c-1.9,2.1-4.1,3.5-7.6,3.5C27,201.6,22.8,197.7,22.8,192z M37.6,190.9
		c-0.3-3.4-2.2-6.3-5.9-6.3c-3.2,0-5.7,2.7-6,6.3H37.6z"/>
	<path class="st1" d="M54.6,176.1H59v25.1h-4.4V176.1z"/>
	<path class="st1" d="M64.3,182.2h4.3v2.9c1.2-1.8,3-3.3,5.9-3.3c4.3,0,6.7,2.9,6.7,7.2v12.1H77v-10.8c0-2.9-1.5-4.6-4.1-4.6
		c-2.5,0-4.3,1.8-4.3,4.7v10.7h-4.3V182.2z"/>
	<path class="st1" d="M85.6,182.2H90v2.9c1.2-1.8,3-3.3,5.9-3.3c4.3,0,6.7,2.9,6.7,7.2v12.1h-4.3v-10.8c0-2.9-1.5-4.6-4-4.6
		c-2.5,0-4.3,1.8-4.3,4.7v10.7h-4.3V182.2L85.6,182.2z"/>
	<path class="st1" d="M105.9,191.8L105.9,191.8c0-5.5,4.3-10,10.1-10c5.8,0,10.1,4.4,10.1,9.8v0.1c0,5.4-4.3,9.9-10.1,9.9
		C110.2,201.6,105.9,197.2,105.9,191.8z M121.8,191.8L121.8,191.8c0-3.4-2.4-6.2-5.8-6.2c-3.5,0-5.7,2.7-5.7,6v0.1
		c0,3.3,2.4,6,5.8,6C119.6,197.8,121.8,195.1,121.8,191.8z"/>
	<path class="st1" d="M126.8,182.2h4.7l5.1,13.9l5.1-13.9h4.6l-7.7,19.1h-3.9L126.8,182.2z"/>
	<path class="st1" d="M146.9,195.7L146.9,195.7c0-4.2,3.2-6.2,7.8-6.2c2.1,0,3.6,0.3,5.1,0.8v-0.5c0-2.7-1.6-4.1-4.7-4.1
		c-2.1,0-3.7,0.5-5.4,1.2l-1.1-3.4c2.1-0.9,4.1-1.5,7.1-1.5c2.8,0,4.9,0.7,6.3,2.1c1.4,1.4,2,3.4,2,5.8v11.2h-4.2v-2.4
		c-1.3,1.5-3.3,2.8-6.2,2.8C150,201.6,146.9,199.5,146.9,195.7z M159.8,194.4v-1.3c-1.1-0.4-2.6-0.8-4.3-0.8c-2.8,0-4.4,1.2-4.4,3.2
		v0.1c0,1.8,1.6,2.9,3.7,2.9C157.7,198.4,159.8,196.8,159.8,194.4z"/>
	<path class="st1" d="M167.2,191.8L167.2,191.8c0-5.4,4.1-10,9.9-10c3.6,0,5.8,1.3,7.6,3.3l-2.7,2.9c-1.3-1.4-2.7-2.4-4.9-2.4
		c-3.2,0-5.5,2.7-5.5,6v0.1c0,3.4,2.3,6,5.7,6c2,0,3.5-0.9,4.9-2.3l2.6,2.6c-1.9,2.1-4,3.6-7.7,3.6
		C171.4,201.6,167.2,197.2,167.2,191.8z"/>
	<path class="st1" d="M187.9,175.2h4.7v4.1h-4.7V175.2z M188.1,182.2h4.3v18.9h-4.3V182.2z"/>
	<path class="st1" d="M196.2,191.8L196.2,191.8c0-5.5,4.3-10,10.1-10c5.8,0,10.1,4.4,10.1,9.8v0.1c0,5.4-4.3,9.9-10.1,9.9
		C200.4,201.6,196.2,197.2,196.2,191.8z M212,191.8L212,191.8c0-3.4-2.4-6.2-5.8-6.2c-3.5,0-5.7,2.7-5.7,6v0.1c0,3.3,2.4,6,5.8,6
		C209.8,197.8,212,195.1,212,191.8z M208.3,174l3.9,1.8l-4.4,4.1h-3.3L208.3,174z"/>
	<path class="st1" d="M219.9,182.2h4.3v2.9c1.2-1.8,3-3.3,5.9-3.3c4.3,0,6.7,2.9,6.7,7.2v12.1h-4.3v-10.8c0-2.9-1.5-4.6-4.1-4.6
		c-2.5,0-4.3,1.8-4.3,4.7v10.7h-4.3V182.2L219.9,182.2z"/>
</g>
<g>
	
		<linearGradient id="SVGID_1_" gradientUnits="userSpaceOnUse" x1="308.0035" y1="242.9158" x2="55.5882" y2="116.7084" gradientTransform="matrix(-1 0 0 -1 318.125 228.2685)">
		<stop  offset="0" style="stop-color:#77CCF4"/>
		<stop  offset="1" style="stop-color:#17519F"/>
	</linearGradient>
	<path class="st2" d="M234,88.5l-29.6-42.9L235.9,0h-27.7l-17.6,27.3L173.3,0h-21.6h-6.8h-9.2v23.8c-6-3.8-13.4-6-20.2-6
		c-11.4,0-20.6,6.4-20.6,17.9v0.2c0,10.9,8.9,14.6,16.8,16.9c6.2,1.9,11.7,3.1,11.7,6.5v0.2c0,2.5-2.1,4.2-6.7,4.2
		c-5.1,0-11.3-2.2-17.3-6.4v-0.8c0-12.9-7.1-20.9-19.2-20.9c-8.1,0-12.9,4.3-16.5,9.1v-8h-12V28h-16v31.5c0,7.6-3.9,11.5-10,11.5
		c-6.1,0-9.7-3.9-9.7-11.5V28H0v36.5c0,12.9,7.1,20.9,19.2,20.9c8.1,0,12.8-4.3,16.5-9.1v8h12v8.8h16V61.7c0-7.6,3.9-11.5,10-11.5
		c6.1,0,9.7,3.9,9.7,11.5v31.5h16v-21c5.6,2.7,11.4,3.9,16.8,3.9c8.8,0,16.1-2.9,19.5-9.2v9.9h16v-67l24.7,36l-32.7,47.3h27.7
		l18.8-29l18.8,29H234h3.3h12.3v-55H234V88.5z M120.8,41c-6.1-2.1-11.5-3.6-11.5-6.7V34c0-2.2,2-3.9,5.9-3.9c4.1,0,9.7,2,15.3,5.3
		l5.3-9.5v24.3C132.5,45.3,126.3,42.8,120.8,41z"/>
	
		<linearGradient id="SVGID_00000034060844441788479110000016250759063219369889_" gradientUnits="userSpaceOnUse" x1="790.7958" y1="216.9024" x2="902.6575" y2="217.9881" gradientTransform="matrix(1 0 0 1 -650.5293 -192.6719)">
		<stop  offset="0" style="stop-color:#77CCF4"/>
		<stop  offset="1" style="stop-color:#17519F"/>
	</linearGradient>
	
		<rect x="233.6" y="18.3" style="fill:url(#SVGID_00000034060844441788479110000016250759063219369889_);" width="16.4" height="13.9"/>
</g>
</svg>
