<?xml version="1.0" encoding="utf-8"?>
<!-- Generator: Adobe Illustrator 26.4.1, SVG Export Plug-In . SVG Version: 6.00 Build 0)  -->
<svg version="1.1" id="Layer_1" xmlns="http://www.w3.org/2000/svg" xmlns:xlink="http://www.w3.org/1999/xlink" x="0px" y="0px"
	 viewBox="0 0 245.8 221.8" style="enable-background:new 0 0 245.8 221.8;" xml:space="preserve">
<style type="text/css">
	.st0{fill:#BD1E59;}
	.st1{fill:url(#SVGID_1_);}
</style>
<g>
	<g>
		<path class="st0" d="M3.2,108.1h8.4c5.1,0,8.4,2.4,8.4,6.4v0.1c0,4.4-4,6.6-8.8,6.6H5.7v7.1H3.2L3.2,108.1L3.2,108.1z M11.3,119.2
			c3.7,0,6.2-1.8,6.2-4.5v-0.1c0-2.9-2.4-4.4-6-4.4H5.7v8.9H11.3z"/>
		<path class="st0" d="M24.2,113.4h2.5v3.9c1.2-2.5,3.6-4.3,6.8-4.2v2.4h-0.2c-3.6,0-6.6,2.3-6.6,6.9v6h-2.5L24.2,113.4L24.2,113.4z
			"/>
		<path class="st0" d="M35.4,121L35.4,121c0-4.3,3.7-7.9,8.7-7.9c5,0,8.6,3.5,8.6,7.8v0.1c0,4.2-3.7,7.8-8.7,7.8
			C39.1,128.7,35.4,125.2,35.4,121z M50.2,121L50.2,121c0-3.3-2.7-5.9-6.2-5.9c-3.6,0-6.1,2.6-6.1,5.8v0.1c0,3.2,2.6,5.8,6.1,5.8
			C47.7,126.7,50.2,124.1,50.2,121z"/>
		<path class="st0" d="M68.6,113.4h2.6l-7,15.5c-1.4,3.1-3,4.2-5.5,4.2c-1.4,0-2.4-0.3-3.5-0.8l0.8-1.8c0.8,0.4,1.5,0.5,2.6,0.5
			c1.5,0,2.4-0.7,3.4-2.8l-7.5-14.9h2.7l6,12.5L68.6,113.4z"/>
		<path class="st0" d="M73.2,121L73.2,121c0-4.4,3.4-7.8,8-7.8c4.9,0,7.7,3.5,7.7,7.9c0,0.3,0,0.5,0,0.7H75.7
			c0.4,3.2,2.9,5.1,5.8,5.1c2.3,0,3.9-0.8,5.2-2.1l1.5,1.2c-1.7,1.7-3.7,2.8-6.8,2.8C76.9,128.7,73.2,125.6,73.2,121z M86.4,120.1
			c-0.3-2.7-2-5.1-5.3-5.1c-2.9,0-5.1,2.2-5.4,5.1H86.4z"/>
		<path class="st0" d="M92.2,121L92.2,121c0-4.3,3.7-7.9,8.5-7.9c3.1,0,5.1,1.2,6.6,2.7l-1.6,1.6c-1.3-1.2-2.8-2.3-5-2.3
			c-3.4,0-5.9,2.6-5.9,5.8v0.1c0,3.2,2.6,5.8,6.1,5.8c2.1,0,3.8-1,5.1-2.2l1.6,1.3c-1.7,1.7-3.7,2.9-6.8,2.9
			C95.8,128.7,92.2,125.2,92.2,121z"/>
		<path class="st0" d="M112.4,124.4v-9h-2.3v-2h2.3v-4.5h2.5v4.5h5.3v2h-5.3v8.7c0,1.8,1.1,2.5,2.8,2.5c0.8,0,1.5-0.1,2.4-0.5v1.9
			c-0.9,0.4-1.8,0.6-3,0.6C114.4,128.7,112.4,127.5,112.4,124.4z"/>
		<path class="st0" d="M123,121L123,121c0-4.3,3.7-7.9,8.7-7.9c5,0,8.6,3.5,8.6,7.8v0.1c0,4.2-3.7,7.8-8.7,7.8
			C126.6,128.7,123,125.2,123,121z M137.7,121L137.7,121c0-3.3-2.7-5.9-6.2-5.9c-3.6,0-6.1,2.6-6.1,5.8v0.1c0,3.2,2.6,5.8,6.1,5.8
			C135.2,126.7,137.7,124.1,137.7,121z"/>
		<path class="st0" d="M143.3,126.5l1.3-1.6c1.8,1.2,3.8,1.9,5.7,1.9c2,0,3.4-0.9,3.4-2.4v-0.1c0-1.5-2-2.1-4.1-2.6
			c-2.6-0.7-5.5-1.5-5.5-4.2v-0.1c0-2.6,2.4-4.3,5.6-4.3c2,0,4.3,0.6,6,1.6l-1.1,1.7c-1.5-0.9-3.3-1.4-4.9-1.4c-2,0-3.2,0.9-3.2,2.2
			v0.1c0,1.4,2.1,2,4.3,2.6c2.6,0.7,5.3,1.6,5.3,4.3v0.1c0,2.8-2.6,4.5-5.9,4.5C147.8,128.7,145.2,127.8,143.3,126.5z"/>
		<path class="st0" d="M1.8,149.6L1.8,149.6c0-5,3.9-7.8,7.9-7.8c3.1,0,5.1,1.5,6.3,3.2v-9h2.5V157h-2.5v-3
			c-1.3,1.8-3.3,3.3-6.3,3.3C5.7,157.3,1.8,154.5,1.8,149.6z M16.2,149.5L16.2,149.5c0-3.5-2.9-5.8-6-5.8c-3.2,0-5.8,2.1-5.8,5.8
			v0.1c0,3.5,2.7,5.8,5.8,5.8C13.2,155.3,16.2,153,16.2,149.5z"/>
		<path class="st0" d="M23,149.6L23,149.6c0-4.4,3.4-7.8,8-7.8c4.9,0,7.7,3.5,7.7,7.9c0,0.3,0,0.5,0,0.7H25.5
			c0.4,3.2,2.9,5.1,5.8,5.1c2.3,0,3.9-0.8,5.2-2.1l1.5,1.2c-1.7,1.7-3.7,2.8-6.8,2.8C26.7,157.4,23,154.2,23,149.6z M36.2,148.7
			c-0.3-2.7-2-5.1-5.3-5.1c-2.9,0-5.1,2.2-5.4,5.1H36.2z"/>
		<path class="st0" d="M52.8,136.7h8.4c7.1,0,11.9,4.4,11.9,10.1v0.1c0,5.7-4.9,10.1-11.9,10.1h-8.4V136.7z M56.7,140v13.8h4.4
			c4.7,0,7.8-2.9,7.8-6.8v-0.1c0-4-3.1-6.9-7.8-6.9H56.7L56.7,140z"/>
		<path class="st0" d="M76.5,149.4L76.5,149.4c0-4.4,3.4-8,8.3-8c5.4,0,8.1,3.8,8.1,8.2c0,0.3,0,0.6-0.1,1H80.4
			c0.4,2.5,2.4,3.9,4.9,3.9c1.9,0,3.2-0.6,4.6-1.8l2.3,1.8c-1.6,1.7-3.8,2.9-6.9,2.9C80.3,157.4,76.5,154.1,76.5,149.4z M89,148.3
			c-0.3-2.3-1.7-4-4.3-4c-2.4,0-4,1.6-4.4,4H89z"/>
		<path class="st0" d="M95.4,155l1.7-2.4c1.9,1.2,3.8,1.9,5.5,1.9c1.7,0,2.6-0.6,2.6-1.6v-0.1c0-1.2-1.8-1.6-3.8-2.1
			c-2.5-0.6-5.3-1.6-5.3-4.5v-0.1c0-2.9,2.7-4.7,6-4.7c2.1,0,4.4,0.7,6.2,1.7l-1.5,2.5c-1.6-0.9-3.4-1.4-4.8-1.4
			c-1.5,0-2.4,0.6-2.4,1.5v0.1c0,1.1,1.8,1.6,3.8,2.2c2.5,0.7,5.3,1.7,5.3,4.5v0.1c0,3.2-2.8,4.8-6.3,4.8
			C100.2,157.3,97.5,156.5,95.4,155z"/>
		<path class="st0" d="M111.7,152.6L111.7,152.6c0-3.4,2.9-5,7-5c1.9,0,3.2,0.3,4.6,0.6v-0.4c0-2.2-1.5-3.3-4.2-3.3
			c-1.9,0-3.3,0.4-4.8,1l-1-2.8c1.9-0.8,3.7-1.2,6.4-1.2c2.5,0,4.4,0.6,5.6,1.7c1.3,1.1,1.8,2.7,1.8,4.7v9.1h-3.8v-1.9
			c-1.2,1.2-2.9,2.2-5.5,2.2C114.5,157.3,111.7,155.7,111.7,152.6z M123.3,151.5v-1c-1-0.3-2.3-0.6-3.8-0.6c-2.5,0-4,1-4,2.5v0.1
			c0,1.5,1.4,2.3,3.3,2.3C121.4,154.8,123.3,153.4,123.3,151.5z"/>
		<path class="st0" d="M131.7,141.7h3.9v3.4c1.1-2.3,3-3.8,6-3.7v3.7h-0.2c-3.4,0-5.8,2-5.8,6v5.8h-3.9V141.7L131.7,141.7z"/>
		<path class="st0" d="M144.9,141.7h3.9v3.4c1.1-2.3,3-3.8,6-3.7v3.7h-0.2c-3.4,0-5.8,2-5.8,6v5.8h-3.9V141.7z"/>
		<path class="st0" d="M156.7,149.5L156.7,149.5c0-4.4,3.8-8,9-8c5.2,0,9,3.6,9,7.9v0.1c0,4.3-3.9,8-9.1,8
			C160.5,157.4,156.7,153.8,156.7,149.5z M170.8,149.5L170.8,149.5c0-2.7-2.2-5-5.2-5c-3.1,0-5.1,2.2-5.1,4.9v0.1
			c0,2.7,2.1,4.9,5.2,4.9C168.8,154.3,170.8,152.1,170.8,149.5z"/>
		<path class="st0" d="M178.9,135.9h3.9V157h-3.9V135.9z"/>
		<path class="st0" d="M188,135.9h3.9V157H188V135.9z"/>
		<path class="st0" d="M196.1,149.5L196.1,149.5c0-4.4,3.8-8,9-8c5.2,0,9,3.6,9,7.9v0.1c0,4.3-3.8,8-9.1,8
			C199.9,157.4,196.1,153.8,196.1,149.5z M210.2,149.5L210.2,149.5c0-2.7-2.1-5-5.2-5c-3.1,0-5.1,2.2-5.1,4.9v0.1
			c0,2.7,2.1,4.9,5.2,4.9C208.3,154.3,210.2,152.1,210.2,149.5z"/>
		<path class="st0" d="M8.4,168.7H1.3v-3.3h18.2v3.3h-7.1v17h-4V168.7z"/>
		<path class="st0" d="M18.6,178L18.6,178c0-4.4,3.4-8,8.3-8c5.4,0,8.1,3.8,8.1,8.2c0,0.3,0,0.6-0.1,1H22.5c0.4,2.5,2.4,3.9,4.9,3.9
			c1.9,0,3.2-0.6,4.6-1.8l2.3,1.8c-1.6,1.7-3.8,2.9-6.9,2.9C22.4,186,18.6,182.8,18.6,178z M31.2,176.9c-0.3-2.3-1.7-4-4.3-4
			c-2.4,0-4,1.7-4.4,4H31.2z"/>
		<path class="st0" d="M38,178.1L38,178.1c0-4.4,3.7-8,8.8-8c3.2,0,5.2,1.1,6.8,2.6l-2.4,2.3c-1.2-1.1-2.4-1.9-4.4-1.9
			c-2.8,0-4.9,2.2-4.9,4.9v0.1c0,2.7,2.1,4.9,5.1,4.9c1.8,0,3.2-0.8,4.4-1.9l2.3,2.1c-1.7,1.7-3.6,2.9-6.9,2.9
			C41.7,186,38,182.4,38,178.1z"/>
		<path class="st0" d="M57.2,170.3h3.9v2.3c1.1-1.4,2.7-2.7,5.3-2.7c3.8,0,6,2.3,6,5.8v9.8h-3.9v-8.7c0-2.4-1.3-3.7-3.6-3.7
			c-2.2,0-3.8,1.4-3.8,3.8v8.6h-3.9L57.2,170.3L57.2,170.3z"/>
		<path class="st0" d="M76.2,178.1L76.2,178.1c0-4.4,3.8-8,9-8c5.2,0,9,3.6,9,7.9v0.1c0,4.3-3.8,8-9.1,8
			C80,186,76.2,182.4,76.2,178.1z M90.4,178.1L90.4,178.1c0-2.7-2.1-5-5.2-5c-3.1,0-5.1,2.2-5.1,4.9v0.1c0,2.7,2.1,4.9,5.2,4.9
			C88.4,182.9,90.4,180.7,90.4,178.1z"/>
		<path class="st0" d="M98.4,164.5h3.9v21.1h-3.9V164.5z"/>
		<path class="st0" d="M106.4,178.1L106.4,178.1c0-4.4,3.8-8,9-8c5.2,0,9,3.6,9,7.9v0.1c0,4.3-3.8,8-9.1,8
			C110.3,186,106.4,182.4,106.4,178.1z M120.6,178.1L120.6,178.1c0-2.7-2.1-5-5.2-5c-3.1,0-5.1,2.2-5.1,4.9v0.1
			c0,2.7,2.1,4.9,5.2,4.9C118.6,182.9,120.6,180.7,120.6,178.1z M117.2,163.7l3.5,1.4l-3.9,3.3h-2.9L117.2,163.7z"/>
		<path class="st0" d="M128.4,188.5l1.4-2.6c1.8,1,3.7,1.6,6,1.6c3.5,0,5.4-1.6,5.4-4.7v-1.2c-1.4,1.6-3.2,2.8-6,2.8
			c-4,0-7.7-2.7-7.7-7.1v-0.1c0-4.5,3.8-7.2,7.7-7.2c2.9,0,4.6,1.2,5.9,2.6v-2.3h3.9v12.2c0,2.6-0.7,4.5-2.1,5.8
			c-1.5,1.4-3.9,2.1-7,2.1C133.2,190.3,130.6,189.7,128.4,188.5z M141.3,177.2L141.3,177.2c0-2.5-2.3-4.3-5-4.3
			c-2.7,0-4.8,1.7-4.8,4.2v0.1c0,2.5,2.2,4.2,4.8,4.2C139,181.4,141.3,179.7,141.3,177.2z"/>
		<path class="st0" d="M150,164.7h4.2v3.3H150V164.7z M150.2,170.3h3.9v15.3h-3.9V170.3z"/>
		<path class="st0" d="M158.2,178.1L158.2,178.1c0-4.4,3.7-8,8.8-8c3.2,0,5.2,1.1,6.8,2.6l-2.4,2.3c-1.2-1.1-2.4-1.9-4.4-1.9
			c-2.8,0-4.9,2.2-4.9,4.9v0.1c0,2.7,2.1,4.9,5.1,4.9c1.8,0,3.2-0.8,4.4-1.9l2.3,2.1c-1.7,1.7-3.6,2.9-6.9,2.9
			C161.9,186,158.2,182.4,158.2,178.1z"/>
		<path class="st0" d="M176,178.1L176,178.1c0-4.4,3.8-8,9-8c5.2,0,9,3.6,9,7.9v0.1c0,4.3-3.8,8-9.1,8
			C179.8,186,176,182.4,176,178.1z M190.2,178.1L190.2,178.1c0-2.7-2.2-5-5.2-5c-3.1,0-5.1,2.2-5.1,4.9v0.1c0,2.7,2.1,4.9,5.2,4.9
			C188.2,182.9,190.2,180.7,190.2,178.1z"/>
		<path class="st0" d="M14.2,199h4l-6.7,15.7c-1.3,3.1-2.9,4.3-5.6,4.3c-1.6,0-2.8-0.3-4-0.9l1.3-2.6c0.7,0.3,1.5,0.6,2.3,0.6
			c1.1,0,1.8-0.4,2.4-1.7L0.8,199H5l4.8,11.3L14.2,199z"/>
		<path class="st0" d="M30.1,211.3l2.4-2.5c2.1,1.7,4.3,2.6,7.1,2.6c2.4,0,4-1,4-2.5v-0.1c0-1.4-0.9-2.2-5.1-3.1
			c-4.8-1-7.5-2.3-7.5-6v-0.1c0-3.5,3.2-5.9,7.7-5.9c3.3,0,5.9,0.9,8.1,2.5l-2.1,2.7c-2-1.4-4-2.1-6.1-2.1c-2.3,0-3.7,1.1-3.7,2.4
			v0.1c0,1.6,1,2.3,5.4,3.2c4.7,1,7.2,2.6,7.2,5.9v0.1c0,3.8-3.3,6-8,6C36,214.5,32.8,213.5,30.1,211.3z"/>
		<path class="st0" d="M50.8,206.7L50.8,206.7c0-4.4,3.8-8,9-8c5.2,0,9,3.6,9,7.9v0.1c0,4.3-3.8,8-9.1,8
			C54.6,214.6,50.8,211,50.8,206.7z M64.9,206.7L64.9,206.7c0-2.7-2.2-5-5.2-5c-3.1,0-5.1,2.2-5.1,4.9v0.1c0,2.7,2.1,4.9,5.2,4.9
			C62.9,211.5,64.9,209.3,64.9,206.7z"/>
		<path class="st0" d="M71.8,206.7L71.8,206.7c0-4.4,3.7-8,8.8-8c3.2,0,5.2,1.1,6.8,2.6l-2.4,2.3c-1.2-1.1-2.4-1.9-4.4-1.9
			c-2.8,0-4.9,2.2-4.9,4.9v0.1c0,2.7,2.1,4.9,5.1,4.9c1.8,0,3.2-0.8,4.4-1.9l2.3,2.1c-1.7,1.7-3.6,2.9-6.9,2.9
			C75.6,214.6,71.8,211,71.8,206.7z"/>
		<path class="st0" d="M91.1,193.3h4.2v3.3h-4.2V193.3z M91.3,199h3.9v15.3h-3.9V199z"/>
		<path class="st0" d="M99.1,209.8L99.1,209.8c0-3.4,2.9-5,7-5c1.9,0,3.2,0.3,4.6,0.6v-0.4c0-2.2-1.5-3.3-4.2-3.3
			c-1.9,0-3.3,0.4-4.8,1l-1-2.8c1.9-0.8,3.7-1.2,6.4-1.2c2.5,0,4.4,0.6,5.6,1.7c1.3,1.1,1.8,2.7,1.8,4.7v9.1h-3.8v-1.9
			c-1.2,1.2-2.9,2.2-5.5,2.2C101.9,214.6,99.1,212.9,99.1,209.8z M110.7,208.7v-1c-1-0.3-2.3-0.6-3.8-0.6c-2.5,0-4,1-4,2.5v0.1
			c0,1.5,1.4,2.3,3.3,2.3C108.8,212,110.7,210.7,110.7,208.7z"/>
		<path class="st0" d="M119.3,193.1h3.9v21.1h-3.9V193.1z"/>
		<path class="st0" d="M138.2,205.8V194h2.5v11.6c0,4.4,2.6,6.8,6.9,6.8c4.1,0,6.8-2.3,6.8-6.7V194h2.5v11.6c0,5.9-3.8,9-9.4,9
			C142,214.6,138.2,211.5,138.2,205.8z"/>
		<path class="st0" d="M162.9,194h2.4l14.1,16.2V194h2.5v20.3h-2l-14.5-16.6v16.6h-2.5L162.9,194L162.9,194z"/>
		<path class="st0" d="M186.8,211.3l1.6-1.7c2.3,1.9,4.6,2.9,7.7,2.9c3,0,5-1.4,5-3.4V209c0-1.9-1.1-3-5.8-3.9
			c-5.2-1-7.5-2.5-7.5-5.8v-0.1c0-3.2,3.1-5.5,7.4-5.5c3.3,0,5.6,0.8,7.9,2.5l-1.5,1.8c-2.1-1.5-4.2-2.2-6.5-2.2
			c-2.9,0-4.8,1.4-4.8,3.3v0.1c0,1.9,1.2,3,6.1,3.9c5,1,7.3,2.6,7.3,5.7v0.1c0,3.5-3.2,5.7-7.7,5.7
			C192.4,214.5,189.5,213.5,186.8,211.3z"/>
		<path class="st0" d="M208.8,194h2.5v18.1H224v2.1h-15.2L208.8,194L208.8,194z"/>
	</g>
	
		<linearGradient id="SVGID_1_" gradientUnits="userSpaceOnUse" x1="-155.6306" y1="68.4892" x2="-40.2716" y2="-125.7218" gradientTransform="matrix(1 0 0 -1 199.5552 5.7602)">
		<stop  offset="0" style="stop-color:#E3181B"/>
		<stop  offset="0.8836" style="stop-color:#A11F7A"/>
		<stop  offset="1" style="stop-color:#952081"/>
	</linearGradient>
	<path class="st1" d="M221.2,57.8c-8.8-2.7-16.6-4.7-16.6-8.8v-0.3c0-2.9,2.9-5.1,8.5-5.1c5.9,0,14,2.6,22,6.9l8.8-14.4
		c-8.8-5.3-20-8.5-30.4-8.5c-8.8,0-16.6,2.4-22.1,6.9v-5.6h-19.1V10.1h-23.1v18.8h-5.2V2.1H121v36.2c-5.5-5.9-13.1-11-25.4-11
		c-4.1,0-8.2,0.6-12.1,1.8C78.3,13.1,63.7,4.5,48.5,4.5c-12,0-19.7,5.1-25.4,11.9V5.8H0v95.4h23.1V69.7c5.5,5.9,13.1,11,25.4,11
		c4.1,0,8.2-0.6,12.1-1.8c5.2,16.1,19.8,24.7,35.1,24.7c12,0,19.7-5.1,25.4-11.9v10.6h23.1V46.7h5.2v34.8c0,17,9.6,22.1,23.7,22.1
		c7.7,0,13.4-1.6,18.2-4.2v-0.5c7.8,3.2,15.9,4.8,23.5,4.8c17.6,0,31.1-7.4,31.1-23.7v-0.3C245.8,66.1,232.6,61.2,221.2,57.8z
		 M42.5,63c-10.8,0-19.7-8.1-19.7-20.3v-0.3c0-12.2,9-20.3,19.7-20.3c10.8,0,19.9,8.1,19.9,20.3v0.3c0,2.8-0.5,5.3-1.3,7.6
		c-0.1,0.3-0.2,0.6-0.3,0.9C57.7,58.5,50.6,63,42.5,63z M121.3,65.6c0,12.2-9,20.3-19.7,20.3c-10.8,0-19.9-8.1-19.9-20.3v-0.3
		c0-2.8,0.5-5.3,1.3-7.6c0.1-0.3,0.2-0.6,0.3-0.9C86.3,49.5,93.5,45,101.5,45c10.8,0,19.7,8.1,19.7,20.3L121.3,65.6L121.3,65.6z
		 M225,82c0,3.3-3,5.5-9.7,5.5c-7.6,0-16.9-3-25.7-8.8l-4.2,5.9c-1.8,0.4-3.6,0.6-5.6,0.6c-5.2,0-7.4-2.3-7.4-7.1V46.7h11.9
		c-0.3,1.4-0.4,2.8-0.4,4.2v0.3c0,14.3,12.9,19.1,24.3,22.1c9,2.5,16.9,4,16.9,8.5L225,82L225,82z"/>
</g>
</svg>
