<?xml version="1.0" encoding="UTF-8" standalone="no"?>
<svg
   xmlns:dc="http://purl.org/dc/elements/1.1/"
   xmlns:cc="http://creativecommons.org/ns#"
   xmlns:rdf="http://www.w3.org/1999/02/22-rdf-syntax-ns#"
   xmlns:svg="http://www.w3.org/2000/svg"
   xmlns="http://www.w3.org/2000/svg"
   xml:space="preserve"
   enable-background="new -6.912 -1.895 345.065 222.108"
   viewBox="-6.912 -1.895 345.065 222.108"
   height="227.108px"
   width="361.065px"
   y="0px"
   x="0px"
   id="Layer_1"
   version="1.1"><metadata
     id="metadata106"><rdf:RDF><cc:Work
         rdf:about=""><dc:format>image/svg+xml</dc:format><dc:type
           rdf:resource="http://purl.org/dc/dcmitype/StillImage" /></cc:Work></rdf:RDF></metadata><defs
     id="defs104" /><g
     id="g99"><g
       id="g90"><g
         id="g88"><path
           id="path2"
           d="M-6.912,167.891h6.644c4.007,0,6.645,2.13,6.645,5.63v0.051c0,3.829-3.195,5.808-6.974,5.808h-4.311     v6.264h-2.003V167.891z M-0.521,177.553c2.942,0,4.869-1.572,4.869-3.905v-0.051c0-2.536-1.902-3.854-4.768-3.854h-4.489v7.811     H-0.521z"
           fill="#00A69C" /><path
           id="path4"
           d="M9.701,172.531h1.953v3.424c0.963-2.181,2.866-3.753,5.351-3.652v2.105h-0.152     c-2.866,0-5.199,2.054-5.199,6.01v5.225H9.701V172.531z"
           fill="#00A69C" /><path
           id="path6"
           d="M18.604,179.151V179.1c0-3.702,2.891-6.847,6.847-6.847c3.931,0,6.822,3.094,6.822,6.796v0.051     c0,3.702-2.917,6.848-6.873,6.848C21.47,185.948,18.604,182.853,18.604,179.151z M30.27,179.151V179.1     c0-2.814-2.105-5.123-4.869-5.123c-2.84,0-4.793,2.309-4.793,5.072v0.051c0,2.815,2.08,5.098,4.844,5.098     C28.292,184.198,30.27,181.915,30.27,179.151z"
           fill="#00A69C" /><path
           id="path8"
           d="M36.485,182.168v-7.912h-1.826v-1.725h1.826v-3.956h1.953v3.956h4.159v1.725h-4.159v7.659     c0,1.598,0.888,2.181,2.207,2.181c0.659,0,1.217-0.127,1.902-0.457v1.674c-0.685,0.355-1.42,0.559-2.358,0.559     C38.083,185.871,36.485,184.831,36.485,182.168z"
           fill="#00A69C" /><path
           id="path10"
           d="M44.855,179.151V179.1c0-3.702,2.891-6.847,6.847-6.847c3.931,0,6.822,3.094,6.822,6.796v0.051     c0,3.702-2.917,6.848-6.873,6.848C47.721,185.948,44.855,182.853,44.855,179.151z M56.521,179.151V179.1     c0-2.814-2.105-5.123-4.869-5.123c-2.84,0-4.793,2.309-4.793,5.072v0.051c0,2.815,2.08,5.098,4.844,5.098     C54.543,184.198,56.521,181.915,56.521,179.151z"
           fill="#00A69C" /><path
           id="path12"
           d="M61.24,179.151V179.1c0-3.702,2.891-6.847,6.72-6.847c2.485,0,4.032,1.039,5.25,2.333l-1.293,1.369     c-1.04-1.091-2.206-1.979-3.981-1.979c-2.663,0-4.691,2.258-4.691,5.072v0.051c0,2.841,2.08,5.098,4.818,5.098     c1.674,0,2.967-0.837,4.007-1.953l1.243,1.167c-1.319,1.471-2.891,2.536-5.351,2.536C64.131,185.948,61.24,182.827,61.24,179.151     z"
           fill="#00A69C" /><path
           id="path14"
           d="M75.342,179.151V179.1c0-3.702,2.891-6.847,6.847-6.847c3.931,0,6.822,3.094,6.822,6.796v0.051     c0,3.702-2.917,6.848-6.873,6.848C78.207,185.948,75.342,182.853,75.342,179.151z M87.007,179.151V179.1     c0-2.814-2.105-5.123-4.869-5.123c-2.84,0-4.793,2.309-4.793,5.072v0.051c0,2.815,2.08,5.098,4.844,5.098     C85.029,184.198,87.007,181.915,87.007,179.151z"
           fill="#00A69C" /><path
           id="path16"
           d="M92.715,167.13h1.953v18.513h-1.953V167.13z"
           fill="#00A69C" /><path
           id="path18"
           d="M98.397,179.151V179.1c0-3.702,2.891-6.847,6.847-6.847c3.931,0,6.822,3.094,6.822,6.796v0.051     c0,3.702-2.917,6.848-6.873,6.848C101.262,185.948,98.397,182.853,98.397,179.151z M110.062,179.151V179.1     c0-2.814-2.105-5.123-4.869-5.123c-2.84,0-4.793,2.309-4.793,5.072v0.051c0,2.815,2.08,5.098,4.844,5.098     C108.084,184.198,110.062,181.915,110.062,179.151z"
           fill="#00A69C" /><path
           id="path20"
           d="M114.502,183.969l0.989-1.395c1.42,1.064,2.993,1.674,4.54,1.674c1.572,0,2.713-0.812,2.713-2.08v-0.051     c0-1.318-1.547-1.825-3.271-2.308c-2.054-0.583-4.336-1.293-4.336-3.702v-0.051c0-2.257,1.876-3.754,4.463-3.754     c1.598,0,3.373,0.559,4.717,1.446l-0.888,1.471c-1.217-0.786-2.612-1.269-3.88-1.269c-1.547,0-2.536,0.812-2.536,1.902v0.051     c0,1.242,1.623,1.725,3.373,2.257c2.029,0.608,4.209,1.395,4.209,3.754v0.051c0,2.484-2.054,3.931-4.666,3.931     C118.053,185.897,115.973,185.161,114.502,183.969z"
           fill="#00A69C" /><path
           id="path22"
           d="M135.071,179.125v-0.051c0-4.286,3.12-6.821,6.264-6.821c2.435,0,4.007,1.318,5.021,2.789v-7.912h1.953     v18.513h-1.953v-2.638c-1.065,1.572-2.612,2.917-5.021,2.917C138.191,185.922,135.071,183.437,135.071,179.125z M146.432,179.1     v-0.051c0-3.018-2.308-5.047-4.742-5.047c-2.536,0-4.615,1.877-4.615,5.047v0.051c0,3.094,2.155,5.072,4.615,5.072     C144.125,184.172,146.432,182.117,146.432,179.1z"
           fill="#00A69C" /><path
           id="path24"
           d="M151.862,179.125v-0.051c0-3.778,2.663-6.821,6.289-6.821c3.88,0,6.112,3.094,6.112,6.923     c0,0.254,0,0.405-0.025,0.634H153.84c0.279,2.841,2.282,4.438,4.615,4.438c1.801,0,3.069-0.735,4.134-1.852l1.217,1.091     c-1.319,1.471-2.917,2.46-5.402,2.46C154.803,185.948,151.862,183.183,151.862,179.125z M162.284,178.365     c-0.203-2.384-1.572-4.464-4.185-4.464c-2.282,0-4.007,1.902-4.26,4.464H162.284z"
           fill="#00A69C" /><path
           id="path26"
           d="M180.318,169.742h-5.96v-1.852h13.948v1.852h-5.96v15.9h-2.028V169.742z"
           fill="#00A69C" /><path
           id="path28"
           d="M189.474,172.531h1.953v3.424c0.963-2.181,2.865-3.753,5.352-3.652v2.105h-0.152     c-2.866,0-5.199,2.054-5.199,6.01v5.225h-1.953V172.531z"
           fill="#00A69C" /><path
           id="path30"
           d="M198.125,181.839v-0.051c0-2.765,2.281-4.235,5.604-4.235c1.674,0,2.866,0.229,4.033,0.558v-0.456     c0-2.358-1.445-3.576-3.906-3.576c-1.547,0-2.764,0.406-3.98,0.964l-0.584-1.598c1.445-0.659,2.865-1.091,4.768-1.091     c1.852,0,3.271,0.482,4.235,1.446c0.888,0.887,1.345,2.155,1.345,3.829v8.014h-1.877v-1.979     c-0.913,1.192-2.436,2.258-4.742,2.258C200.584,185.922,198.125,184.527,198.125,181.839z M207.787,180.824v-1.269     c-0.964-0.278-2.258-0.558-3.855-0.558c-2.459,0-3.829,1.065-3.829,2.714v0.051c0,1.648,1.521,2.612,3.297,2.612     C205.808,184.375,207.787,182.904,207.787,180.824z"
           fill="#00A69C" /><path
           id="path32"
           d="M213.799,172.531h1.953v2.282c0.861-1.42,2.23-2.561,4.488-2.561c3.17,0,5.021,2.13,5.021,5.249v8.141     h-1.953v-7.659c0-2.435-1.318-3.956-3.627-3.956c-2.256,0-3.93,1.648-3.93,4.108v7.507h-1.953V172.531z"
           fill="#00A69C" /><path
           id="path34"
           d="M228.332,183.969l0.988-1.395c1.42,1.064,2.993,1.674,4.54,1.674c1.572,0,2.714-0.812,2.714-2.08v-0.051     c0-1.318-1.547-1.825-3.271-2.308c-2.055-0.583-4.337-1.293-4.337-3.702v-0.051c0-2.257,1.876-3.754,4.464-3.754     c1.598,0,3.372,0.559,4.717,1.446l-0.889,1.471c-1.217-0.786-2.611-1.269-3.879-1.269c-1.547,0-2.537,0.812-2.537,1.902v0.051     c0,1.242,1.623,1.725,3.373,2.257c2.029,0.608,4.21,1.395,4.21,3.754v0.051c0,2.484-2.054,3.931-4.666,3.931     C231.883,185.897,229.802,185.161,228.332,183.969z"
           fill="#00A69C" /><path
           id="path36"
           d="M242.789,174.256h-1.801v-1.699h1.801v-1.141c0-1.497,0.405-2.638,1.141-3.373     c0.659-0.659,1.623-1.015,2.814-1.015c0.914,0,1.521,0.102,2.156,0.33v1.698c-0.71-0.202-1.242-0.329-1.902-0.329     c-1.521,0-2.282,0.913-2.282,2.789v1.065h4.159v1.674h-4.134v11.387h-1.952V174.256z"
           fill="#00A69C" /><path
           id="path38"
           d="M250.297,179.125v-0.051c0-3.778,2.662-6.821,6.289-6.821c3.88,0,6.111,3.094,6.111,6.923     c0,0.254,0,0.405-0.025,0.634h-10.397c0.278,2.841,2.282,4.438,4.615,4.438c1.801,0,3.069-0.735,4.134-1.852l1.217,1.091     c-1.318,1.471-2.916,2.46-5.401,2.46C253.238,185.948,250.297,183.183,250.297,179.125z M260.719,178.365     c-0.203-2.384-1.572-4.464-4.184-4.464c-2.283,0-4.008,1.902-4.261,4.464H260.719z"
           fill="#00A69C" /><path
           id="path40"
           d="M266.123,172.531h1.953v3.424c0.963-2.181,2.865-3.753,5.351-3.652v2.105h-0.152     c-2.866,0-5.198,2.054-5.198,6.01v5.225h-1.953V172.531z"
           fill="#00A69C" /><path
           id="path42"
           d="M275.025,179.125v-0.051c0-3.778,2.663-6.821,6.289-6.821c3.881,0,6.112,3.094,6.112,6.923     c0,0.254,0,0.405-0.025,0.634h-10.397c0.279,2.841,2.282,4.438,4.615,4.438c1.801,0,3.068-0.735,4.134-1.852l1.218,1.091     c-1.319,1.471-2.917,2.46-5.402,2.46C277.967,185.948,275.025,183.183,275.025,179.125z M285.449,178.365     c-0.203-2.384-1.572-4.464-4.186-4.464c-2.281,0-4.006,1.902-4.26,4.464H285.449z"
           fill="#00A69C" /><path
           id="path44"
           d="M290.852,172.531h1.952v2.282c0.863-1.42,2.232-2.561,4.489-2.561c3.17,0,5.021,2.13,5.021,5.249v8.141     h-1.952v-7.659c0-2.435-1.319-3.956-3.626-3.956c-2.258,0-3.932,1.648-3.932,4.108v7.507h-1.952V172.531z"
           fill="#00A69C" /><path
           id="path46"
           d="M305.664,179.151V179.1c0-3.702,2.892-6.847,6.721-6.847c2.485,0,4.032,1.039,5.25,2.333l-1.294,1.369     c-1.04-1.091-2.206-1.979-3.981-1.979c-2.662,0-4.691,2.258-4.691,5.072v0.051c0,2.841,2.08,5.098,4.818,5.098     c1.674,0,2.967-0.837,4.007-1.953l1.243,1.167c-1.319,1.471-2.892,2.536-5.352,2.536     C308.555,185.948,305.664,182.827,305.664,179.151z"
           fill="#00A69C" /><path
           id="path48"
           d="M321.009,167.51h2.231v2.156h-2.231V167.51z M321.135,172.531h1.952v13.111h-1.952V172.531z"
           fill="#00A69C" /><path
           id="path50"
           d="M326.639,181.839v-0.051c0-2.765,2.282-4.235,5.604-4.235c1.674,0,2.865,0.229,4.032,0.558v-0.456     c0-2.358-1.445-3.576-3.905-3.576c-1.547,0-2.764,0.406-3.981,0.964l-0.583-1.598c1.445-0.659,2.865-1.091,4.768-1.091     c1.852,0,3.271,0.482,4.234,1.446c0.889,0.887,1.345,2.155,1.345,3.829v8.014h-1.877v-1.979     c-0.913,1.192-2.435,2.258-4.742,2.258C329.099,185.922,326.639,184.527,326.639,181.839z M336.302,180.824v-1.269     c-0.964-0.278-2.257-0.558-3.854-0.558c-2.46,0-3.83,1.065-3.83,2.714v0.051c0,1.648,1.521,2.612,3.297,2.612     C334.324,184.375,336.302,182.904,336.302,180.824z"
           fill="#00A69C" /><path
           id="path52"
           d="M44.664,200.179h-5.959v-1.852h13.948v1.852h-5.96v15.9h-2.029V200.179z"
           fill="#00A69C" /><path
           id="path54"
           d="M52.046,209.562v-0.051c0-3.778,2.663-6.822,6.289-6.822c3.88,0,6.112,3.095,6.112,6.924     c0,0.254,0,0.405-0.025,0.634H54.024c0.279,2.841,2.282,4.438,4.615,4.438c1.801,0,3.069-0.735,4.134-1.852l1.217,1.091     c-1.319,1.471-2.917,2.46-5.402,2.46C54.988,216.384,52.046,213.619,52.046,209.562z M62.469,208.801     c-0.203-2.384-1.572-4.464-4.185-4.464c-2.282,0-4.007,1.902-4.26,4.464H62.469z"
           fill="#00A69C" /><path
           id="path56"
           d="M67.061,209.587v-0.051c0-3.702,2.891-6.848,6.72-6.848c2.485,0,4.032,1.04,5.25,2.334l-1.293,1.369     c-1.04-1.091-2.206-1.979-3.981-1.979c-2.663,0-4.691,2.258-4.691,5.072v0.051c0,2.841,2.08,5.098,4.818,5.098     c1.674,0,2.967-0.837,4.007-1.953l1.243,1.167c-1.319,1.471-2.891,2.536-5.351,2.536     C69.952,216.384,67.061,213.264,67.061,209.587z"
           fill="#00A69C" /><path
           id="path58"
           d="M82.355,202.968h1.953v2.282c0.862-1.42,2.231-2.562,4.489-2.562c3.17,0,5.021,2.131,5.021,5.25v8.141     h-1.953v-7.659c0-2.435-1.319-3.956-3.626-3.956c-2.257,0-3.931,1.648-3.931,4.108v7.507h-1.953V202.968z"
           fill="#00A69C" /><path
           id="path60"
           d="M97.167,209.587v-0.051c0-3.702,2.891-6.848,6.847-6.848c3.931,0,6.822,3.095,6.822,6.797v0.051     c0,3.703-2.917,6.848-6.873,6.848C100.033,216.384,97.167,213.289,97.167,209.587z M108.833,209.587v-0.051     c0-2.814-2.105-5.123-4.869-5.123c-2.84,0-4.793,2.309-4.793,5.072v0.051c0,2.815,2.08,5.098,4.844,5.098     C106.855,214.634,108.833,212.352,108.833,209.587z"
           fill="#00A69C" /><path
           id="path62"
           d="M114.541,197.567h1.953v18.513h-1.953V197.567z"
           fill="#00A69C" /><path
           id="path64"
           d="M120.222,209.587v-0.051c0-3.702,2.891-6.848,6.847-6.848c3.931,0,6.822,3.095,6.822,6.797v0.051     c0,3.703-2.917,6.848-6.873,6.848C123.088,216.384,120.222,213.289,120.222,209.587z M131.888,209.587v-0.051     c0-2.814-2.105-5.123-4.869-5.123c-2.84,0-4.793,2.309-4.793,5.072v0.051c0,2.815,2.08,5.098,4.844,5.098     C129.91,214.634,131.888,212.352,131.888,209.587z M128.642,197.313l2.029,0.938l-2.891,2.739h-1.521L128.642,197.313z"
           fill="#00A69C" /><path
           id="path66"
           d="M137.266,218.362l0.888-1.521c1.496,1.091,3.17,1.674,5.046,1.674c2.891,0,4.768-1.598,4.768-4.666     v-1.547c-1.142,1.521-2.739,2.764-5.148,2.764c-3.145,0-6.163-2.358-6.163-6.137v-0.051c0-3.829,3.043-6.188,6.163-6.188     c2.46,0,4.058,1.218,5.123,2.638v-2.358h1.953v10.829c0,2.028-0.609,3.575-1.674,4.641c-1.167,1.167-2.917,1.75-4.996,1.75     C141.045,220.188,139.016,219.579,137.266,218.362z M148.018,208.903v-0.051c0-2.688-2.333-4.438-4.818-4.438     s-4.539,1.725-4.539,4.413v0.051c0,2.638,2.104,4.463,4.539,4.463C145.685,213.34,148.018,211.54,148.018,208.903z"
           fill="#00A69C" /><path
           id="path68"
           d="M154.31,197.947h2.231v2.156h-2.231V197.947z M154.437,202.968h1.953v13.111h-1.953V202.968z"
           fill="#00A69C" /><path
           id="path70"
           d="M160.118,209.587v-0.051c0-3.702,2.891-6.848,6.72-6.848c2.485,0,4.032,1.04,5.25,2.334l-1.293,1.369     c-1.04-1.091-2.206-1.979-3.981-1.979c-2.663,0-4.691,2.258-4.691,5.072v0.051c0,2.841,2.08,5.098,4.818,5.098     c1.674,0,2.967-0.837,4.007-1.953l1.242,1.167c-1.319,1.471-2.891,2.536-5.351,2.536     C163.009,216.384,160.118,213.264,160.118,209.587z"
           fill="#00A69C" /><path
           id="path72"
           d="M174.423,212.276v-0.051c0-2.765,2.282-4.235,5.604-4.235c1.674,0,2.865,0.229,4.032,0.558v-0.456     c0-2.358-1.445-3.576-3.905-3.576c-1.547,0-2.764,0.406-3.981,0.964l-0.583-1.598c1.445-0.659,2.865-1.091,4.768-1.091     c1.852,0,3.271,0.482,4.234,1.446c0.889,0.888,1.345,2.155,1.345,3.829v8.014h-1.877v-1.979     c-0.913,1.192-2.435,2.258-4.742,2.258C176.883,216.359,174.423,214.963,174.423,212.276z M184.085,211.261v-1.268     c-0.964-0.279-2.257-0.559-3.854-0.559c-2.46,0-3.83,1.065-3.83,2.714v0.051c0,1.648,1.521,2.612,3.297,2.612     C182.107,214.812,184.085,213.34,184.085,211.261z"
           fill="#00A69C" /><path
           id="path74"
           d="M207.519,202.968h2.08l-5.503,13.542c-1.116,2.714-2.384,3.703-4.362,3.703     c-1.09,0-1.902-0.229-2.789-0.659l0.659-1.547c0.634,0.329,1.218,0.481,2.054,0.481c1.167,0,1.902-0.608,2.688-2.46l-5.96-13.061     h2.156l4.768,10.931L207.519,202.968z"
           fill="#00A69C" /><path
           id="path76"
           d="M219.467,213.492l1.243-1.471c1.851,1.674,3.626,2.511,6.087,2.511c2.383,0,3.955-1.269,3.955-3.018     v-0.051c0-1.648-0.887-2.587-4.615-3.373c-4.083-0.888-5.959-2.206-5.959-5.123v-0.051c0-2.789,2.459-4.844,5.832-4.844     c2.587,0,4.438,0.735,6.238,2.182l-1.166,1.547c-1.648-1.345-3.297-1.928-5.123-1.928c-2.308,0-3.778,1.268-3.778,2.865v0.051     c0,1.674,0.913,2.612,4.818,3.449c3.956,0.862,5.782,2.308,5.782,5.021v0.051c0,3.043-2.536,5.021-6.061,5.021     C223.905,216.333,221.597,215.395,219.467,213.492z"
           fill="#00A69C" /><path
           id="path78"
           d="M235.725,209.587v-0.051c0-3.702,2.891-6.848,6.847-6.848c3.932,0,6.822,3.095,6.822,6.797v0.051     c0,3.703-2.916,6.848-6.873,6.848C238.592,216.384,235.725,213.289,235.725,209.587z M247.39,209.587v-0.051     c0-2.814-2.104-5.123-4.869-5.123c-2.84,0-4.793,2.309-4.793,5.072v0.051c0,2.815,2.08,5.098,4.844,5.098     C245.413,214.634,247.39,212.352,247.39,209.587z"
           fill="#00A69C" /><path
           id="path80"
           d="M252.109,209.587v-0.051c0-3.702,2.892-6.848,6.721-6.848c2.485,0,4.032,1.04,5.25,2.334l-1.294,1.369     c-1.04-1.091-2.206-1.979-3.981-1.979c-2.662,0-4.691,2.258-4.691,5.072v0.051c0,2.841,2.08,5.098,4.818,5.098     c1.674,0,2.967-0.837,4.007-1.953l1.243,1.167c-1.319,1.471-2.892,2.536-5.352,2.536     C255.001,216.384,252.109,213.264,252.109,209.587z"
           fill="#00A69C" /><path
           id="path82"
           d="M267.455,197.947h2.231v2.156h-2.231V197.947z M267.582,202.968h1.952v13.111h-1.952V202.968z"
           fill="#00A69C" /><path
           id="path84"
           d="M273.085,212.276v-0.051c0-2.765,2.282-4.235,5.604-4.235c1.674,0,2.865,0.229,4.032,0.558v-0.456     c0-2.358-1.445-3.576-3.905-3.576c-1.547,0-2.764,0.406-3.981,0.964l-0.583-1.598c1.445-0.659,2.865-1.091,4.768-1.091     c1.852,0,3.271,0.482,4.234,1.446c0.889,0.888,1.345,2.155,1.345,3.829v8.014h-1.877v-1.979     c-0.913,1.192-2.435,2.258-4.742,2.258C275.545,216.359,273.085,214.963,273.085,212.276z M282.747,211.261v-1.268     c-0.964-0.279-2.257-0.559-3.854-0.559c-2.46,0-3.83,1.065-3.83,2.714v0.051c0,1.648,1.521,2.612,3.297,2.612     C280.769,214.812,282.747,213.34,282.747,211.261z"
           fill="#00A69C" /><path
           id="path86"
           d="M288.937,197.567h1.952v18.513h-1.952V197.567z"
           fill="#00A69C" /></g></g><linearGradient
       y2="144.3457"
       x2="220.5057"
       y1="-19.2131"
       x1="100.4841"
       gradientUnits="userSpaceOnUse"
       id="SVGID_1_"><stop
         id="stop92"
         style="stop-color:#00A69C"
         offset="0" /><stop
         id="stop94"
         style="stop-color:#26A9E0"
         offset="1" /></linearGradient><path
       id="path97"
       d="M224.574,76.251c-10.199-3.517-19.169-5.979-19.169-11.256v-0.35c0-3.693,3.342-6.509,9.849-6.509   c6.858,0,16.181,3.342,25.501,8.794l10.199-18.466c-10.199-6.858-23.215-10.902-35.172-10.902c-9.855,0-18.758,2.895-25.049,8.352   v-6.768h-22.158V15.053h-26.732v24.094h-4.051V22.198h-22.158V-1.895H88.901v24.094H77.645v22.863h11.256v44.67   c0,21.807,11.08,28.314,27.436,28.314c8.969,0,15.475-2.111,21.104-5.451V91.138c-3.869,2.11-8.266,3.342-13.189,3.342   c-5.98,0-8.617-2.989-8.617-9.144V45.062h14.954v16.946h11.255v44.67c0,21.808,11.08,28.313,27.436,28.313   c8.969,0,15.475-2.108,21.104-5.45v-0.412c8.84,3.995,18.068,5.862,26.631,5.862c20.4,0,36.053-9.498,36.053-30.424v-0.353   C253.065,86.98,237.765,80.649,224.574,76.251z M228.971,107.38c0,4.222-3.518,7.033-11.256,7.033   c-8.793,0-19.521-3.866-29.721-11.253l-4.973,7.649c-1.855,0.396-3.795,0.617-5.831,0.617c-5.979,0-8.616-2.99-8.616-9.146V62.008   h13.188c-0.293,1.734-0.451,3.549-0.451,5.451v0.351c0,18.29,14.949,24.445,28.139,28.314c10.377,3.166,19.521,5.102,19.521,10.904   V107.38z"
       fill="url(#SVGID_1_)" /></g></svg>