<?xml version="1.0" encoding="utf-8"?>
<!-- Generator: Adobe Illustrator 26.4.1, SVG Export Plug-In . SVG Version: 6.00 Build 0)  -->
<svg version="1.1" id="Layer_1" xmlns="http://www.w3.org/2000/svg" xmlns:xlink="http://www.w3.org/1999/xlink" x="0px" y="0px"
	 viewBox="0 0 257.6 219" style="enable-background:new 0 0 257.6 219;" xml:space="preserve">
<style type="text/css">
	.st0{fill:url(#SVGID_1_);}
	.st1{fill:url(#SVGID_00000175295837835338626570000011942066386676608155_);}
	.st2{fill:url(#SVGID_00000109027631916178928330000005440353552477258920_);}
	.st3{fill:url(#SVGID_00000085242267936628166100000008599915828595358122_);}
	.st4{fill:url(#SVGID_00000161609926105319137270000016535544674023769477_);}
	.st5{fill:none;}
	.st6{fill:url(#SVGID_00000093860228811415745840000007041369172903642299_);}
	.st7{fill:#00A79D;}
	.st8{fill:url(#SVGID_00000178166690483226327040000012300293037744239751_);}
	.st9{fill:url(#SVGID_00000031190103117311809960000000989510456364034435_);}
	.st10{fill:url(#SVGID_00000155129924711348340210000002627008694623767702_);}
	.st11{fill:url(#SVGID_00000132768747562112756320000010932875439746757777_);}
	.st12{fill:url(#SVGID_00000005257748405006623430000007239589813071631502_);}
	.st13{fill:url(#SVGID_00000070807569815562566820000002993036334603531926_);}
	.st14{fill:url(#SVGID_00000076569205236641732390000012465791392913181062_);}
	.st15{fill:url(#SVGID_00000041259242580270282240000007311202755904367244_);}
	.st16{fill:url(#SVGID_00000154421337069256796910000011277873785516910521_);}
	.st17{fill:url(#SVGID_00000025409767955641555180000002797025501367524015_);}
	.st18{fill:url(#SVGID_00000165213387142663710600000014317340087033372046_);}
	.st19{fill:url(#SVGID_00000085219999366970652390000006717620280165307539_);}
	.st20{fill:url(#SVGID_00000014609838502626287990000006351822666163254917_);}
	.st21{fill:url(#SVGID_00000164497951882046007580000008363682219207974531_);}
</style>
<g>
	<g>
		<g>
			
				<linearGradient id="SVGID_1_" gradientUnits="userSpaceOnUse" x1="5.7329" y1="894.597" x2="241.8175" y2="1153.9259" gradientTransform="matrix(1.0089 0 0 1.0089 35.9726 -954.4648)">
				<stop  offset="0" style="stop-color:#00A79D"/>
				<stop  offset="1" style="stop-color:#27AAE1"/>
			</linearGradient>
			<path class="st0" d="M115.5,1.6C107-2.9,95.4,2.4,89.7,13.4c-2.2,4.2-3.2,8.7-3.1,12.8c0,0,0.1,0,0.1,0c0-0.4-0.1-0.8-0.1-1.2
				c9.9,2.9,14.4,10.4,14.4,10.4c1.7,2.5,3.2,4.7,4.4,6.8c-0.4,0.1-0.7,0.1-1.1,0.2c0,0,0.1,0.1,0.1,0.1c6.2-1.2,12.4-5.9,16.1-13.1
				C126.4,18.5,124.1,6,115.5,1.6z"/>
		</g>
		<g>
			
				<linearGradient id="SVGID_00000003064176307814966480000011175776290847900598_" gradientUnits="userSpaceOnUse" x1="-10.5367" y1="909.2925" x2="225.779" y2="1168.8751" gradientTransform="matrix(1.0089 0 0 1.0089 35.9726 -954.4648)">
				<stop  offset="0" style="stop-color:#00A79D"/>
				<stop  offset="1" style="stop-color:#27AAE1"/>
			</linearGradient>
			<path style="fill:url(#SVGID_00000003064176307814966480000011175776290847900598_);" d="M85.8,28.9c-0.2,0-0.4,0-0.6,0
				C85.4,29,85.6,29,85.8,28.9C85.8,29,85.8,29,85.8,28.9z"/>
			
				<linearGradient id="SVGID_00000016796670834320549260000012607447908536961423_" gradientUnits="userSpaceOnUse" x1="-54.3335" y1="949.2465" x2="181.823" y2="1208.6543" gradientTransform="matrix(1.0089 0 0 1.0089 35.9726 -954.4648)">
				<stop  offset="0" style="stop-color:#00A79D"/>
				<stop  offset="1" style="stop-color:#27AAE1"/>
			</linearGradient>
			<path style="fill:url(#SVGID_00000016796670834320549260000012607447908536961423_);" d="M50.8,38.5
				c-13.7,7.6-29.7,29.2-37.7,41.1C22.2,67.5,37.9,46.2,50.8,38.5z"/>
			
				<linearGradient id="SVGID_00000089563465694446101150000012162087485733291937_" gradientUnits="userSpaceOnUse" x1="-16.3319" y1="915.0818" x2="219.2079" y2="1173.8124" gradientTransform="matrix(1.0089 0 0 1.0089 35.9726 -954.4648)">
				<stop  offset="0" style="stop-color:#00A79D"/>
				<stop  offset="1" style="stop-color:#27AAE1"/>
			</linearGradient>
			<path style="fill:url(#SVGID_00000089563465694446101150000012162087485733291937_);" d="M105.8,62.6c0.4-0.9-0.2,1.6-0.2,0.2
				c-0.3,1.9,0-0.4-0.6,1C105.4,63.3,105.6,63.1,105.8,62.6z"/>
			
				<linearGradient id="SVGID_00000146477223939393775750000009538172766197906107_" gradientUnits="userSpaceOnUse" x1="-10.0811" y1="908.8782" x2="226.2258" y2="1168.4513" gradientTransform="matrix(1.0089 0 0 1.0089 35.9726 -954.4648)">
				<stop  offset="0" style="stop-color:#00A79D"/>
				<stop  offset="1" style="stop-color:#27AAE1"/>
			</linearGradient>
			<path style="fill:url(#SVGID_00000146477223939393775750000009538172766197906107_);" d="M85.8,29c0.4,0,0.7,0,1.1,0
				C86.5,29,86.2,28.9,85.8,29C85.8,29,85.8,29,85.8,29z"/>
			<g>
				<path class="st5" d="M182.4,87.4c0-6.3-3.2-9.6-8.1-9.6s-8.4,3.4-8.4,9.6v26.3c4.3-3.8,9.9-6.4,16.4-6.9V87.4z"/>
				<path class="st5" d="M157.4,132.9c0-5.4,1.7-10.5,4.7-14.8H156c0.2,0.9,0.3,1.9,0.3,2.9v0.2c0,8.4-4.4,12.8-12.2,18.5L135,146
					h21.8v3.1h6.3c-3.6-4.4-5.6-10-5.6-16L157.4,132.9L157.4,132.9z"/>
				<path class="st5" d="M184.9,121.5c-6.4,0-10.5,5.1-10.5,11.2v0.2c0,6.1,4.4,11.3,10.7,11.3c6.4,0,10.6-5.1,10.6-11.1v-0.2
					C195.6,126.7,191.1,121.5,184.9,121.5z"/>
				<path class="st5" d="M215.2,92.4c-4.9-1.3-9.4-2.8-12.9-4.9v8.1c5.8,3.3,11.8,5,17,5c3.5,0,5.1-1,5.1-3v-0.2
					C224.4,95,221.1,94.1,215.2,92.4z"/>
				<path class="st5" d="M217.6,69.3c-3,0-4.6,1.2-4.6,2.8v0.2c0,2.2,3.3,3.2,9.2,5c5.6,1.6,10.6,3.3,14.2,6V70.8l-2,3.8
					C228.5,71.2,222.1,69.3,217.6,69.3z"/>
				<g>
					<path class="st5" d="M182.4,87.4c0-6.3-3.2-9.6-8.1-9.6s-8.4,3.4-8.4,9.6v26.3c4.3-3.8,9.9-6.4,16.4-6.9V87.4z"/>
					<path class="st5" d="M184.9,121.5c-6.4,0-10.5,5.1-10.5,11.2v0.2c0,6.1,4.4,11.3,10.7,11.3c6.4,0,10.6-5.1,10.6-11.1v-0.2
						C195.6,126.7,191.1,121.5,184.9,121.5z"/>
					<path class="st5" d="M103.2,44.5C90.5,46.9,86.9,35.8,85.8,29c-0.2,0-0.4,0-0.7,0c-16.6-0.9-18.4,0.1-34.3,9.5
						c-12.9,7.7-28.6,29-37.7,41.1c-2.2,2.9-4,5.3-5.3,6.8c-2.4,2.8,0.4,3.2,0.4,3.2S37,47.6,52.8,45c15.7-2.7,18.8,9.8,20.7,16.3
						c1.9,6.5-10.3,37.3-11.7,40.5c-1.5,3.1-11.2,24.8-11.2,24.8c-0.8,1.4-32.3,74-35.3,80c-3,5.9,1.1,7.6,1.1,7.6
						c12,1.4,30.5-2.4,30.5-2.4c1.3-2.1-2.7-3-2.7-3c-10.5,0.9-9.7-2.8-12.1-5.9c-2.4-3.2,18-44,24.5-50.8
						c6.4-6.7,13.7-26.7,14.9-30c4-10.5,23.8-30.4,28.9-51.2c0.2-0.8,4.3-5.7,4.7-6.9c0.5-1.4,1.5-1.8,1.9-3.7
						c0.7-4-0.1-10.2-3.5-15.7C103.4,44.5,103.3,44.5,103.2,44.5z"/>
					<path class="st5" d="M157.4,132.9c0-5.4,1.7-10.5,4.7-14.8H156c0.2,0.9,0.3,1.9,0.3,2.9v0.2c0,8.4-4.4,12.8-12.2,18.5L135,146
						h21.8v3.1h6.3c-3.6-4.4-5.6-10-5.6-16L157.4,132.9L157.4,132.9z"/>
					<path class="st5" d="M215.2,92.4c-4.9-1.3-9.4-2.8-12.9-4.9v8.1c5.8,3.3,11.8,5,17,5c3.5,0,5.1-1,5.1-3v-0.2
						C224.4,95,221.1,94.1,215.2,92.4z"/>
					<path class="st5" d="M217.6,69.3c-3,0-4.6,1.2-4.6,2.8v0.2c0,2.2,3.3,3.2,9.2,5c5.6,1.6,10.6,3.3,14.2,6V70.8l-2,3.8
						C228.5,71.2,222.1,69.3,217.6,69.3z"/>
					
						<linearGradient id="SVGID_00000012434993975439377390000015667558004964751547_" gradientUnits="userSpaceOnUse" x1="-33.5901" y1="930.3901" x2="202.5016" y2="1189.7267" gradientTransform="matrix(1.0089 0 0 1.0089 35.9726 -954.4648)">
						<stop  offset="0" style="stop-color:#00A79D"/>
						<stop  offset="1" style="stop-color:#27AAE1"/>
					</linearGradient>
					<path style="fill:url(#SVGID_00000012434993975439377390000015667558004964751547_);" d="M236.4,42.1v17.4
						c-5.7-2.6-12.2-4-18.6-4c-9.6,0-17.3,3.6-20.8,10.3c-3.3-3.5-8.1-5.5-14.1-5.5c-8.1,0-13.3,4.5-17,9.2v-8h-15.6V49.2h-17.8
						v27.5c0,5.5-3.2,8.6-7.5,8.6c-4.3,0-7.2-3-7.2-8.6V49.2h-8.7c-0.8-1.7-1.7-3.6-3-5.9c-0.3-0.5-0.3-0.6-0.6-1.2
						c-0.7,0.1-3.6,0.3-5.4,0.1c0-0.1-3-0.3-5.3-1.6C88.6,37,86.7,25.8,86.7,25c-0.4-0.1-0.8,1-1.2,0.9c-3.1-0.7-7.1-0.7-10.2-0.6
						c-14,0.4-15.8,3.3-23.3,8.6c-8.2,5.8-36,32.6-49.6,56.3c0,0-1.2,1.9,0.4,2.6c0,0,0.3,1.4-0.4,1.7c-0.7,0.3-3.1,3.5-2.2,5.9
						c0.9,2.3,2.4,5.5,4.4,5.3c1.9-0.1,10.1,0.7,7.7-8.4c0,0-0.5-1.6,1-2c1.5-0.4,1.8-3.9,2.2-4.4c0.4-0.5,13.7-18.4,13.9-18.8
						c0.2-0.4,9.3-10.5,11.1-11.9c1.8-1.5,6.6-7.9,16-5.6c7,1.8,10.3,3.7,10.7,9.5c0.5,7.1-0.9,15-2.3,20.2c0,0-14.8,33.1-19.1,43.3
						c-4.3,10.3-34.8,70.8-34.8,70.8s-1.6,5.4,1.9,5.4c1.6,0-7.5,11.7,1.5,13c9,1.3,34.4-2.8,35.6-3.6c1.2-0.8,5.8-5.5,6.6-7
						c3.1-5.6-12.7-2.6-16.7-3.6c-4-1-1.6-3.8,0.4-8.2c1.9-4.5,34.1-64.8,35-67.8c0.3-1,5.2-6.2,10-13.9c0.1,0.6-0.5,0.5,1.2,0.8
						c2.2,0.4,5.5-5.6,5.4-7.4c0-1,4.6-10.3,8.6-19c1.6,8.8,7.7,14.1,17,14.1c7.2,0,11.9-3.9,15.2-8.2v7h13.4v6
						c-2.7-1.1-5.8-1.8-9.3-1.8c-10.2,0-15.8,4-21.5,11.3l9.9,8.2c4.1-4.7,6.9-6.9,10.5-6.9c3.6,0,6,2,6,5.4c0,3.2-2,5.7-6.9,9.5
						L115,146.9v11h39.7v5.9h14.9v-9c4.3,2.7,9.6,4.3,15.4,4.3c16.1,0,27.8-12,27.8-26.2v-0.2c0-8.3-4-15.8-10.5-20.6v-0.7
						c5.4,2.1,11.1,3.1,16.9,3.1c7.2,0,13.2-1.8,17.2-5.2v9.2h19.8V42.1H236.4z M5.1,103.7c-0.6,0.1-1.9-0.7-3.2-3.9
						c-1.3-3.2,3.1-5,3.1-5c1.3,0.4,0,1.5,0,1.5c-5.3,1.6,0.6,5.1,2.2,5.7C8.9,102.6,5.7,103.6,5.1,103.7z M106.9,60.2
						c-0.3,1.9-1.3,2.3-1.9,3.7c-0.5,1.2-4.5,6-4.7,6.9c-5.1,20.9-24.9,40.8-28.9,51.2c-1.2,3.2-8.5,23.2-14.9,30
						c-6.4,6.7-26.9,47.6-24.5,50.8c2.4,3.2,1.6,6.8,12.1,6c0,0,4,0.8,2.7,3c0,0-18.5,3.8-30.5,2.4c0,0-4.1-1.7-1.1-7.6
						c3-5.9,34.6-78.6,35.3-80c0,0,9.7-21.7,11.2-24.8c1.5-3.1,13.7-34,11.7-40.5c-1.9-6.5-5-18.9-20.7-16.3
						C37,47.6,8.2,89.5,8.2,89.5s-2.8-0.4-0.4-3.2c1.3-1.5,3.1-3.9,5.3-6.8c9.1-12.1,24.8-33.4,37.7-41.1C66.7,29,68.6,28.1,85.2,29
						c0.2,0,0.4,0,0.7,0c1,6.8,4.7,17.9,17.3,15.5c0.1,0,0.2,0,0.3,0C106.8,50,107.6,56.2,106.9,60.2z M156.7,149.1V146H135l9.1-6.3
						c7.8-5.7,12.2-10,12.2-18.5V121c0-1-0.1-2-0.3-2.9h6.1c-3,4.2-4.7,9.3-4.7,14.8v0.2c0,6,2.1,11.6,5.6,16L156.7,149.1
						L156.7,149.1z M166,113.7V87.4c0-6.3,3.6-9.6,8.4-9.6c4.8,0,8.1,3.4,8.1,9.6v19.3C175.9,107.3,170.3,109.8,166,113.7z
						 M195.6,133.1c0,6-4.2,11.1-10.6,11.1c-6.2,0-10.7-5.2-10.7-11.3v-0.2c0-6.1,4.1-11.2,10.5-11.2c6.2,0,10.7,5.2,10.7,11.4
						V133.1z M224.4,97.5c0,2-1.7,3-5.1,3c-5.2,0-11.2-1.7-17-5v-8.1c3.5,2.2,8,3.7,12.9,4.9c6,1.7,9.2,2.6,9.2,4.9L224.4,97.5
						L224.4,97.5z M236.4,83.3c-3.6-2.7-8.6-4.5-14.2-6c-5.9-1.8-9.2-2.8-9.2-5v-0.2c0-1.7,1.6-2.8,4.6-2.8c4.5,0,10.9,2,16.8,5.3
						l2-3.8L236.4,83.3L236.4,83.3z"/>
				</g>
			</g>
		</g>
	</g>
	<g>
		<path class="st7" d="M65.9,175.5c1.8-1.5,4.1-2.8,6.6-2.8c4.1,0,6.4,2.5,5.8,6.7c-0.2,1.3-0.8,2.9-1.4,4.4l-3.8,9.3
			c-0.9,2.1-2.4,3.3-4.1,3.3c-2.2,0-3.1-1.6-2-4.3l3.5-8.6c0.3-0.6,0.5-1.5,0.6-2.1c0.3-1.8-0.8-2.8-2.8-2.8c-2.6,0-4.5,1.8-5.6,4.6
			l-4,9.9c-0.9,2.1-2.4,3.3-4.1,3.3c-2.2,0-3.1-1.6-2-4.3l6.5-15.9c0.9-2.1,2.4-3.3,4.2-3.3C65.2,172.8,66.1,174,65.9,175.5z"/>
		<path class="st7" d="M90.2,175.5c1.8-1.5,4.1-2.8,6.6-2.8c4.1,0,6.4,2.5,5.8,6.7c-0.2,1.3-0.8,2.9-1.4,4.4l-3.8,9.3
			c-0.9,2.1-2.4,3.3-4.1,3.3c-2.2,0-3.1-1.6-2-4.3l3.5-8.6c0.3-0.6,0.5-1.5,0.6-2.1c0.3-1.8-0.8-2.8-2.8-2.8c-2.6,0-4.5,1.8-5.6,4.6
			l-4,9.9c-0.9,2.1-2.4,3.3-4.1,3.3c-2.2,0-3.1-1.6-2-4.3l6.5-15.9c0.9-2.1,2.4-3.3,4.2-3.3C89.6,172.8,90.4,174,90.2,175.5z"/>
		<path class="st7" d="M103.1,186c1-6.9,7.8-13.3,15.1-13.3c6.8,0,10.4,4.5,9.6,10.6c-1,6.9-7.8,13.3-15.1,13.3
			C105.8,196.6,102.2,192.1,103.1,186z M121.3,183.5c0.5-3.3-1.3-5.2-4.2-5.2c-4,0-7.2,4.3-7.7,7.5c-0.5,3.3,1.3,5.2,4.2,5.2
			C117.7,191,120.9,186.7,121.3,183.5z"/>
		<path class="st7" d="M138.1,193.8c-1.5,1.8-2.8,2.7-4.7,2.7h-0.2c-1.9,0-2.8-0.9-2.8-2.9l-0.3-16.2c0-0.5,0-1.1,0.1-1.5
			c0.2-1.8,2.1-3,3.7-3c1.9,0,3,1,2.9,2.7l-0.5,12.8l10.4-13.5c1-1.3,2.2-2.1,3.7-2.1c1.7,0,2.6,0.9,2.4,2.5
			c-0.1,0.6-0.4,1.3-0.8,1.7L138.1,193.8z"/>
		<path class="st7" d="M160.5,193.4c-2.1,2-4.6,3.1-7.3,3.1c-4,0-6.3-2.6-5.8-6.2c0.7-5.3,5.5-8.3,11.1-8.3c2.5,0,4.5,0.4,6.3,1
			l0.1-0.3c0.2-0.5,0.4-1,0.5-1.7c0.2-1.6-0.7-2.7-3.9-2.7c-1.3,0-2.9,0.2-4.1,0.5c-0.4,0.1-0.8,0.2-1.1,0.2c-1.5,0-2.4-1.1-2.2-2.6
			c0.2-1.3,1.2-2.2,2.3-2.5c2.2-0.7,4.6-1.1,7.2-1.1c6.2,0,8.9,2.6,8.3,7.1c-0.2,1.2-0.5,2.3-1,3.5l-3.9,9.6
			c-0.9,2.1-2.4,3.3-4.1,3.3C160.3,196.3,160.2,194.7,160.5,193.4z M163,187.4l0.3-0.6c-1.1-0.4-2.6-0.8-4.2-0.8
			c-2.7,0-4.9,1.4-5.2,3.6c-0.2,1.4,0.8,2.4,2.7,2.4C159.3,192,161.9,189.9,163,187.4z"/>
		<path class="st7" d="M181.7,196.6c-6.3,0-10.1-4.1-9.2-10.4c1.1-7.5,8.1-13.5,15.4-13.5c4.2,0,6.2,1.6,7.3,2.9
			c0.6,0.6,1,1.4,0.8,2.5c-0.2,1.7-1.8,3-3.6,3c-0.9,0-1.5-0.3-2-0.9c-0.8-1.2-2-1.9-3.9-1.9c-3.4,0-7.1,3.7-7.7,8
			c-0.4,3,1.3,4.8,3.8,4.8c1.3,0,2.6-0.3,4.1-1.3c0.6-0.3,1.3-0.7,2-0.7c1.5,0,2.4,1.2,2.2,2.7c-0.1,0.9-0.6,1.6-1.3,2.1
			C187.3,195.7,184.8,196.6,181.7,196.6z"/>
		<path class="st7" d="M199,193c-0.9,2.1-2.4,3.3-4.1,3.3c-2.2,0-3.1-1.6-2-4.3l6.5-15.9c0.9-2.1,2.4-3.3,4.1-3.3
			c2.2,0,3.1,1.6,2,4.3L199,193z M205.1,170.8c-2.1,0-3.3-1.3-2.7-3l0.1-0.2c0.6-1.8,2.6-3,4.6-3c2.1,0,3.3,1.3,2.7,3l-0.1,0.2
			C209.1,169.6,207.2,170.8,205.1,170.8z"/>
		<path class="st7" d="M205.1,186c1-6.9,7.8-13.3,15.1-13.3c6.8,0,10.4,4.5,9.6,10.6c-1,6.9-7.8,13.3-15.1,13.3
			C207.9,196.6,204.3,192.1,205.1,186z M223.4,183.5c0.5-3.3-1.3-5.2-4.2-5.2c-4,0-7.2,4.3-7.7,7.5c-0.5,3.3,1.3,5.2,4.2,5.2
			C219.8,191,223,186.7,223.4,183.5z M227.5,169.4c-1.5,1-2.7,1.4-4,1.4c-1.1,0-1.7-0.4-1.6-1.2c0.1-0.4,0.3-0.8,0.7-1.2l3.8-3.6
			c0.8-0.8,1.6-1.4,2.6-1.4c1.6,0,3.5,1,3.3,2.1c-0.1,0.5-0.4,0.9-1.1,1.4L227.5,169.4z"/>
		<path class="st7" d="M242.4,175.5c1.8-1.5,4.1-2.8,6.7-2.8c4.1,0,6.4,2.5,5.8,6.7c-0.2,1.3-0.8,2.9-1.4,4.4l-3.8,9.3
			c-0.9,2.1-2.4,3.3-4.1,3.3c-2.2,0-3.1-1.6-2-4.3l3.5-8.6c0.3-0.6,0.5-1.5,0.6-2.1c0.3-1.8-0.8-2.8-2.8-2.8c-2.6,0-4.5,1.8-5.6,4.6
			l-4,9.9c-0.9,2.1-2.4,3.3-4.1,3.3c-2.2,0-3.1-1.6-2-4.3l6.5-15.9c0.9-2.1,2.4-3.3,4.2-3.3C241.8,172.8,242.6,174,242.4,175.5z"/>
	</g>
	<g>
		<path class="st7" d="M77.7,202.9c0.2-0.9,0.8-1.4,1.6-1.4c1,0,1.5,0.7,1.1,1.9l-0.2,0.8h1c0.7,0,1.2,0.5,1.2,1.2
			c0,0.7-0.5,1.2-1.2,1.2h-1.6l-1.1,4.2c0,0.2-0.1,0.3-0.1,0.4c0,0.4,0.2,0.6,0.7,0.6h0.2c0.6,0,1,0.4,1,1.1c0,0.6-0.3,1-0.7,1.2
			c-0.5,0.2-1,0.3-1.7,0.3c-1.7,0-2.6-0.9-2.6-2c0-0.4,0.1-0.8,0.2-1.2l1.2-4.5c-0.5-0.1-1-0.5-1-1.2c0-0.7,0.5-1.2,1.2-1.2h0.5
			L77.7,202.9z"/>
		<path class="st7" d="M88.2,211.7c0.2-0.1,0.6-0.3,0.9-0.3c0.6,0,1.1,0.4,1.1,1.1c0,0.4-0.2,0.7-0.5,1c-0.9,0.6-2,0.9-3.2,0.9
			c-2.9,0-4.6-1.7-4.6-4.4c0-2.9,2.3-6,5.9-6c2.6,0,4.1,1.7,4.1,3.9c0,0.3,0,0.7-0.1,1c-0.2,0.8-0.6,1.2-1.4,1.2h-5.9
			c0.1,1.2,0.8,2,2.3,2C87.2,212.1,87.8,211.9,88.2,211.7z M88.9,208.3c0.1-0.2,0.1-0.4,0.1-0.7c0-0.8-0.5-1.5-1.6-1.5
			c-1.3,0-2.3,0.9-2.8,2.1H88.9z"/>
		<path class="st7" d="M96.7,214.3c-2.7,0-4.7-1.8-4.7-4.5c0-3.3,2.7-5.9,5.9-5.9c1.8,0,2.8,0.7,3.4,1.2c0.3,0.3,0.5,0.6,0.5,1.1
			c0,0.7-0.6,1.3-1.4,1.3c-0.4,0-0.7-0.1-0.9-0.4c-0.4-0.5-1-0.8-1.8-0.8c-1.5,0-2.9,1.6-2.9,3.5c0,1.3,0.9,2.1,2,2.1
			c0.6,0,1.1-0.2,1.7-0.6c0.2-0.1,0.5-0.3,0.8-0.3c0.7,0,1.1,0.5,1.1,1.2c0,0.4-0.2,0.7-0.4,0.9C99.1,214,98.1,214.3,96.7,214.3z"/>
		<path class="st7" d="M106,205.2c0.7-0.6,1.6-1.2,2.7-1.2c1.8,0,2.9,1.1,2.9,2.9c0,0.6-0.2,1.3-0.3,1.9l-1.1,4
			c-0.2,0.9-0.8,1.4-1.6,1.4c-0.9,0-1.5-0.7-1.1-1.9l1-3.7c0.1-0.3,0.1-0.7,0.1-0.9c0-0.8-0.5-1.2-1.4-1.2c-1.1,0-1.8,0.8-2.2,2
			l-1.2,4.3c-0.2,0.9-0.8,1.4-1.6,1.4c-0.9,0-1.5-0.7-1.1-1.9l1.8-6.9c0.2-0.9,0.8-1.4,1.6-1.4C105.5,204,106,204.5,106,205.2z"/>
		<path class="st7" d="M112.2,209.7c0-3,2.6-5.8,5.8-5.8c3,0,4.8,2,4.8,4.6c0,3-2.6,5.8-5.8,5.8C114,214.3,112.2,212.4,112.2,209.7z
			 M120,208.6c0-1.5-0.9-2.3-2.2-2.3c-1.7,0-2.9,1.9-2.9,3.3c0,1.5,0.9,2.3,2.2,2.3C118.9,211.9,120,210,120,208.6z"/>
		<path class="st7" d="M125.9,212.8c-0.2,0.9-0.8,1.4-1.6,1.4c-1,0-1.5-0.7-1.1-1.9l2.8-10.5c0.2-0.9,0.8-1.4,1.6-1.4
			c1,0,1.5,0.7,1.1,1.9L125.9,212.8z"/>
		<path class="st7" d="M128.1,209.7c0-3,2.6-5.8,5.8-5.8c3,0,4.8,2,4.8,4.6c0,3-2.6,5.8-5.8,5.8
			C129.9,214.3,128.1,212.4,128.1,209.7z M135.9,208.6c0-1.5-0.9-2.3-2.2-2.3c-1.7,0-2.9,1.9-2.9,3.3c0,1.5,0.9,2.3,2.2,2.3
			C134.8,211.9,135.9,210,135.9,208.6z M136.8,202.5c-0.6,0.4-1.1,0.6-1.7,0.6c-0.5,0-0.8-0.2-0.8-0.5c0-0.2,0.1-0.3,0.2-0.5
			l1.4-1.6c0.3-0.3,0.6-0.6,1.1-0.6c0.7,0,1.6,0.4,1.6,0.9c0,0.2-0.1,0.4-0.4,0.6L136.8,202.5z"/>
		<path class="st7" d="M147.9,205.4c0.2-0.8,0.7-1.4,1.6-1.4c0.9,0,1.5,0.7,1.1,1.9l-1.7,6.3c-0.5,2-0.9,2.8-1.7,3.6
			c-0.9,0.9-2.2,1.4-4,1.4c-1.6,0-3-0.3-4.3-0.9c-0.5-0.2-0.8-0.6-0.8-1.1c0-0.7,0.5-1.2,1.2-1.2c0.3,0,0.5,0.1,0.8,0.2
			c1,0.5,2,0.7,2.9,0.7c0.9,0,1.6-0.3,2.2-0.8c0.4-0.4,0.7-1,0.9-1.8l0.1-0.3c-1,0.9-1.9,1.3-3.1,1.3c-1.9,0-3.7-1.2-3.7-3.5
			c0-3.3,2.7-5.9,5.5-5.9c1.7,0,2.5,0.8,3,1.7L147.9,205.4z M147.1,208.1c0-1.1-0.8-1.8-2-1.8c-1.6,0-2.9,1.4-2.9,3
			c0,1.2,0.8,1.8,1.9,1.8C145.7,211,147.1,209.7,147.1,208.1z"/>
		<path class="st7" d="M153.3,212.8c-0.2,0.9-0.8,1.4-1.6,1.4c-1,0-1.5-0.7-1.1-1.9l1.9-6.9c0.2-0.9,0.8-1.4,1.6-1.4
			c0.9,0,1.5,0.7,1.1,1.9L153.3,212.8z M154.6,203.1c-0.9,0-1.5-0.6-1.4-1.3l0-0.1c0.2-0.8,0.9-1.3,1.8-1.3c0.9,0,1.5,0.6,1.4,1.3
			l0,0.1C156.3,202.6,155.5,203.1,154.6,203.1z"/>
		<path class="st7" d="M160.2,214.3c-2.7,0-4.7-1.8-4.7-4.5c0-3.3,2.7-5.9,5.9-5.9c1.8,0,2.8,0.7,3.4,1.2c0.3,0.3,0.5,0.6,0.5,1.1
			c0,0.7-0.6,1.3-1.4,1.3c-0.4,0-0.7-0.1-0.9-0.4c-0.4-0.5-1-0.8-1.8-0.8c-1.5,0-2.9,1.6-2.9,3.5c0,1.3,0.9,2.1,2,2.1
			c0.6,0,1.1-0.2,1.7-0.6c0.2-0.1,0.5-0.3,0.8-0.3c0.7,0,1.1,0.5,1.1,1.2c0,0.4-0.2,0.7-0.4,0.9C162.6,214,161.6,214.3,160.2,214.3z
			"/>
		<path class="st7" d="M170.3,213c-0.8,0.9-1.8,1.3-3,1.3c-1.7,0-2.9-1.1-2.9-2.7c0-2.3,1.9-3.6,4.3-3.6c1.1,0,2,0.2,2.8,0.4l0-0.1
			c0.1-0.2,0.1-0.4,0.1-0.7c0-0.7-0.5-1.2-1.9-1.2c-0.6,0-1.2,0.1-1.7,0.2c-0.2,0-0.3,0.1-0.5,0.1c-0.6,0-1.1-0.5-1.1-1.1
			c0-0.6,0.4-0.9,0.9-1.1c0.9-0.3,2-0.5,3.1-0.5c2.7,0,4,1.1,4,3.1c0,0.5-0.1,1-0.2,1.5l-1.1,4.2c-0.2,0.9-0.8,1.4-1.6,1.4
			C170.4,214.2,170.3,213.5,170.3,213z M171.1,210.3l0.1-0.3c-0.5-0.2-1.2-0.4-1.9-0.4c-1.2,0-2,0.6-2,1.6c0,0.6,0.5,1.1,1.3,1.1
			C169.7,212.4,170.7,211.4,171.1,210.3z"/>
		<path class="st7" d="M181,214.8c0.3,0,0.6-0.1,1-0.6l-1.2-8.2c0-0.2-0.1-0.5-0.1-0.7c0-0.7,0.6-1.3,1.4-1.3c0.8,0,1.3,0.5,1.4,1.2
			l0.6,5.8l3.5-6.1c0.3-0.5,0.8-0.9,1.4-0.9c0.7,0,1.2,0.4,1.2,1.1c0,0.2-0.1,0.6-0.4,1l-5.2,8.3c-1.3,2.1-2.4,2.8-4,2.8
			c-0.5,0-1,0-1.3-0.2c-0.4-0.2-0.9-0.5-0.9-1.2c0-0.7,0.5-1.2,1.1-1.2c0.2,0,0.4,0.1,0.6,0.1C180.4,214.7,180.6,214.8,181,214.8z"
			/>
		<path class="st7" d="M201.3,210.4c0-0.6-0.5-1-2.2-1.7c-1.7-0.7-3.2-1.6-3.2-3.5c0-2.7,2.4-4.3,5.2-4.3c2,0,3.1,0.6,4,1.2
			c0.4,0.3,0.7,0.6,0.7,1.2c0,0.8-0.6,1.4-1.4,1.4c-0.3,0-0.6-0.1-0.8-0.2c-0.9-0.7-1.6-1-2.7-1c-1.2,0-1.9,0.7-1.9,1.3
			c0,0.7,0.5,1,2.3,1.7c1.8,0.7,3.1,1.6,3.1,3.5c0,2.7-2.4,4.3-5.2,4.3c-1.5,0-3.5-0.3-4.8-1.5c-0.3-0.3-0.6-0.7-0.6-1.2
			c0-0.8,0.6-1.5,1.4-1.5c0.4,0,0.7,0.2,0.9,0.4c1.1,0.9,1.9,1.3,3.2,1.3C200.5,211.8,201.3,211.2,201.3,210.4z"/>
		<path class="st7" d="M205.4,209.7c0-3,2.6-5.8,5.8-5.8c3,0,4.8,2,4.8,4.6c0,3-2.6,5.8-5.8,5.8
			C207.3,214.3,205.4,212.4,205.4,209.7z M213.2,208.6c0-1.5-0.9-2.3-2.2-2.3c-1.7,0-2.9,1.9-2.9,3.3c0,1.5,0.9,2.3,2.2,2.3
			C212.1,211.9,213.2,210,213.2,208.6z"/>
		<path class="st7" d="M221.3,214.3c-2.7,0-4.7-1.8-4.7-4.5c0-3.3,2.7-5.9,5.9-5.9c1.8,0,2.8,0.7,3.4,1.2c0.3,0.3,0.5,0.6,0.5,1.1
			c0,0.7-0.6,1.3-1.4,1.3c-0.4,0-0.7-0.1-0.9-0.4c-0.4-0.5-1-0.8-1.8-0.8c-1.5,0-2.9,1.6-2.9,3.5c0,1.3,0.9,2.1,2,2.1
			c0.6,0,1.1-0.2,1.7-0.6c0.2-0.1,0.5-0.3,0.8-0.3c0.7,0,1.1,0.5,1.1,1.2c0,0.4-0.2,0.7-0.4,0.9C223.7,214,222.6,214.3,221.3,214.3z
			"/>
		<path class="st7" d="M228.6,212.8c-0.2,0.9-0.8,1.4-1.6,1.4c-0.9,0-1.5-0.7-1.1-1.9l1.9-6.9c0.2-0.9,0.8-1.4,1.6-1.4
			c1,0,1.5,0.7,1.1,1.9L228.6,212.8z M229.9,203.1c-0.9,0-1.5-0.6-1.4-1.3l0-0.1c0.2-0.8,0.9-1.3,1.8-1.3c0.9,0,1.5,0.6,1.4,1.3
			l0,0.1C231.6,202.6,230.8,203.1,229.9,203.1z"/>
		<path class="st7" d="M236.1,213c-0.8,0.9-1.8,1.3-3,1.3c-1.7,0-2.9-1.1-2.9-2.7c0-2.3,1.9-3.6,4.3-3.6c1.1,0,2,0.2,2.8,0.4l0-0.1
			c0.1-0.2,0.1-0.4,0.1-0.7c0-0.7-0.5-1.2-1.9-1.2c-0.6,0-1.2,0.1-1.7,0.2c-0.2,0-0.3,0.1-0.5,0.1c-0.6,0-1.1-0.5-1.1-1.1
			c0-0.6,0.4-0.9,0.9-1.1c0.9-0.3,2-0.5,3.1-0.5c2.7,0,4,1.1,4,3.1c0,0.5-0.1,1-0.2,1.5l-1.1,4.2c-0.2,0.9-0.8,1.4-1.6,1.4
			C236.2,214.2,236,213.5,236.1,213z M236.8,210.3l0.1-0.3c-0.5-0.2-1.2-0.4-1.9-0.4c-1.2,0-2,0.6-2,1.6c0,0.6,0.5,1.1,1.3,1.1
			C235.5,212.4,236.5,211.4,236.8,210.3z"/>
		<path class="st7" d="M243.3,212.8c-0.2,0.9-0.8,1.4-1.6,1.4c-1,0-1.5-0.7-1.1-1.9l2.8-10.5c0.2-0.9,0.8-1.4,1.6-1.4
			c1,0,1.5,0.7,1.1,1.9L243.3,212.8z"/>
	</g>
</g>
<g>
	
		<linearGradient id="SVGID_00000041982741513837470910000017277781737233980049_" gradientUnits="userSpaceOnUse" x1="106.8409" y1="202.6762" x2="115.2029" y2="202.6762" gradientTransform="matrix(1.0089 0 0 -1.0089 44.4066 229.9158)">
		<stop  offset="0" style="stop-color:#00A79D"/>
		<stop  offset="1" style="stop-color:#27AAE1"/>
	</linearGradient>
	<path style="fill:url(#SVGID_00000041982741513837470910000017277781737233980049_);" d="M152.2,20.7c0-0.3,0.3-0.6,0.6-0.6h4
		c1.3,0,2.4,0.4,3,1.1c0.5,0.5,0.8,1.3,0.8,2.1v0c0,1.8-1.2,2.8-2.8,3.1l2.6,3.4c0.1,0.1,0.2,0.3,0.2,0.4c0,0.3-0.3,0.6-0.6,0.6
		c-0.2,0-0.4-0.1-0.6-0.3l-3-3.9h-3.1v3.6c0,0.3-0.3,0.6-0.6,0.6c-0.3,0-0.6-0.3-0.6-0.6L152.2,20.7L152.2,20.7z M156.7,25.5
		c1.6,0,2.7-0.8,2.7-2.2v0c0-1.3-1-2.1-2.7-2.1h-3.3v4.3C153.4,25.5,156.7,25.5,156.7,25.5z"/>
	
		<linearGradient id="SVGID_00000145026330186035705220000013668553309351741349_" gradientUnits="userSpaceOnUse" x1="116.9219" y1="201.3262" x2="124.2869" y2="201.3262" gradientTransform="matrix(1.0089 0 0 -1.0089 44.4066 229.9158)">
		<stop  offset="0" style="stop-color:#00A79D"/>
		<stop  offset="1" style="stop-color:#27AAE1"/>
	</linearGradient>
	<path style="fill:url(#SVGID_00000145026330186035705220000013668553309351741349_);" d="M166.3,30.9c-2.2,0-3.9-1.7-3.9-4.1v0
		c0-2.3,1.6-4.1,3.8-4.1c2.3,0,3.7,1.9,3.7,4c0,0.3-0.3,0.5-0.5,0.5h-5.7c0.2,1.7,1.4,2.7,2.8,2.7c1,0,1.7-0.4,2.3-0.9
		c0.1-0.1,0.2-0.1,0.3-0.1c0.3,0,0.5,0.2,0.5,0.5c0,0.1-0.1,0.3-0.2,0.4C168.5,30.4,167.6,30.9,166.3,30.9z M168.6,26.4
		c-0.1-1.4-0.9-2.7-2.5-2.7c-1.4,0-2.4,1.1-2.6,2.7H168.6z"/>
	
		<linearGradient id="SVGID_00000144310978250989149500000012221922867178792591_" gradientUnits="userSpaceOnUse" x1="125.3879" y1="201.3097" x2="132.7679" y2="201.3097" gradientTransform="matrix(1.0089 0 0 -1.0089 44.4066 229.9158)">
		<stop  offset="0" style="stop-color:#00A79D"/>
		<stop  offset="1" style="stop-color:#27AAE1"/>
	</linearGradient>
	<path style="fill:url(#SVGID_00000144310978250989149500000012221922867178792591_);" d="M174.7,30.9L174.7,30.9
		c-0.4,0-0.6-0.2-0.7-0.5l-3-6.7c0-0.1-0.1-0.2-0.1-0.3c0-0.3,0.3-0.6,0.6-0.6s0.5,0.2,0.6,0.5l2.5,6.2l2.6-6.2
		c0.1-0.2,0.2-0.4,0.5-0.4c0.3,0,0.6,0.3,0.6,0.6c0,0.1,0,0.2-0.1,0.3l-3,6.7C175.2,30.7,175,30.9,174.7,30.9z"/>
	
		<linearGradient id="SVGID_00000172401050843277323270000001913234934941105034_" gradientUnits="userSpaceOnUse" x1="134.7879" y1="202.8267" x2="136.1609" y2="202.8267" gradientTransform="matrix(1.0089 0 0 -1.0089 44.4066 229.9158)">
		<stop  offset="0" style="stop-color:#00A79D"/>
		<stop  offset="1" style="stop-color:#27AAE1"/>
	</linearGradient>
	<path style="fill:url(#SVGID_00000172401050843277323270000001913234934941105034_);" d="M180.4,20.4c0-0.4,0.3-0.6,0.7-0.6
		c0.4,0,0.7,0.2,0.7,0.6v0.2c0,0.4-0.3,0.6-0.7,0.6c-0.4,0-0.7-0.3-0.7-0.6V20.4z M180.5,23.4c0-0.3,0.3-0.6,0.6-0.6
		c0.3,0,0.6,0.3,0.6,0.6v6.8c0,0.3-0.2,0.6-0.6,0.6s-0.6-0.3-0.6-0.6V23.4z"/>
	
		<linearGradient id="SVGID_00000108303662214809545070000017062914276023464352_" gradientUnits="userSpaceOnUse" x1="138.1229" y1="201.3242" x2="144.1129" y2="201.3242" gradientTransform="matrix(1.0089 0 0 -1.0089 44.4066 229.9158)">
		<stop  offset="0" style="stop-color:#00A79D"/>
		<stop  offset="1" style="stop-color:#27AAE1"/>
	</linearGradient>
	<path style="fill:url(#SVGID_00000108303662214809545070000017062914276023464352_);" d="M184,29.9c-0.1-0.1-0.2-0.2-0.2-0.4
		c0-0.3,0.2-0.5,0.5-0.5c0.1,0,0.2,0,0.3,0.1c0.8,0.5,1.6,0.8,2.5,0.8c0.9,0,1.6-0.5,1.6-1.2v0c0-0.8-0.9-1.1-2-1.4
		c-1.2-0.4-2.6-0.8-2.6-2.2v0c0-1.4,1.1-2.3,2.7-2.3c0.8,0,1.8,0.3,2.5,0.7c0.2,0.1,0.3,0.3,0.3,0.5c0,0.3-0.2,0.5-0.5,0.5
		c-0.1,0-0.2,0-0.3-0.1c-0.7-0.4-1.4-0.6-2.1-0.6c-0.9,0-1.5,0.5-1.5,1.1v0c0,0.7,1,1,2,1.4c1.2,0.4,2.5,0.8,2.5,2.3v0
		c0,1.5-1.2,2.4-2.8,2.4C186,30.9,184.8,30.5,184,29.9z"/>
	
		<linearGradient id="SVGID_00000074440817748508027010000008166725318090006442_" gradientUnits="userSpaceOnUse" x1="145.3809" y1="202.4802" x2="150.2399" y2="202.4802" gradientTransform="matrix(1.0089 0 0 -1.0089 44.4066 229.9158)">
		<stop  offset="0" style="stop-color:#00A79D"/>
		<stop  offset="1" style="stop-color:#27AAE1"/>
	</linearGradient>
	<path style="fill:url(#SVGID_00000074440817748508027010000008166725318090006442_);" d="M192.2,28.6v-4.7h-0.6
		c-0.3,0-0.5-0.2-0.5-0.5c0-0.3,0.2-0.5,0.5-0.5h0.6V21c0-0.3,0.2-0.6,0.6-0.6c0.3,0,0.6,0.3,0.6,0.6v1.9h2c0.3,0,0.5,0.2,0.5,0.5
		c0,0.3-0.2,0.5-0.5,0.5h-2v4.6c0,1,0.5,1.3,1.3,1.3c0.4,0,0.6-0.1,0.7-0.1c0.3,0,0.5,0.2,0.5,0.5c0,0.2-0.1,0.4-0.3,0.5
		c-0.3,0.1-0.7,0.2-1.2,0.2C193.2,30.9,192.2,30.2,192.2,28.6z"/>
	
		<linearGradient id="SVGID_00000069394695574948617400000011856481304986335872_" gradientUnits="userSpaceOnUse" x1="151.6269" y1="201.3022" x2="158.4789" y2="201.3022" gradientTransform="matrix(1.0089 0 0 -1.0089 44.4066 229.9158)">
		<stop  offset="0" style="stop-color:#00A79D"/>
		<stop  offset="1" style="stop-color:#27AAE1"/>
	</linearGradient>
	<path style="fill:url(#SVGID_00000069394695574948617400000011856481304986335872_);" d="M197.4,28.4L197.4,28.4
		c0-1.7,1.4-2.6,3.4-2.6c1,0,1.7,0.1,2.4,0.3v-0.3c0-1.4-0.9-2.1-2.3-2.1c-0.8,0-1.5,0.2-2,0.4c-0.1,0-0.2,0-0.2,0
		c-0.3,0-0.5-0.2-0.5-0.5c0-0.2,0.2-0.4,0.3-0.5c0.8-0.3,1.6-0.5,2.6-0.5c1.1,0,2,0.3,2.5,0.9c0.5,0.5,0.8,1.3,0.8,2.3v4.3
		c0,0.3-0.2,0.6-0.6,0.6c-0.3,0-0.6-0.2-0.6-0.5v-0.7c-0.5,0.7-1.5,1.4-2.8,1.4C198.9,30.9,197.4,30.1,197.4,28.4z M203.2,27.8v-0.8
		c-0.6-0.2-1.4-0.3-2.3-0.3c-1.5,0-2.3,0.6-2.3,1.6v0c0,1,0.9,1.6,2,1.6C202,30,203.2,29.1,203.2,27.8z"/>
	
		<linearGradient id="SVGID_00000099644696366370418430000001972893375859013030_" gradientUnits="userSpaceOnUse" x1="165.6759" y1="202.7142" x2="174.9569" y2="202.7142" gradientTransform="matrix(1.0089 0 0 -1.0089 44.4066 229.9158)">
		<stop  offset="0" style="stop-color:#00A79D"/>
		<stop  offset="1" style="stop-color:#27AAE1"/>
	</linearGradient>
	<path style="fill:url(#SVGID_00000099644696366370418430000001972893375859013030_);" d="M211.6,20.7c0-0.3,0.3-0.6,0.6-0.6h3.1
		c3.3,0,5.7,2.3,5.7,5.3v0c0,3-2.3,5.3-5.7,5.3h-3.1c-0.3,0-0.6-0.3-0.6-0.6V20.7z M215.3,29.6c2.7,0,4.4-1.8,4.4-4.2v0
		c0-2.4-1.7-4.2-4.4-4.2h-2.5v8.4H215.3z"/>
	
		<linearGradient id="SVGID_00000028315269078979274590000008595922038424481688_" gradientUnits="userSpaceOnUse" x1="177.2799" y1="202.8267" x2="178.6529" y2="202.8267" gradientTransform="matrix(1.0089 0 0 -1.0089 44.4066 229.9158)">
		<stop  offset="0" style="stop-color:#00A79D"/>
		<stop  offset="1" style="stop-color:#27AAE1"/>
	</linearGradient>
	<path style="fill:url(#SVGID_00000028315269078979274590000008595922038424481688_);" d="M223.3,20.4c0-0.4,0.3-0.6,0.7-0.6
		c0.4,0,0.7,0.2,0.7,0.6v0.2c0,0.4-0.3,0.6-0.7,0.6c-0.4,0-0.7-0.3-0.7-0.6V20.4z M223.4,23.4c0-0.3,0.3-0.6,0.6-0.6
		c0.3,0,0.6,0.3,0.6,0.6v6.8c0,0.3-0.2,0.6-0.6,0.6c-0.3,0-0.6-0.3-0.6-0.6V23.4z"/>
	
		<linearGradient id="SVGID_00000170957355758810707160000007153676542425358506_" gradientUnits="userSpaceOnUse" x1="180.7959" y1="200.1927" x2="188.6729" y2="200.1927" gradientTransform="matrix(1.0089 0 0 -1.0089 44.4066 229.9158)">
		<stop  offset="0" style="stop-color:#00A79D"/>
		<stop  offset="1" style="stop-color:#27AAE1"/>
	</linearGradient>
	<path style="fill:url(#SVGID_00000170957355758810707160000007153676542425358506_);" d="M227.5,32.3c-0.2-0.1-0.3-0.3-0.3-0.5
		c0-0.3,0.3-0.5,0.5-0.5c0.1,0,0.2,0,0.3,0.1c0.8,0.5,1.8,0.9,2.8,0.9c1.7,0,2.9-1,2.9-2.8v-0.9c-0.7,0.9-1.6,1.7-3.1,1.7
		c-1.9,0-3.7-1.4-3.7-3.7v0c0-2.3,1.8-3.7,3.7-3.7c1.5,0,2.4,0.7,3.1,1.6v-0.9c0-0.3,0.2-0.6,0.6-0.6c0.3,0,0.6,0.3,0.6,0.6v6
		c0,1.2-0.4,2.1-1,2.8c-0.7,0.7-1.7,1.1-3,1.1C229.5,33.2,228.4,32.9,227.5,32.3z M233.6,26.4L233.6,26.4c0-1.6-1.4-2.7-2.9-2.7
		c-1.5,0-2.7,1-2.7,2.6v0c0,1.6,1.3,2.7,2.7,2.7C232.2,29.1,233.6,28,233.6,26.4z"/>
	
		<linearGradient id="SVGID_00000160868868847166698270000002373634473079646606_" gradientUnits="userSpaceOnUse" x1="191.2669" y1="202.8267" x2="192.6399" y2="202.8267" gradientTransform="matrix(1.0089 0 0 -1.0089 44.4066 229.9158)">
		<stop  offset="0" style="stop-color:#00A79D"/>
		<stop  offset="1" style="stop-color:#27AAE1"/>
	</linearGradient>
	<path style="fill:url(#SVGID_00000160868868847166698270000002373634473079646606_);" d="M237.4,20.4c0-0.4,0.3-0.6,0.7-0.6
		c0.4,0,0.7,0.2,0.7,0.6v0.2c0,0.4-0.3,0.6-0.7,0.6c-0.4,0-0.7-0.3-0.7-0.6V20.4z M237.5,23.4c0-0.3,0.3-0.6,0.6-0.6
		c0.3,0,0.6,0.3,0.6,0.6v6.8c0,0.3-0.2,0.6-0.6,0.6s-0.6-0.3-0.6-0.6V23.4z"/>
	
		<linearGradient id="SVGID_00000166634092617670739690000003615076386957420178_" gradientUnits="userSpaceOnUse" x1="194.4959" y1="202.4802" x2="199.3539" y2="202.4802" gradientTransform="matrix(1.0089 0 0 -1.0089 44.4066 229.9158)">
		<stop  offset="0" style="stop-color:#00A79D"/>
		<stop  offset="1" style="stop-color:#27AAE1"/>
	</linearGradient>
	<path style="fill:url(#SVGID_00000166634092617670739690000003615076386957420178_);" d="M241.8,28.6v-4.7h-0.6
		c-0.3,0-0.5-0.2-0.5-0.5c0-0.3,0.2-0.5,0.5-0.5h0.6V21c0-0.3,0.2-0.6,0.6-0.6c0.3,0,0.6,0.3,0.6,0.6v1.9h2c0.3,0,0.5,0.2,0.5,0.5
		c0,0.3-0.2,0.5-0.5,0.5h-2v4.6c0,1,0.5,1.3,1.3,1.3c0.4,0,0.6-0.1,0.7-0.1c0.3,0,0.5,0.2,0.5,0.5c0,0.2-0.1,0.4-0.3,0.5
		c-0.3,0.1-0.7,0.2-1.2,0.2C242.7,30.9,241.8,30.2,241.8,28.6z"/>
	
		<linearGradient id="SVGID_00000121998977236301794450000008760108725696006835_" gradientUnits="userSpaceOnUse" x1="200.7419" y1="201.3022" x2="207.5939" y2="201.3022" gradientTransform="matrix(1.0089 0 0 -1.0089 44.4066 229.9158)">
		<stop  offset="0" style="stop-color:#00A79D"/>
		<stop  offset="1" style="stop-color:#27AAE1"/>
	</linearGradient>
	<path style="fill:url(#SVGID_00000121998977236301794450000008760108725696006835_);" d="M246.9,28.4L246.9,28.4
		c0-1.7,1.4-2.6,3.4-2.6c1,0,1.7,0.1,2.4,0.3v-0.3c0-1.4-0.9-2.1-2.3-2.1c-0.8,0-1.5,0.2-2,0.4c-0.1,0-0.2,0-0.2,0
		c-0.3,0-0.5-0.2-0.5-0.5c0-0.2,0.2-0.4,0.3-0.5c0.8-0.3,1.6-0.5,2.6-0.5c1.1,0,2,0.3,2.5,0.9c0.5,0.5,0.8,1.3,0.8,2.3v4.3
		c0,0.3-0.2,0.6-0.6,0.6c-0.3,0-0.6-0.2-0.6-0.5v-0.7c-0.5,0.7-1.5,1.4-2.8,1.4C248.4,30.9,246.9,30.1,246.9,28.4z M252.7,27.8v-0.8
		c-0.6-0.2-1.4-0.3-2.3-0.3c-1.5,0-2.3,0.6-2.3,1.6v0c0,1,0.9,1.6,2,1.6C251.5,30,252.7,29.1,252.7,27.8z"/>
	
		<linearGradient id="SVGID_00000000219762810984939900000011190820038950636683_" gradientUnits="userSpaceOnUse" x1="210.1729" y1="202.9402" x2="211.3349" y2="202.9402" gradientTransform="matrix(1.0089 0 0 -1.0089 44.4066 229.9158)">
		<stop  offset="0" style="stop-color:#00A79D"/>
		<stop  offset="1" style="stop-color:#27AAE1"/>
	</linearGradient>
	<path style="fill:url(#SVGID_00000000219762810984939900000011190820038950636683_);" d="M256.4,20.1c0-0.3,0.3-0.6,0.6-0.6
		c0.3,0,0.6,0.3,0.6,0.6v10.1c0,0.3-0.2,0.6-0.6,0.6c-0.3,0-0.6-0.3-0.6-0.6V20.1z"/>
</g>
</svg>
