<?xml version="1.0" encoding="utf-8"?>
<!-- Generator: Adobe Illustrator 26.4.1, SVG Export Plug-In . SVG Version: 6.00 Build 0)  -->
<svg version="1.1" id="Layer_1" xmlns="http://www.w3.org/2000/svg" xmlns:xlink="http://www.w3.org/1999/xlink" x="0px" y="0px"
	 viewBox="0 0 134.3 57.9" style="enable-background:new 0 0 134.3 57.9;" xml:space="preserve">
<style type="text/css">
	.st0{fill:#DFF4FF;}
	.st1{enable-background:new    ;}
</style>
<g>
	<g>
		<path class="st0" d="M11.3,7.3c-2.8,0-4,1.8-4,4.4V22c0,2.6,1.3,2.7,2.6,2.7s2.7-1.9,3.3-4.7c0.3-1.2,2-7.8,10-7.8
			s10.6,7.2,10.8,8.5c0.5,2.7,1.8,4.1,3.1,4.1s2.2-0.2,2.2-2.8V11.7c0-2.6-1.4-4.4-4.1-4.4L11.3,7.3L11.3,7.3z"/>
		<path class="st0" d="M19.2,20c1.4,0,2.6-1.1,2.6-2.6c0-1.4-1.1-2.6-2.6-2.6c-1.4,0-2.6,1.2-2.6,2.6C16.7,18.8,17.8,20,19.2,20"/>
		<path class="st0" d="M26.8,23.7c0,0-1.8,2.4-2.4,3.5s-1.4,2.7,1.4,2.7c2.6,0.1,4.2-0.4,5.4-0.9c1.2-0.4,1.5-1,0.8-2.4
			c-0.3-0.6-1.2-2.2-2.1-3.4C28.4,21.2,27.7,22.5,26.8,23.7"/>
		<path class="st0" d="M6.6,29.6c0,0,3.1-2.2,4-2.7c0.9-0.5,1.6-0.8,2.9,0.1s7.6,4.5,13,4.5c4.4,0,6.9-1.5,8.4-2.4
			c0.9-0.6,2.4-2,5.1-1v5.1l-2,0.3v-0.6h-1.3v-1.3c0,0,0-0.6-0.6-0.6s-0.6,0.6-0.6,0.6v1.3h-0.8v-1.3h0.5v-0.3h-0.5v-0.5h-0.3v0.5
			h-0.5v0.3h0.5v1.3h-0.8v-1.3c0,0,0-0.6-0.7-0.6c-0.6,0-0.6,0.6-0.6,0.6v1.3h-0.6v1.3H31v-0.6h-0.6v0.6h-0.6v-1.3h0.6l-0.6-0.6
			h-3.2l-0.7,0.6h0.7v1.3h-1.3v-1.3h-1.9v1.3h-0.6v-0.6H22v-1.3h-1.3v1.3h-0.6v0.6h-1.3v-1.3l-1.9-0.6v0.6l-1.3-0.6v0.6l-1.3-0.6
			v0.6H13L12.8,29h-0.6l-0.4,3.8l-1.3-0.6v0.6h-2v1.3H6.6V29.6L6.6,29.6L6.6,29.6z"/>
		<path class="st0" d="M11,44.7c0.2,0.2,0.5,0.4,0.7,0.6l4.1-3.2c-0.3,0-0.7-0.1-1-0.1C12.7,43.5,11,44.7,11,44.7"/>
		<path class="st0" d="M8.5,41.9c0.2,0.2,0.3,0.5,0.5,0.7l1.6-0.7c-0.7,0-1.2-0.1-1.5-0.2C8.7,41.9,8.5,41.9,8.5,41.9"/>
		<path class="st0" d="M14.4,46.9c0.3,0.1,0.6,0.3,1,0.4l3.5-4.9c-0.2,0-0.5-0.1-0.8-0.1C16.2,44.7,14.4,46.9,14.4,46.9"/>
		<path class="st0" d="M37.7,42.6c0.2-0.2,0.4-0.5,0.5-0.7c0,0-1.1-0.4-2.7-1.1c0.3,0.3,0.5,0.7,0.6,1.1L37.7,42.6z"/>
		<path class="st0" d="M18.5,48.4c0.3,0.1,0.7,0.1,1,0.2l1.8-5.7c-0.2,0-0.4-0.1-0.6-0.1C19.6,45.6,18.5,48.4,18.5,48.4"/>
		<path class="st0" d="M40,36.1H6.7c0,0.3,0,0.5,0,0.8l15.7-0.7L7.1,38.8c0.1,0.3,0.2,0.6,0.3,0.9l15.1-3.3c0,0-1.6,0.6-3.6,1.5
			c0.4,0,0.7-0.1,1.1-0.1l2.7-1.2c0,0-0.6,0.5-1.6,1.2c0.2,0,0.3,0,0.5,0l1.2-1c0,0-0.3,0.4-0.7,1c0.1,0,0.2,0,0.4,0l0.6-0.8
			c0,0-0.1,0.3-0.3,0.8c0.1,0,0.2,0,0.3,0l0.2-0.7c0,0,0,0.3,0,0.7h0.3c0-0.5,0-0.7,0-0.7l0.2,0.7c0.1,0,0.2,0,0.3,0
			c-0.2-0.5-0.3-0.8-0.3-0.8l0.6,0.8c0.1,0,0.3,0,0.4,0c-0.5-0.6-0.8-1-0.8-1l1.3,1c0.2,0,0.4,0,0.6,0c-1-0.7-1.7-1.2-1.7-1.2
			l2.9,1.3c0.4,0.1,0.9,0.1,1.3,0.2c-2.3-0.9-4.1-1.7-4.1-1.7l15.1,3.3c0.1-0.3,0.2-0.6,0.3-0.9l-15.3-2.6L40,36.9
			C40,36.6,40,36.4,40,36.1"/>
		<path class="st0" d="M22.7,48.9c0.2,0,1.1,0,1.3,0c0,0-0.1-1.5-0.2-3.5c-0.3-0.5-0.6-1-0.9-1.4C22.8,46.7,22.7,48.9,22.7,48.9"/>
		<path class="st0" d="M28.4,38c2.3,0.9,5.1,2,7.1,2.9C34.3,39.4,31.5,38.5,28.4,38"/>
		<path class="st0" d="M21.5,37.6L15.8,42c0.9,0.1,1.7,0.1,2.4,0.2c1.4-1.8,3-3.6,3.8-4.7C21.8,37.6,21.7,37.6,21.5,37.6"/>
		<path class="st0" d="M19.9,37.7l-9.2,4.2h0.1c1.4,0,2.8,0,4,0.1c2.1-1.5,4.6-3.2,6.2-4.3C20.6,37.7,20.2,37.7,19.9,37.7"/>
		<path class="st0" d="M9.3,40.2c-1,0.5-1.2,1.2-0.2,1.5c1.7-0.7,6.3-2.5,9.7-3.9C13.2,38.4,9.7,40,9.3,40.2"/>
		<path class="st0" d="M23.5,37.6c0,1.5,0.2,5.1,0.3,7.8c0.4,0.6,0.7,1.3,0.8,1.7c0.4,1.2,1.3,1.3,1.7,1.3c0.1,0,0.4-0.1,0.7-0.1
			l-3.4-10.8L23.5,37.6L23.5,37.6z"/>
		<path class="st0" d="M24.1,37.6c0.9,2.4,3.5,9.2,4,10.5c0.9-0.2,2-0.6,3.1-1l-6.8-9.5H24.1L24.1,37.6z"/>
		<path class="st0" d="M24.8,37.7c1.9,2.3,6.5,8,7.4,9.1c1-0.5,2-1,2.7-1.6l-9.6-7.4C25.1,37.7,24.9,37.7,24.8,37.7"/>
		<path class="st0" d="M23,37.6l-1.7,5.3c0.3,0.1,0.5,0.1,0.6,0.2c0.3,0.1,0.6,0.5,1,1c0.1-2.5,0.2-5.2,0.3-6.5H23L23,37.6z"/>
		<path class="st0" d="M25.9,37.7c2.9,2,8.5,5.9,9.7,6.8c0.3-0.4,0.6-0.8,0.7-1.2c0.1-0.5,0.1-0.9,0-1.3l-9-4.1
			C26.7,37.8,26.3,37.8,25.9,37.7"/>
		<path class="st0" d="M22.4,37.6L19,42.4c0.7,0.1,1.3,0.2,1.8,0.3c0.8-2,1.6-4,2-5.1H22.4L22.4,37.6z"/>
		<path class="st0" d="M5.3,10.4c0-3.2,1.9-5.1,5.1-5.1h25.7c3.2,0,5.1,1.9,5.1,5.1v12.3h4.6c0.1-10.1,0.6-15.3,0.6-15.3
			c0-4.6-3.2-7.3-7.7-7.3H7.9C3.4,0.1,0,2.8,0,7.4c0,0,0.5,5.2,0.6,15.2h4.7L5.3,10.4L5.3,10.4z"/>
		<path class="st0" d="M41.2,26.7v12.6c0,8.3-5.2,12.2-18,12.2s-18-5.1-18-12.8v-12H0.6c-0.1,5.8-0.4,13.2-0.4,13.2
			c0,11.6,5.8,18,23.1,18s23.1-6.4,23.1-18c0,0-0.5-7.4-0.6-13.2L41.2,26.7L41.2,26.7z"/>
	</g>
</g>
<g class="st1">
	<path class="st0" d="M63.6,10.1h2.6v5.1c0,0.5-0.1,1-0.2,1.4c-0.2,0.5-0.4,0.8-0.7,1.2c-0.3,0.3-0.7,0.6-1.1,0.7
		c-0.5,0.2-1.1,0.3-1.9,0.3c-0.4,0-0.9,0-1.4-0.1s-0.9-0.2-1.2-0.4s-0.6-0.4-0.9-0.7c-0.3-0.3-0.5-0.6-0.6-1c-0.2-0.5-0.2-1-0.2-1.5
		V10h2.6v5.2c0,0.5,0.1,0.8,0.4,1.1c0.3,0.3,0.6,0.4,1.1,0.4s0.8-0.1,1.1-0.4c0.3-0.3,0.4-0.6,0.4-1.1V10.1L63.6,10.1z"/>
	<path class="st0" d="M67.8,12.5H70v1c0.3-0.4,0.7-0.7,1-0.9s0.8-0.3,1.2-0.3c0.7,0,1.2,0.2,1.5,0.6c0.4,0.4,0.6,1,0.6,1.8v4H72
		v-3.4c0-0.4-0.1-0.7-0.2-0.8c-0.1-0.2-0.3-0.2-0.6-0.2c-0.3,0-0.5,0.1-0.7,0.3s-0.3,0.6-0.3,1.2v3h-2.4V12.5z"/>
	<path class="st0" d="M75.9,10.1h2.4v1.6h-2.4V10.1z M75.9,12.5h2.4v6.2h-2.4V12.5z"/>
	<path class="st0" d="M79.1,12.5h2.5l1.2,3.9l1.3-3.9h2.4l-2.6,6.2h-2.1L79.1,12.5z"/>
	<path class="st0" d="M93.7,16.2H89c0,0.4,0.1,0.7,0.3,0.9c0.2,0.3,0.5,0.4,0.9,0.4c0.2,0,0.5-0.1,0.7-0.2c0.1-0.1,0.3-0.2,0.4-0.4
		l2.4,0.2c-0.4,0.6-0.8,1.1-1.3,1.3c-0.5,0.3-1.2,0.4-2.2,0.4c-0.8,0-1.5-0.1-1.9-0.4c-0.5-0.2-0.9-0.6-1.2-1.1
		c-0.3-0.5-0.5-1.1-0.5-1.8c0-1,0.3-1.8,0.9-2.4s1.5-0.9,2.6-0.9c0.9,0,1.6,0.1,2.1,0.4c0.5,0.3,0.9,0.7,1.2,1.2
		c0.3,0.5,0.4,1.2,0.4,2v0.4H93.7z M91.3,15c0-0.5-0.2-0.8-0.4-1c-0.2-0.2-0.5-0.3-0.8-0.3c-0.4,0-0.7,0.1-0.9,0.5
		C89.1,14.4,89,14.7,89,15H91.3z"/>
	<path class="st0" d="M94.9,12.5h2.2v1c0.2-0.4,0.4-0.7,0.7-0.9c0.2-0.2,0.5-0.2,0.8-0.2c0.4,0,0.7,0.1,1.2,0.3L99,14.4
		c-0.3-0.1-0.5-0.2-0.7-0.2c-0.3,0-0.6,0.1-0.7,0.4c-0.2,0.4-0.4,1-0.4,2v2.1h-2.4L94.9,12.5L94.9,12.5z"/>
	<path class="st0" d="M100,17l2.4-0.2c0.1,0.3,0.2,0.5,0.4,0.6s0.4,0.2,0.7,0.2c0.3,0,0.6-0.1,0.7-0.2s0.2-0.2,0.2-0.4
		c0-0.2-0.1-0.3-0.3-0.4c-0.1-0.1-0.5-0.1-1-0.2c-0.8-0.1-1.4-0.3-1.7-0.4c-0.3-0.1-0.6-0.3-0.8-0.6s-0.3-0.6-0.3-1s0.1-0.8,0.4-1.1
		s0.6-0.5,1-0.7c0.4-0.1,1-0.2,1.7-0.2s1.3,0.1,1.6,0.2c0.4,0.1,0.6,0.3,0.9,0.5c0.2,0.2,0.4,0.6,0.6,1l-2.3,0.2
		c-0.1-0.2-0.2-0.3-0.3-0.4c-0.2-0.1-0.4-0.2-0.7-0.2c-0.3,0-0.5,0-0.6,0.1s-0.2,0.2-0.2,0.3c0,0.2,0.1,0.3,0.2,0.3
		c0.2,0.1,0.5,0.1,1,0.2c0.8,0.1,1.4,0.2,1.8,0.4s0.7,0.4,0.9,0.7c0.2,0.3,0.3,0.6,0.3,1c0,0.4-0.1,0.7-0.3,1
		c-0.2,0.3-0.6,0.6-1,0.8c-0.5,0.2-1.1,0.3-1.9,0.3c-1.1,0-1.9-0.2-2.4-0.5C100.5,18,100.2,17.6,100,17z"/>
	<path class="st0" d="M107.9,10.1h2.4v1.6h-2.4V10.1z M107.9,12.5h2.4v6.2h-2.4V12.5z"/>
	<path class="st0" d="M118.3,10.1v8.6h-2.2v-0.9c-0.3,0.4-0.6,0.7-0.9,0.8c-0.3,0.2-0.7,0.3-1.1,0.3c-0.8,0-1.5-0.3-1.9-1
		c-0.4-0.6-0.7-1.4-0.7-2.4s0.2-1.8,0.7-2.4c0.5-0.5,1.1-0.8,1.9-0.8c0.4,0,0.7,0.1,1,0.2s0.6,0.3,0.8,0.6v-3H118.3L118.3,10.1z
		 M115.9,15.6c0-0.5-0.1-0.9-0.3-1.1s-0.5-0.4-0.8-0.4s-0.5,0.1-0.7,0.3s-0.3,0.6-0.3,1.2c0,0.5,0.1,0.9,0.3,1.1s0.4,0.4,0.7,0.4
		c0.3,0,0.6-0.1,0.8-0.4C115.8,16.5,115.9,16.1,115.9,15.6z"/>
	<path class="st0" d="M122,14.5l-2.3-0.2c0.1-0.4,0.2-0.7,0.4-0.9c0.2-0.2,0.4-0.4,0.7-0.6c0.2-0.1,0.5-0.2,0.9-0.3s0.8-0.1,1.2-0.1
		c0.7,0,1.3,0,1.7,0.1c0.4,0.1,0.8,0.2,1.1,0.5c0.2,0.2,0.4,0.4,0.5,0.7s0.2,0.6,0.2,0.9v2.7c0,0.3,0,0.5,0.1,0.7s0.1,0.4,0.2,0.6
		h-2.2c-0.1-0.2-0.1-0.3-0.2-0.4c0-0.1-0.1-0.2-0.1-0.4c-0.3,0.3-0.6,0.5-0.9,0.6c-0.4,0.2-0.9,0.3-1.5,0.3c-0.7,0-1.3-0.2-1.7-0.5
		s-0.6-0.8-0.6-1.3s0.1-0.9,0.4-1.2s0.8-0.5,1.5-0.7c0.9-0.2,1.5-0.3,1.7-0.4c0.3-0.1,0.5-0.2,0.8-0.3c0-0.3-0.1-0.5-0.2-0.6
		s-0.3-0.2-0.6-0.2c-0.4,0-0.7,0.1-0.9,0.2C122.2,14,122.1,14.2,122,14.5z M124,15.7c-0.3,0.1-0.7,0.2-1,0.3
		c-0.5,0.1-0.8,0.3-0.9,0.4s-0.2,0.3-0.2,0.4c0,0.2,0.1,0.3,0.2,0.5c0.1,0.1,0.3,0.2,0.6,0.2c0.3,0,0.5-0.1,0.7-0.2s0.4-0.3,0.5-0.5
		s0.1-0.4,0.1-0.7L124,15.7L124,15.7z"/>
	<path class="st0" d="M134.3,10.1v8.6h-2.2v-0.9c-0.3,0.4-0.6,0.7-0.9,0.8c-0.3,0.2-0.7,0.3-1.1,0.3c-0.8,0-1.5-0.3-1.9-1
		c-0.4-0.6-0.7-1.4-0.7-2.4s0.2-1.8,0.7-2.4s1.1-0.8,1.9-0.8c0.4,0,0.7,0.1,1,0.2c0.3,0.1,0.6,0.3,0.8,0.6v-3H134.3L134.3,10.1z
		 M132,15.6c0-0.5-0.1-0.9-0.3-1.1s-0.5-0.4-0.8-0.4s-0.5,0.1-0.7,0.3s-0.3,0.6-0.3,1.2c0,0.5,0.1,0.9,0.3,1.1s0.4,0.4,0.7,0.4
		s0.6-0.1,0.8-0.4S132,16.1,132,15.6z"/>
</g>
<g class="st1">
	<path class="st0" d="M58,23.1h2.5l3.2,4.8v-4.8h2.5v8.6h-2.5L60.5,27v4.7H58V23.1z"/>
	<path class="st0" d="M70,27.5l-2.3-0.2c0.1-0.4,0.2-0.7,0.4-0.9c0.2-0.2,0.4-0.4,0.7-0.6c0.2-0.1,0.5-0.2,0.9-0.3
		c0.4-0.1,0.8-0.1,1.2-0.1c0.7,0,1.3,0,1.7,0.1c0.4,0.1,0.8,0.2,1.1,0.5c0.2,0.2,0.4,0.4,0.5,0.7s0.2,0.6,0.2,0.9v2.7
		c0,0.3,0,0.5,0.1,0.7c0,0.2,0.1,0.4,0.2,0.6h-2.2c-0.1-0.2-0.1-0.3-0.2-0.4c0-0.1-0.1-0.2-0.1-0.4c-0.3,0.3-0.6,0.5-0.9,0.6
		c-0.4,0.2-0.9,0.3-1.5,0.3c-0.7,0-1.3-0.2-1.7-0.5s-0.6-0.8-0.6-1.3s0.1-0.9,0.4-1.2c0.3-0.3,0.8-0.5,1.5-0.7
		c0.9-0.2,1.5-0.3,1.7-0.4c0.3-0.1,0.5-0.2,0.8-0.3c0-0.3-0.1-0.5-0.2-0.6s-0.3-0.2-0.6-0.2c-0.4,0-0.7,0.1-0.9,0.2
		C70.2,27,70.1,27.2,70,27.5z M72.1,28.7c-0.3,0.1-0.7,0.2-1,0.3c-0.5,0.1-0.8,0.3-0.9,0.4S70,29.7,70,29.8c0,0.2,0.1,0.3,0.2,0.5
		c0.1,0.1,0.3,0.2,0.6,0.2c0.3,0,0.5-0.1,0.7-0.2s0.4-0.3,0.5-0.5s0.1-0.4,0.1-0.7L72.1,28.7L72.1,28.7z"/>
	<path class="st0" d="M80.5,29.3l2.3,0.3c-0.1,0.5-0.3,0.9-0.6,1.2s-0.6,0.6-1.1,0.8c-0.4,0.2-1,0.3-1.7,0.3s-1.2-0.1-1.6-0.2
		s-0.8-0.3-1.1-0.6s-0.6-0.6-0.7-1c-0.2-0.4-0.3-0.9-0.3-1.5s0.1-1.2,0.3-1.6c0.2-0.3,0.4-0.6,0.7-0.8c0.3-0.2,0.6-0.4,0.9-0.6
		c0.5-0.2,1.1-0.3,1.8-0.3c1,0,1.8,0.2,2.3,0.5c0.5,0.4,0.9,0.9,1.1,1.6l-2.2,0.3c-0.1-0.3-0.2-0.5-0.4-0.6c-0.4-0.1-0.7-0.1-1-0.1
		c-0.4,0-0.7,0.1-1,0.4c-0.2,0.3-0.4,0.7-0.4,1.3c0,0.5,0.1,0.9,0.4,1.2c0.2,0.3,0.6,0.4,0.9,0.4s0.6-0.1,0.8-0.2
		C80.2,29.8,80.4,29.6,80.5,29.3z"/>
	<path class="st0" d="M83.9,23.1h2.4v1.6h-2.4V23.1z M83.9,25.5h2.4v6.2h-2.4V25.5z"/>
	<path class="st0" d="M87.5,28.6c0-0.9,0.3-1.7,1-2.3c0.6-0.6,1.5-0.9,2.6-0.9c1.2,0,2.2,0.4,2.8,1.1c0.5,0.6,0.8,1.3,0.8,2.1
		c0,1-0.3,1.7-1,2.4c-0.6,0.6-1.5,0.9-2.6,0.9c-1,0-1.8-0.3-2.4-0.8C87.9,30.5,87.5,29.6,87.5,28.6z M89.9,28.6c0,0.6,0.1,1,0.3,1.2
		c0.2,0.3,0.5,0.4,0.8,0.4s0.6-0.1,0.8-0.4c0.2-0.3,0.3-0.7,0.3-1.3c0-0.5-0.1-0.9-0.3-1.2c-0.2-0.3-0.5-0.4-0.8-0.4
		s-0.6,0.1-0.9,0.4C90,27.6,89.9,28.1,89.9,28.6z"/>
	<path class="st0" d="M95.8,25.5H98v1c0.3-0.4,0.7-0.7,1-0.9c0.3-0.2,0.8-0.3,1.2-0.3c0.7,0,1.2,0.2,1.5,0.6c0.4,0.4,0.6,1,0.6,1.8
		v4H100v-3.4c0-0.4-0.1-0.7-0.2-0.8c-0.1-0.2-0.3-0.2-0.6-0.2c-0.3,0-0.5,0.1-0.7,0.3c-0.2,0.2-0.3,0.6-0.3,1.2v3h-2.4V25.5
		L95.8,25.5z"/>
	<path class="st0" d="M106,27.5l-2.3-0.2c0.1-0.4,0.2-0.7,0.4-0.9c0.2-0.2,0.4-0.4,0.7-0.6c0.2-0.1,0.5-0.2,0.9-0.3
		c0.4-0.1,0.8-0.1,1.2-0.1c0.7,0,1.3,0,1.7,0.1s0.8,0.2,1.1,0.5c0.2,0.2,0.4,0.4,0.5,0.7c0.1,0.3,0.2,0.6,0.2,0.9v2.7
		c0,0.3,0,0.5,0.1,0.7s0.1,0.4,0.2,0.6h-2.2c-0.1-0.2-0.1-0.3-0.2-0.4s-0.1-0.2-0.1-0.4c-0.3,0.3-0.6,0.5-0.9,0.6
		c-0.4,0.2-0.9,0.3-1.5,0.3c-0.7,0-1.3-0.2-1.7-0.5s-0.6-0.8-0.6-1.3s0.1-0.9,0.4-1.2c0.3-0.3,0.8-0.5,1.5-0.7
		c0.9-0.2,1.5-0.3,1.7-0.4c0.3-0.1,0.5-0.2,0.8-0.3c0-0.3-0.1-0.5-0.2-0.6s-0.3-0.2-0.6-0.2c-0.4,0-0.7,0.1-0.9,0.2
		C106.2,27,106.1,27.2,106,27.5z M108.1,28.7c-0.3,0.1-0.7,0.2-1,0.3c-0.5,0.1-0.8,0.3-0.9,0.4s-0.2,0.3-0.2,0.4
		c0,0.2,0.1,0.3,0.2,0.5c0.1,0.1,0.3,0.2,0.6,0.2c0.3,0,0.5-0.1,0.7-0.2s0.4-0.3,0.5-0.5s0.1-0.4,0.1-0.7L108.1,28.7L108.1,28.7z"/>
	<path class="st0" d="M111.9,23.1h2.4v8.6h-2.4V23.1z"/>
</g>
<g class="st1">
	<path class="st0" d="M64.4,36.1v8.6h-2.2v-0.9c-0.3,0.4-0.6,0.7-0.9,0.8c-0.3,0.2-0.7,0.3-1.1,0.3c-0.8,0-1.5-0.3-1.9-1
		c-0.4-0.6-0.7-1.4-0.7-2.4s0.2-1.8,0.7-2.4s1.1-0.8,1.9-0.8c0.4,0,0.7,0.1,1,0.2c0.3,0.1,0.6,0.3,0.8,0.6v-3L64.4,36.1L64.4,36.1z
		 M62,41.6c0-0.5-0.1-0.9-0.3-1.1s-0.5-0.4-0.8-0.4s-0.5,0.1-0.7,0.3s-0.3,0.6-0.3,1.2c0,0.5,0.1,0.9,0.3,1.1
		c0.2,0.2,0.4,0.4,0.7,0.4s0.6-0.1,0.8-0.4S62,42.1,62,41.6z"/>
	<path class="st0" d="M72.7,42.2h-4.8c0,0.4,0.1,0.7,0.3,0.9c0.2,0.3,0.5,0.4,0.9,0.4c0.2,0,0.5-0.1,0.7-0.2
		c0.1-0.1,0.3-0.2,0.4-0.4l2.4,0.2c-0.4,0.6-0.8,1.1-1.3,1.3s-1.2,0.4-2.2,0.4c-0.8,0-1.5-0.1-1.9-0.4c-0.5-0.2-0.9-0.6-1.2-1.1
		c-0.3-0.5-0.5-1.1-0.5-1.8c0-1,0.3-1.8,0.9-2.4s1.5-0.9,2.6-0.9c0.9,0,1.6,0.1,2.1,0.4c0.5,0.3,0.9,0.7,1.2,1.2
		c0.3,0.5,0.4,1.2,0.4,2V42.2L72.7,42.2z M70.3,41c0-0.5-0.2-0.8-0.4-1s-0.5-0.3-0.8-0.3c-0.4,0-0.7,0.1-0.9,0.5
		C68.1,40.4,68,40.7,68,41H70.3z"/>
	<path class="st0" d="M77.5,41.9l2.5-0.2c0.1,0.4,0.2,0.7,0.3,0.9c0.3,0.3,0.7,0.5,1.2,0.5c0.4,0,0.7-0.1,0.9-0.3
		c0.2-0.2,0.3-0.4,0.3-0.6c0-0.2-0.1-0.4-0.3-0.6c-0.2-0.2-0.6-0.3-1.4-0.5c-1.2-0.3-2-0.6-2.5-1s-0.8-1-0.8-1.7
		c0-0.4,0.1-0.9,0.4-1.2c0.3-0.4,0.6-0.7,1.2-0.9c0.5-0.2,1.2-0.3,2.1-0.3c1.1,0,1.9,0.2,2.5,0.6s0.9,1.1,1,1.9l-2.5,0.1
		c-0.1-0.4-0.2-0.7-0.4-0.8s-0.5-0.3-0.9-0.3c-0.3,0-0.5,0.1-0.7,0.2c-0.2,0.1-0.2,0.3-0.2,0.5c0,0.1,0.1,0.3,0.2,0.4
		c0.1,0.1,0.4,0.2,0.9,0.3c1.2,0.2,2,0.5,2.5,0.8s0.9,0.6,1.1,1s0.3,0.8,0.3,1.3c0,0.6-0.2,1.1-0.5,1.5c-0.3,0.5-0.7,0.8-1.3,1.1
		c-0.5,0.2-1.2,0.4-2.1,0.4c-1.5,0-2.5-0.3-3-0.8C77.9,43.4,77.6,42.7,77.5,41.9z"/>
	<path class="st0" d="M88.7,40.5l-2.3-0.2c0.1-0.4,0.2-0.7,0.4-0.9c0.2-0.2,0.4-0.4,0.7-0.6c0.2-0.1,0.5-0.2,0.9-0.3
		s0.8-0.1,1.2-0.1c0.7,0,1.3,0,1.7,0.1s0.8,0.2,1.1,0.5c0.2,0.2,0.4,0.4,0.5,0.7s0.2,0.6,0.2,0.9v2.7c0,0.3,0,0.5,0.1,0.7
		s0.1,0.4,0.2,0.6h-2.2C91,44.5,91,44.4,91,44.3s-0.1-0.2-0.1-0.4c-0.3,0.3-0.6,0.5-0.9,0.6c-0.4,0.2-0.9,0.3-1.5,0.3
		c-0.7,0-1.3-0.2-1.7-0.5s-0.6-0.8-0.6-1.3s0.1-0.9,0.4-1.2s0.8-0.5,1.5-0.7c0.9-0.2,1.5-0.3,1.7-0.4c0.3-0.1,0.5-0.2,0.8-0.3
		c0-0.3-0.1-0.5-0.2-0.6s-0.3-0.2-0.6-0.2c-0.4,0-0.7,0.1-0.9,0.2C88.9,40,88.8,40.2,88.7,40.5z M90.7,41.7c-0.3,0.1-0.7,0.2-1,0.3
		c-0.5,0.1-0.8,0.3-0.9,0.4c-0.1,0.1-0.2,0.3-0.2,0.4c0,0.2,0.1,0.3,0.2,0.5c0.1,0.1,0.3,0.2,0.6,0.2c0.3,0,0.5-0.1,0.7-0.2
		s0.4-0.3,0.5-0.5s0.1-0.4,0.1-0.7L90.7,41.7L90.7,41.7z"/>
	<path class="st0" d="M94.5,38.5h2.2v1c0.3-0.4,0.7-0.7,1-0.9s0.8-0.3,1.2-0.3c0.7,0,1.2,0.2,1.5,0.6c0.4,0.4,0.6,1,0.6,1.8v4h-2.4
		v-3.4c0-0.4-0.1-0.7-0.2-0.8c-0.1-0.2-0.3-0.2-0.6-0.2c-0.3,0-0.5,0.1-0.7,0.3s-0.3,0.6-0.3,1.2v3h-2.4L94.5,38.5L94.5,38.5z"/>
	<path class="st0" d="M106.7,36.1h2.7v6.5h4.1v2.1h-6.8C106.7,44.7,106.7,36.1,106.7,36.1z"/>
	<path class="st0" d="M121.1,44.7h-2.2v-1c-0.3,0.4-0.7,0.7-1,0.9s-0.8,0.3-1.2,0.3c-0.7,0-1.2-0.2-1.5-0.6c-0.4-0.4-0.6-1-0.6-1.8
		v-4h2.4v3.4c0,0.4,0.1,0.7,0.2,0.8c0.1,0.2,0.3,0.2,0.6,0.2c0.3,0,0.5-0.1,0.7-0.3s0.3-0.6,0.3-1.2v-3h2.4L121.1,44.7L121.1,44.7
		L121.1,44.7z"/>
	<path class="st0" d="M122.6,36.1h2.4v1.6h-2.4V36.1z M122.6,38.5h2.4v6.2h-2.4V38.5z"/>
	<path class="st0" d="M126.1,43l2.4-0.2c0.1,0.3,0.2,0.5,0.4,0.6s0.4,0.2,0.7,0.2s0.6-0.1,0.7-0.2c0.1-0.1,0.2-0.2,0.2-0.4
		s-0.1-0.3-0.3-0.4c-0.1-0.1-0.5-0.1-1-0.2c-0.8-0.1-1.4-0.3-1.7-0.4c-0.3-0.1-0.6-0.3-0.8-0.6s-0.3-0.6-0.3-1s0.1-0.8,0.4-1.1
		s0.6-0.5,1-0.7s1-0.2,1.7-0.2s1.3,0.1,1.6,0.2c0.4,0.1,0.6,0.3,0.9,0.5c0.2,0.2,0.4,0.6,0.6,1l-2.3,0.2c-0.1-0.2-0.2-0.3-0.3-0.4
		c-0.2-0.1-0.4-0.2-0.7-0.2s-0.5,0-0.6,0.1s-0.2,0.2-0.2,0.4c0,0.1,0.1,0.3,0.2,0.3c0.2,0.1,0.5,0.1,1,0.2c0.8,0.1,1.4,0.2,1.8,0.4
		c0.4,0.2,0.7,0.4,0.9,0.7s0.3,0.6,0.3,1s-0.1,0.7-0.3,1s-0.6,0.6-1,0.8c-0.5,0.2-1.1,0.3-1.9,0.3c-1.1,0-1.9-0.2-2.4-0.5
		C126.5,44,126.2,43.6,126.1,43z"/>
</g>
</svg>
