<svg width="52" height="52" viewBox="0 0 52 52" fill="none" xmlns="http://www.w3.org/2000/svg">
<path d="M31.6058 30.4175L35.2225 24.1659C35.455 23.7784 35.3517 23.2875 35.0158 23.0034L31.1925 20.0067C31.27 19.4384 31.3217 18.8442 31.3217 18.25C31.3217 17.6559 31.27 17.0617 31.1925 16.4675L35.0158 13.4709C35.3517 13.1867 35.455 12.6959 35.2225 12.3084L31.6058 6.05669C31.3733 5.66919 30.9083 5.51419 30.495 5.66919L26 7.47752C25.07 6.75419 24.0625 6.16002 22.9517 5.69502L22.28 0.915854C22.2367 0.706919 22.1235 0.51894 21.9592 0.382797C21.7949 0.246655 21.5892 0.170445 21.3758 0.166687H14.1425C13.7033 0.166687 13.3158 0.50252 13.2383 0.941687L12.5667 5.72085C11.4817 6.18585 10.4483 6.78002 9.51833 7.50335L5.02333 5.69502C4.61 5.54002 4.145 5.69502 3.9125 6.08252L0.295832 12.3342C0.0633318 12.7217 0.166666 13.2125 0.502499 13.4967L4.32583 16.4934C4.24833 17.0617 4.19666 17.6559 4.19666 18.25C4.19666 18.8442 4.24833 19.4384 4.32583 20.0325L0.502499 23.0292C0.166666 23.3134 0.0633318 23.8042 0.295832 24.1917L3.9125 30.4434C4.145 30.8309 4.61 30.9859 5.02333 30.8309L9.51833 29.0225C10.4483 29.7459 11.4558 30.34 12.5667 30.805L13.2383 35.5842C13.3158 35.9975 13.7033 36.3334 14.1425 36.3334H21.3758C21.815 36.3334 22.2025 35.9975 22.28 35.5584L22.9517 30.7792C24.0367 30.3142 25.07 29.72 26 28.9967L30.495 30.805C30.9083 30.96 31.3733 30.805 31.6058 30.4175ZM17.7592 23.4167C14.9175 23.4167 12.5925 21.0917 12.5925 18.25C12.5925 15.4084 14.9175 13.0834 17.7592 13.0834C20.6008 13.0834 22.9258 15.4084 22.9258 18.25C22.9258 21.0917 20.6008 23.4167 17.7592 23.4167ZM51.6267 43.2309L49.1467 41.3192C49.1983 40.9575 49.25 40.57 49.25 40.1825C49.25 39.795 49.2242 39.4075 49.1467 39.0458L51.6008 37.1342C51.8075 36.9534 51.885 36.6434 51.73 36.385L49.405 32.3809C49.2758 32.1225 48.9658 32.045 48.6817 32.1225L45.8142 33.285C45.22 32.82 44.5742 32.4325 43.8508 32.1484L43.4117 29.1C43.4015 28.9619 43.3403 28.8326 43.24 28.7371C43.1398 28.6416 43.0076 28.5868 42.8692 28.5834H38.245C37.9608 28.5834 37.7025 28.79 37.6767 29.0742L37.2375 32.1225C36.54 32.4325 35.8683 32.7942 35.2742 33.2592L32.4067 32.0967C32.275 32.0472 32.1301 32.046 31.9976 32.0933C31.8652 32.1406 31.7538 32.2333 31.6833 32.355L29.3583 36.3592C29.2292 36.6175 29.255 36.9275 29.4875 37.1083L31.9417 39.02C31.8351 39.7741 31.8351 40.5393 31.9417 41.2934L29.4875 43.205C29.2808 43.3859 29.2033 43.6959 29.3583 43.9542L31.6833 47.9584C31.8125 48.2167 32.1225 48.2942 32.4067 48.2167L35.2742 47.0542C35.8683 47.5192 36.5142 47.9067 37.2375 48.1909L37.6767 51.2392C37.7283 51.5234 37.9608 51.73 38.245 51.73H42.8692C43.1533 51.73 43.4117 51.5234 43.4375 51.2392L43.8767 48.1909C44.5742 47.8809 45.2458 47.5192 45.8142 47.0542L48.7075 48.2167C48.9658 48.32 49.2758 48.2167 49.4308 47.9584L51.7558 43.9542C51.9108 43.7217 51.8333 43.4117 51.6267 43.2309ZM40.5442 43.6442C39.6189 43.6438 38.7316 43.2759 38.0776 42.6214C37.4236 41.9669 37.0563 41.0794 37.0567 40.1541C37.057 39.2288 37.4249 38.3416 38.0794 37.6875C38.7339 37.0335 39.6215 36.6663 40.5467 36.6666C41.472 36.6669 42.3593 37.0348 43.0133 37.6894C43.6674 38.3439 44.0346 39.2314 44.0343 40.1567C44.0339 41.082 43.666 41.9692 43.0115 42.6233C42.357 43.2773 41.4694 43.6445 40.5442 43.6442Z" fill="url(#paint0_linear_301_146)"/>
<defs>
<linearGradient id="paint0_linear_301_146" x1="0.17044" y1="14.8453" x2="51.8092" y2="35.4291" gradientUnits="userSpaceOnUse">
<stop stop-color="#C7DEE8"/>
<stop offset="1" stop-color="#71CEF2"/>
</linearGradient>
</defs>
</svg>
