<svg width="54" height="52" viewBox="0 0 54 52" fill="none" xmlns="http://www.w3.org/2000/svg">
<path d="M52.5608 19.33L51.8648 18.634C52.315 17.6984 52.4694 16.6478 52.3074 15.6222C52.1453 14.5966 51.6745 13.6448 50.9577 12.8936C50.4687 12.4069 49.8815 12.0302 49.2352 11.7884C48.589 11.5467 47.8987 11.4457 47.2103 11.492C46.5633 11.5298 45.9281 11.6808 45.3333 11.9382V0.222229H0.222221V51.7778H45.3333V25.71L50.3117 20.7317L50.737 21.1554C50.7926 21.2109 50.8367 21.2768 50.8668 21.3494C50.8968 21.422 50.9123 21.4998 50.9123 21.5783C50.9123 21.6569 50.8968 21.7347 50.8668 21.8072C50.8367 21.8798 50.7926 21.9457 50.737 22.0012L46.9461 25.7938C46.7042 26.0354 46.5683 26.3632 46.5681 26.7051C46.568 27.047 46.7036 27.3749 46.9452 27.6168C47.1869 27.8586 47.5147 27.9946 47.8566 27.9947C48.1984 27.9949 48.5264 27.8592 48.7682 27.6176L52.5608 23.825C53.1564 23.2287 53.4909 22.4203 53.4909 21.5775C53.4909 20.7347 53.1564 19.9263 52.5608 19.33ZM9.88889 10.2111H35.6699V12.7889H9.88889V10.2111ZM9.88889 16.6556H35.6699V19.2333H9.88889V16.6556ZM9.88889 23.1H26.8056V25.6778H9.88889V23.1ZM33.7188 45.1658H21.1473C19.6941 45.1658 18.3343 45.0272 17.6126 43.8382C16.8731 42.6218 17.6077 41.2089 18.1442 40.1746C18.2393 39.9925 18.0282 39.767 17.7866 40.0167C17.0777 40.7449 15.9499 42.0563 15.0428 43.11C14.0842 44.2249 13.704 44.6615 13.501 44.8452C13.2862 45.0947 12.9945 45.2656 12.6719 45.3309C12.3492 45.3962 12.014 45.3523 11.7191 45.2061C11.4543 45.0531 11.2469 44.8178 11.1285 44.5358C11.0101 44.2539 10.9872 43.941 11.0634 43.6449C11.1311 43.2421 12.2814 38.76 13.3238 34.7306C11.9382 37.1908 7.53989 44.5584 7.33367 44.9048C7.18027 45.1618 6.93105 45.3474 6.64085 45.4206C6.35064 45.4939 6.04321 45.4489 5.78619 45.2955C5.52918 45.1421 5.34362 44.8929 5.27035 44.6027C5.19708 44.3125 5.2421 44.005 5.3955 43.748C5.45189 43.6562 10.9619 34.4229 11.6563 33.0825C11.8826 32.5466 12.304 32.1167 12.8351 31.8796C13.3662 31.6424 13.9675 31.6157 14.5176 31.8048C15.0141 32.0067 15.4157 32.3892 15.6414 32.8753C15.8671 33.3614 15.9002 33.915 15.734 34.4245C15.154 36.6607 14.5627 38.955 14.1068 40.7401C14.8431 39.8894 15.6132 39.0162 16.169 38.4442C16.5968 37.93 17.1813 37.5701 17.8331 37.4196C18.4849 37.2692 19.168 37.3365 19.7779 37.6113C20.1569 37.8042 20.4604 38.1184 20.6402 38.5038C20.8201 38.8891 20.8659 39.3236 20.7703 39.738C20.6164 40.2512 20.4068 40.7461 20.1452 41.2137C19.7151 42.1079 19.9197 42.9086 21.1473 42.9086H33.7188C34.0179 42.9086 34.3048 43.0274 34.5163 43.2389C34.7278 43.4504 34.8466 43.7373 34.8466 44.0364C34.8466 44.3355 34.7278 44.6224 34.5163 44.8339C34.3048 45.0454 34.0179 45.1642 33.7188 45.1642V45.1658ZM30.3677 37.0297L26.1724 38.1365C26.1114 38.1538 26.0468 38.1543 25.9855 38.1378C25.9242 38.1214 25.8685 38.0886 25.8244 38.0431C25.7781 37.9994 25.7447 37.9438 25.728 37.8824C25.7112 37.821 25.7117 37.7562 25.7293 37.6951L26.7991 33.5078L37.4163 22.8906L40.9608 26.435L30.3677 37.0297ZM48.8407 18.5551L42.7829 24.6128L39.2385 21.0684L45.2963 15.0106C45.838 14.4536 46.567 14.1172 47.3424 14.0665L47.4874 14.0617C47.7916 14.0562 48.0939 14.1114 48.3766 14.224C48.6593 14.3366 48.9167 14.5043 49.1339 14.7174C49.5996 15.2671 49.8299 15.9781 49.7751 16.6964C49.7202 17.4147 49.3845 18.0825 48.8407 18.5551Z" fill="url(#paint0_linear_301_148)"/>
<defs>
<linearGradient id="paint0_linear_301_148" x1="0.222221" y1="14.8986" x2="53.0037" y2="36.5934" gradientUnits="userSpaceOnUse">
<stop stop-color="#C7DEE8"/>
<stop offset="1" stop-color="#71CEF2"/>
</linearGradient>
</defs>
</svg>
