<svg width="58" height="58" viewBox="0 0 58 58" fill="none" xmlns="http://www.w3.org/2000/svg">
<path d="M15.4742 15.7222C14.3365 16.0438 13.2947 16.6387 12.4395 17.4552C11.5844 18.2716 10.9419 19.2848 10.568 20.4064L0 52.1093L1.6641 53.7734L18.6688 36.7687C18.33 36.0596 18.125 35.2757 18.125 34.4374C18.125 31.4343 20.5594 28.9999 23.5625 28.9999C26.5656 28.9999 29 31.4343 29 34.4374C29 37.4405 26.5656 39.8749 23.5625 39.8749C22.7242 39.8749 21.9403 39.6699 21.2312 39.3312L4.22652 56.3358L5.89063 57.9999L37.5935 47.4319C38.7151 47.058 39.7283 46.4155 40.5448 45.5604C41.3612 44.7052 41.9561 43.6634 42.2777 42.5257L47.125 25.3749L32.625 10.8749L15.4742 15.7222ZM56.4073 8.40199L49.5979 1.59265C47.4739 -0.531372 44.029 -0.531372 41.905 1.59265L35.4989 7.99871L50.0012 22.501L56.4073 16.0949C58.5313 13.9709 58.5313 10.5271 56.4073 8.40199Z" fill="url(#paint0_linear_301_134)"/>
<defs>
<linearGradient id="paint0_linear_301_134" x1="-4.67178e-07" y1="16.5107" x2="58.0003" y2="39.5838" gradientUnits="userSpaceOnUse">
<stop stop-color="#C7DEE8"/>
<stop offset="1" stop-color="#71CEF2"/>
</linearGradient>
</defs>
</svg>
