<svg width="274" height="126" xmlns="http://www.w3.org/2000/svg" xml:space="preserve" enable-background="new 0 0 595.279 841.89" version="1.1">

 <g>
  <title>Layer 1</title>
  <rect id="svg_1" height="123.486" width="245.859" fill="none" y="0" x="0"/>
  <g id="svg_2">
   <path id="svg_3" d="m19.173,54.677c-1.233,-0.824 -2.104,-2.333 -2.104,-3.979c0,-2.746 2.322,-4.874 5.216,-4.874c1.455,0 2.463,0.479 3.194,0.961c3.84,2.676 8.05,4.325 12.983,4.325c4.565,0 7.32,-1.715 7.32,-4.531l0,-0.136c0,-2.676 -1.739,-4.049 -10.223,-6.111c-10.23,-2.47 -16.824,-5.149 -16.824,-14.684l0,-0.14c0,-8.72 7.397,-14.481 17.76,-14.481c6.171,0 11.533,1.509 16.104,4.255c1.229,0.682 2.463,2.127 2.463,4.189c0,2.743 -2.318,4.871 -5.219,4.871c-1.085,0 -1.96,-0.273 -2.828,-0.755c-3.7,-2.061 -7.177,-3.225 -10.659,-3.225c-4.279,0 -6.528,1.852 -6.528,4.183l0,0.142c0,3.155 2.172,4.186 10.95,6.314c10.298,2.537 16.103,6.038 16.103,14.412l0,0.136c0,9.542 -7.688,14.897 -18.637,14.897c-6.674,-0.001 -13.421,-1.929 -19.071,-5.769z" fill="#FFFFFF"/>
   <path id="svg_4" d="m93.796,55.98c0,2.267 -1.954,4.12 -4.422,4.12c-2.388,0 -4.421,-1.786 -4.421,-4.12l0,-1.852c-2.464,3.434 -6.022,6.383 -11.963,6.383c-8.625,0 -13.632,-5.489 -13.632,-13.933l0,-19.286c0,-2.337 1.954,-4.189 4.349,-4.189c2.465,0 4.42,1.852 4.42,4.189l0,16.812c0,5.631 2.979,8.787 8.197,8.787c5.074,0 8.63,-3.294 8.63,-8.923l0,-16.676c0,-2.337 1.961,-4.189 4.421,-4.189c2.398,0 4.422,1.852 4.422,4.189l-0.001,28.688l0,0z" fill="#FFFFFF"/>
   <path id="svg_5" d="m96.636,15.418c0,-2.33 1.882,-4.116 4.35,-4.116c2.467,0 4.422,1.786 4.422,4.116l0,14.139c2.831,-3.776 6.816,-6.798 13.054,-6.798c8.986,0 17.771,6.728 17.771,18.806l0,0.139c0,12.012 -8.71,18.807 -17.771,18.807c-6.383,0 -10.372,-3.019 -13.054,-6.383l0,1.852c0,2.267 -1.955,4.12 -4.422,4.12c-2.395,0 -4.35,-1.853 -4.35,-4.12l0,-40.562zm30.673,26.287l0,-0.139c0,-6.998 -5.001,-11.596 -10.951,-11.596c-5.946,0 -11.166,4.667 -11.166,11.596l0,0.139c0,6.932 5.219,11.599 11.166,11.599c6.023,0 10.951,-4.458 10.951,-11.599z" fill="#FFFFFF"/>
   <path id="svg_6" d="m148.501,56.326l-16.461,-37.27c-0.363,-0.825 -0.656,-1.646 -0.656,-2.538c0,-2.952 2.466,-5.216 5.582,-5.216c2.899,0 4.785,1.576 5.659,3.704l12.688,31.09l12.835,-31.433c0.729,-1.719 2.685,-3.361 5.368,-3.361c3.04,0 5.51,2.197 5.51,5.074c0,0.824 -0.294,1.718 -0.578,2.336l-16.605,37.613c-1.164,2.607 -2.925,3.747 -5.978,3.747l-0.719,0c-3.045,0 -5.488,-1.139 -6.645,-3.746z" fill="#FFFFFF"/>
   <path id="svg_7" d="m197.473,21.576l-10.729,0c-2.832,0 -5.152,-2.193 -5.152,-4.873c0,-2.673 2.32,-4.874 5.152,-4.874l32.631,0c2.829,0 5.151,2.2 5.151,4.874c0,2.68 -2.322,4.873 -5.151,4.873l-10.736,0l0,33.425c0,2.952 -2.453,4.571 -5.575,4.571c-3.117,0 -5.59,-1.619 -5.59,-4.571l0,-33.425l-0.001,0z" fill="#FFFFFF"/>
   <g id="svg_8">
    <path id="svg_9" d="m18.593,85.105c-0.297,-0.201 -0.509,-0.541 -0.509,-0.942c0,-0.641 0.551,-1.142 1.228,-1.142c0.358,0 0.592,0.1 0.761,0.221c1.228,0.921 2.538,1.442 4.146,1.442c1.606,0 2.622,-0.721 2.622,-1.763l0,-0.04c0,-1.001 -0.593,-1.542 -3.342,-2.145c-3.15,-0.721 -4.928,-1.603 -4.928,-4.188l0,-0.04c0,-2.404 2.115,-4.067 5.055,-4.067c1.861,0 3.363,0.461 4.695,1.302c0.296,0.16 0.571,0.501 0.571,0.981c0,0.641 -0.55,1.142 -1.228,1.142c-0.254,0 -0.465,-0.06 -0.677,-0.18c-1.142,-0.701 -2.242,-1.062 -3.405,-1.062c-1.521,0 -2.411,0.741 -2.411,1.663l0,0.04c0,1.082 0.678,1.562 3.532,2.204c3.13,0.722 4.737,1.783 4.737,4.107l0,0.04c0,2.625 -2.178,4.187 -5.287,4.187c-2.007,0.002 -3.911,-0.599 -5.56,-1.76z" fill="#FFFFFF"/>
    <path id="svg_10" d="m41.076,85.565c0,0.661 -0.571,1.202 -1.29,1.202c-0.698,0 -1.29,-0.521 -1.29,-1.202l0,-0.541c-0.719,1.002 -1.755,1.863 -3.488,1.863c-2.518,0 -3.977,-1.604 -3.977,-4.067l0,-5.63c0,-0.681 0.571,-1.222 1.27,-1.222c0.719,0 1.289,0.541 1.289,1.222l0,4.909c0,1.643 0.867,2.563 2.391,2.563c1.479,0 2.517,-0.962 2.517,-2.604l0,-4.869c0,-0.681 0.571,-1.222 1.29,-1.222c0.698,0 1.29,0.541 1.29,1.222l-0.002,8.376l0,0z" fill="#FFFFFF"/>
    <path id="svg_11" d="m43.214,73.144c0,-0.681 0.551,-1.202 1.27,-1.202s1.291,0.521 1.291,1.202l0,4.708c0.825,-1.102 1.988,-1.983 3.807,-1.983c2.623,0 5.182,1.963 5.182,5.49l0,0.04c0,3.506 -2.538,5.489 -5.182,5.489c-1.86,0 -3.023,-0.881 -3.807,-1.863l0,0.541c0,0.661 -0.571,1.202 -1.291,1.202c-0.698,0 -1.27,-0.541 -1.27,-1.202l0,-12.422zm8.946,8.254l0,-0.04c0,-2.043 -1.459,-3.386 -3.192,-3.386c-1.734,0 -3.258,1.363 -3.258,3.386l0,0.04c0,2.023 1.522,3.386 3.258,3.386c1.754,0 3.192,-1.303 3.192,-3.386z" fill="#FFFFFF"/>
    <path id="svg_12" d="m55.926,85.605c-0.275,-0.14 -0.486,-0.44 -0.486,-0.841c0,-0.541 0.444,-0.981 1.037,-0.981c0.211,0 0.401,0.061 0.55,0.141c1.079,0.681 2.199,1.021 3.214,1.021c1.101,0 1.734,-0.439 1.734,-1.142l0,-0.041c0,-0.821 -1.186,-1.103 -2.496,-1.482c-1.649,-0.44 -3.49,-1.082 -3.49,-3.104l0,-0.04c0,-2.003 1.755,-3.227 3.976,-3.227c1.186,0 2.433,0.321 3.512,0.862c0.358,0.18 0.612,0.5 0.612,0.921c0,0.562 -0.465,0.982 -1.057,0.982c-0.212,0 -0.339,-0.041 -0.508,-0.121c-0.909,-0.44 -1.84,-0.722 -2.623,-0.722c-0.994,0 -1.565,0.441 -1.565,1.042l0,0.04c0,0.781 1.206,1.103 2.518,1.502c1.628,0.481 3.469,1.183 3.469,3.085l0,0.04c0,2.225 -1.819,3.326 -4.146,3.326c-1.417,0.001 -2.961,-0.419 -4.251,-1.261z" fill="#FFFFFF"/>
    <path id="svg_13" d="m71.007,86.907c-3.234,0 -5.73,-2.224 -5.73,-5.488l0,-0.04c0,-3.025 2.263,-5.511 5.456,-5.511c3.553,0 5.309,2.766 5.309,5.209c0,0.682 -0.55,1.162 -1.206,1.162l-7,0c0.275,1.724 1.565,2.686 3.216,2.686c1.078,0 1.924,-0.36 2.644,-0.921c0.19,-0.141 0.359,-0.221 0.656,-0.221c0.57,0 1.015,0.42 1.015,0.981c0,0.301 -0.147,0.561 -0.338,0.741c-1.019,0.862 -2.288,1.402 -4.022,1.402zm2.538,-6.27c-0.169,-1.563 -1.142,-2.785 -2.834,-2.785c-1.564,0 -2.665,1.142 -2.896,2.785l5.73,0z" fill="#FFFFFF"/>
    <path id="svg_14" d="m76.994,81.438l0,-0.04c0,-3.005 2.453,-5.53 5.816,-5.53c1.755,0 2.96,0.541 3.912,1.322c0.169,0.14 0.401,0.441 0.401,0.842c0,0.621 -0.527,1.103 -1.184,1.103c-0.317,0 -0.592,-0.12 -0.761,-0.24c-0.656,-0.521 -1.375,-0.902 -2.391,-0.902c-1.86,0 -3.234,1.523 -3.234,3.366l0,0.04c0,1.883 1.375,3.386 3.341,3.386c1.015,0 1.797,-0.381 2.496,-0.94c0.147,-0.121 0.401,-0.262 0.697,-0.262c0.613,0 1.101,0.481 1.101,1.062c0,0.32 -0.127,0.581 -0.359,0.761c-0.994,0.901 -2.2,1.502 -4.061,1.502c-3.321,-0.001 -5.774,-2.465 -5.774,-5.47z" fill="#FFFFFF"/>
    <path id="svg_15" d="m88.628,77.19c0,-0.681 0.551,-1.222 1.27,-1.222s1.29,0.541 1.29,1.222l0,1.082c0.592,-1.322 1.691,-2.324 2.812,-2.324c0.805,0 1.27,0.501 1.27,1.202c0,0.641 -0.444,1.062 -1.016,1.162c-1.818,0.3 -3.065,1.623 -3.065,4.127l0,3.125c0,0.661 -0.571,1.202 -1.29,1.202c-0.698,0 -1.27,-0.521 -1.27,-1.202l0,-8.374l-0.001,0z" fill="#FFFFFF"/>
    <path id="svg_16" d="m101.043,86.907c-3.234,0 -5.73,-2.224 -5.73,-5.488l0,-0.04c0,-3.025 2.263,-5.511 5.456,-5.511c3.553,0 5.309,2.766 5.309,5.209c0,0.682 -0.55,1.162 -1.206,1.162l-7,0c0.275,1.724 1.565,2.686 3.215,2.686c1.079,0 1.925,-0.36 2.645,-0.921c0.189,-0.141 0.358,-0.221 0.656,-0.221c0.57,0 1.015,0.42 1.015,0.981c0,0.301 -0.148,0.561 -0.338,0.741c-1.019,0.862 -2.288,1.402 -4.022,1.402zm2.538,-6.27c-0.169,-1.563 -1.142,-2.785 -2.834,-2.785c-1.564,0 -2.665,1.142 -2.896,2.785l5.73,0z" fill="#FFFFFF"/>
    <path id="svg_17" d="m108.172,83.742l0,-5.568l-0.423,0c-0.612,0 -1.1,-0.461 -1.1,-1.042s0.486,-1.042 1.1,-1.042l0.423,0l0,-1.804c0,-0.661 0.571,-1.201 1.29,-1.201c0.698,0 1.27,0.54 1.27,1.201l0,1.804l2.009,0c0.613,0 1.121,0.46 1.121,1.042s-0.508,1.042 -1.121,1.042l-2.009,0l0,5.188c0,0.941 0.508,1.322 1.375,1.322c0.296,0 0.55,-0.061 0.634,-0.061c0.571,0 1.079,0.441 1.079,1.001c0,0.441 -0.317,0.803 -0.677,0.942c-0.55,0.18 -1.079,0.28 -1.755,0.28c-1.884,0.001 -3.216,-0.78 -3.216,-3.104z" fill="#FFFFFF"/>
    <path id="svg_18" d="m114.539,83.622l0,-0.04c0,-2.283 1.882,-3.405 4.61,-3.405c1.248,0 2.136,0.18 3.003,0.44l0,-0.261c0,-1.502 -0.973,-2.304 -2.771,-2.304c-0.973,0 -1.775,0.16 -2.474,0.42c-0.147,0.04 -0.275,0.06 -0.402,0.06c-0.592,0 -1.078,-0.439 -1.078,-1.001c0,-0.44 0.316,-0.821 0.697,-0.962c1.059,-0.38 2.137,-0.621 3.596,-0.621c1.671,0 2.918,0.421 3.7,1.183c0.825,0.761 1.206,1.883 1.206,3.266l0,5.209c0,0.661 -0.55,1.162 -1.248,1.162c-0.739,0 -1.248,-0.481 -1.248,-1.021l0,-0.4c-0.761,0.86 -1.924,1.542 -3.638,1.542c-2.092,-0.002 -3.953,-1.143 -3.953,-3.267zm7.656,-0.762l0,-0.721c-0.656,-0.24 -1.523,-0.421 -2.538,-0.421c-1.648,0 -2.622,0.661 -2.622,1.763l0,0.04c0,1.022 0.952,1.603 2.178,1.603c1.692,0.001 2.982,-0.921 2.982,-2.264z" fill="#FFFFFF"/>
    <path id="svg_19" d="m126.638,77.19c0,-0.681 0.55,-1.222 1.269,-1.222c0.72,0 1.29,0.541 1.29,1.222l0,1.082c0.593,-1.322 1.692,-2.324 2.813,-2.324c0.804,0 1.269,0.501 1.269,1.202c0,0.641 -0.443,1.062 -1.016,1.162c-1.818,0.3 -3.066,1.623 -3.066,4.127l0,3.125c0,0.661 -0.57,1.202 -1.29,1.202c-0.697,0 -1.269,-0.521 -1.269,-1.202l0,-8.374z" fill="#FFFFFF"/>
    <path id="svg_20" d="m134.465,77.19c0,-0.681 0.551,-1.222 1.27,-1.222s1.29,0.541 1.29,1.222l0,8.375c0,0.681 -0.571,1.202 -1.29,1.202c-0.698,0 -1.27,-0.521 -1.27,-1.202l0,-8.375zm0.57,-2.764c0,-0.141 0.085,-0.321 0.169,-0.441l1.206,-1.763c0.232,-0.36 0.571,-0.581 1.016,-0.581c0.677,0 1.522,0.399 1.522,0.781c0,0.22 -0.147,0.42 -0.359,0.601l-1.417,1.282c-0.507,0.439 -0.909,0.541 -1.501,0.541c-0.36,0.001 -0.636,-0.16 -0.636,-0.42z" fill="#FFFFFF"/>
    <path id="svg_21" d="m138.568,83.622l0,-0.04c0,-2.283 1.882,-3.405 4.61,-3.405c1.248,0 2.136,0.18 3.003,0.44l0,-0.261c0,-1.502 -0.973,-2.304 -2.771,-2.304c-0.973,0 -1.775,0.16 -2.475,0.42c-0.147,0.04 -0.274,0.06 -0.401,0.06c-0.592,0 -1.079,-0.439 -1.079,-1.001c0,-0.44 0.317,-0.821 0.698,-0.962c1.059,-0.38 2.136,-0.621 3.596,-0.621c1.672,0 2.919,0.421 3.701,1.183c0.824,0.761 1.205,1.883 1.205,3.266l0,5.209c0,0.661 -0.55,1.162 -1.248,1.162c-0.739,0 -1.248,-0.481 -1.248,-1.021l0,-0.4c-0.761,0.86 -1.924,1.542 -3.637,1.542c-2.093,-0.002 -3.954,-1.143 -3.954,-3.267zm7.655,-0.762l0,-0.721c-0.655,-0.24 -1.522,-0.421 -2.537,-0.421c-1.649,0 -2.623,0.661 -2.623,1.763l0,0.04c0,1.022 0.952,1.603 2.179,1.603c1.691,0.001 2.981,-0.921 2.981,-2.264z" fill="#FFFFFF"/>
    <path id="svg_22" d="m166.93,85.565c0,0.681 -0.57,1.202 -1.27,1.202c-0.719,0 -1.29,-0.521 -1.29,-1.202l0,-0.661c-0.824,1.103 -1.987,1.983 -3.807,1.983c-2.622,0 -5.182,-1.983 -5.182,-5.489l0,-0.04c0,-3.506 2.517,-5.49 5.182,-5.49c1.84,0 3.003,0.861 3.807,1.863l0,-4.588c0,-0.681 0.571,-1.202 1.27,-1.202c0.72,0 1.29,0.521 1.29,1.202l0,12.422zm-8.966,-4.207l0,0.04c0,2.043 1.479,3.386 3.215,3.386c1.713,0 3.234,-1.361 3.234,-3.386l0,-0.04c0,-2.043 -1.521,-3.386 -3.234,-3.386c-1.755,0 -3.215,1.282 -3.215,3.386z" fill="#FFFFFF"/>
    <path id="svg_23" d="m174.209,86.907c-3.236,0 -5.731,-2.224 -5.731,-5.488l0,-0.04c0,-3.025 2.263,-5.511 5.456,-5.511c3.553,0 5.309,2.766 5.309,5.209c0,0.682 -0.55,1.162 -1.206,1.162l-7,0c0.275,1.724 1.565,2.686 3.216,2.686c1.077,0 1.925,-0.36 2.644,-0.921c0.19,-0.141 0.359,-0.221 0.655,-0.221c0.571,0 1.016,0.42 1.016,0.981c0,0.301 -0.147,0.561 -0.339,0.741c-1.017,0.862 -2.286,1.402 -4.02,1.402zm2.536,-6.27c-0.169,-1.563 -1.142,-2.785 -2.834,-2.785c-1.563,0 -2.664,1.142 -2.896,2.785l5.73,0z" fill="#FFFFFF"/>
    <path id="svg_24" d="m23.267,109.834l-5.183,-11.539c-0.084,-0.182 -0.147,-0.361 -0.147,-0.582c0,-0.66 0.571,-1.201 1.311,-1.201c0.678,0 1.121,0.359 1.333,0.881l4.272,10.117l4.335,-10.197c0.169,-0.42 0.634,-0.801 1.248,-0.801c0.719,0 1.291,0.52 1.291,1.182c0,0.18 -0.063,0.381 -0.127,0.521l-5.203,11.619c-0.275,0.621 -0.761,1.002 -1.501,1.002l-0.148,0c-0.72,-0.002 -1.206,-0.381 -1.481,-1.002z" fill="#FFFFFF"/>
    <path id="svg_25" d="m32.659,97.213c0,-0.723 0.634,-1.184 1.459,-1.184s1.459,0.461 1.459,1.184l0,0.119c0,0.721 -0.634,1.201 -1.459,1.201s-1.459,-0.48 -1.459,-1.201l0,-0.119zm0.19,3.945c0,-0.682 0.55,-1.223 1.269,-1.223s1.29,0.541 1.29,1.223l0,8.375c0,0.682 -0.571,1.201 -1.29,1.201c-0.698,0 -1.269,-0.52 -1.269,-1.201l0,-8.375z" fill="#FFFFFF"/>
    <path id="svg_26" d="m37.693,101.158c0,-0.682 0.55,-1.223 1.269,-1.223c0.72,0 1.29,0.541 1.29,1.223l0,0.521c0.72,-0.982 1.755,-1.846 3.489,-1.846c2.518,0 3.977,1.605 3.977,4.049l0,5.648c0,0.682 -0.551,1.203 -1.27,1.203s-1.29,-0.521 -1.29,-1.203l0,-4.908c0,-1.643 -0.867,-2.584 -2.39,-2.584c-1.48,0 -2.518,0.98 -2.518,2.625l0,4.867c0,0.682 -0.57,1.203 -1.29,1.203c-0.697,0 -1.269,-0.521 -1.269,-1.203l0.002,-8.372l0,0z" fill="#FFFFFF"/>
    <path id="svg_27" d="m49.137,105.406l0,-0.041c0,-3.006 2.452,-5.529 5.815,-5.529c1.755,0 2.96,0.541 3.912,1.322c0.169,0.141 0.402,0.441 0.402,0.842c0,0.621 -0.528,1.102 -1.185,1.102c-0.316,0 -0.592,-0.119 -0.761,-0.24c-0.656,-0.52 -1.375,-0.9 -2.39,-0.9c-1.861,0 -3.236,1.521 -3.236,3.365l0,0.041c0,1.883 1.375,3.387 3.342,3.387c1.016,0 1.797,-0.383 2.496,-0.941c0.148,-0.121 0.402,-0.262 0.698,-0.262c0.613,0 1.1,0.48 1.1,1.062c0,0.32 -0.127,0.58 -0.358,0.762c-0.994,0.9 -2.199,1.502 -4.062,1.502c-3.32,-0.003 -5.773,-2.468 -5.773,-5.472z" fill="#FFFFFF"/>
    <path id="svg_28" d="m70.689,109.533c0,0.66 -0.571,1.201 -1.29,1.201c-0.698,0 -1.29,-0.52 -1.29,-1.201l0,-0.541c-0.719,1.002 -1.755,1.863 -3.489,1.863c-2.517,0 -3.976,-1.604 -3.976,-4.068l0,-5.629c0,-0.682 0.57,-1.223 1.269,-1.223c0.719,0 1.29,0.541 1.29,1.223l0,4.908c0,1.645 0.867,2.564 2.391,2.564c1.479,0 2.517,-0.961 2.517,-2.604l0,-4.869c0,-0.682 0.571,-1.223 1.29,-1.223c0.698,0 1.29,0.541 1.29,1.223l-0.002,8.376l0,0z" fill="#FFFFFF"/>
    <path id="svg_29" d="m72.975,97.111c0,-0.662 0.55,-1.203 1.269,-1.203s1.29,0.541 1.29,1.203l0,12.422c0,0.682 -0.571,1.201 -1.29,1.201c-0.698,0 -1.269,-0.52 -1.269,-1.201l0,-12.422z" fill="#FFFFFF"/>
    <path id="svg_30" d="m77.079,107.59l0,-0.039c0,-2.285 1.882,-3.406 4.61,-3.406c1.248,0 2.136,0.18 3.003,0.439l0,-0.26c0,-1.504 -0.973,-2.305 -2.771,-2.305c-0.973,0 -1.775,0.16 -2.474,0.42c-0.148,0.041 -0.275,0.062 -0.402,0.062c-0.592,0 -1.078,-0.441 -1.078,-1.004c0,-0.439 0.316,-0.82 0.697,-0.961c1.059,-0.381 2.137,-0.621 3.596,-0.621c1.671,0 2.919,0.422 3.7,1.184c0.825,0.76 1.206,1.883 1.206,3.266l0,5.209c0,0.66 -0.55,1.162 -1.248,1.162c-0.739,0 -1.248,-0.48 -1.248,-1.021l0,-0.4c-0.761,0.861 -1.924,1.543 -3.638,1.543c-2.092,-0.003 -3.953,-1.143 -3.953,-3.268zm7.656,-0.762l0,-0.721c-0.656,-0.24 -1.523,-0.422 -2.538,-0.422c-1.649,0 -2.622,0.662 -2.622,1.764l0,0.039c0,1.023 0.952,1.605 2.178,1.605c1.692,0.001 2.982,-0.921 2.982,-2.265z" fill="#FFFFFF"/>
    <path id="svg_31" d="m88.564,105.406l0,-0.041c0,-3.006 2.453,-5.529 5.815,-5.529c1.756,0 2.96,0.541 3.912,1.322c0.169,0.141 0.402,0.441 0.402,0.842c0,0.621 -0.528,1.102 -1.184,1.102c-0.317,0 -0.593,-0.119 -0.762,-0.24c-0.655,-0.52 -1.375,-0.9 -2.39,-0.9c-1.861,0 -3.235,1.521 -3.235,3.365l0,0.041c0,1.883 1.375,3.387 3.342,3.387c1.015,0 1.797,-0.383 2.495,-0.941c0.148,-0.121 0.402,-0.262 0.698,-0.262c0.613,0 1.101,0.48 1.101,1.062c0,0.32 -0.127,0.58 -0.359,0.762c-0.994,0.9 -2.2,1.502 -4.062,1.502c-3.32,-0.003 -5.773,-2.468 -5.773,-5.472z" fill="#FFFFFF"/>
    <path id="svg_32" d="m100.155,97.213c0,-0.723 0.635,-1.184 1.459,-1.184s1.459,0.461 1.459,1.184l0,0.119c0,0.721 -0.634,1.201 -1.459,1.201s-1.459,-0.48 -1.459,-1.201l0,-0.119zm0.191,3.945c0,-0.682 0.55,-1.223 1.269,-1.223s1.29,0.541 1.29,1.223l0,8.375c0,0.682 -0.571,1.201 -1.29,1.201c-0.698,0 -1.269,-0.52 -1.269,-1.201l0,-8.375z" fill="#FFFFFF"/>
    <path id="svg_33" d="m104.576,105.406l0,-0.041c0,-3.023 2.538,-5.529 5.964,-5.529s5.943,2.465 5.943,5.49l0,0.039c0,3.006 -2.538,5.51 -5.985,5.51c-3.405,0 -5.922,-2.465 -5.922,-5.469zm9.348,0l0,-0.041c0,-1.861 -1.417,-3.406 -3.427,-3.406c-2.051,0 -3.362,1.523 -3.362,3.367l0,0.039c0,1.844 1.417,3.387 3.404,3.387c2.073,0 3.385,-1.522 3.385,-3.346zm-4.103,-7.011c0,-0.141 0.084,-0.32 0.169,-0.441l1.205,-1.764c0.233,-0.359 0.571,-0.58 1.016,-0.58c0.678,0 1.522,0.4 1.522,0.781c0,0.221 -0.148,0.42 -0.359,0.602l-1.417,1.281c-0.508,0.441 -0.91,0.541 -1.501,0.541c-0.36,-0.001 -0.635,-0.161 -0.635,-0.42z" fill="#FFFFFF"/>
    <path id="svg_34" d="m118.029,101.158c0,-0.682 0.55,-1.223 1.269,-1.223c0.72,0 1.291,0.541 1.291,1.223l0,0.521c0.72,-0.982 1.756,-1.846 3.49,-1.846c2.518,0 3.977,1.605 3.977,4.049l0,5.648c0,0.682 -0.551,1.203 -1.27,1.203c-0.72,0 -1.29,-0.521 -1.29,-1.203l0,-4.908c0,-1.643 -0.867,-2.584 -2.39,-2.584c-1.48,0 -2.518,0.98 -2.518,2.625l0,4.867c0,0.682 -0.57,1.203 -1.291,1.203c-0.697,0 -1.269,-0.521 -1.269,-1.203l0,-8.372l0.001,0z" fill="#FFFFFF"/>
    <path id="svg_35" d="m139.308,98.895l-3.596,0c-0.678,0 -1.205,-0.521 -1.205,-1.141c0,-0.621 0.527,-1.145 1.205,-1.145l9.835,0c0.654,0 1.184,0.521 1.184,1.145c0,0.621 -0.528,1.141 -1.184,1.141l-3.617,0l0,10.619c0,0.682 -0.592,1.223 -1.312,1.223s-1.312,-0.541 -1.312,-1.223l0.002,-10.619l0,0z" fill="#FFFFFF"/>
    <path id="svg_36" d="m150.73,110.875c-3.236,0 -5.73,-2.225 -5.73,-5.488l0,-0.041c0,-3.025 2.263,-5.51 5.456,-5.51c3.553,0 5.309,2.766 5.309,5.209c0,0.682 -0.55,1.162 -1.206,1.162l-7,0c0.275,1.725 1.565,2.686 3.215,2.686c1.078,0 1.925,-0.361 2.645,-0.922c0.189,-0.141 0.358,-0.221 0.654,-0.221c0.571,0 1.017,0.422 1.017,0.98c0,0.301 -0.148,0.562 -0.339,0.742c-1.018,0.862 -2.286,1.403 -4.021,1.403zm2.537,-6.27c-0.169,-1.562 -1.142,-2.785 -2.834,-2.785c-1.564,0 -2.664,1.143 -2.896,2.785l5.73,0z" fill="#FFFFFF"/>
    <path id="svg_37" d="m157.329,101.158c0,-0.682 0.551,-1.223 1.27,-1.223c0.72,0 1.29,0.541 1.29,1.223l0,1.082c0.593,-1.322 1.692,-2.324 2.812,-2.324c0.805,0 1.27,0.5 1.27,1.201c0,0.643 -0.444,1.062 -1.017,1.162c-1.817,0.301 -3.065,1.623 -3.065,4.127l0,3.127c0,0.66 -0.57,1.201 -1.29,1.201c-0.697,0 -1.27,-0.52 -1.27,-1.201l0,-8.375z" fill="#FFFFFF"/>
    <path id="svg_38" d="m165.008,101.158c0,-0.682 0.55,-1.223 1.269,-1.223c0.72,0 1.29,0.541 1.29,1.223l0,1.082c0.593,-1.322 1.692,-2.324 2.813,-2.324c0.803,0 1.269,0.5 1.269,1.201c0,0.643 -0.443,1.062 -1.016,1.162c-1.818,0.301 -3.066,1.623 -3.066,4.127l0,3.127c0,0.66 -0.57,1.201 -1.29,1.201c-0.696,0 -1.269,-0.52 -1.269,-1.201l0,-8.375z" fill="#FFFFFF"/>
    <path id="svg_39" d="m172.644,97.213c0,-0.723 0.634,-1.184 1.459,-1.184c0.824,0 1.459,0.461 1.459,1.184l0,0.119c0,0.721 -0.635,1.201 -1.459,1.201c-0.825,0 -1.459,-0.48 -1.459,-1.201l0,-0.119zm0.19,3.945c0,-0.682 0.551,-1.223 1.27,-1.223s1.29,0.541 1.29,1.223l0,8.375c0,0.682 -0.571,1.201 -1.29,1.201c-0.698,0 -1.27,-0.52 -1.27,-1.201l0,-8.375z" fill="#FFFFFF"/>
    <path id="svg_40" d="m178.206,107.709l0,-5.568l-0.423,0c-0.612,0 -1.1,-0.461 -1.1,-1.041c0,-0.582 0.486,-1.043 1.1,-1.043l0.423,0l0,-1.803c0,-0.66 0.571,-1.201 1.29,-1.201c0.698,0 1.271,0.541 1.271,1.201l0,1.803l2.009,0c0.613,0 1.121,0.461 1.121,1.043c0,0.58 -0.508,1.041 -1.121,1.041l-2.009,0l0,5.188c0,0.941 0.507,1.322 1.374,1.322c0.297,0 0.55,-0.059 0.635,-0.059c0.571,0 1.078,0.439 1.078,1c0,0.441 -0.316,0.803 -0.676,0.941c-0.551,0.182 -1.079,0.281 -1.756,0.281c-1.882,0 -3.216,-0.781 -3.216,-3.105z" fill="#FFFFFF"/>
    <path id="svg_41" d="m184.383,105.406l0,-0.041c0,-3.023 2.538,-5.529 5.964,-5.529s5.941,2.465 5.941,5.49l0,0.039c0,3.006 -2.536,5.51 -5.983,5.51c-3.405,0 -5.922,-2.465 -5.922,-5.469zm9.348,0l0,-0.041c0,-1.861 -1.417,-3.406 -3.426,-3.406c-2.052,0 -3.363,1.523 -3.363,3.367l0,0.039c0,1.844 1.417,3.387 3.405,3.387c2.073,0 3.384,-1.522 3.384,-3.346z" fill="#FFFFFF"/>
    <path id="svg_42" d="m197.837,101.158c0,-0.682 0.55,-1.223 1.269,-1.223c0.72,0 1.29,0.541 1.29,1.223l0,1.082c0.593,-1.322 1.692,-2.324 2.813,-2.324c0.803,0 1.269,0.5 1.269,1.201c0,0.643 -0.444,1.062 -1.016,1.162c-1.818,0.301 -3.066,1.623 -3.066,4.127l0,3.127c0,0.66 -0.57,1.201 -1.29,1.201c-0.697,0 -1.269,-0.52 -1.269,-1.201l0,-8.375z" fill="#FFFFFF"/>
    <path id="svg_43" d="m205.472,97.213c0,-0.723 0.634,-1.184 1.459,-1.184c0.824,0 1.459,0.461 1.459,1.184l0,0.119c0,0.721 -0.635,1.201 -1.459,1.201c-0.825,0 -1.459,-0.48 -1.459,-1.201l0,-0.119zm0.189,3.945c0,-0.682 0.552,-1.223 1.271,-1.223s1.29,0.541 1.29,1.223l0,8.375c0,0.682 -0.571,1.201 -1.29,1.201c-0.698,0 -1.271,-0.52 -1.271,-1.201l0,-8.375z" fill="#FFFFFF"/>
    <path id="svg_44" d="m209.766,107.59l0,-0.039c0,-2.285 1.882,-3.406 4.61,-3.406c1.247,0 2.136,0.18 3.003,0.439l0,-0.26c0,-1.504 -0.974,-2.305 -2.771,-2.305c-0.973,0 -1.775,0.16 -2.475,0.42c-0.147,0.041 -0.274,0.062 -0.401,0.062c-0.592,0 -1.079,-0.441 -1.079,-1.004c0,-0.439 0.317,-0.82 0.698,-0.961c1.058,-0.381 2.136,-0.621 3.596,-0.621c1.671,0 2.918,0.422 3.701,1.184c0.824,0.76 1.205,1.883 1.205,3.266l0,5.209c0,0.66 -0.55,1.162 -1.248,1.162c-0.74,0 -1.247,-0.48 -1.247,-1.021l0,-0.4c-0.762,0.861 -1.925,1.543 -3.638,1.543c-2.092,-0.003 -3.954,-1.143 -3.954,-3.268zm7.656,-0.762l0,-0.721c-0.655,-0.24 -1.522,-0.422 -2.537,-0.422c-1.649,0 -2.623,0.662 -2.623,1.764l0,0.039c0,1.023 0.952,1.605 2.179,1.605c1.691,0.001 2.981,-0.921 2.981,-2.265z" fill="#FFFFFF"/>
    <path id="svg_45" d="m222.012,97.111c0,-0.662 0.551,-1.203 1.27,-1.203c0.72,0 1.29,0.541 1.29,1.203l0,12.422c0,0.682 -0.57,1.201 -1.29,1.201c-0.697,0 -1.27,-0.52 -1.27,-1.201l0,-12.422z" fill="#FFFFFF"/>
   </g>
  </g>
 </g>
</svg>