<?xml version="1.0" encoding="utf-8"?>
<!-- Generator: Adobe Illustrator 26.4.1, SVG Export Plug-In . SVG Version: 6.00 Build 0)  -->
<svg version="1.1" id="Layer_1" xmlns="http://www.w3.org/2000/svg" xmlns:xlink="http://www.w3.org/1999/xlink" x="0px" y="0px"
	 viewBox="0 0 142.4 165.2" style="enable-background:new 0 0 142.4 165.2;" xml:space="preserve">
<style type="text/css">
	.st0{fill-rule:evenodd;clip-rule:evenodd;fill:#DFF4FF;}
	.st1{fill-rule:evenodd;clip-rule:evenodd;fill:#3ABEEE;}
	.st2{fill-rule:evenodd;clip-rule:evenodd;}
	.st3{fill-rule:evenodd;clip-rule:evenodd;fill:#FFFFFF;}
	.st4{fill:#DFF4FF;}
</style>
<g>
	<path class="st0" d="M79,1.8c3.8,0,7.6,0,11.4,0c29.8,4.9,47.1,22.2,52,52c0,3.8,0,7.6,0,11.4c-3.4,22.4-13.6,35.7-29.5,44.8
		c-15,8.6-35.8,9.5-52,1.9c-1.5-0.7-4.7-3.1-6.1-3.1c-2.3,0-7.9,6.8-10,8.9c-6.8,6.8-11.9,11.9-18.6,18.6c-3.5,3.5-6.7,6.7-11.7,7.8
		c-1.7,0-3.3,0-5,0c-4.8-1.5-7.9-4.7-9.5-9.5c0-1.7,0-3.3,0-5c0.7-1.9,1.6-4.6,2.8-6.4c4-5.8,10.9-11.1,16.4-16.7
		c2.5-2.5,5.2-5.2,8.3-8.3c2-2,7.8-6.8,7.8-8.9c0-1.5-2.4-4.6-3.1-6.1c-1-2.2-2.1-4.2-2.8-6.4c-5.1-15.5-2.2-33.4,4.7-45.6
		C43.2,15.4,56.9,5,79,1.8z M44.5,45.4c-6.9,19.7,1.8,37.1,12.2,46.2c12.6,10.9,32.5,13.7,47.8,5.6c12.1-6.4,24.2-19.9,22.5-41.2
		c-0.5-6.8-3.4-14.8-7-20c-6.9-10.3-20.7-20.4-39.8-18.6C62.3,19.1,49.2,31.9,44.5,45.4z"/>
	<path class="st1" d="M80.4,17.4c19.1-1.8,32.9,8.4,39.8,18.6c3.5,5.2,6.4,13.2,7,20c1.6,21.2-10.4,34.7-22.5,41.2
		c-15.3,8.1-35.2,5.4-47.8-5.6c-10.5-9.1-19.1-26.4-12.2-46.2C49.2,31.9,62.3,19.1,80.4,17.4z M58.4,52.4c-1.9,1.9-5.3,5.4-5.3,7.5
		s3.6,6,5.3,7.8c6.3,6.5,15.6,12.6,26.7,12.5s20.2-6.5,26.1-12.8c1.9-2,5.4-5.3,5.3-7.8c-0.1-1.8-3.3-5.5-5.3-7.5
		c-6.5-6.8-16.2-12.7-26.7-12.5C73.2,39.8,64.5,46,58.4,52.4z"/>
	<path class="st2" d="M84.5,39.6c10.5-0.2,20.2,5.7,26.7,12.5c1.9,2,5.2,5.7,5.3,7.5c0.1,2.4-3.4,5.7-5.3,7.8
		c-5.9,6.3-15,12.7-26.1,12.8c-11.1,0.1-20.4-6-26.7-12.5c-1.7-1.8-5.2-5.7-5.3-7.8c0-2.1,3.4-5.6,5.3-7.5
		C64.5,46,73.2,39.8,84.5,39.6z M74.5,49.9c-1.6,1.6-3.3,3.4-3.9,7.5c-1.2,8.1,4.5,14.4,9.7,16.1c8.6,2.8,20.4-3.9,18.6-16.1
		c-0.1-0.8-1.4-4.4-2.2-5.6c-1.6-2.4-6.8-6.3-12.2-6.1C80.1,45.9,76.8,47.6,74.5,49.9z"/>
	<path class="st3" d="M84.5,45.7c5.5-0.2,10.6,3.7,12.2,6.1c0.8,1.2,2.1,4.7,2.2,5.6c1.8,12.2-10.1,19-18.6,16.1
		c-5.2-1.7-10.9-8-9.7-16.1c0.6-4.1,2.3-5.9,3.9-7.5C76.8,47.6,80.1,45.9,84.5,45.7z M81.8,66.8C94,71.6,96.4,50,83.1,52.7
		C75.4,54.2,76.6,64.8,81.8,66.8z"/>
	<path class="st2" d="M83.1,52.7C96.4,50,94,71.6,81.8,66.8C76.6,64.8,75.4,54.2,83.1,52.7z"/>
</g>
<g>
	<path class="st4" d="M99.7,132.6c-0.1,0.2-0.2,0.3-0.3,0.4c-0.1,0.1-0.3,0.1-0.5,0.1s-0.3-0.1-0.5-0.2c-0.2-0.1-0.4-0.2-0.7-0.4
		c-0.2-0.1-0.5-0.2-0.8-0.4c-0.3-0.1-0.7-0.2-1.1-0.2c-0.7,0-1.2,0.1-1.5,0.4c-0.3,0.3-0.5,0.7-0.5,1.2c0,0.3,0.1,0.6,0.3,0.8
		c0.2,0.2,0.5,0.4,0.8,0.5c0.3,0.2,0.7,0.3,1.1,0.4c0.4,0.1,0.9,0.3,1.3,0.4s0.9,0.3,1.3,0.6c0.4,0.2,0.8,0.5,1.1,0.8
		s0.6,0.7,0.8,1.2s0.3,1,0.3,1.7s-0.1,1.4-0.4,2.1c-0.3,0.6-0.6,1.2-1.1,1.7s-1.1,0.9-1.8,1.1c-0.7,0.3-1.5,0.4-2.4,0.4
		c-0.5,0-1-0.1-1.5-0.2c-0.5-0.1-1-0.2-1.5-0.4s-0.9-0.4-1.4-0.7s-0.8-0.5-1.1-0.9l1.1-1.7c0.1-0.1,0.2-0.2,0.3-0.3
		c0.1-0.1,0.3-0.1,0.5-0.1s0.4,0.1,0.7,0.2c0.2,0.1,0.5,0.3,0.8,0.5s0.6,0.3,1,0.5c0.4,0.1,0.8,0.2,1.3,0.2c0.7,0,1.2-0.1,1.6-0.4
		c0.4-0.3,0.6-0.8,0.6-1.4c0-0.4-0.1-0.7-0.3-0.9c-0.2-0.2-0.5-0.4-0.8-0.6c-0.3-0.2-0.7-0.3-1.1-0.4c-0.4-0.1-0.9-0.2-1.3-0.4
		s-0.9-0.3-1.3-0.5s-0.8-0.5-1.1-0.8c-0.3-0.3-0.6-0.8-0.8-1.3s-0.3-1.1-0.3-1.9c0-0.6,0.1-1.2,0.4-1.7c0.2-0.6,0.6-1.1,1.1-1.5
		s1-0.8,1.7-1.1s1.5-0.4,2.3-0.4c0.5,0,1,0,1.4,0.1s0.9,0.2,1.3,0.3s0.8,0.3,1.2,0.5c0.4,0.2,0.7,0.4,1,0.7L99.7,132.6z"/>
	<path class="st4" d="M101.4,129.4h3c0.3,0,0.6,0.1,0.8,0.2c0.2,0.1,0.4,0.3,0.4,0.6l3.1,8.5c0.1,0.4,0.3,0.8,0.4,1.2
		s0.3,0.9,0.4,1.4c0.1-0.5,0.2-0.9,0.4-1.4s0.3-0.8,0.4-1.2l3.1-8.5c0.1-0.2,0.2-0.4,0.4-0.6c0.2-0.2,0.5-0.2,0.8-0.2h3l-6.4,15.9
		h-3.3L101.4,129.4z"/>
	<path class="st4" d="M130.3,129.4v2.9h-4.5v13h-3.7v-13h-4.5v-2.9H130.3z"/>
	<path class="st4" d="M140.7,132.6c-0.1,0.2-0.2,0.3-0.3,0.4c-0.1,0.1-0.3,0.1-0.5,0.1s-0.3-0.1-0.5-0.2c-0.2-0.1-0.4-0.2-0.7-0.4
		s-0.5-0.2-0.8-0.4s-0.7-0.2-1.1-0.2c-0.7,0-1.2,0.1-1.5,0.4c-0.3,0.3-0.5,0.7-0.5,1.2c0,0.3,0.1,0.6,0.3,0.8s0.5,0.4,0.8,0.5
		c0.3,0.2,0.7,0.3,1.1,0.4c0.4,0.1,0.9,0.3,1.3,0.4s0.9,0.3,1.3,0.6c0.4,0.2,0.8,0.5,1.1,0.8s0.6,0.7,0.8,1.2s0.3,1,0.3,1.7
		s-0.1,1.4-0.4,2.1s-0.6,1.2-1.1,1.7s-1.1,0.9-1.8,1.1c-0.7,0.3-1.5,0.4-2.4,0.4c-0.5,0-1-0.1-1.5-0.2c-0.5-0.1-1-0.2-1.5-0.4
		s-0.9-0.4-1.4-0.7c-0.4-0.3-0.8-0.5-1.1-0.9l1.1-1.7c0.1-0.1,0.2-0.2,0.3-0.3s0.3-0.1,0.5-0.1s0.4,0.1,0.7,0.2
		c0.2,0.1,0.5,0.3,0.8,0.5s0.6,0.3,1,0.5c0.4,0.1,0.8,0.2,1.3,0.2c0.7,0,1.2-0.1,1.6-0.4c0.4-0.3,0.6-0.8,0.6-1.4
		c0-0.4-0.1-0.7-0.3-0.9s-0.5-0.4-0.8-0.6c-0.3-0.2-0.7-0.3-1.1-0.4c-0.4-0.1-0.9-0.2-1.3-0.4s-0.9-0.3-1.3-0.5
		c-0.4-0.2-0.8-0.5-1.1-0.8s-0.6-0.8-0.8-1.3s-0.3-1.1-0.3-1.9c0-0.6,0.1-1.2,0.4-1.7s0.6-1.1,1.1-1.5s1-0.8,1.7-1.1
		s1.5-0.4,2.3-0.4c0.5,0,1,0,1.4,0.1c0.5,0.1,0.9,0.2,1.3,0.3c0.4,0.1,0.8,0.3,1.2,0.5s0.7,0.4,1,0.7L140.7,132.6z"/>
</g>
<g>
	<path class="st4" d="M35,157.8c0,1.1-0.2,2.1-0.5,3c-0.4,0.9-0.9,1.7-1.5,2.4c-0.7,0.7-1.4,1.2-2.4,1.6s-1.9,0.6-3.1,0.6
		s-2.1-0.2-3.1-0.6c-0.9-0.4-1.7-0.9-2.4-1.6c-0.7-0.7-1.2-1.5-1.5-2.4s-0.5-1.9-0.5-3s0.2-2.1,0.5-3c0.4-0.9,0.9-1.7,1.5-2.4
		c0.7-0.7,1.5-1.2,2.4-1.6c0.9-0.4,1.9-0.6,3.1-0.6s2.1,0.2,3.1,0.6c0.9,0.4,1.7,0.9,2.4,1.6s1.2,1.5,1.5,2.4S35,156.7,35,157.8z
		 M32.1,157.8c0-0.8-0.1-1.5-0.3-2.2c-0.2-0.6-0.5-1.2-0.9-1.6c-0.4-0.5-0.9-0.8-1.5-1s-1.2-0.4-2-0.4s-1.4,0.1-2,0.4
		c-0.6,0.2-1.1,0.6-1.5,1c-0.4,0.5-0.7,1-0.9,1.6c-0.2,0.6-0.3,1.4-0.3,2.2s0.1,1.5,0.3,2.2c0.2,0.6,0.5,1.2,0.9,1.6
		c0.4,0.4,0.9,0.8,1.5,1s1.2,0.4,2,0.4c0.7,0,1.4-0.1,2-0.4c0.6-0.2,1.1-0.6,1.5-1s0.7-1,0.9-1.6C32,159.3,32.1,158.6,32.1,157.8z"
		/>
	<path class="st4" d="M37,165.2V150h2.5v6c0.4-0.4,0.9-0.8,1.4-1.1s1.1-0.4,1.8-0.4c0.6,0,1.1,0.1,1.6,0.4c0.5,0.2,0.9,0.6,1.2,1
		c0.3,0.5,0.6,1,0.8,1.7s0.3,1.4,0.3,2.3c0,0.8-0.1,1.5-0.3,2.2s-0.5,1.2-0.9,1.7s-0.9,0.9-1.4,1.2c-0.6,0.3-1.2,0.4-1.9,0.4
		c-0.3,0-0.6,0-0.9-0.1c-0.3-0.1-0.5-0.2-0.7-0.3s-0.4-0.3-0.6-0.4c-0.2-0.2-0.4-0.4-0.5-0.6l-0.1,0.7c0,0.2-0.1,0.3-0.2,0.4
		s-0.2,0.1-0.4,0.1L37,165.2L37,165.2z M41.9,156.5c-0.5,0-1,0.1-1.3,0.3c-0.4,0.2-0.7,0.5-1,0.9v4.7c0.3,0.4,0.6,0.6,0.9,0.7
		s0.7,0.2,1.1,0.2c0.4,0,0.7-0.1,1-0.2c0.3-0.1,0.6-0.4,0.8-0.7s0.4-0.7,0.5-1.1c0.1-0.4,0.2-1,0.2-1.6s0-1.1-0.1-1.6
		c-0.1-0.4-0.2-0.8-0.4-1c-0.2-0.3-0.4-0.5-0.7-0.6C42.6,156.5,42.3,156.5,41.9,156.5z"/>
	<path class="st4" d="M54.9,156.7c-0.1,0.1-0.1,0.2-0.2,0.2c-0.1,0-0.2,0.1-0.3,0.1s-0.3,0-0.4-0.1c-0.1-0.1-0.3-0.1-0.5-0.2
		c-0.2-0.1-0.4-0.2-0.6-0.2c-0.2-0.1-0.5-0.1-0.8-0.1c-0.5,0-0.9,0.1-1.2,0.3s-0.4,0.5-0.4,0.8c0,0.2,0.1,0.4,0.2,0.6
		c0.1,0.2,0.3,0.3,0.6,0.4c0.2,0.1,0.5,0.2,0.8,0.3s0.6,0.2,0.9,0.3c0.3,0.1,0.6,0.2,0.9,0.4c0.3,0.1,0.6,0.3,0.8,0.5
		s0.4,0.5,0.6,0.8s0.2,0.7,0.2,1.1c0,0.5-0.1,1-0.3,1.4s-0.5,0.8-0.8,1.1s-0.8,0.6-1.3,0.7c-0.5,0.2-1.1,0.3-1.8,0.3
		c-0.4,0-0.7,0-1.1-0.1c-0.3-0.1-0.7-0.2-1-0.3s-0.6-0.3-0.9-0.4c-0.3-0.2-0.5-0.3-0.7-0.5l0.6-1c0.1-0.1,0.2-0.2,0.3-0.3
		s0.2-0.1,0.4-0.1s0.3,0,0.4,0.1s0.3,0.2,0.5,0.3s0.4,0.2,0.6,0.3c0.2,0.1,0.6,0.1,0.9,0.1c0.3,0,0.6,0,0.8-0.1s0.4-0.2,0.5-0.3
		s0.2-0.3,0.3-0.4s0.1-0.3,0.1-0.5s-0.1-0.4-0.2-0.6c-0.1-0.2-0.3-0.3-0.6-0.4c-0.2-0.1-0.5-0.2-0.8-0.3s-0.6-0.2-1-0.3
		s-0.6-0.2-1-0.4c-0.3-0.1-0.6-0.3-0.8-0.6c-0.2-0.2-0.4-0.5-0.6-0.8c-0.1-0.3-0.2-0.7-0.2-1.2c0-0.4,0.1-0.8,0.3-1.2s0.4-0.7,0.8-1
		c0.3-0.3,0.7-0.5,1.2-0.7s1.1-0.3,1.7-0.3c0.7,0,1.4,0.1,2,0.4s1.1,0.6,1.5,0.9L54.9,156.7z"/>
	<path class="st4" d="M62,154.5c0.7,0,1.3,0.1,1.8,0.3c0.6,0.2,1,0.5,1.4,0.9c0.4,0.4,0.7,0.9,0.9,1.5s0.3,1.3,0.3,2
		c0,0.2,0,0.4,0,0.5s0,0.2-0.1,0.3c0,0.1-0.1,0.1-0.2,0.2c-0.1,0-0.2,0-0.3,0h-6.5c0.1,1.1,0.4,1.9,0.9,2.4s1.2,0.8,2,0.8
		c0.4,0,0.8,0,1.1-0.1s0.6-0.2,0.8-0.3c0.2-0.1,0.4-0.2,0.6-0.3s0.3-0.1,0.5-0.1c0.1,0,0.2,0,0.3,0.1c0.1,0,0.1,0.1,0.2,0.2l0.7,0.9
		c-0.3,0.3-0.6,0.6-0.9,0.8s-0.7,0.4-1.1,0.5s-0.8,0.2-1.2,0.3s-0.8,0.1-1.1,0.1c-0.7,0-1.4-0.1-2-0.4s-1.2-0.6-1.6-1.1
		s-0.8-1.1-1.1-1.8s-0.4-1.5-0.4-2.4c0-0.7,0.1-1.4,0.3-2s0.6-1.2,1-1.6c0.4-0.5,1-0.8,1.6-1.1S61.2,154.5,62,154.5z M62,156.3
		c-0.7,0-1.3,0.2-1.7,0.6c-0.4,0.4-0.7,1-0.8,1.8h4.8c0-0.3,0-0.6-0.1-0.9c-0.1-0.3-0.2-0.5-0.4-0.8s-0.4-0.4-0.7-0.5
		C62.7,156.4,62.4,156.3,62,156.3z"/>
	<path class="st4" d="M68.6,165.2v-10.5h1.5c0.3,0,0.4,0,0.5,0.1s0.2,0.3,0.2,0.5l0.2,1.3c0.4-0.6,0.8-1.2,1.3-1.5
		c0.5-0.4,1.1-0.6,1.7-0.6c0.5,0,0.9,0.1,1.3,0.4l-0.3,1.9c0,0.1-0.1,0.2-0.1,0.3c-0.1,0.1-0.2,0.1-0.3,0.1c-0.1,0-0.2,0-0.4-0.1
		c-0.2,0-0.4-0.1-0.7-0.1c-0.5,0-1,0.1-1.4,0.4c-0.4,0.3-0.7,0.7-1,1.3v6.5L68.6,165.2L68.6,165.2z"/>
	<path class="st4" d="M82.2,165.2h-2.3l-4.2-10.5h2.1c0.2,0,0.3,0,0.5,0.1s0.2,0.2,0.3,0.3l2,5.6c0.1,0.3,0.2,0.6,0.3,1
		c0.1,0.3,0.1,0.6,0.2,0.9c0.1-0.3,0.1-0.6,0.2-0.9c0.1-0.3,0.2-0.6,0.3-1l2.1-5.6c0-0.1,0.1-0.2,0.3-0.3s0.3-0.1,0.4-0.1h2
		L82.2,165.2z"/>
	<path class="st4" d="M96.1,165.2H95c-0.2,0-0.4,0-0.6-0.1s-0.2-0.2-0.3-0.4l-0.2-0.7c-0.3,0.2-0.5,0.4-0.8,0.6
		c-0.3,0.2-0.5,0.3-0.8,0.5c-0.3,0.1-0.6,0.2-0.9,0.3s-0.6,0.1-1,0.1s-0.9-0.1-1.2-0.2c-0.4-0.1-0.7-0.3-1-0.5s-0.5-0.5-0.6-0.9
		s-0.2-0.8-0.2-1.2s0.1-0.8,0.3-1.2c0.2-0.4,0.6-0.7,1-1c0.5-0.3,1.1-0.6,1.9-0.8s1.8-0.3,3-0.3v-0.6c0-0.7-0.1-1.2-0.4-1.6
		c-0.3-0.3-0.7-0.5-1.3-0.5c-0.4,0-0.8,0-1,0.1c-0.3,0.1-0.5,0.2-0.7,0.3s-0.4,0.2-0.6,0.3s-0.4,0.1-0.6,0.1s-0.3,0-0.4-0.1
		s-0.2-0.2-0.3-0.3l-0.5-0.8c1.2-1.1,2.7-1.7,4.4-1.7c0.6,0,1.2,0.1,1.6,0.3c0.5,0.2,0.9,0.5,1.2,0.8c0.3,0.4,0.6,0.8,0.8,1.3
		c0.2,0.5,0.3,1,0.3,1.6L96.1,165.2L96.1,165.2z M91.2,163.6c0.3,0,0.5,0,0.7-0.1s0.4-0.1,0.6-0.2c0.2-0.1,0.4-0.2,0.6-0.3
		s0.4-0.3,0.5-0.5v-1.8c-0.7,0-1.4,0-1.9,0.1s-0.9,0.2-1.2,0.4c-0.3,0.1-0.5,0.3-0.6,0.5s-0.2,0.4-0.2,0.6c0,0.4,0.1,0.8,0.4,1
		S90.8,163.6,91.2,163.6z"/>
	<path class="st4" d="M102,165.3c-0.9,0-1.6-0.3-2.1-0.8s-0.7-1.2-0.7-2.1v-5.9h-1.1c-0.1,0-0.3,0-0.4-0.1s-0.1-0.2-0.1-0.4v-1
		l1.7-0.3l0.5-2.9c0-0.1,0.1-0.2,0.2-0.3s0.2-0.1,0.4-0.1h1.3v3.3h2.8v1.8h-2.8v5.7c0,0.3,0.1,0.6,0.2,0.8c0.2,0.2,0.4,0.3,0.7,0.3
		c0.2,0,0.3,0,0.4-0.1c0.1,0,0.2-0.1,0.3-0.1c0.1,0,0.1-0.1,0.2-0.1s0.1-0.1,0.2-0.1s0.1,0,0.2,0.1c0,0,0.1,0.1,0.2,0.2l0.8,1.2
		c-0.4,0.3-0.8,0.5-1.3,0.7C103.1,165.3,102.6,165.3,102,165.3z"/>
	<path class="st4" d="M111,154.5c0.8,0,1.5,0.1,2.1,0.4c0.6,0.3,1.2,0.6,1.6,1.1c0.5,0.5,0.8,1,1,1.7s0.4,1.4,0.4,2.2
		s-0.1,1.6-0.4,2.3c-0.2,0.7-0.6,1.2-1,1.7c-0.5,0.5-1,0.8-1.6,1.1s-1.4,0.4-2.1,0.4s-1.5-0.1-2.1-0.4c-0.6-0.3-1.2-0.6-1.6-1.1
		c-0.5-0.5-0.8-1-1.1-1.7c-0.2-0.7-0.4-1.4-0.4-2.3c0-0.8,0.1-1.6,0.4-2.2c0.2-0.7,0.6-1.2,1.1-1.7s1-0.8,1.6-1.1
		C109.5,154.6,110.2,154.5,111,154.5z M111,163.4c0.9,0,1.5-0.3,1.9-0.9s0.6-1.4,0.6-2.6s-0.2-2-0.6-2.6s-1.1-0.9-1.9-0.9
		c-0.9,0-1.5,0.3-2,0.9c-0.4,0.6-0.6,1.5-0.6,2.6s0.2,2,0.6,2.6C109.5,163.1,110.1,163.4,111,163.4z"/>
	<path class="st4" d="M118.2,165.2v-10.5h1.5c0.3,0,0.4,0,0.5,0.1s0.2,0.3,0.2,0.5l0.2,1.3c0.4-0.6,0.8-1.2,1.3-1.5
		c0.5-0.4,1.1-0.6,1.7-0.6c0.5,0,0.9,0.1,1.3,0.4l-0.3,1.9c0,0.1-0.1,0.2-0.1,0.3c-0.1,0.1-0.2,0.1-0.3,0.1c-0.1,0-0.2,0-0.4-0.1
		c-0.2,0-0.4-0.1-0.7-0.1c-0.5,0-1,0.1-1.4,0.4c-0.4,0.3-0.7,0.7-1,1.3v6.5L118.2,165.2L118.2,165.2z"/>
	<path class="st4" d="M129.6,151.6c0,0.2,0,0.4-0.1,0.6c-0.1,0.2-0.2,0.4-0.4,0.5c-0.1,0.1-0.3,0.3-0.5,0.3
		c-0.2,0.1-0.4,0.1-0.6,0.1c-0.2,0-0.4,0-0.6-0.1s-0.4-0.2-0.5-0.3s-0.3-0.3-0.3-0.5c-0.1-0.2-0.1-0.4-0.1-0.6c0-0.2,0-0.4,0.1-0.6
		c0.1-0.2,0.2-0.4,0.3-0.5c0.1-0.1,0.3-0.3,0.5-0.3c0.2-0.1,0.4-0.1,0.6-0.1s0.4,0,0.6,0.1c0.2,0.1,0.4,0.2,0.5,0.3s0.3,0.3,0.4,0.5
		C129.6,151.2,129.6,151.4,129.6,151.6z M129.2,154.7v10.5h-2.5v-10.5H129.2z"/>
	<path class="st4" d="M136.6,154.5c0.8,0,1.5,0.1,2.1,0.4c0.6,0.3,1.2,0.6,1.6,1.1c0.5,0.5,0.8,1,1,1.7s0.4,1.4,0.4,2.2
		s-0.1,1.6-0.4,2.3c-0.2,0.7-0.6,1.2-1,1.7c-0.5,0.5-1,0.8-1.6,1.1s-1.4,0.4-2.1,0.4c-0.8,0-1.5-0.1-2.1-0.4
		c-0.6-0.3-1.2-0.6-1.6-1.1c-0.5-0.5-0.8-1-1.1-1.7c-0.2-0.7-0.4-1.4-0.4-2.3c0-0.8,0.1-1.6,0.4-2.2c0.2-0.7,0.6-1.2,1.1-1.7
		s1-0.8,1.6-1.1C135.1,154.6,135.8,154.5,136.6,154.5z M136.6,163.4c0.9,0,1.5-0.3,1.9-0.9s0.6-1.4,0.6-2.6s-0.2-2-0.6-2.6
		c-0.4-0.6-1.1-0.9-1.9-0.9c-0.9,0-1.5,0.3-2,0.9s-0.6,1.5-0.6,2.6s0.2,2,0.6,2.6C135,163.1,135.7,163.4,136.6,163.4z"/>
</g>
</svg>
