<?xml version="1.0" encoding="utf-8"?>
<!-- Generator: Adobe Illustrator 26.4.1, SVG Export Plug-In . SVG Version: 6.00 Build 0)  -->
<svg version="1.1" id="Layer_1" xmlns="http://www.w3.org/2000/svg" xmlns:xlink="http://www.w3.org/1999/xlink" x="0px" y="0px"
	 viewBox="0 0 292.3 125" style="enable-background:new 0 0 292.3 125;" xml:space="preserve">
<style type="text/css">
	.st0{fill:#FFFFFF;}
	.st1{fill:#D72127;}
	.st2{fill:#F7C445;}
	.st3{fill:#009E4A;}
	.st4{fill:#1378BD;}
</style>
<g>
	<g>
		<g>
			<path class="st0" d="M120.8,54.2h-3.1l-0.7,2.2h-2.2l3.3-9.8h2.5l3.1,9.8h-2.4L120.8,54.2z M119.3,48.5L119.3,48.5l-1.2,4.1h2.2
				L119.3,48.5z"/>
			<path class="st0" d="M129,51c-0.3-0.1-0.6-0.2-0.9-0.3c-0.3-0.1-0.6-0.1-0.9-0.1c-0.3,0-0.5,0.1-0.6,0.2
				c-0.1,0.1-0.2,0.2-0.2,0.4c0,0.1,0,0.2,0.1,0.3c0,0.1,0.1,0.2,0.2,0.2c0.1,0.1,0.3,0.2,0.5,0.2c0.2,0.1,0.4,0.2,0.7,0.3
				c0.2,0.1,0.4,0.2,0.6,0.3c0.2,0.1,0.3,0.2,0.5,0.4c0.1,0.2,0.3,0.4,0.4,0.6c0.1,0.2,0.1,0.5,0.1,0.9c0,0.4-0.1,0.8-0.2,1
				c-0.1,0.3-0.3,0.5-0.6,0.7c-0.2,0.2-0.5,0.3-0.9,0.4c-0.3,0.1-0.7,0.1-1,0.1c-0.3,0-0.7,0-1.2-0.1c-0.4,0-0.9-0.1-1.2-0.3
				l0.1-1.7c0.3,0.2,0.6,0.3,0.9,0.4c0.3,0.1,0.6,0.1,0.9,0.1c0.3,0,0.5,0,0.6-0.1c0.1,0,0.3-0.1,0.3-0.2c0.1-0.1,0.1-0.1,0.1-0.2
				c0-0.1,0-0.2,0-0.2c0-0.2-0.1-0.3-0.4-0.4c-0.3-0.1-0.6-0.3-1.1-0.5c-0.2-0.1-0.4-0.2-0.6-0.3c-0.2-0.1-0.3-0.3-0.5-0.5
				c-0.1-0.2-0.3-0.4-0.3-0.6c-0.1-0.2-0.1-0.5-0.1-0.9c0-0.2,0-0.4,0.1-0.7c0.1-0.3,0.2-0.5,0.4-0.7c0.2-0.2,0.5-0.4,0.8-0.6
				c0.4-0.2,0.8-0.2,1.3-0.2c0.5,0,0.9,0,1.2,0.1c0.4,0.1,0.6,0.1,0.8,0.2L129,51z"/>
			<path class="st0" d="M130.4,52.8c0-0.5,0.1-1,0.2-1.5c0.1-0.5,0.4-0.9,0.7-1.2c0.3-0.3,0.6-0.6,1.1-0.8c0.4-0.2,0.9-0.3,1.5-0.3
				s1.1,0.1,1.5,0.3c0.4,0.2,0.8,0.4,1.1,0.8c0.3,0.3,0.5,0.7,0.7,1.2c0.1,0.5,0.2,1,0.2,1.5c0,0.6-0.1,1.1-0.2,1.5
				c-0.1,0.5-0.4,0.9-0.7,1.2c-0.3,0.3-0.6,0.6-1.1,0.8c-0.4,0.2-0.9,0.3-1.5,0.3s-1.1-0.1-1.5-0.3c-0.4-0.2-0.8-0.4-1.1-0.8
				c-0.3-0.3-0.5-0.7-0.7-1.2C130.5,53.8,130.4,53.3,130.4,52.8z M132.7,52.8c0,0.7,0.1,1.3,0.3,1.7c0.2,0.4,0.5,0.6,0.9,0.6
				c0.4,0,0.7-0.2,0.9-0.6c0.2-0.4,0.3-1,0.3-1.7c0-0.7-0.1-1.3-0.3-1.7c-0.2-0.4-0.5-0.6-0.9-0.6c-0.4,0-0.7,0.2-0.9,0.6
				C132.8,51.5,132.7,52,132.7,52.8z"/>
			<path class="st0" d="M143.8,56.2c-0.3,0.1-0.7,0.2-1,0.2c-0.3,0.1-0.7,0.1-1,0.1c-0.5,0-0.9-0.1-1.2-0.2
				c-0.4-0.1-0.7-0.3-0.9-0.5c-0.3-0.2-0.5-0.4-0.6-0.7c-0.2-0.3-0.3-0.5-0.4-0.8c-0.1-0.3-0.2-0.5-0.2-0.8c0-0.3-0.1-0.5-0.1-0.7
				c0-0.6,0.1-1.1,0.2-1.6c0.2-0.5,0.4-0.9,0.7-1.2c0.3-0.3,0.7-0.6,1.1-0.8c0.4-0.2,1-0.3,1.5-0.3c0.2,0,0.3,0,0.5,0
				c0.1,0,0.3,0,0.4,0.1c0.1,0,0.3,0.1,0.4,0.1c0.1,0,0.3,0.1,0.4,0.1l-0.1,1.7c-0.2-0.1-0.4-0.1-0.6-0.2c-0.2-0.1-0.4-0.1-0.7-0.1
				c-0.4,0-0.7,0.1-1,0.3c-0.2,0.2-0.4,0.4-0.5,0.7c-0.1,0.2-0.2,0.5-0.2,0.7c0,0.2,0,0.4,0,0.5c0,0.4,0.1,0.7,0.2,1
				c0.1,0.3,0.2,0.5,0.4,0.6c0.2,0.2,0.4,0.3,0.6,0.3c0.2,0.1,0.4,0.1,0.6,0.1c0.2,0,0.5,0,0.7-0.1c0.2-0.1,0.4-0.1,0.6-0.2
				L143.8,56.2z"/>
			<path class="st0" d="M144.9,45.9h2.2v2h-2.2V45.9z M144.9,49.1h2.2v7.3h-2.2V49.1z"/>
			<path class="st0" d="M149.3,49.5c0.1,0,0.3-0.1,0.5-0.1c0.2-0.1,0.4-0.1,0.6-0.1c0.2,0,0.4-0.1,0.6-0.1c0.2,0,0.4-0.1,0.6-0.1
				c0.6,0,1.2,0.1,1.6,0.2c0.4,0.1,0.7,0.3,1,0.5c0.2,0.2,0.4,0.5,0.5,0.9c0.1,0.3,0.1,0.7,0.1,1.1v2.7c0,0.3,0,0.5,0,0.7
				c0,0.2,0,0.4,0,0.5c0,0.2,0,0.3,0,0.4c0,0.1,0,0.3,0,0.4h-2l-0.1-1h0c0,0.1-0.1,0.2-0.2,0.4c-0.1,0.1-0.3,0.3-0.4,0.4
				c-0.2,0.1-0.4,0.2-0.6,0.3c-0.2,0.1-0.5,0.1-0.7,0.1c-0.7,0-1.2-0.2-1.6-0.6c-0.4-0.4-0.6-0.9-0.6-1.6c0-0.4,0.1-0.7,0.2-1
				c0.1-0.3,0.3-0.5,0.6-0.7c0.2-0.2,0.5-0.3,0.8-0.4c0.3-0.1,0.5-0.2,0.8-0.2c0.3,0,0.5-0.1,0.7-0.1c0.2,0,0.4,0,0.5,0h0.7
				c0-0.3-0.1-0.6-0.2-0.8c-0.1-0.2-0.2-0.3-0.4-0.4c-0.2-0.1-0.3-0.1-0.5-0.2c-0.1,0-0.3,0-0.4,0c-0.3,0-0.6,0-0.9,0.1
				c-0.3,0.1-0.7,0.3-1.1,0.5L149.3,49.5z M152.8,52.9c-0.2,0-0.5,0-0.7,0c-0.3,0-0.5,0.1-0.7,0.2c-0.2,0.1-0.4,0.2-0.6,0.4
				c-0.2,0.2-0.2,0.4-0.2,0.7c0,0.2,0,0.4,0.1,0.6c0.1,0.1,0.2,0.2,0.3,0.3c0.1,0.1,0.2,0.1,0.3,0.1c0.1,0,0.2,0,0.2,0
				c0,0,0.1,0,0.3,0c0.1,0,0.3-0.1,0.4-0.2c0.2-0.1,0.3-0.3,0.4-0.5c0.1-0.2,0.2-0.6,0.2-1L152.8,52.9L152.8,52.9z"/>
			<path class="st0" d="M161.5,56.2c-0.3,0.1-0.7,0.2-1,0.2c-0.3,0.1-0.7,0.1-1,0.1c-0.5,0-0.9-0.1-1.2-0.2
				c-0.4-0.1-0.7-0.3-0.9-0.5c-0.3-0.2-0.5-0.4-0.6-0.7c-0.2-0.3-0.3-0.5-0.4-0.8c-0.1-0.3-0.2-0.5-0.2-0.8c0-0.3-0.1-0.5-0.1-0.7
				c0-0.6,0.1-1.1,0.2-1.6c0.2-0.5,0.4-0.9,0.7-1.2c0.3-0.3,0.7-0.6,1.1-0.8c0.5-0.2,1-0.3,1.5-0.3c0.2,0,0.3,0,0.5,0
				c0.2,0,0.3,0,0.4,0.1c0.1,0,0.3,0.1,0.4,0.1c0.1,0,0.3,0.1,0.4,0.1l-0.1,1.7c-0.2-0.1-0.4-0.1-0.6-0.2c-0.2-0.1-0.4-0.1-0.7-0.1
				c-0.4,0-0.7,0.1-1,0.3c-0.2,0.2-0.4,0.4-0.5,0.7c-0.1,0.2-0.2,0.5-0.2,0.7c0,0.2,0,0.4,0,0.5c0,0.4,0.1,0.7,0.2,1
				c0.1,0.3,0.2,0.5,0.4,0.6c0.2,0.2,0.4,0.3,0.6,0.3c0.2,0.1,0.4,0.1,0.6,0.1c0.2,0,0.5,0,0.7-0.1c0.2-0.1,0.4-0.1,0.6-0.2
				L161.5,56.2z"/>
			<path class="st0" d="M162.6,45.9h2.2v2h-2.2V45.9z M162.6,49.1h2.2v7.3h-2.2V49.1z"/>
			<path class="st0" d="M166.3,52.8c0-0.5,0.1-1,0.2-1.5c0.2-0.5,0.4-0.9,0.7-1.2c0.3-0.3,0.6-0.6,1.1-0.8c0.4-0.2,0.9-0.3,1.5-0.3
				s1.1,0.1,1.5,0.3c0.4,0.2,0.8,0.4,1.1,0.8c0.3,0.3,0.5,0.7,0.7,1.2c0.1,0.5,0.2,1,0.2,1.5c0,0.6-0.1,1.1-0.2,1.5
				c-0.2,0.5-0.4,0.9-0.7,1.2s-0.6,0.6-1.1,0.8c-0.4,0.2-0.9,0.3-1.5,0.3s-1.1-0.1-1.5-0.3c-0.4-0.2-0.8-0.4-1.1-0.8
				c-0.3-0.3-0.5-0.7-0.7-1.2C166.3,53.8,166.3,53.3,166.3,52.8z M168.6,52.8c0,0.7,0.1,1.3,0.3,1.7c0.2,0.4,0.5,0.6,0.9,0.6
				c0.4,0,0.7-0.2,0.9-0.6c0.2-0.4,0.3-1,0.3-1.7c0-0.7-0.1-1.3-0.3-1.7c-0.2-0.4-0.5-0.6-0.9-0.6c-0.4,0-0.7,0.2-0.9,0.6
				C168.6,51.5,168.6,52,168.6,52.8z M169.4,46.2h1.9l-1.4,2h-1.3L169.4,46.2z"/>
			<path class="st0" d="M178.5,51.9c0-0.5-0.1-0.8-0.3-0.9c-0.2-0.2-0.4-0.2-0.6-0.2c-0.4,0-0.6,0.1-0.8,0.4
				c-0.1,0.3-0.2,0.7-0.2,1.1v4.1h-2.2v-5.8c0-0.4,0-0.7,0-0.9c0-0.2,0-0.5,0-0.6h2c0,0.2,0,0.3,0,0.5c0,0.2,0,0.4,0,0.7h0
				c0.2-0.4,0.4-0.7,0.7-1c0.3-0.2,0.8-0.4,1.3-0.4c0.4,0,0.7,0.1,1,0.2c0.3,0.1,0.5,0.3,0.7,0.6c0.2,0.2,0.3,0.5,0.4,0.8
				c0.1,0.3,0.1,0.7,0.1,1v4.8h-2.2L178.5,51.9L178.5,51.9z"/>
			<path class="st0" d="M192.4,54.8c0,0.2,0,0.4,0,0.6c0,0.2,0,0.3,0,0.4c0,0.1,0,0.2,0,0.3c0,0.1,0,0.2,0,0.3h-2.1
				c0-0.1,0-0.3,0-0.5c0-0.2,0-0.4,0-0.7h0c-0.1,0.1-0.1,0.2-0.2,0.4c-0.1,0.1-0.2,0.3-0.4,0.4c-0.2,0.1-0.3,0.2-0.6,0.3
				c-0.2,0.1-0.5,0.1-0.8,0.1c-0.4,0-0.8-0.1-1.1-0.3c-0.3-0.2-0.6-0.5-0.8-0.8c-0.2-0.3-0.4-0.8-0.5-1.2c-0.1-0.5-0.2-1-0.2-1.6
				c0-0.5,0-0.9,0.1-1.4c0.1-0.4,0.2-0.8,0.4-1.1c0.2-0.3,0.5-0.6,0.8-0.8c0.3-0.2,0.7-0.3,1.2-0.3c0.5,0,0.9,0.1,1.2,0.4
				c0.3,0.2,0.5,0.5,0.7,0.8h0v-4.3h2.2L192.4,54.8L192.4,54.8L192.4,54.8z M188.1,52.8c0,0.2,0,0.4,0,0.7c0,0.2,0.1,0.5,0.1,0.7
				c0.1,0.2,0.2,0.4,0.3,0.6c0.1,0.2,0.3,0.2,0.6,0.2c0.2,0,0.4-0.1,0.6-0.2c0.1-0.1,0.3-0.3,0.3-0.5c0.1-0.2,0.1-0.5,0.2-0.7
				c0-0.2,0-0.5,0-0.7c0-0.3,0-0.6,0-0.8c0-0.3-0.1-0.5-0.2-0.7c-0.1-0.2-0.2-0.4-0.3-0.5c-0.1-0.1-0.3-0.2-0.6-0.2
				c-0.2,0-0.4,0.1-0.6,0.2c-0.1,0.1-0.3,0.3-0.3,0.5c-0.1,0.2-0.1,0.5-0.1,0.7C188.1,52.2,188.1,52.5,188.1,52.8z"/>
			<path class="st0" d="M200.2,53.4h-4.3c0,0.2,0,0.4,0.1,0.6c0.1,0.2,0.2,0.4,0.3,0.5c0.2,0.2,0.3,0.3,0.6,0.4
				c0.2,0.1,0.5,0.1,0.8,0.1c0.4,0,0.8-0.1,1.1-0.2c0.4-0.1,0.7-0.3,0.9-0.4l0,1.7c-0.4,0.1-0.7,0.2-1.1,0.3
				c-0.4,0.1-0.8,0.1-1.2,0.1c-0.6,0-1.2-0.1-1.7-0.3c-0.5-0.2-0.8-0.4-1.2-0.8c-0.3-0.3-0.5-0.7-0.7-1.2c-0.1-0.5-0.2-1-0.2-1.5
				c0-0.5,0.1-1,0.2-1.4c0.1-0.5,0.3-0.9,0.6-1.2c0.3-0.3,0.6-0.6,1-0.8c0.4-0.2,0.9-0.3,1.4-0.3c0.1,0,0.3,0,0.5,0
				c0.2,0,0.4,0.1,0.7,0.1c0.2,0.1,0.5,0.2,0.7,0.3c0.2,0.2,0.5,0.4,0.7,0.7c0.2,0.3,0.4,0.6,0.5,1.1c0.1,0.4,0.2,1,0.2,1.6
				L200.2,53.4L200.2,53.4z M198.2,52.2c0-0.2,0-0.5,0-0.7c0-0.2-0.1-0.4-0.2-0.6c-0.1-0.2-0.2-0.3-0.4-0.4
				c-0.2-0.1-0.3-0.1-0.6-0.1c-0.3,0-0.5,0.1-0.7,0.2c-0.2,0.1-0.3,0.3-0.3,0.5c-0.1,0.2-0.1,0.4-0.1,0.6c0,0.2,0,0.3,0,0.4
				L198.2,52.2L198.2,52.2z"/>
			<path class="st0" d="M205.2,46.6h2.3v6.6c0,0.5,0.1,0.9,0.3,1.2c0.2,0.3,0.5,0.4,1,0.4c0.5,0,0.8-0.1,1-0.4
				c0.2-0.3,0.3-0.7,0.3-1.2v-6.6h2.3v6.2c0,1.2-0.3,2.1-1,2.8c-0.6,0.6-1.5,0.9-2.6,0.9c-1.1,0-2-0.3-2.6-0.9c-0.6-0.6-1-1.6-1-2.8
				L205.2,46.6L205.2,46.6z"/>
			<path class="st0" d="M218.1,51.9c0-0.5-0.1-0.8-0.3-0.9s-0.4-0.2-0.6-0.2c-0.4,0-0.6,0.1-0.8,0.4c-0.1,0.3-0.2,0.7-0.2,1.1v4.1
				H214v-5.8c0-0.4,0-0.7,0-0.9c0-0.2,0-0.5,0-0.6h2c0,0.2,0,0.3,0,0.5c0,0.2,0,0.4,0,0.7h0c0.2-0.4,0.4-0.7,0.7-1
				c0.3-0.2,0.8-0.4,1.3-0.4c0.4,0,0.7,0.1,1,0.2c0.3,0.1,0.5,0.3,0.7,0.6c0.2,0.2,0.3,0.5,0.4,0.8c0.1,0.3,0.1,0.7,0.1,1v4.8h-2.2
				L218.1,51.9L218.1,51.9z"/>
			<path class="st0" d="M221.9,45.9h2.2v2h-2.2V45.9z M221.9,49.1h2.2v7.3h-2.2V49.1z"/>
			<path class="st0" d="M225,49.1h2.3l1.3,5.2h0l1.3-5.2h2.2l-2.3,7.3h-2.6L225,49.1z"/>
			<path class="st0" d="M239.2,53.4h-4.3c0,0.2,0,0.4,0.1,0.6c0.1,0.2,0.2,0.4,0.3,0.5c0.2,0.2,0.3,0.3,0.6,0.4
				c0.2,0.1,0.5,0.1,0.8,0.1c0.4,0,0.8-0.1,1.1-0.2c0.4-0.1,0.7-0.3,0.9-0.4l0,1.7c-0.4,0.1-0.7,0.2-1.1,0.3
				c-0.4,0.1-0.8,0.1-1.2,0.1c-0.6,0-1.2-0.1-1.7-0.3c-0.5-0.2-0.8-0.4-1.2-0.8c-0.3-0.3-0.5-0.7-0.7-1.2c-0.1-0.5-0.2-1-0.2-1.5
				c0-0.5,0.1-1,0.2-1.4c0.1-0.5,0.3-0.9,0.6-1.2c0.3-0.3,0.6-0.6,1-0.8c0.4-0.2,0.9-0.3,1.4-0.3c0.1,0,0.3,0,0.5,0
				c0.2,0,0.4,0.1,0.7,0.1c0.2,0.1,0.5,0.2,0.7,0.3c0.2,0.2,0.5,0.4,0.7,0.7c0.2,0.3,0.4,0.6,0.5,1.1c0.1,0.4,0.2,1,0.2,1.6
				L239.2,53.4L239.2,53.4z M237.2,52.2c0-0.2,0-0.5-0.1-0.7c0-0.2-0.1-0.4-0.2-0.6c-0.1-0.2-0.2-0.3-0.4-0.4s-0.3-0.1-0.6-0.1
				c-0.3,0-0.5,0.1-0.7,0.2c-0.2,0.1-0.3,0.3-0.3,0.5c-0.1,0.2-0.1,0.4-0.1,0.6c0,0.2,0,0.3,0,0.4L237.2,52.2L237.2,52.2z"/>
			<path class="st0" d="M240.5,50.6c0-0.4,0-0.7,0-0.9s0-0.5,0-0.6h2c0,0.2,0,0.4,0,0.7c0,0.2,0,0.4,0,0.7h0
				c0.1-0.2,0.2-0.4,0.3-0.6c0.1-0.2,0.2-0.3,0.4-0.5c0.1-0.1,0.3-0.2,0.5-0.3c0.2-0.1,0.5-0.1,0.8-0.1h0.3v2
				c-0.1,0-0.2-0.1-0.3-0.1c-0.1,0-0.2,0-0.4,0c-0.3,0-0.6,0.1-0.8,0.2c-0.2,0.1-0.3,0.3-0.4,0.5c-0.1,0.2-0.2,0.4-0.2,0.7
				c0,0.3,0,0.5,0,0.8v3.3h-2.2L240.5,50.6L240.5,50.6z"/>
			<path class="st0" d="M250.2,51c-0.3-0.1-0.6-0.2-0.9-0.3c-0.3-0.1-0.6-0.1-0.9-0.1c-0.3,0-0.5,0.1-0.6,0.2
				c-0.1,0.1-0.2,0.2-0.2,0.4c0,0.1,0,0.2,0.1,0.3c0,0.1,0.1,0.2,0.2,0.2c0.1,0.1,0.3,0.2,0.5,0.2c0.2,0.1,0.4,0.2,0.7,0.3
				c0.2,0.1,0.4,0.2,0.6,0.3c0.2,0.1,0.3,0.2,0.5,0.4c0.1,0.2,0.3,0.4,0.4,0.6c0.1,0.2,0.1,0.5,0.1,0.9c0,0.4-0.1,0.8-0.2,1
				c-0.1,0.3-0.3,0.5-0.6,0.7c-0.2,0.2-0.5,0.3-0.9,0.4c-0.3,0.1-0.7,0.1-1,0.1c-0.3,0-0.7,0-1.2-0.1c-0.4,0-0.9-0.1-1.2-0.3
				l0.1-1.7c0.3,0.2,0.6,0.3,0.9,0.4c0.3,0.1,0.6,0.1,0.9,0.1c0.3,0,0.5,0,0.6-0.1c0.1,0,0.3-0.1,0.3-0.2c0.1-0.1,0.1-0.1,0.1-0.2
				c0-0.1,0-0.2,0-0.2c0-0.2-0.1-0.3-0.4-0.4c-0.3-0.1-0.6-0.3-1.1-0.5c-0.2-0.1-0.4-0.2-0.6-0.3c-0.2-0.1-0.3-0.3-0.5-0.5
				c-0.1-0.2-0.3-0.4-0.3-0.6c-0.1-0.2-0.1-0.5-0.1-0.9c0-0.2,0-0.4,0.1-0.7c0.1-0.3,0.2-0.5,0.4-0.7c0.2-0.2,0.5-0.4,0.8-0.6
				c0.4-0.2,0.8-0.2,1.3-0.2c0.5,0,0.9,0,1.2,0.1c0.4,0.1,0.6,0.1,0.8,0.2L250.2,51z"/>
			<path class="st0" d="M251.9,45.9h2.2v2h-2.2V45.9z M251.9,49.1h2.2v7.3h-2.2V49.1z"/>
			<path class="st0" d="M262.2,54.8c0,0.2,0,0.4,0,0.6c0,0.2,0,0.3,0,0.4c0,0.1,0,0.2,0,0.3c0,0.1,0,0.2,0,0.3h-2.1
				c0-0.1,0-0.3,0-0.5c0-0.2,0-0.4,0-0.7h0c-0.1,0.1-0.1,0.2-0.2,0.4c-0.1,0.1-0.2,0.3-0.4,0.4c-0.2,0.1-0.3,0.2-0.6,0.3
				c-0.2,0.1-0.5,0.1-0.8,0.1c-0.4,0-0.8-0.1-1.1-0.3c-0.3-0.2-0.6-0.5-0.8-0.8c-0.2-0.3-0.4-0.8-0.5-1.2c-0.1-0.5-0.2-1-0.2-1.6
				c0-0.5,0-0.9,0.1-1.4c0.1-0.4,0.2-0.8,0.4-1.1c0.2-0.3,0.5-0.6,0.8-0.8c0.3-0.2,0.7-0.3,1.2-0.3c0.5,0,0.9,0.1,1.2,0.4
				c0.3,0.2,0.5,0.5,0.7,0.8h0v-4.3h2.2L262.2,54.8L262.2,54.8L262.2,54.8z M257.9,52.8c0,0.2,0,0.4,0,0.7c0,0.2,0.1,0.5,0.1,0.7
				c0.1,0.2,0.2,0.4,0.3,0.6c0.1,0.2,0.3,0.2,0.6,0.2c0.2,0,0.4-0.1,0.6-0.2c0.1-0.1,0.3-0.3,0.3-0.5c0.1-0.2,0.1-0.5,0.2-0.7
				c0-0.2,0-0.5,0-0.7c0-0.3,0-0.6,0-0.8c0-0.3-0.1-0.5-0.2-0.7c-0.1-0.2-0.2-0.4-0.3-0.5c-0.1-0.1-0.3-0.2-0.6-0.2
				c-0.2,0-0.4,0.1-0.6,0.2c-0.1,0.1-0.3,0.3-0.3,0.5c-0.1,0.2-0.1,0.5-0.1,0.7C257.9,52.2,257.9,52.5,257.9,52.8z"/>
			<path class="st0" d="M264.3,49.5c0.1,0,0.3-0.1,0.5-0.1c0.2-0.1,0.4-0.1,0.6-0.1c0.2,0,0.4-0.1,0.6-0.1c0.2,0,0.4-0.1,0.6-0.1
				c0.6,0,1.2,0.1,1.6,0.2c0.4,0.1,0.7,0.3,1,0.5c0.2,0.2,0.4,0.5,0.5,0.9c0.1,0.3,0.1,0.7,0.1,1.1v2.7c0,0.3,0,0.5,0,0.7
				c0,0.2,0,0.4,0,0.5c0,0.2,0,0.3,0,0.4c0,0.1,0,0.3,0,0.4h-2l-0.1-1h0c0,0.1-0.1,0.2-0.2,0.4c-0.1,0.1-0.3,0.3-0.4,0.4
				c-0.2,0.1-0.4,0.2-0.6,0.3c-0.2,0.1-0.5,0.1-0.7,0.1c-0.7,0-1.2-0.2-1.6-0.6c-0.4-0.4-0.6-0.9-0.6-1.6c0-0.4,0.1-0.7,0.2-1
				c0.1-0.3,0.3-0.5,0.6-0.7c0.2-0.2,0.5-0.3,0.8-0.4c0.3-0.1,0.5-0.2,0.8-0.2c0.3,0,0.5-0.1,0.7-0.1c0.2,0,0.4,0,0.5,0h0.7
				c0-0.3-0.1-0.6-0.2-0.8c-0.1-0.2-0.2-0.3-0.4-0.4c-0.2-0.1-0.3-0.1-0.5-0.2c-0.1,0-0.3,0-0.4,0c-0.3,0-0.6,0-0.9,0.1
				c-0.3,0.1-0.7,0.3-1.1,0.5L264.3,49.5z M267.8,52.9c-0.2,0-0.5,0-0.7,0c-0.3,0-0.5,0.1-0.7,0.2c-0.2,0.1-0.4,0.2-0.6,0.4
				c-0.2,0.2-0.2,0.4-0.2,0.7c0,0.2,0,0.4,0.1,0.6c0.1,0.1,0.2,0.2,0.3,0.3c0.1,0.1,0.2,0.1,0.3,0.1s0.2,0,0.2,0c0,0,0.1,0,0.3,0
				c0.1,0,0.3-0.1,0.4-0.2c0.2-0.1,0.3-0.3,0.4-0.5c0.1-0.2,0.2-0.6,0.2-1L267.8,52.9L267.8,52.9z"/>
			<path class="st0" d="M277.8,54.8c0,0.2,0,0.4,0,0.6c0,0.2,0,0.3,0,0.4c0,0.1,0,0.2,0,0.3c0,0.1,0,0.2,0,0.3h-2.1
				c0-0.1,0-0.3,0-0.5c0-0.2,0-0.4,0-0.7h0c-0.1,0.1-0.1,0.2-0.2,0.4c-0.1,0.1-0.2,0.3-0.4,0.4c-0.2,0.1-0.3,0.2-0.6,0.3
				c-0.2,0.1-0.5,0.1-0.8,0.1c-0.4,0-0.8-0.1-1.1-0.3c-0.3-0.2-0.6-0.5-0.8-0.8c-0.2-0.3-0.4-0.8-0.5-1.2c-0.1-0.5-0.2-1-0.2-1.6
				c0-0.5,0-0.9,0.1-1.4c0.1-0.4,0.2-0.8,0.5-1.1c0.2-0.3,0.5-0.6,0.8-0.8c0.3-0.2,0.7-0.3,1.2-0.3c0.5,0,0.9,0.1,1.2,0.4
				c0.3,0.2,0.5,0.5,0.7,0.8h0v-4.3h2.2L277.8,54.8L277.8,54.8z M273.4,52.8c0,0.2,0,0.4,0,0.7c0,0.2,0.1,0.5,0.1,0.7
				c0.1,0.2,0.2,0.4,0.3,0.6c0.1,0.2,0.3,0.2,0.6,0.2c0.2,0,0.4-0.1,0.6-0.2c0.1-0.1,0.3-0.3,0.3-0.5c0.1-0.2,0.1-0.5,0.2-0.7
				c0-0.2,0-0.5,0-0.7c0-0.3,0-0.6,0-0.8c0-0.3-0.1-0.5-0.2-0.7c-0.1-0.2-0.2-0.4-0.3-0.5c-0.1-0.1-0.3-0.2-0.6-0.2
				c-0.2,0-0.4,0.1-0.6,0.2c-0.1,0.1-0.3,0.3-0.3,0.5c-0.1,0.2-0.1,0.5-0.1,0.7C273.5,52.2,273.4,52.5,273.4,52.8z"/>
			<path class="st0" d="M285.6,53.4h-4.3c0,0.2,0,0.4,0.1,0.6c0.1,0.2,0.2,0.4,0.3,0.5c0.2,0.2,0.3,0.3,0.6,0.4
				c0.2,0.1,0.5,0.1,0.8,0.1c0.4,0,0.8-0.1,1.1-0.2c0.4-0.1,0.7-0.3,0.9-0.4l0,1.7c-0.4,0.1-0.7,0.2-1.1,0.3
				c-0.4,0.1-0.8,0.1-1.2,0.1c-0.6,0-1.2-0.1-1.7-0.3c-0.5-0.2-0.8-0.4-1.2-0.8c-0.3-0.3-0.5-0.7-0.7-1.2c-0.1-0.5-0.2-1-0.2-1.5
				c0-0.5,0.1-1,0.2-1.4c0.1-0.5,0.3-0.9,0.6-1.2c0.3-0.3,0.6-0.6,1-0.8c0.4-0.2,0.9-0.3,1.4-0.3c0.1,0,0.3,0,0.5,0
				c0.2,0,0.4,0.1,0.7,0.1c0.2,0.1,0.5,0.2,0.7,0.3c0.2,0.2,0.5,0.4,0.7,0.7c0.2,0.3,0.4,0.6,0.5,1.1c0.1,0.4,0.2,1,0.2,1.6
				L285.6,53.4L285.6,53.4z M283.6,52.2c0-0.2,0-0.5,0-0.7c0-0.2-0.1-0.4-0.2-0.6c-0.1-0.2-0.2-0.3-0.4-0.4
				c-0.2-0.1-0.3-0.1-0.6-0.1c-0.3,0-0.5,0.1-0.7,0.2c-0.2,0.1-0.3,0.3-0.3,0.5c-0.1,0.2-0.1,0.4-0.1,0.6c0,0.2,0,0.3,0,0.4
				L283.6,52.2L283.6,52.2z"/>
			<path class="st0" d="M291.3,51c-0.3-0.1-0.6-0.2-0.9-0.3c-0.3-0.1-0.6-0.1-0.9-0.1c-0.3,0-0.5,0.1-0.6,0.2
				c-0.1,0.1-0.2,0.2-0.2,0.4c0,0.1,0,0.2,0.1,0.3c0,0.1,0.1,0.2,0.2,0.2c0.1,0.1,0.3,0.2,0.5,0.2c0.2,0.1,0.4,0.2,0.7,0.3
				c0.2,0.1,0.4,0.2,0.6,0.3s0.3,0.2,0.5,0.4c0.1,0.2,0.3,0.4,0.4,0.6s0.1,0.5,0.1,0.9c0,0.4-0.1,0.8-0.2,1s-0.3,0.5-0.6,0.7
				c-0.2,0.2-0.5,0.3-0.9,0.4c-0.3,0.1-0.7,0.1-1,0.1c-0.3,0-0.7,0-1.2-0.1c-0.4,0-0.9-0.1-1.2-0.3l0.1-1.7c0.3,0.2,0.6,0.3,0.9,0.4
				c0.3,0.1,0.6,0.1,0.9,0.1c0.3,0,0.5,0,0.6-0.1c0.1,0,0.3-0.1,0.3-0.2c0.1-0.1,0.1-0.1,0.1-0.2c0-0.1,0-0.2,0-0.2
				c0-0.2-0.1-0.3-0.4-0.4c-0.3-0.1-0.6-0.3-1.1-0.5c-0.2-0.1-0.4-0.2-0.6-0.3c-0.2-0.1-0.3-0.3-0.5-0.5c-0.1-0.2-0.3-0.4-0.3-0.6
				c-0.1-0.2-0.1-0.5-0.1-0.9c0-0.2,0-0.4,0.1-0.7c0.1-0.3,0.2-0.5,0.4-0.7c0.2-0.2,0.5-0.4,0.8-0.6c0.4-0.2,0.8-0.2,1.3-0.2
				c0.5,0,0.9,0,1.2,0.1c0.4,0.1,0.6,0.1,0.8,0.2L291.3,51z"/>
		</g>
		<g>
			<g>
				<path class="st0" d="M120.7,69.6h4.7v7.1c-0.4,0.2-0.9,0.3-1.7,0.5c-0.8,0.2-1.7,0.2-2.7,0.2c-0.6,0-1.3-0.1-2-0.3
					c-0.7-0.2-1.4-0.5-2.1-1.1c-0.6-0.5-1.2-1.2-1.6-2.1c-0.4-0.9-0.6-2.1-0.6-3.5c0-0.8,0.1-1.6,0.4-2.4c0.2-0.8,0.6-1.5,1.2-2.2
					c0.5-0.6,1.3-1.2,2.1-1.6c0.9-0.4,2-0.6,3.2-0.6c0.8,0,1.5,0.1,2,0.2s1.1,0.2,1.5,0.4l-0.2,2.6c-0.3-0.2-0.8-0.3-1.3-0.5
					c-0.5-0.2-1.1-0.3-1.8-0.3c-0.8,0-1.5,0.2-2,0.5c-0.5,0.3-0.9,0.7-1.2,1.2c-0.3,0.5-0.5,1-0.6,1.5c-0.1,0.5-0.2,1-0.2,1.3
					c0,0.6,0.1,1.2,0.2,1.7c0.1,0.5,0.4,1,0.7,1.4c0.3,0.4,0.7,0.7,1.1,0.9c0.4,0.2,1,0.3,1.6,0.3c0.5,0,0.8-0.1,1.1-0.2v-3h-1.8
					V69.6L120.7,69.6z"/>
				<path class="st0" d="M127.7,63.9h4.9c0.5,0,1.1,0.1,1.6,0.2c0.5,0.1,0.9,0.3,1.3,0.6c0.4,0.3,0.7,0.6,0.9,1.1
					c0.2,0.4,0.3,1,0.3,1.6c0,0.1,0,0.4,0,0.7c0,0.3-0.1,0.6-0.3,1c-0.2,0.3-0.4,0.7-0.8,1c-0.4,0.3-0.9,0.5-1.5,0.6v0
					c0.2,0,0.5,0.1,0.6,0.2c0.2,0.1,0.3,0.2,0.5,0.4c0.1,0.2,0.3,0.4,0.4,0.7c0.1,0.3,0.2,0.6,0.4,1l1.4,4.3h-3.3l-1-3.6
					c-0.1-0.5-0.3-0.8-0.4-1c-0.1-0.2-0.3-0.4-0.4-0.5c-0.2-0.1-0.3-0.2-0.5-0.2c-0.2,0-0.5,0-0.7,0v5.4h-3.1L127.7,63.9L127.7,63.9
					z M130.7,69.6h1c0.6,0,1.1-0.2,1.4-0.5c0.3-0.3,0.5-0.8,0.5-1.2c0-0.1,0-0.3-0.1-0.5c0-0.2-0.1-0.4-0.2-0.6
					c-0.1-0.2-0.3-0.3-0.6-0.4c-0.2-0.1-0.6-0.2-1-0.2h-1L130.7,69.6L130.7,69.6z"/>
				<path class="st0" d="M138.8,63.9h3.1v9c0,0.7,0.1,1.2,0.4,1.6c0.3,0.4,0.7,0.6,1.4,0.6c0.6,0,1.1-0.2,1.4-0.6
					c0.3-0.4,0.4-0.9,0.4-1.6v-9h3.1v8.5c0,1.7-0.4,2.9-1.3,3.8c-0.9,0.9-2.1,1.3-3.6,1.3s-2.7-0.4-3.6-1.3
					c-0.9-0.9-1.3-2.1-1.3-3.8L138.8,63.9L138.8,63.9z"/>
				<path class="st0" d="M151,63.9h4.2c1.4,0,2.5,0.3,3.3,1c0.8,0.7,1.2,1.8,1.2,3.2c0,0.6-0.1,1.1-0.2,1.6c-0.2,0.5-0.4,1-0.8,1.3
					c-0.3,0.4-0.8,0.7-1.3,0.9c-0.5,0.2-1.2,0.3-1.9,0.3h-1.5v4.9H151L151,63.9L151,63.9L151,63.9z M155,70c0.5,0,0.9-0.2,1.2-0.5
					c0.3-0.3,0.5-0.8,0.5-1.4c0-0.7-0.2-1.1-0.5-1.4c-0.3-0.3-0.8-0.4-1.4-0.4H154V70H155z"/>
				<path class="st0" d="M161.2,70.6c0-1,0.1-1.9,0.3-2.7c0.2-0.8,0.6-1.6,1-2.2c0.5-0.6,1-1.1,1.8-1.4c0.7-0.4,1.5-0.5,2.5-0.5
					c1,0,1.8,0.2,2.5,0.5c0.7,0.4,1.3,0.8,1.8,1.4c0.5,0.6,0.8,1.3,1,2.2c0.2,0.8,0.3,1.7,0.3,2.7s-0.1,1.9-0.3,2.7
					c-0.2,0.8-0.6,1.6-1,2.2c-0.5,0.6-1.1,1.1-1.8,1.4c-0.7,0.4-1.5,0.5-2.5,0.5s-1.8-0.2-2.5-0.5c-0.7-0.3-1.3-0.8-1.8-1.4
					s-0.8-1.3-1-2.2C161.3,72.5,161.2,71.6,161.2,70.6z M164.4,70.6c0,0.6,0,1.2,0.1,1.8c0.1,0.6,0.2,1.1,0.4,1.5
					c0.2,0.4,0.4,0.7,0.8,1s0.7,0.4,1.2,0.4c0.5,0,0.8-0.1,1.2-0.4s0.6-0.6,0.8-1c0.2-0.4,0.3-0.9,0.4-1.5c0.1-0.6,0.1-1.2,0.1-1.8
					c0-0.6,0-1.2-0.1-1.8s-0.2-1.1-0.4-1.5c-0.2-0.4-0.4-0.7-0.8-1c-0.3-0.2-0.7-0.4-1.2-0.4c-0.5,0-0.8,0.1-1.2,0.4
					c-0.3,0.2-0.6,0.6-0.8,1s-0.3,0.9-0.4,1.5C164.4,69.3,164.4,69.9,164.4,70.6z"/>
				<path class="st0" d="M190.4,66.7L190.4,66.7l-3,10.5h-2.1l-2.9-10.5h0v10.5h-2.9V63.9h4.7l2.2,8.6h0l2.3-8.6h4.5v13.3h-2.9
					L190.4,66.7L190.4,66.7z"/>
				<path class="st0" d="M195.4,70.6c0-1,0.1-1.9,0.3-2.7c0.2-0.8,0.6-1.6,1-2.2c0.5-0.6,1-1.1,1.8-1.4c0.7-0.4,1.5-0.5,2.5-0.5
					c1,0,1.8,0.2,2.5,0.5c0.7,0.4,1.3,0.8,1.8,1.4c0.5,0.6,0.8,1.3,1,2.2c0.2,0.8,0.3,1.7,0.3,2.7s-0.1,1.9-0.3,2.7
					c-0.2,0.8-0.6,1.6-1,2.2c-0.5,0.6-1.1,1.1-1.8,1.4c-0.7,0.4-1.5,0.5-2.5,0.5c-1,0-1.8-0.2-2.5-0.5c-0.7-0.3-1.3-0.8-1.8-1.4
					s-0.8-1.3-1-2.2C195.5,72.5,195.4,71.6,195.4,70.6z M198.6,70.6c0,0.6,0,1.2,0.1,1.8c0.1,0.6,0.2,1.1,0.4,1.5
					c0.2,0.4,0.4,0.7,0.8,1s0.7,0.4,1.2,0.4s0.8-0.1,1.2-0.4c0.3-0.2,0.6-0.6,0.8-1c0.2-0.4,0.3-0.9,0.4-1.5
					c0.1-0.6,0.1-1.2,0.1-1.8c0-0.6,0-1.2-0.1-1.8s-0.2-1.1-0.4-1.5c-0.2-0.4-0.4-0.7-0.8-1c-0.3-0.2-0.7-0.4-1.2-0.4
					s-0.8,0.1-1.2,0.4c-0.3,0.2-0.6,0.6-0.8,1s-0.3,0.9-0.4,1.5C198.7,69.3,198.6,69.9,198.6,70.6z"/>
				<path class="st0" d="M208.8,63.9h3.7l3.9,9.2h0v-9.2h2.7v13.3h-3.7l-3.8-9.6h0v9.6h-2.7V63.9z"/>
				<path class="st0" d="M223.5,66.3h-2.9v-2.4h8.9v2.4h-2.9v10.9h-3.1L223.5,66.3L223.5,66.3z"/>
				<path class="st0" d="M231.1,63.9h7.7v2.3h-4.7v3h4.4v2.3h-4.4v3.4h4.9v2.3h-7.9L231.1,63.9L231.1,63.9L231.1,63.9z"/>
				<path class="st0" d="M239.9,63.9h3.4l2.3,9.7h0l2.4-9.7h3.2l-4,13.3h-3.4L239.9,63.9z"/>
				<path class="st0" d="M252.6,63.9h3.1v13.3h-3.1V63.9z"/>
				<path class="st0" d="M258.3,63.9h4.7c0.7,0,1.5,0.1,2.2,0.4c0.7,0.2,1.3,0.6,1.9,1.2c0.6,0.5,1,1.2,1.3,2.1
					c0.3,0.9,0.5,1.9,0.5,3.2c0,1.1-0.2,2.1-0.5,3c-0.4,0.8-0.8,1.5-1.4,2c-0.6,0.5-1.3,0.9-2,1.2c-0.8,0.2-1.6,0.4-2.4,0.4h-4.3
					L258.3,63.9L258.3,63.9z M261.4,74.9h1c0.6,0,1.1-0.1,1.5-0.3c0.4-0.2,0.8-0.5,1-0.9c0.3-0.4,0.5-0.8,0.6-1.3
					c0.1-0.5,0.2-1.1,0.2-1.7c0-1.4-0.3-2.5-0.8-3.2c-0.6-0.8-1.4-1.2-2.6-1.2h-0.8L261.4,74.9L261.4,74.9z"/>
				<path class="st0" d="M271,63.9h7.7v2.3H274v3h4.4v2.3H274v3.4h4.9v2.3H271L271,63.9L271,63.9L271,63.9z"/>
				<path class="st0" d="M280.5,70.6c0-1,0.1-1.9,0.3-2.7c0.2-0.8,0.6-1.6,1-2.2c0.5-0.6,1-1.1,1.8-1.4c0.7-0.4,1.5-0.5,2.5-0.5
					c1,0,1.8,0.2,2.5,0.5c0.7,0.4,1.3,0.8,1.8,1.4c0.5,0.6,0.8,1.3,1,2.2c0.2,0.8,0.3,1.7,0.3,2.7s-0.1,1.9-0.3,2.7
					c-0.2,0.8-0.6,1.6-1,2.2c-0.5,0.6-1.1,1.1-1.8,1.4c-0.7,0.4-1.5,0.5-2.5,0.5c-1,0-1.8-0.2-2.5-0.5c-0.7-0.3-1.3-0.8-1.8-1.4
					c-0.5-0.6-0.8-1.3-1-2.2C280.6,72.5,280.5,71.6,280.5,70.6z M283.7,70.6c0,0.6,0,1.2,0.1,1.8c0.1,0.6,0.2,1.1,0.4,1.5
					c0.2,0.4,0.4,0.7,0.8,1c0.3,0.2,0.7,0.4,1.2,0.4c0.5,0,0.8-0.1,1.2-0.4c0.3-0.2,0.6-0.6,0.8-1c0.2-0.4,0.3-0.9,0.4-1.5
					c0.1-0.6,0.1-1.2,0.1-1.8c0-0.6,0-1.2-0.1-1.8s-0.2-1.1-0.4-1.5s-0.4-0.7-0.8-1c-0.3-0.2-0.7-0.4-1.2-0.4
					c-0.5,0-0.8,0.1-1.2,0.4c-0.3,0.2-0.6,0.6-0.8,1c-0.2,0.4-0.3,0.9-0.4,1.5C283.7,69.3,283.7,69.9,283.7,70.6z"/>
			</g>
		</g>
	</g>
	<g>
		<path class="st1" d="M50.2,21.3c0-2.3,0.9-4.1,2-4.1c1.1,0,2,1.9,2,4.1c0,0.8,0,10.1,0.1,18.3c1,0.1,2,0.2,2.9,0.5
			C57.1,32.3,57,21.5,57,19.8c0-4.5-2.2-8.9-4.8-8.9c-2.7,0-4.8,4.5-4.8,8.9c0,1.7-0.1,12.5-0.2,20.3c1-0.2,1.9-0.4,2.9-0.5
			C50.2,31.4,50.2,22.1,50.2,21.3z"/>
		<path class="st2" d="M54.2,103.7c0,2.3-0.9,4.1-2,4.1c-1.1,0-2-1.9-2-4.1c0-0.8,0-10.1-0.1-18.3c-1-0.1-2-0.2-2.9-0.5
			c0.1,7.8,0.2,18.6,0.2,20.3c0,4.5,2.2,8.9,4.8,8.9c2.7,0,4.8-4.5,4.8-8.9c0-1.7,0.1-12.5,0.2-20.3c-1,0.2-1.9,0.4-2.9,0.5
			C54.2,93.7,54.2,102.9,54.2,103.7z"/>
		<path class="st3" d="M11,64.5c-2.3,0-4.1-0.9-4.1-2s1.9-2,4.1-2c0.8,0,10.1,0,18.3-0.1c0.1-1,0.2-2,0.5-2.9
			c-7.8,0.1-18.6,0.2-20.3,0.2c-4.5,0-8.9,2.2-8.9,4.8c0,2.7,4.5,4.8,8.9,4.8c1.7,0,12.5,0.1,20.3,0.2c-0.2-1-0.4-1.9-0.5-2.9
			C21,64.5,11.8,64.5,11,64.5z"/>
		<path class="st4" d="M93.4,60.5c2.3,0,4.1,0.9,4.1,2c0,1.1-1.9,2-4.1,2c-0.8,0-10.1,0-18.3,0.1c-0.1,1-0.2,2-0.5,3
			c7.8-0.1,18.6-0.2,20.3-0.2c4.5,0,8.9-2.2,8.9-4.8c0-2.7-4.5-4.8-8.9-4.8c-1.7,0-12.5-0.1-20.3-0.2c0.2,1,0.4,1.9,0.5,2.9
			C83.3,60.5,92.6,60.5,93.4,60.5z"/>
		<path class="st4" d="M29.9,27.8c-1.1-2-1.3-4-0.4-4.6c0.9-0.5,2.6,0.6,3.8,2.6c0.4,0.7,5.1,8.7,9.2,15.8c0.9-0.4,1.8-0.8,2.8-1.1
			c-4-6.7-9.5-16-10.3-17.5c-2.2-3.9-6.3-6.6-8.6-5.3c-2.3,1.3-1.9,6.3,0.3,10.1c0.9,1.5,6.2,10.9,10,17.7c0.7-0.7,1.5-1.3,2.3-1.9
			C34.9,36.6,30.3,28.5,29.9,27.8z"/>
		<path class="st3" d="M74.5,97.2c1.1,2,1.3,4,0.4,4.6c-0.9,0.5-2.6-0.6-3.8-2.6c-0.4-0.7-5.1-8.7-9.2-15.8
			c-0.9,0.4-1.8,0.8-2.8,1.1c4,6.7,9.5,16,10.3,17.5c2.2,3.9,6.3,6.6,8.6,5.3c2.3-1.3,1.9-6.3-0.3-10.1c-0.9-1.5-6.2-10.9-10-17.7
			c-0.7,0.7-1.5,1.3-2.3,1.9C69.5,88.5,74.1,96.5,74.5,97.2z"/>
		<path class="st1" d="M17.5,84.8c-2,1.1-4,1.3-4.6,0.4s0.6-2.6,2.6-3.8c0.7-0.4,8.7-5.1,15.8-9.2c-0.4-0.9-0.8-1.8-1.1-2.8
			c-6.7,4-16,9.5-17.5,10.3c-3.9,2.2-6.6,6.3-5.3,8.6c1.3,2.3,6.3,1.9,10.1-0.3c1.5-0.9,10.9-6.2,17.7-10c-0.7-0.7-1.3-1.5-1.9-2.3
			C26.2,79.8,18.2,84.4,17.5,84.8z"/>
		<path class="st2" d="M86.9,40.2c2-1.1,4-1.3,4.6-0.4c0.5,0.9-0.6,2.6-2.6,3.8c-0.7,0.4-8.7,5.1-15.8,9.2c0.4,0.9,0.8,1.8,1.1,2.8
			c6.7-4,16-9.5,17.5-10.3c3.9-2.2,6.6-6.3,5.3-8.6c-1.3-2.3-6.3-1.9-10.1,0.3c-1.5,0.9-10.9,6.2-17.7,10c0.7,0.7,1.3,1.5,1.9,2.3
			C78.1,45.2,86.2,40.6,86.9,40.2z"/>
		<path class="st2" d="M15.5,43.6c-2-1.1-3.1-2.8-2.6-3.8c0.5-0.9,2.6-0.8,4.6,0.4c0.7,0.4,8.7,5,15.9,9.1c0.6-0.8,1.2-1.6,1.9-2.3
			c-6.8-3.8-16.2-9.1-17.7-10c-3.9-2.2-8.8-2.6-10.1-0.3c-1.3,2.3,1.5,6.4,5.3,8.6c1.5,0.9,10.8,6.4,17.5,10.3
			c0.3-0.9,0.7-1.9,1.1-2.8C24.2,48.7,16.2,44,15.5,43.6z"/>
		<path class="st1" d="M88.8,81.4c2,1.1,3.1,2.8,2.6,3.8c-0.5,0.9-2.6,0.8-4.6-0.4c-0.7-0.4-8.7-5-15.9-9.1
			c-0.6,0.8-1.2,1.6-1.9,2.3c6.8,3.8,16.2,9.1,17.7,10c3.9,2.2,8.8,2.6,10.1,0.3c1.3-2.3-1.5-6.4-5.3-8.6
			c-1.5-0.9-10.8-6.4-17.5-10.3c-0.3,0.9-0.7,1.9-1.1,2.8C80.2,76.3,88.2,81,88.8,81.4z"/>
		<path class="st4" d="M33.3,99.2c-1.1,2-2.8,3.1-3.8,2.6c-0.9-0.5-0.8-2.6,0.4-4.6c0.4-0.7,5-8.7,9.1-15.9
			c-0.8-0.6-1.6-1.2-2.3-1.9c-3.8,6.8-9.1,16.2-10,17.7c-2.2,3.9-2.6,8.8-0.3,10.1c2.3,1.3,6.4-1.5,8.6-5.3
			c0.9-1.5,6.4-10.8,10.3-17.5c-0.9-0.3-1.9-0.7-2.8-1.1C38.4,90.5,33.7,98.5,33.3,99.2z"/>
		<path class="st3" d="M71.1,25.9c1.1-2,2.8-3.1,3.8-2.6c0.9,0.5,0.8,2.6-0.4,4.6c-0.4,0.7-5,8.7-9.1,15.9c0.8,0.6,1.6,1.2,2.3,1.9
			c3.8-6.8,9.1-16.2,10-17.7c2.2-3.9,2.6-8.8,0.3-10.1c-2.3-1.3-6.4,1.5-8.6,5.3c-0.9,1.5-6.4,10.8-10.3,17.5
			c0.9,0.3,1.9,0.7,2.8,1.1C66,34.6,70.7,26.5,71.1,25.9z"/>
	</g>
</g>
</svg>
