<?xml version="1.0" encoding="utf-8"?>
<!-- Generator: Adobe Illustrator 26.4.1, SVG Export Plug-In . SVG Version: 6.00 Build 0)  -->
<svg version="1.1" id="Layer_1" xmlns="http://www.w3.org/2000/svg" xmlns:xlink="http://www.w3.org/1999/xlink" x="0px" y="0px"
	 viewBox="0 0 292.3 125" style="enable-background:new 0 0 292.3 125;" xml:space="preserve">
<style type="text/css">
	.st0{fill:#096569;}
	.st1{fill:#FFFFFF;}
</style>
<g>
	<rect x="9.8" class="st0" width="272.7" height="125"/>
	<g>
		<path class="st1" d="M38.2,30v23.9h41.4V30H38.2z M57.8,39.5H55v-1c0-1.1-0.2-1.9-1.4-1.9c-1.2,0-1.5,0.7-1.5,1.9v6.9
			c0,1.1,0.3,1.9,1.5,1.9c1.1,0,1.4-0.7,1.4-1.9V44h2.8v1.4c0,2.7-1.5,4.1-4.2,4.1c-2.7,0-4.3-1.4-4.3-4.1v-6.9c0-2.7,1.6-4,4.3-4
			c2.7,0,4.2,1.4,4.2,4V39.5z M63.1,49.2h-2.8v-9.6h2.8V49.2z M61.7,37.7c-0.9,0-1.6-0.7-1.6-1.6c0-0.9,0.7-1.6,1.6-1.6
			c0.9,0,1.6,0.7,1.6,1.6C63.3,37,62.6,37.7,61.7,37.7z M74.9,49.2h-2.8l-3.5-8.1v8.1h-2.6V34.8h2.8l3.5,8.7v-8.7h2.6L74.9,49.2
			L74.9,49.2z"/>
	</g>
	<path class="st1" d="M99.3,37.7c3.2,0,5.5-1.4,5.5-6.3c0-4.4-2.1-5.5-5.9-5.5h-4.3v11.8H99.3z M110.4,54h-4.2l-5.9-13.1h-5.7V54
		h-3.8V22.7h9.7c6.5,0,8.3,4.2,8.3,8.5c0,4.7-2,7.4-5,8.7L110.4,54z"/>
	<path class="st1" d="M125.3,40.8c0-3.8-0.9-6.5-4-6.5c-2.6,0-4.5,2.1-4.7,6.5H125.3z M112.5,42.8c0-8.4,4.1-11.5,8.8-11.5
		c5.7,0,7.8,4.1,7.8,9.6c0,0.9,0,1.7-0.2,2.6h-12.4c0.1,5.7,1.9,7.8,5.1,7.8c2.6,0,3.6-1.6,4.1-4l3.3,0.7c-0.8,4.1-3.3,6.4-7.6,6.4
		C114.7,54.5,112.5,49.5,112.5,42.8"/>
	<path class="st1" d="M145.5,49V36.4c-1.3-1-2.7-1.9-4.7-1.9c-3.6,0-4.4,3.7-4.4,8.7c0,5.9,1.2,8.1,4.3,8.1
		C142.4,51.3,144.2,50.2,145.5,49 M132.4,43.4c0-7.7,2.5-12.1,7.6-12.1c2.7,0,4.3,1.1,5.4,2v-12h3.8V54H146l-0.3-2.1l-0.1,0
		c-1.6,1.6-3.7,2.7-5.9,2.7C134.2,54.5,132.4,50.2,132.4,43.4"/>
	<polygon class="st1" points="160.7,54 153.9,30.1 158.1,30.1 163.2,50.4 163.4,50.4 168.3,30.1 172.2,30.1 165.9,54 	"/>
	<rect x="177" y="30.1" class="st1" width="3.8" height="23.9"/>
	<polygon class="st1" points="192.2,54 192.2,33.3 186,33.3 186,30.1 202.2,30.1 202.2,33.3 196,33.3 196,54 	"/>
	<polygon class="st1" points="211.1,50.8 220.7,50.8 220.7,54 207.2,54 207.2,30.1 220.2,30.1 220.2,33.2 211.1,33.2 211.1,40.3 
		219.6,40.3 219.6,43.5 211.1,43.5 	"/>
	<path class="st1" d="M225.3,42.2c0-8.6,4-12.5,9.8-12.5c5,0,8.1,2.6,8.5,8.2l-3.5,0.4c-0.3-3.6-1.8-5.4-5-5.4
		c-3.9,0-5.8,3.5-5.8,9.3c0,5.7,1.5,9.2,5.8,9.2c2.9,0,4.6-1.9,5-4.8l3.4,0.6c-0.8,5.4-4.8,7.3-8.5,7.3
		C227.7,54.3,225.3,48.9,225.3,42.2"/>
	<path class="st1" d="M93.5,66.3c1.1,0,1.9-0.5,1.9-2.2c0-1.5-0.8-1.9-2.1-1.9h-1.6v4.1C91.7,66.3,93.5,66.3,93.5,66.3z M96.8,71.4
		h-1l-1.9-4.3h-2.2v4.3h-0.9v-10h3c2.1,0,2.6,1.4,2.6,2.7c0,1.5-0.7,2.4-1.7,2.8L96.8,71.4z"/>
	<path class="st1" d="M101.8,67.2c0-1.3-0.3-2.3-1.5-2.3c-0.9,0-1.7,0.7-1.7,2.3H101.8z M97.7,67.8c0-2.7,1.3-3.7,2.7-3.7
		c1.8,0,2.4,1.3,2.4,3c0,0.3,0,0.5-0.1,0.8h-4.1c0,2,0.7,2.7,1.8,2.7c0.9,0,1.3-0.5,1.4-1.4l0.8,0.2c-0.3,1.3-1,2-2.3,2
		C98.3,71.5,97.7,69.9,97.7,67.8"/>
	<path class="st1" d="M108.1,69.9v-4.3c-0.5-0.4-1-0.7-1.7-0.7c-1.3,0-1.5,1.3-1.5,3c0,2.1,0.5,2.8,1.5,2.8
		C107,70.8,107.7,70.3,108.1,69.9 M103.9,68c0-2.4,0.8-3.8,2.4-3.8c0.9,0,1.4,0.4,1.8,0.7V61h0.9v10.4h-0.8l-0.1-0.7h0
		c-0.5,0.5-1.2,0.8-1.9,0.8C104.4,71.5,103.9,70,103.9,68"/>
	<path class="st1" d="M117.4,69.9v-4.3c-0.5-0.4-1-0.7-1.7-0.7c-1.2,0-1.5,1.3-1.5,3c0,2.1,0.5,2.8,1.5,2.8
		C116.3,70.8,116.9,70.3,117.4,69.9 M113.2,68c0-2.4,0.8-3.8,2.4-3.8c0.9,0,1.4,0.4,1.8,0.7V61h0.9v10.4h-0.8l-0.1-0.7h0
		c-0.5,0.5-1.2,0.8-1.9,0.8C113.7,71.5,113.2,70,113.2,68"/>
	<path class="st1" d="M124,67.2c0-1.3-0.3-2.3-1.5-2.3c-1,0-1.7,0.7-1.7,2.3H124z M119.8,67.8c0-2.7,1.3-3.7,2.7-3.7
		c1.8,0,2.4,1.3,2.4,3c0,0.3,0,0.5-0.1,0.8h-4.1c0,2,0.7,2.7,1.8,2.7c0.9,0,1.3-0.5,1.4-1.4l0.8,0.2c-0.3,1.3-1,2-2.3,2
		C120.4,71.5,119.8,69.9,119.8,67.8"/>
	<polygon class="st1" points="131,71.4 128.1,61.4 129.1,61.4 131.6,70.4 134,61.4 134.9,61.4 132.2,71.4 	"/>
	<path class="st1" d="M136,64.3h0.9v7H136V64.3z M135.8,62c0-0.5,0.2-0.7,0.7-0.7c0.4,0,0.7,0.3,0.7,0.7c0,0.5-0.2,0.7-0.7,0.7
		C136,62.7,135.8,62.4,135.8,62"/>
	<path class="st1" d="M138.8,64.3h0.8l0.1,0.8c0.6-0.5,1.3-0.9,2-0.9c1.3,0,2,0.5,2,2.4v4.8h-0.9v-4.8c0-1-0.2-1.6-1.1-1.6
		c-0.8,0-1.4,0.4-1.9,0.9v5.4h-0.9L138.8,64.3L138.8,64.3z"/>
	<path class="st1" d="M145.2,67.9c0-2.6,1-3.7,2.8-3.7c1.5,0,2.2,1,2.3,2.4l-0.9,0.1c-0.1-1.1-0.5-1.6-1.4-1.6
		c-1.2,0-1.8,0.8-1.8,2.8c0,2,0.6,2.9,1.8,2.9c0.9,0,1.4-0.5,1.5-1.6l0.8,0.2c-0.2,1.1-0.8,2.2-2.4,2.2
		C145.9,71.5,145.2,70,145.2,67.9"/>
	<path class="st1" d="M151.7,64.3h0.9v4.8c0,1.1,0.4,1.5,1.1,1.5c0.8,0,1.5-0.5,1.9-0.9v-5.4h0.9v7h-0.8l-0.1-0.8
		c-0.6,0.5-1.1,0.9-2,0.9c-1.4,0-2-0.8-2-2.3L151.7,64.3L151.7,64.3z"/>
	<rect x="158.5" y="61" class="st1" width="0.9" height="10.4"/>
	<path class="st1" d="M164.6,69.8V68c-0.1,0-0.5-0.1-0.6-0.1c-0.8,0-2.1,0.1-2.1,1.5c0,0.7,0.2,1.3,1.1,1.3
		C163.6,70.8,164.2,70.3,164.6,69.8 M161,69.6c0-2,1.5-2.4,2.8-2.4c0.3,0,0.7,0,0.8,0.1v-0.8c0-1.2-0.4-1.6-1.2-1.6
		c-1,0-1.2,0.4-1.3,1.2l-0.9-0.2c0.2-1.3,0.8-1.8,2.2-1.8c1.4,0,2.1,0.5,2.1,2.4v3.6c0,0.4,0.1,0.6,0.4,0.6c0.1,0,0.2,0,0.4-0.1
		l0.1,0.6c-0.2,0.1-0.5,0.2-0.8,0.2c-0.5,0-0.8-0.3-0.8-0.9c-0.4,0.6-1.1,0.9-1.9,0.9C161.2,71.5,161,70.3,161,69.6"/>
	<path class="st1" d="M167,67.9c0-2.6,1-3.7,2.8-3.7c1.5,0,2.2,1,2.3,2.4l-0.9,0.1c-0.1-1.1-0.5-1.6-1.4-1.6c-1.2,0-1.8,0.8-1.8,2.8
		c0,2,0.7,2.9,1.8,2.9c0.9,0,1.4-0.5,1.5-1.6l0.8,0.2c-0.2,1.1-0.8,2.2-2.4,2.2C167.7,71.5,167,70,167,67.9"/>
	<path class="st1" d="M173.5,64.3h0.9v7h-0.9V64.3z M173.3,62c0-0.5,0.3-0.7,0.7-0.7c0.4,0,0.7,0.3,0.7,0.7c0,0.5-0.3,0.7-0.7,0.7
		C173.6,62.7,173.3,62.4,173.3,62"/>
	<path class="st1" d="M178.6,63.5l-0.7-0.2l1.2-2.3h1.1L178.6,63.5z M180.5,67.8c0-1.7-0.4-2.8-1.7-2.8c-1.5,0-1.8,1.5-1.8,2.9
		c0,1.9,0.6,2.9,1.8,2.9C179.9,70.7,180.5,69.7,180.5,67.8 M176,67.9c0-2.6,1.2-3.7,2.8-3.7c2,0,2.6,1.6,2.6,3.6
		c0,2-0.6,3.7-2.8,3.7C176.4,71.5,176,69.5,176,67.9"/>
	<path class="st1" d="M183,64.3h0.8l0.1,0.8c0.6-0.5,1.3-0.9,2-0.9c1.3,0,2,0.5,2,2.4v4.8H187v-4.8c0-1-0.2-1.6-1.1-1.6
		c-0.8,0-1.4,0.4-1.9,0.9v5.4H183L183,64.3L183,64.3z"/>
	<polygon class="st1" points="194,71.4 194,62.2 191.5,62.2 191.5,61.4 197.4,61.4 197.4,62.2 194.9,62.2 194.9,71.4 	"/>
	<path class="st1" d="M201.2,67.2c0-1.3-0.3-2.3-1.5-2.3c-0.9,0-1.7,0.7-1.7,2.3H201.2z M197.1,67.8c0-2.7,1.3-3.7,2.7-3.7
		c1.8,0,2.4,1.3,2.4,3c0,0.3,0,0.5-0.1,0.8H198c0,2,0.7,2.7,1.8,2.7c0.9,0,1.3-0.5,1.4-1.4l0.8,0.2c-0.3,1.3-1,2-2.3,2
		C197.7,71.5,197.1,69.9,197.1,67.8"/>
	<path class="st1" d="M203.3,67.9c0-2.6,1-3.7,2.8-3.7c1.5,0,2.2,1,2.3,2.4l-0.9,0.1c-0.1-1.1-0.6-1.6-1.4-1.6
		c-1.2,0-1.8,0.8-1.8,2.8c0,2,0.6,2.9,1.8,2.9c0.9,0,1.4-0.5,1.5-1.6l0.8,0.2c-0.2,1.1-0.8,2.2-2.4,2.2
		C204,71.5,203.3,70,203.3,67.9"/>
	<path class="st1" d="M209.8,64.3h0.8l0.1,0.8c0.6-0.5,1.3-0.9,2-0.9c1.3,0,2,0.5,2,2.4v4.8h-0.9v-4.8c0-1-0.2-1.6-1.1-1.6
		c-0.8,0-1.4,0.4-1.9,0.9v5.4h-0.9L209.8,64.3C209.8,64.3,209.8,64.3,209.8,64.3z"/>
	<path class="st1" d="M220.7,67.8c0-1.7-0.4-2.8-1.7-2.8c-1.5,0-1.8,1.5-1.8,2.9c0,1.9,0.6,2.9,1.8,2.9
		C220.2,70.7,220.7,69.7,220.7,67.8 M216.2,67.9c0-2.6,1.2-3.7,2.8-3.7c2,0,2.6,1.6,2.6,3.6c0,2-0.6,3.7-2.8,3.7
		C216.6,71.5,216.2,69.5,216.2,67.9"/>
	<rect x="223.2" y="61" class="st1" width="0.9" height="10.4"/>
	<path class="st1" d="M228.3,63.5l-0.7-0.2l1.2-2.3h1.1L228.3,63.5z M230.2,67.8c0-1.7-0.4-2.8-1.7-2.8c-1.5,0-1.8,1.5-1.8,2.9
		c0,1.9,0.6,2.9,1.8,2.9C229.6,70.7,230.2,69.7,230.2,67.8 M225.7,67.9c0-2.6,1.2-3.7,2.8-3.7c2,0,2.6,1.6,2.6,3.6
		c0,2-0.6,3.7-2.8,3.7C226.1,71.5,225.7,69.5,225.7,67.9"/>
	<path class="st1" d="M234.6,64.9c-0.8,0-1.5,0.5-1.5,1.8c0,1,0.5,1.7,1.6,1.7c0.9,0,1.5-0.7,1.5-1.9
		C236.1,65.6,235.6,64.9,234.6,64.9 M235.4,71.3l-1.9-0.1c-0.4,0.4-0.7,0.8-0.7,1.4c0,0.6,0.4,1.2,1.8,1.2c1.3,0,2-0.6,2-1.4
		C236.7,71.7,236.4,71.3,235.4,71.3 M236.4,64.9c0.2-0.4,0.4-0.8,0.9-0.8c0.2,0,0.3,0,0.5,0.1V65c-0.4,0-0.8,0.1-1.1,0.2
		c0.3,0.4,0.4,0.8,0.4,1.4c0,1.7-1.1,2.6-2.3,2.6c-0.4,0-0.8-0.1-1.1-0.2c-0.2,0.2-0.4,0.5-0.4,0.8c0,0.2,0.2,0.5,0.8,0.5l1.3,0.1
		c1.3,0.1,2.3,0.2,2.3,1.8c0,1.8-1.6,2.2-3,2.2c-1.4,0-2.7-0.5-2.7-1.8c0-0.9,0.5-1.3,1-1.7c-0.4-0.2-0.7-0.5-0.7-0.9
		c0-0.6,0.3-1,0.8-1.3c-0.5-0.4-0.9-1-0.9-2c0-1.8,1.2-2.6,2.4-2.6C235.4,64.2,236,64.4,236.4,64.9"/>
	<path class="st1" d="M238.9,64.3h0.9v7h-0.9V64.3z M238.6,62c0-0.5,0.3-0.7,0.7-0.7c0.4,0,0.7,0.3,0.7,0.7c0,0.5-0.3,0.7-0.7,0.7
		C238.9,62.7,238.6,62.4,238.6,62"/>
	<path class="st1" d="M241.3,67.9c0-2.6,1-3.7,2.8-3.7c1.5,0,2.2,1,2.3,2.4l-0.9,0.1c-0.1-1.1-0.6-1.6-1.4-1.6
		c-1.2,0-1.8,0.8-1.8,2.8c0,2,0.6,2.9,1.8,2.9c0.9,0,1.4-0.5,1.5-1.6l0.8,0.2c-0.1,1.1-0.8,2.2-2.4,2.2
		C242,71.5,241.3,70,241.3,67.9"/>
	<path class="st1" d="M250.8,69.8V68c-0.1,0-0.5-0.1-0.6-0.1c-0.8,0-2.1,0.1-2.1,1.5c0,0.7,0.2,1.3,1.1,1.3
		C249.9,70.8,250.5,70.3,250.8,69.8 M247.2,69.6c0-2,1.5-2.4,2.8-2.4c0.3,0,0.7,0,0.8,0.1v-0.8c0-1.2-0.4-1.6-1.2-1.6
		c-1,0-1.2,0.4-1.3,1.2l-0.9-0.2c0.2-1.3,0.8-1.8,2.2-1.8c1.4,0,2.1,0.5,2.1,2.4v3.6c0,0.4,0.1,0.6,0.4,0.6c0.1,0,0.2,0,0.4-0.1
		l0.1,0.6c-0.2,0.1-0.5,0.2-0.8,0.2c-0.5,0-0.8-0.3-0.9-0.9c-0.4,0.6-1.1,0.9-1.9,0.9C247.5,71.5,247.2,70.3,247.2,69.6"/>
	<path class="st1" d="M94.5,85.1v-4.3c-0.5-0.4-1-0.7-1.7-0.7c-1.2,0-1.5,1.3-1.5,3c0,2.1,0.5,2.8,1.5,2.8
		C93.4,85.9,94.1,85.5,94.5,85.1 M90.3,83.2c0-2.4,0.8-3.8,2.4-3.8c0.9,0,1.4,0.4,1.8,0.7v-3.9h0.9v10.4h-0.8l-0.1-0.7h0
		c-0.5,0.5-1.2,0.8-1.9,0.8C90.8,86.7,90.3,85.2,90.3,83.2"/>
	<path class="st1" d="M101.1,82.4c0-1.3-0.3-2.3-1.5-2.3c-1,0-1.7,0.7-1.7,2.3H101.1z M96.9,83c0-2.7,1.3-3.7,2.7-3.7
		c1.8,0,2.4,1.3,2.4,3c0,0.3,0,0.5-0.1,0.8h-4.1c0,2,0.7,2.7,1.8,2.7c0.9,0,1.3-0.5,1.4-1.4l0.8,0.2c-0.3,1.3-1,2-2.3,2
		C97.6,86.7,96.9,85.1,96.9,83"/>
	<rect x="106.1" y="76.1" class="st1" width="0.9" height="10.4"/>
	<path class="st1" d="M112.2,85v-1.8c-0.1,0-0.5-0.1-0.6-0.1c-0.8,0-2.1,0.1-2.1,1.5c0,0.7,0.3,1.3,1.1,1.3
		C111.3,86,111.9,85.5,112.2,85 M108.6,84.8c0-2,1.5-2.4,2.8-2.4c0.3,0,0.7,0,0.8,0.1v-0.8c0-1.2-0.4-1.6-1.2-1.6
		c-1,0-1.2,0.4-1.3,1.2l-0.9-0.2c0.2-1.3,0.8-1.8,2.2-1.8c1.4,0,2.1,0.5,2.1,2.4v3.6c0,0.4,0.1,0.6,0.4,0.6c0.1,0,0.2,0,0.4-0.1
		l0.1,0.6c-0.2,0.1-0.5,0.2-0.8,0.2c-0.5,0-0.8-0.3-0.8-0.9c-0.4,0.5-1.1,0.9-1.9,0.9C108.9,86.7,108.6,85.5,108.6,84.8"/>
	<path class="st1" d="M119.2,81.3l-0.9,0.1c-0.1-0.9-0.4-1.3-1.3-1.3c-0.9,0-1.2,0.5-1.2,1.2c0,1.9,3.5,0.6,3.5,3.4
		c0,1.1-0.8,2-2.3,2c-1.3,0-2.1-0.6-2.3-2.1l0.8-0.1c0.1,0.8,0.4,1.5,1.5,1.5c0.7,0,1.3-0.3,1.3-1.2c0-0.8-0.4-1-1.3-1.2
		c-1.4-0.4-2.1-0.7-2.1-2.1c0-1.4,1-2,2.1-2C118.4,79.4,119,80.1,119.2,81.3"/>
	<path class="st1" d="M128.7,83.4v-6.9h0.9v6.7c0,2.3-1,3.4-3.1,3.4c-1.8,0-3-0.7-3-3.2v-6.9h0.9v6.9c0,1.9,0.7,2.5,2.1,2.5
		C128.1,85.9,128.7,85.2,128.7,83.4"/>
	<path class="st1" d="M131.7,79.5h0.8l0.1,0.8c0.6-0.6,1.3-0.9,2-0.9c1.3,0,2,0.5,2,2.4v4.8h-0.9v-4.8c0-1-0.2-1.6-1.1-1.6
		c-0.8,0-1.4,0.4-1.9,0.9v5.4h-0.9L131.7,79.5L131.7,79.5L131.7,79.5z"/>
	<path class="st1" d="M138.5,79.5h0.9v7h-0.9V79.5z M138.2,77.1c0-0.5,0.2-0.7,0.7-0.7c0.4,0,0.7,0.3,0.7,0.7c0,0.5-0.2,0.7-0.7,0.7
		C138.5,77.9,138.2,77.6,138.2,77.1"/>
	<polygon class="st1" points="140.4,79.5 141.4,79.5 143.2,85.5 143.2,85.5 144.9,79.5 145.9,79.5 143.7,86.5 142.7,86.5 	"/>
	<path class="st1" d="M150.6,82.4c0-1.3-0.3-2.3-1.5-2.3c-1,0-1.7,0.7-1.7,2.3H150.6z M146.5,83c0-2.7,1.3-3.7,2.7-3.7
		c1.8,0,2.4,1.3,2.4,3c0,0.3,0,0.5-0.1,0.8h-4.1c0,2,0.7,2.7,1.8,2.7c0.9,0,1.3-0.5,1.4-1.4l0.8,0.2c-0.3,1.3-1,2-2.3,2
		C147.1,86.7,146.5,85.1,146.5,83"/>
	<path class="st1" d="M156.1,80.3c-0.1,0-0.3,0-0.4,0c-0.7,0-1.3,0.3-1.7,0.8v5.4h-0.9v-7h0.8l0.1,0.9c0.5-0.9,1.1-1,1.8-1
		c0.1,0,0.3,0,0.3,0L156.1,80.3L156.1,80.3z"/>
	<path class="st1" d="M161.1,81.3l-0.9,0.1c-0.1-0.9-0.5-1.3-1.3-1.3c-0.9,0-1.2,0.5-1.2,1.2c0,1.9,3.5,0.6,3.5,3.4
		c0,1.1-0.8,2-2.3,2c-1.3,0-2.1-0.6-2.3-2.1l0.8-0.1c0.1,0.8,0.4,1.5,1.5,1.5c0.7,0,1.3-0.3,1.3-1.2c0-0.8-0.4-1-1.3-1.2
		c-1.4-0.4-2.1-0.7-2.1-2.1c0-1.4,1-2,2.1-2C160.3,79.4,160.9,80.1,161.1,81.3"/>
	<path class="st1" d="M162.7,79.5h0.9v7h-0.9V79.5z M162.5,77.1c0-0.5,0.2-0.7,0.7-0.7c0.4,0,0.7,0.3,0.7,0.7c0,0.5-0.2,0.7-0.7,0.7
		C162.7,77.9,162.5,77.6,162.5,77.1"/>
	<path class="st1" d="M169.4,85.1v-4.3c-0.5-0.4-1-0.7-1.7-0.7c-1.3,0-1.5,1.3-1.5,3c0,2.1,0.5,2.8,1.5,2.8
		C168.3,85.9,168.9,85.5,169.4,85.1 M165.1,83.2c0-2.4,0.8-3.8,2.4-3.8c0.9,0,1.4,0.4,1.8,0.7v-3.9h0.9v10.4h-0.8l-0.1-0.7h0
		c-0.5,0.5-1.2,0.8-1.9,0.8C165.6,86.7,165.1,85.2,165.1,83.2"/>
	<path class="st1" d="M175.4,85v-1.8c-0.1,0-0.4-0.1-0.6-0.1c-0.8,0-2.1,0.1-2.1,1.5c0,0.7,0.2,1.3,1.1,1.3
		C174.5,86,175.1,85.5,175.4,85 M171.8,84.8c0-2,1.5-2.4,2.8-2.4c0.3,0,0.7,0,0.8,0.1v-0.8c0-1.2-0.4-1.6-1.2-1.6
		c-1,0-1.2,0.4-1.3,1.2l-0.9-0.2c0.2-1.3,0.8-1.8,2.2-1.8s2.1,0.5,2.1,2.4v3.6c0,0.4,0.1,0.6,0.4,0.6c0.1,0,0.2,0,0.4-0.1l0.1,0.6
		c-0.2,0.1-0.5,0.2-0.8,0.2c-0.5,0-0.8-0.3-0.9-0.9c-0.4,0.5-1.1,0.9-1.9,0.9C172.1,86.7,171.8,85.5,171.8,84.8"/>
	<path class="st1" d="M182.1,85.1v-4.3c-0.5-0.4-1-0.7-1.7-0.7c-1.2,0-1.5,1.3-1.5,3c0,2.1,0.5,2.8,1.5,2.8
		C181,85.9,181.7,85.5,182.1,85.1 M177.9,83.2c0-2.4,0.8-3.8,2.4-3.8c0.9,0,1.4,0.4,1.8,0.7v-3.9h0.9v10.4h-0.8l-0.1-0.7h0
		c-0.5,0.5-1.2,0.8-1.9,0.8C178.4,86.7,177.9,85.2,177.9,83.2"/>
	<path class="st1" d="M188.7,82.4c0-1.3-0.3-2.3-1.5-2.3c-1,0-1.7,0.7-1.7,2.3H188.7z M184.6,83c0-2.7,1.3-3.7,2.7-3.7
		c1.8,0,2.4,1.3,2.4,3c0,0.3,0,0.5-0.1,0.8h-4.1c0,2,0.7,2.7,1.8,2.7c0.9,0,1.3-0.5,1.4-1.4l0.8,0.2c-0.3,1.3-1,2-2.3,2
		C185.2,86.7,184.6,85.1,184.6,83"/>
	<path class="st1" d="M195.2,81.3l-0.9,0.1c-0.1-0.9-0.5-1.3-1.3-1.3c-0.9,0-1.2,0.5-1.2,1.2c0,1.9,3.5,0.6,3.5,3.4
		c0,1.1-0.8,2-2.3,2c-1.3,0-2.1-0.6-2.3-2.1l0.8-0.1c0.1,0.8,0.4,1.5,1.5,1.5c0.7,0,1.3-0.3,1.3-1.2c0-0.8-0.4-1-1.3-1.2
		c-1.4-0.4-2.1-0.7-2.1-2.1c0-1.4,1-2,2.1-2C194.4,79.4,195,80.1,195.2,81.3"/>
	<polygon class="st1" points="95.9,101.7 91.7,92.8 91.7,101.7 90.8,101.7 90.8,91.8 92.1,91.8 96.3,100.6 96.3,91.8 97.1,91.8 
		97.1,101.7 	"/>
	<path class="st1" d="M102.5,100.2v-1.8c-0.1,0-0.5-0.1-0.6-0.1c-0.8,0-2.1,0.1-2.1,1.5c0,0.7,0.2,1.3,1.1,1.3
		C101.6,101.2,102.2,100.7,102.5,100.2 M98.9,100c0-2,1.5-2.4,2.8-2.4c0.3,0,0.7,0,0.8,0.1v-0.8c0-1.2-0.4-1.6-1.2-1.6
		c-1,0-1.2,0.4-1.3,1.3l-0.9-0.2c0.2-1.3,0.8-1.8,2.2-1.8c1.4,0,2.1,0.5,2.1,2.4v3.6c0,0.4,0.1,0.6,0.4,0.6c0.1,0,0.2,0,0.4-0.1
		l0,0.6c-0.2,0.1-0.5,0.2-0.8,0.2c-0.5,0-0.8-0.3-0.9-0.9c-0.4,0.6-1.1,0.9-1.9,0.9C99.2,101.9,98.9,100.7,98.9,100"/>
	<path class="st1" d="M105,98.3c0-2.6,1-3.7,2.8-3.7c1.5,0,2.2,1,2.3,2.4l-0.9,0.1c-0.1-1.1-0.6-1.6-1.4-1.6c-1.2,0-1.8,0.8-1.8,2.8
		c0,2,0.6,2.9,1.8,2.9c0.9,0,1.4-0.5,1.5-1.6l0.8,0.2c-0.2,1.1-0.8,2.2-2.4,2.2C105.7,101.9,105,100.4,105,98.3"/>
	<path class="st1" d="M111.5,94.7h0.9v7h-0.9V94.7z M111.3,92.3c0-0.5,0.3-0.7,0.7-0.7c0.4,0,0.7,0.3,0.7,0.7c0,0.5-0.2,0.7-0.7,0.7
		C111.5,93.1,111.3,92.8,111.3,92.3"/>
	<path class="st1" d="M118.4,98.1c0-1.7-0.4-2.8-1.7-2.8c-1.5,0-1.8,1.5-1.8,2.9c0,1.9,0.6,2.9,1.8,2.9
		C117.9,101.1,118.4,100.1,118.4,98.1 M113.9,98.2c0-2.6,1.2-3.7,2.8-3.7c2,0,2.6,1.6,2.6,3.6c0,2-0.6,3.7-2.8,3.7
		C114.3,101.9,113.9,99.9,113.9,98.2"/>
	<path class="st1" d="M120.9,94.7h0.8l0.1,0.8c0.6-0.6,1.3-0.9,2-0.9c1.3,0,2,0.5,2,2.4v4.8h-0.9V97c0-1-0.2-1.6-1.1-1.6
		c-0.8,0-1.4,0.4-1.9,0.9v5.4h-0.9V94.7L120.9,94.7z"/>
	<path class="st1" d="M131,100.2v-1.8c-0.1,0-0.5-0.1-0.6-0.1c-0.8,0-2.1,0.1-2.1,1.5c0,0.7,0.2,1.3,1.1,1.3
		C130,101.2,130.7,100.7,131,100.2 M127.4,100c0-2,1.5-2.4,2.8-2.4c0.3,0,0.7,0,0.8,0.1v-0.8c0-1.2-0.4-1.6-1.2-1.6
		c-1,0-1.2,0.4-1.3,1.3l-0.9-0.2c0.2-1.3,0.8-1.8,2.2-1.8c1.4,0,2.1,0.5,2.1,2.4v3.6c0,0.4,0.1,0.6,0.4,0.6c0.1,0,0.2,0,0.4-0.1
		l0.1,0.6c-0.2,0.1-0.5,0.2-0.8,0.2c-0.5,0-0.8-0.3-0.9-0.9c-0.4,0.6-1.1,0.9-1.9,0.9C127.6,101.9,127.4,100.7,127.4,100"/>
	<rect x="133.9" y="91.3" class="st1" width="0.9" height="10.4"/>
	<path class="st1" d="M140.6,97.6c0-1.3-0.3-2.3-1.5-2.3c-1,0-1.7,0.7-1.7,2.3H140.6z M136.4,98.2c0-2.7,1.3-3.7,2.7-3.7
		c1.8,0,2.4,1.3,2.4,3c0,0.3,0,0.5-0.1,0.8h-4.1c0,2,0.7,2.7,1.8,2.7c0.9,0,1.3-0.5,1.4-1.4l0.8,0.2c-0.3,1.3-1,2-2.3,2
		C137,101.9,136.4,100.2,136.4,98.2"/>
	<path class="st1" d="M147,96.5l-0.9,0.1c-0.1-0.9-0.5-1.3-1.3-1.3c-0.9,0-1.2,0.5-1.2,1.2c0,1.9,3.5,0.6,3.5,3.4c0,1.1-0.8,2-2.3,2
		c-1.3,0-2.1-0.6-2.3-2.1l0.8-0.1c0.1,0.8,0.4,1.5,1.5,1.5c0.7,0,1.3-0.3,1.3-1.2c0-0.8-0.4-1-1.3-1.2c-1.4-0.4-2.1-0.7-2.1-2.1
		c0-1.4,1-2,2.1-2C146.2,94.6,146.8,95.3,147,96.5"/>
	<path class="st1" d="M155,100.3V96c-0.5-0.4-1-0.7-1.7-0.7c-1.2,0-1.5,1.3-1.5,3c0,2.1,0.5,2.8,1.5,2.8
		C153.9,101.1,154.6,100.7,155,100.3 M150.8,98.4c0-2.4,0.8-3.8,2.4-3.8c0.9,0,1.4,0.4,1.8,0.7v-3.9h0.9v10.4h-0.8l-0.1-0.7h0
		c-0.5,0.5-1.2,0.8-1.9,0.8C151.3,101.9,150.8,100.4,150.8,98.4"/>
	<path class="st1" d="M161.6,97.6c0-1.3-0.3-2.3-1.5-2.3c-1,0-1.7,0.7-1.7,2.3H161.6z M157.5,98.2c0-2.7,1.3-3.7,2.7-3.7
		c1.8,0,2.4,1.3,2.4,3c0,0.3,0,0.5-0.1,0.8h-4.1c0,2,0.7,2.7,1.8,2.7c0.9,0,1.3-0.5,1.4-1.4l0.8,0.2c-0.3,1.3-1,2-2.3,2
		C158.1,101.9,157.5,100.2,157.5,98.2"/>
	<path class="st1" d="M169.5,92.5L169.5,92.5l-1.4,5.2h2.8L169.5,92.5z M170.1,91.8l2.9,10h-1l-0.9-3.2h-3.3l-0.9,3.2H166l2.8-10
		H170.1z"/>
	<path class="st1" d="M177.4,95.5c-0.1,0-0.3,0-0.4,0c-0.7,0-1.3,0.3-1.7,0.8v5.4h-0.9v-7h0.8l0.1,0.9c0.5-0.9,1.1-1,1.8-1
		c0.1,0,0.3,0,0.3,0L177.4,95.5L177.4,95.5z"/>
	<path class="st1" d="M180.3,95.3c-0.8,0-1.5,0.5-1.5,1.8c0,1,0.5,1.8,1.6,1.8c0.9,0,1.5-0.7,1.5-1.9
		C181.9,96,181.4,95.3,180.3,95.3 M181.2,101.6l-1.9-0.1c-0.4,0.4-0.7,0.8-0.7,1.4c0,0.6,0.4,1.2,1.8,1.2c1.3,0,2-0.5,2-1.4
		C182.4,102.1,182.2,101.7,181.2,101.6 M182.1,95.3c0.2-0.4,0.4-0.8,0.9-0.8c0.2,0,0.3,0,0.5,0.1v0.8c-0.4,0-0.8,0.1-1.1,0.2
		c0.3,0.4,0.4,0.8,0.4,1.4c0,1.7-1,2.6-2.3,2.6c-0.4,0-0.8-0.1-1.1-0.2c-0.2,0.2-0.4,0.5-0.4,0.8c0,0.3,0.2,0.5,0.8,0.5l1.3,0.1
		c1.4,0.1,2.3,0.2,2.3,1.8c0,1.8-1.6,2.2-3,2.2c-1.4,0-2.7-0.5-2.7-1.8c0-0.9,0.5-1.3,1-1.7c-0.4-0.2-0.6-0.5-0.6-0.9
		c0-0.6,0.3-1,0.7-1.3c-0.5-0.4-0.9-1-0.9-2c0-1.8,1.2-2.6,2.4-2.6C181.2,94.6,181.8,94.8,182.1,95.3"/>
	<path class="st1" d="M188.2,97.6c0-1.3-0.3-2.3-1.5-2.3c-1,0-1.7,0.7-1.7,2.3H188.2z M184,98.2c0-2.7,1.3-3.7,2.7-3.7
		c1.8,0,2.4,1.3,2.4,3c0,0.3,0,0.5-0.1,0.8H185c0,2,0.7,2.7,1.8,2.7c0.9,0,1.3-0.5,1.4-1.4l0.8,0.2c-0.3,1.3-1,2-2.3,2
		C184.7,101.9,184,100.2,184,98.2"/>
	<path class="st1" d="M190.6,94.7h0.8l0.1,0.8c0.6-0.6,1.3-0.9,2-0.9c1.3,0,2,0.5,2,2.4v4.8h-0.9V97c0-1-0.2-1.6-1.1-1.6
		c-0.8,0-1.4,0.4-1.9,0.9v5.4h-0.9L190.6,94.7L190.6,94.7z"/>
	<path class="st1" d="M200.5,101.5c-0.3,0.2-0.8,0.4-1.4,0.4c-1.2,0-1.7-0.6-1.7-1.9v-4.5h-0.9v-0.8h0.9v-2l0.9-0.1v2.2h1.6v0.8
		h-1.6v4.4c0,0.8,0.1,1.2,0.9,1.2c0.4,0,0.8-0.1,1.1-0.3L200.5,101.5z"/>
	<path class="st1" d="M201.6,94.7h0.9v7h-0.9V94.7z M201.4,92.3c0-0.5,0.2-0.7,0.7-0.7c0.4,0,0.7,0.3,0.7,0.7c0,0.5-0.2,0.7-0.7,0.7
		C201.6,93.1,201.4,92.8,201.4,92.3"/>
	<path class="st1" d="M204.4,94.7h0.8l0.1,0.8c0.6-0.6,1.3-0.9,2-0.9c1.3,0,2,0.5,2,2.4v4.8h-0.9V97c0-1-0.2-1.6-1.1-1.6
		c-0.8,0-1.4,0.4-1.9,0.9v5.4h-0.9L204.4,94.7L204.4,94.7z"/>
	<path class="st1" d="M214.5,100.2v-1.8c-0.1,0-0.5-0.1-0.6-0.1c-0.8,0-2.1,0.1-2.1,1.5c0,0.7,0.2,1.3,1.1,1.3
		C213.5,101.2,214.1,100.7,214.5,100.2 M210.8,100c0-2,1.5-2.4,2.8-2.4c0.3,0,0.7,0,0.8,0.1v-0.8c0-1.2-0.4-1.6-1.2-1.6
		c-1,0-1.2,0.4-1.3,1.3l-0.9-0.2c0.2-1.3,0.8-1.8,2.2-1.8c1.4,0,2.1,0.5,2.1,2.4v3.6c0,0.4,0.1,0.6,0.4,0.6c0.1,0,0.2,0,0.4-0.1
		l0.1,0.6c-0.2,0.1-0.5,0.2-0.8,0.2c-0.5,0-0.8-0.3-0.9-0.9c-0.4,0.6-1.1,0.9-1.9,0.9C211.1,101.9,210.8,100.7,210.8,100"/>
</g>
</svg>
