<?xml version="1.0" encoding="utf-8"?>
<!-- Generator: Adobe Illustrator 26.4.1, SVG Export Plug-In . SVG Version: 6.00 Build 0)  -->
<svg version="1.1" id="Layer_1" xmlns="http://www.w3.org/2000/svg" xmlns:xlink="http://www.w3.org/1999/xlink" x="0px" y="0px"
	 viewBox="0 0 292.3 125" style="enable-background:new 0 0 292.3 125;" xml:space="preserve">
<style type="text/css">
	.st0{fill:#231F20;}
	.st1{fill:#FFFFFF;}
	.st2{fill:none;stroke:#00ADEE;stroke-width:0.3459;stroke-linecap:round;stroke-linejoin:round;}
</style>
<g>
	<rect y="19.2" class="st0" width="153.3" height="88.4"/>
	<g>
		<path class="st1" d="M164.3,39.8c0-5.7,2.7-7.5,5.6-7.5c3.8,0,4.4,2.9,4.5,4.7l-1.3,0.1c-0.3-2.3-1.2-3.7-3.3-3.7
			c-2.6,0-4.2,1.9-4.2,6.2c0,4.6,1.4,6.4,3.9,6.4c2,0,3.1-1,3.5-3.2l1.2,0.3c-0.4,3.1-2.6,4.1-4.7,4.1
			C165.8,47.3,164.3,44.4,164.3,39.8"/>
		<path class="st1" d="M182.5,41.9c0-2.5-0.6-4.1-2.5-4.1c-2.2,0-2.7,2.2-2.7,4.2c0,2.7,0.9,4.2,2.6,4.2
			C181.7,46.2,182.5,44.7,182.5,41.9 M176,42c0-3.8,1.8-5.4,4.1-5.4c3,0,3.8,2.3,3.8,5.2c0,2.9-0.9,5.4-4,5.4
			C176.6,47.3,176,44.4,176,42"/>
		<path class="st1" d="M186.2,36.9h1.2l0.1,1.1c0.9-0.8,1.9-1.3,3-1.3c1.8,0,2.9,0.8,2.9,3.4v7H192v-6.9c0-1.4-0.3-2.3-1.7-2.3
			c-1.2,0-2.1,0.6-2.8,1.3v7.9h-1.3L186.2,36.9L186.2,36.9z"/>
		<path class="st1" d="M201.9,39.5l-1.3,0.2c-0.2-1.3-0.7-1.9-1.8-1.9c-1.3,0-1.8,0.7-1.8,1.7c0,2.8,5,0.9,5,4.9
			c0,1.6-1.1,2.9-3.3,2.9c-1.9,0-3.1-0.9-3.4-3.1l1.2-0.2c0.2,1.2,0.6,2.2,2.2,2.2c1.1,0,1.9-0.4,1.9-1.7c0-1.1-0.5-1.4-1.9-1.8
			c-2-0.6-3.1-1.1-3.1-3c0-2,1.5-2.9,3.1-2.9C200.7,36.7,201.6,37.7,201.9,39.5"/>
		<path class="st1" d="M209.7,41.1c0-1.9-0.5-3.3-2.1-3.3c-1.4,0-2.4,1.1-2.5,3.3H209.7z M203.7,42c0-4,1.9-5.3,3.9-5.3
			c2.6,0,3.5,1.9,3.5,4.3c0,0.4,0,0.8-0.1,1.2H205c0,2.9,1,4,2.6,4c1.3,0,1.8-0.7,2.1-2l1.2,0.2c-0.4,1.9-1.5,2.9-3.4,2.9
			C204.6,47.3,203.7,44.9,203.7,42"/>
		<path class="st1" d="M214.1,34.5c-0.6,0-1-0.4-1-1.1c0-0.7,0.4-1.1,1-1.1c0.6,0,1,0.4,1,1.1C215.1,34.1,214.7,34.5,214.1,34.5
			 M210.8,51.2l0.1-1.1c0.3,0.2,0.8,0.2,1.2,0.2c1,0,1.3-0.6,1.3-1.8V36.9h1.3v12c0,1.8-0.8,2.7-2.4,2.7
			C211.6,51.6,211.2,51.4,210.8,51.2"/>
		<path class="st1" d="M223.4,41.9c0-2.5-0.6-4.1-2.5-4.1c-2.2,0-2.7,2.2-2.7,4.2c0,2.7,0.9,4.2,2.6,4.2
			C222.6,46.2,223.4,44.7,223.4,41.9 M216.9,42c0-3.8,1.8-5.4,4.1-5.4c3,0,3.8,2.3,3.8,5.2c0,2.9-0.9,5.4-4,5.4
			C217.5,47.3,216.9,44.4,216.9,42"/>
	</g>
	<rect x="165.1" y="54" class="st1" width="1.3" height="14.5"/>
	<g>
		<path class="st1" d="M169.6,58.3h1.2l0.1,1.1c0.9-0.8,1.9-1.3,3-1.3c1.8,0,2.9,0.8,2.9,3.4v7h-1.3v-6.9c0-1.4-0.3-2.3-1.7-2.3
			c-1.2,0-2.1,0.6-2.8,1.3v7.9h-1.3L169.6,58.3L169.6,58.3z"/>
		<path class="st1" d="M183.9,68.2c-0.4,0.3-1.2,0.6-2,0.6c-1.7,0-2.4-0.8-2.4-2.7v-6.6h-1.3v-1.1h1.3v-2.9l1.3-0.2v3.1h2.4v1.1
			h-2.4v6.4c0,1.2,0.2,1.7,1.3,1.7c0.6,0,1.2-0.2,1.5-0.4L183.9,68.2z"/>
		<path class="st1" d="M190.8,62.5c0-1.9-0.5-3.3-2.1-3.3c-1.4,0-2.4,1.1-2.5,3.3H190.8z M184.8,63.4c0-4,1.9-5.3,3.9-5.3
			c2.6,0,3.5,1.9,3.5,4.3c0,0.4,0,0.8-0.1,1.2h-5.9c0,2.9,1,4,2.6,4c1.3,0,1.8-0.7,2.1-2l1.2,0.2c-0.4,1.9-1.5,2.9-3.4,2.9
			C185.7,68.8,184.8,66.4,184.8,63.4"/>
		<path class="st1" d="M198.8,59.5c-0.2,0-0.4-0.1-0.6-0.1c-1,0-1.9,0.5-2.5,1.2v7.9h-1.3V58.3h1.2l0.1,1.3c0.8-1.3,1.6-1.5,2.6-1.5
			c0.2,0,0.4,0,0.5,0L198.8,59.5L198.8,59.5L198.8,59.5z"/>
		<path class="st1" d="M200.4,58.3h1.3v7c0,1.6,0.5,2.2,1.6,2.2c1.1,0,2.1-0.7,2.8-1.3v-7.9h1.3v10.2h-1.2l-0.1-1.1
			c-0.8,0.7-1.6,1.3-3,1.3c-2,0-2.8-1.1-2.8-3.4L200.4,58.3L200.4,58.3z"/>
		<path class="st1" d="M210.3,58.3h1.2l0.1,1.1c0.9-0.8,1.9-1.3,3-1.3c1.8,0,2.9,0.8,2.9,3.4v7h-1.3v-6.9c0-1.4-0.3-2.3-1.7-2.3
			c-1.2,0-2.1,0.6-2.8,1.3v7.9h-1.3L210.3,58.3L210.3,58.3z"/>
		<path class="st1" d="M220.2,58.3h1.3v10.2h-1.3V58.3z M219.9,54.8c0-0.7,0.4-1.1,1-1.1c0.6,0,1,0.4,1,1.1c0,0.7-0.4,1.1-1,1.1
			C220.2,55.9,219.9,55.5,219.9,54.8"/>
	</g>
	<polygon class="st1" points="223,58.3 224.4,58.3 227,67 227,67 229.6,58.3 231,58.3 227.8,68.5 226.3,68.5 	"/>
	<g>
		<path class="st1" d="M237.9,62.5c0-1.9-0.5-3.3-2.1-3.3c-1.4,0-2.4,1.1-2.5,3.3H237.9z M231.8,63.4c0-4,1.9-5.3,3.9-5.3
			c2.6,0,3.5,1.9,3.5,4.3c0,0.4,0,0.8-0.1,1.2h-5.9c0,2.9,1,4,2.6,4c1.3,0,1.8-0.7,2.1-2l1.2,0.2c-0.4,1.9-1.5,2.9-3.4,2.9
			C232.7,68.8,231.8,66.4,231.8,63.4"/>
		<path class="st1" d="M245.9,59.5c-0.2,0-0.4-0.1-0.6-0.1c-1,0-1.9,0.5-2.5,1.2v7.9h-1.3V58.3h1.2l0.1,1.3c0.8-1.3,1.6-1.5,2.6-1.5
			c0.2,0,0.4,0,0.5,0L245.9,59.5L245.9,59.5L245.9,59.5z"/>
		<path class="st1" d="M253.1,61l-1.3,0.2c-0.2-1.3-0.7-1.9-1.8-1.9c-1.3,0-1.8,0.7-1.8,1.7c0,2.8,5,0.9,5,4.9
			c0,1.6-1.1,2.9-3.3,2.9c-1.9,0-3.1-0.9-3.4-3.1l1.2-0.2c0.2,1.2,0.6,2.2,2.2,2.2c1.1,0,1.9-0.4,1.9-1.7c0-1.1-0.5-1.4-1.9-1.8
			c-2-0.6-3.1-1.1-3.1-3c0-2,1.5-2.9,3.1-2.9C252,58.1,252.9,59.1,253.1,61"/>
		<path class="st1" d="M255.5,58.3h1.3v10.2h-1.3V58.3z M255.2,54.8c0-0.7,0.4-1.1,1-1.1c0.6,0,1,0.4,1,1.1c0,0.7-0.4,1.1-1,1.1
			C255.5,55.9,255.2,55.5,255.2,54.8"/>
		<path class="st1" d="M264.3,68.2c-0.4,0.3-1.2,0.6-2,0.6c-1.7,0-2.4-0.8-2.4-2.7v-6.6h-1.3v-1.1h1.3v-2.9l1.3-0.2v3.1h2.4v1.1
			h-2.4v6.4c0,1.2,0.2,1.7,1.3,1.7c0.6,0,1.2-0.2,1.5-0.4L264.3,68.2z"/>
		<path class="st1" d="M270.5,66.3v-2.6c-0.2,0-0.7-0.1-0.9-0.1c-1.2,0-3,0.1-3,2.2c0,1,0.4,1.9,1.6,1.9
			C269.1,67.7,270,67.1,270.5,66.3 M265.2,66c0-2.9,2.1-3.4,4.1-3.4c0.5,0,1,0,1.1,0.1v-1.2c0-1.7-0.5-2.3-1.8-2.3
			c-1.4,0-1.7,0.6-1.9,1.8l-1.3-0.2c0.3-1.9,1.2-2.7,3.2-2.7c2,0,3.1,0.7,3.1,3.5v5.3c0,0.6,0.1,0.8,0.5,0.8c0.2,0,0.3,0,0.5-0.1
			l0.1,0.9c-0.3,0.2-0.7,0.3-1.1,0.3c-0.7,0-1.2-0.4-1.2-1.3c-0.6,0.8-1.6,1.3-2.7,1.3C265.6,68.8,265.2,67,265.2,66"/>
		<path class="st1" d="M279.2,59.5c-0.2,0-0.4-0.1-0.6-0.1c-1,0-1.9,0.5-2.5,1.2v7.9h-1.3V58.3h1.2l0.1,1.3c0.8-1.3,1.6-1.5,2.6-1.5
			c0.2,0,0.4,0,0.5,0L279.2,59.5L279.2,59.5z"/>
		<path class="st1" d="M280.8,58.3h1.3v10.2h-1.3V58.3z M280.5,54.8c0-0.7,0.4-1.1,1-1.1c0.6,0,1,0.4,1,1.1c0,0.7-0.4,1.1-1,1.1
			C280.9,55.9,280.5,55.5,280.5,54.8"/>
		<path class="st1" d="M290.9,63.3c0-2.5-0.6-4.1-2.5-4.1c-2.2,0-2.7,2.2-2.7,4.2c0,2.7,0.9,4.2,2.6,4.2
			C290.1,67.6,290.9,66.1,290.9,63.3 M284.4,63.4c0-3.8,1.8-5.4,4.1-5.4c3,0,3.8,2.3,3.8,5.2c0,2.9-0.9,5.4-4,5.4
			C285,68.8,284.4,65.8,284.4,63.4"/>
	</g>
	<polygon class="st1" points="172.6,89.9 166.4,77 166.4,89.9 165.1,89.9 165.1,75.4 167,75.4 173,88.2 173,75.4 174.3,75.4 
		174.3,89.9 	"/>
	<g>
		<path class="st1" d="M182.1,87.7v-2.6c-0.2,0-0.7-0.1-0.9-0.1c-1.2,0-3,0.1-3,2.2c0,1,0.4,1.9,1.6,1.9
			C180.8,89.1,181.7,88.5,182.1,87.7 M176.9,87.4c0-2.9,2.1-3.4,4.1-3.4c0.5,0,1,0,1.1,0.1v-1.2c0-1.7-0.5-2.3-1.8-2.3
			c-1.4,0-1.7,0.6-1.9,1.8l-1.3-0.2c0.3-1.9,1.2-2.7,3.2-2.7c2,0,3.1,0.7,3.1,3.5v5.3c0,0.6,0.1,0.8,0.5,0.8c0.2,0,0.3,0,0.5-0.1
			l0.1,0.9c-0.3,0.2-0.7,0.3-1.1,0.3c-0.7,0-1.2-0.4-1.2-1.3c-0.6,0.8-1.6,1.3-2.7,1.3C177.3,90.2,176.9,88.4,176.9,87.4"/>
		<path class="st1" d="M185.7,84.9c0-3.7,1.5-5.4,4-5.4c2.2,0,3.2,1.4,3.3,3.4l-1.3,0.2c-0.2-1.6-0.8-2.4-2-2.4
			c-1.8,0-2.6,1.2-2.6,4.1c0,2.8,0.9,4.2,2.6,4.2c1.3,0,2-0.7,2.2-2.3l1.2,0.3c-0.2,1.6-1.1,3.2-3.5,3.2
			C186.8,90.2,185.7,88,185.7,84.9"/>
		<path class="st1" d="M195.2,79.7h1.3v10.2h-1.3V79.7z M194.9,76.3c0-0.7,0.4-1.1,1-1.1c0.6,0,1,0.4,1,1.1s-0.4,1.1-1,1.1
			C195.2,77.3,194.9,76.9,194.9,76.3"/>
		<path class="st1" d="M205.3,84.7c0-2.5-0.6-4.1-2.5-4.1c-2.2,0-2.7,2.2-2.7,4.2c0,2.7,0.9,4.2,2.6,4.2
			C204.5,89.1,205.3,87.6,205.3,84.7 M198.7,84.9c0-3.8,1.8-5.4,4.1-5.4c3,0,3.8,2.3,3.8,5.2c0,2.9-0.9,5.4-4,5.4
			C199.3,90.2,198.7,87.3,198.7,84.9"/>
		<path class="st1" d="M208.9,79.7h1.2l0.1,1.1c0.9-0.8,1.9-1.3,3-1.3c1.8,0,2.9,0.8,2.9,3.4v7h-1.3V83c0-1.4-0.3-2.3-1.7-2.3
			c-1.2,0-2.1,0.6-2.8,1.3v7.9h-1.3L208.9,79.7L208.9,79.7z"/>
		<path class="st1" d="M223.6,87.7v-2.6c-0.2,0-0.7-0.1-0.9-0.1c-1.2,0-3,0.1-3,2.2c0,1,0.4,1.9,1.6,1.9
			C222.2,89.1,223.1,88.5,223.6,87.7 M218.4,87.4c0-2.9,2.1-3.4,4.1-3.4c0.5,0,1,0,1.1,0.1v-1.2c0-1.7-0.5-2.3-1.8-2.3
			c-1.4,0-1.7,0.6-1.9,1.8l-1.3-0.2c0.3-1.9,1.2-2.7,3.2-2.7c2,0,3.1,0.7,3.1,3.5v5.3c0,0.6,0.1,0.8,0.5,0.8c0.2,0,0.3,0,0.5-0.1
			l0.1,0.9c-0.3,0.2-0.7,0.3-1.1,0.3c-0.7,0-1.2-0.4-1.2-1.3c-0.6,0.8-1.6,1.3-2.7,1.3C218.7,90.2,218.4,88.4,218.4,87.4"/>
	</g>
	<rect x="227.9" y="74.8" class="st1" width="1.3" height="15.1"/>
	<rect x="81.6" y="54.3" class="st1" width="10.3" height="35.6"/>
	<polygon class="st1" points="125.2,89.9 112.1,60.1 112.1,89.9 102.4,89.9 102.4,36.9 112.9,36.9 125.9,69 125.9,36.9 135.6,36.9 
		135.6,89.9 	"/>
	<g>
		<path class="st1" d="M62.1,71h10.3v5c0,9.9-5.4,15.1-15.4,15.1c-9.9,0-15.8-5.2-15.8-15.1V50.6c0-9.9,5.8-15,15.8-15
			c9.9,0,15.4,5,15.4,15v3.7H62.1v-3.7c0-4.1-0.6-6.8-5-6.8c-4.4,0-5.4,2.7-5.4,6.8v25.6c0,4.1,1.3,6.8,5.4,6.8c4.1,0,5-2.7,5-6.8
			V71z"/>
		<path class="st1" d="M80.7,41.6c0-3.4,2.7-6.1,6.1-6.1s6.1,2.7,6.1,6.1c0,3.4-2.7,6.1-6.1,6.1S80.7,45,80.7,41.6"/>
	</g>
	<path class="st2" d="M0,107.6L0,107.6"/>
</g>
</svg>
