<?xml version="1.0" encoding="utf-8"?>
<!-- Generator: Adobe Illustrator 16.0.0, SVG Export Plug-In . SVG Version: 6.00 Build 0)  -->
<!DOCTYPE svg PUBLIC "-//W3C//DTD SVG 1.1//EN" "http://www.w3.org/Graphics/SVG/1.1/DTD/svg11.dtd">
<svg version="1.1" id="Layer_1" xmlns="http://www.w3.org/2000/svg" xmlns:xlink="http://www.w3.org/1999/xlink" x="0px" y="0px"
	 width="292.296px" height="125.045px" viewBox="122.844 122.167 292.296 125.045"
	 enable-background="new 122.844 122.167 292.296 125.045" xml:space="preserve">
<g>
	<rect x="130.603" y="144.417" fill="#231F20" width="143.928" height="83.026"/>
	<g>
		<path fill="#231F20" d="M284.867,163.809c0-5.339,2.539-7.049,5.246-7.049c3.607,0,4.133,2.706,4.246,4.436l-1.184,0.113
			c-0.246-2.2-1.109-3.438-3.062-3.438c-2.465,0-3.93,1.746-3.93,5.846c0,4.341,1.334,6.012,3.703,6.012
			c1.859,0,2.875-0.901,3.271-3.024l1.107,0.244c-0.414,2.894-2.463,3.89-4.455,3.89
			C286.24,170.838,284.867,168.058,284.867,163.809"/>
		<path fill="#231F20" d="M301.914,165.727c0-2.369-0.545-3.817-2.348-3.817c-2.068,0-2.502,2.069-2.502,3.948
			c0,2.575,0.809,3.928,2.482,3.928C301.181,169.785,301.914,168.375,301.914,165.727 M295.787,165.858
			c0-3.609,1.691-5.036,3.836-5.036c2.781,0,3.59,2.141,3.59,4.905c0,2.762-0.865,5.111-3.797,5.111
			C296.351,170.838,295.787,168.115,295.787,165.858"/>
		<path fill="#231F20" d="M305.373,161.009h1.09l0.113,1.07c0.846-0.75,1.748-1.258,2.781-1.258c1.729,0,2.744,0.733,2.744,3.214
			v6.579h-1.26v-6.505c0-1.297-0.244-2.161-1.561-2.161c-1.107,0-1.975,0.601-2.65,1.242v7.424h-1.258V161.009L305.373,161.009z"/>
		<path fill="#231F20" d="M320.109,163.527l-1.186,0.17c-0.15-1.261-0.619-1.823-1.729-1.823c-1.223,0-1.654,0.64-1.654,1.615
			c0,2.595,4.719,0.829,4.719,4.644c0,1.522-1.053,2.706-3.082,2.706c-1.805,0-2.934-0.827-3.178-2.932l1.146-0.188
			c0.188,1.127,0.602,2.048,2.105,2.048c0.996,0,1.766-0.395,1.766-1.617c0-1.031-0.488-1.334-1.803-1.709
			c-1.861-0.526-2.934-1.015-2.934-2.857c0-1.915,1.41-2.762,2.934-2.762C319.037,160.822,319.882,161.779,320.109,163.527"/>
		<path fill="#231F20" d="M327.476,165.011c0-1.805-0.432-3.138-1.99-3.138c-1.299,0-2.293,1.015-2.369,3.138H327.476z
			 M321.8,165.82c0-3.72,1.785-4.998,3.701-4.998c2.406,0,3.252,1.783,3.252,4.078c0,0.375-0.018,0.734-0.074,1.127h-5.582
			c0.037,2.727,0.939,3.74,2.48,3.74c1.203,0,1.729-0.678,1.955-1.881l1.127,0.229c-0.357,1.766-1.371,2.724-3.176,2.724
			C322.646,170.838,321.8,168.602,321.8,165.82"/>
		<path fill="#231F20" d="M331.554,158.772c-0.584,0-0.92-0.357-0.92-0.996c0-0.639,0.355-0.998,0.938-0.998
			c0.602,0,0.922,0.359,0.922,0.998C332.494,158.416,332.156,158.772,331.554,158.772 M328.472,174.503l0.133-1.034
			c0.318,0.151,0.787,0.229,1.09,0.229c0.957,0,1.203-0.585,1.203-1.674v-11.015h1.26v11.259c0,1.729-0.771,2.536-2.256,2.536
			C329.281,174.804,328.83,174.69,328.472,174.503"/>
		<path fill="#231F20" d="M340.332,165.727c0-2.369-0.545-3.817-2.35-3.817c-2.066,0-2.5,2.069-2.5,3.948
			c0,2.575,0.809,3.928,2.48,3.928C339.599,169.785,340.332,168.375,340.332,165.727 M334.205,165.858
			c0-3.609,1.691-5.036,3.834-5.036c2.781,0,3.59,2.141,3.59,4.905c0,2.762-0.865,5.111-3.797,5.111
			C334.767,170.838,334.205,168.115,334.205,165.858"/>
	</g>
	<rect x="285.619" y="177.117" fill="#231F20" width="1.26" height="13.608"/>
	<g>
		<path fill="#231F20" d="M289.791,181.121h1.09l0.113,1.069c0.846-0.749,1.748-1.261,2.781-1.261c1.73,0,2.744,0.734,2.744,3.217
			v6.577h-1.258v-6.502c0-1.296-0.246-2.161-1.561-2.161c-1.109,0-1.975,0.602-2.65,1.24v7.423h-1.26V181.121L289.791,181.121z"/>
		<path fill="#231F20" d="M303.23,190.387c-0.396,0.318-1.127,0.562-1.879,0.562c-1.58,0-2.275-0.77-2.275-2.574v-6.202h-1.26
			v-1.053h1.26v-2.766l1.26-0.188v2.952h2.236v1.053h-2.236v6.033c0,1.09,0.189,1.637,1.186,1.637c0.545,0,1.107-0.168,1.445-0.412
			L303.23,190.387z"/>
		<path fill="#231F20" d="M309.753,185.123c0-1.803-0.434-3.138-1.994-3.138c-1.297,0-2.291,1.015-2.367,3.138H309.753z
			 M304.076,185.932c0-3.72,1.787-5.001,3.703-5.001c2.404,0,3.252,1.787,3.252,4.08c0,0.377-0.02,0.733-0.076,1.126h-5.58
			c0.035,2.727,0.939,3.743,2.479,3.743c1.203,0,1.73-0.678,1.955-1.879l1.129,0.223c-0.357,1.771-1.373,2.729-3.178,2.729
			C304.921,190.95,304.076,188.715,304.076,185.932"/>
		<path fill="#231F20" d="M317.271,182.266c-0.189-0.035-0.377-0.054-0.547-0.054c-0.939,0-1.785,0.449-2.348,1.105v7.406h-1.26
			v-9.603h1.09l0.133,1.2c0.732-1.2,1.521-1.392,2.48-1.392c0.148,0,0.355,0.021,0.449,0.039v1.298H317.271z"/>
		<path fill="#231F20" d="M318.753,181.121h1.26v6.614c0,1.502,0.51,2.051,1.523,2.051c1.07,0,2.01-0.658,2.594-1.24v-7.424h1.26
			v9.604h-1.09l-0.094-1.07c-0.771,0.695-1.523,1.26-2.783,1.26c-1.896,0-2.67-1.053-2.67-3.156V181.121z"/>
		<path fill="#231F20" d="M328.001,181.121h1.092l0.113,1.069c0.844-0.749,1.746-1.261,2.779-1.261c1.73,0,2.744,0.734,2.744,3.217
			v6.577h-1.258v-6.502c0-1.296-0.246-2.161-1.561-2.161c-1.109,0-1.975,0.602-2.65,1.24v7.423h-1.26V181.121L328.001,181.121z"/>
		<path fill="#231F20" d="M337.304,181.121h1.264v9.604h-1.264V181.121z M337.005,177.89c0-0.64,0.338-0.996,0.939-0.996
			c0.584,0,0.922,0.356,0.922,0.996c0,0.637-0.338,0.996-0.922,0.996C337.343,178.886,337.005,178.526,337.005,177.89"/>
	</g>
	<polygon fill="#231F20" points="339.937,181.121 341.308,181.121 343.714,189.315 343.751,189.315 346.16,181.121 347.435,181.121 
		344.447,190.725 343.039,190.725 	"/>
	<g>
		<path fill="#231F20" d="M353.92,185.123c0-1.803-0.432-3.138-1.991-3.138c-1.297,0-2.293,1.015-2.369,3.138H353.92z
			 M348.244,185.932c0-3.72,1.787-5.001,3.703-5.001c2.405,0,3.251,1.787,3.251,4.08c0,0.377-0.02,0.733-0.074,1.126h-5.583
			c0.039,2.727,0.939,3.743,2.482,3.743c1.2,0,1.728-0.678,1.952-1.879l1.129,0.223c-0.357,1.771-1.371,2.729-3.177,2.729
			C349.091,190.95,348.244,188.715,348.244,185.932"/>
		<path fill="#231F20" d="M361.438,182.266c-0.188-0.035-0.377-0.054-0.545-0.054c-0.939,0-1.787,0.449-2.35,1.105v7.406h-1.26
			v-9.603h1.09l0.131,1.2c0.734-1.2,1.523-1.392,2.482-1.392c0.148,0,0.355,0.021,0.449,0.039v1.298H361.438z"/>
		<path fill="#231F20" d="M368.243,183.64l-1.186,0.169c-0.15-1.261-0.619-1.822-1.73-1.822c-1.221,0-1.652,0.64-1.652,1.614
			c0,2.596,4.717,0.829,4.717,4.646c0,1.52-1.051,2.705-3.082,2.705c-1.805,0-2.932-0.826-3.176-2.934l1.146-0.188
			c0.188,1.127,0.602,2.049,2.105,2.049c0.994,0,1.766-0.396,1.766-1.617c0-1.031-0.488-1.334-1.803-1.711
			c-1.861-0.524-2.934-1.015-2.934-2.854c0-1.915,1.41-2.766,2.934-2.766C367.17,180.931,368.016,181.892,368.243,183.64"/>
		<path fill="#231F20" d="M370.459,181.121h1.258v9.604h-1.258V181.121z M370.161,177.89c0-0.64,0.336-0.996,0.938-0.996
			c0.582,0,0.92,0.356,0.92,0.996c0,0.637-0.338,0.996-0.92,0.996C370.497,178.886,370.161,178.526,370.161,177.89"/>
		<path fill="#231F20" d="M378.692,190.387c-0.395,0.318-1.129,0.562-1.879,0.562c-1.58,0-2.275-0.77-2.275-2.574v-6.202h-1.258
			v-1.053h1.258v-2.766l1.26-0.188v2.952h2.236v1.053h-2.236v6.033c0,1.09,0.189,1.637,1.186,1.637c0.545,0,1.107-0.168,1.445-0.412
			L378.692,190.387z"/>
		<path fill="#231F20" d="M384.538,188.659v-2.445c-0.15-0.038-0.621-0.095-0.863-0.095c-1.129,0-2.822,0.095-2.822,2.051
			c0,0.938,0.342,1.783,1.508,1.783C383.241,189.954,384.086,189.354,384.538,188.659 M379.614,188.358
			c0-2.726,2.01-3.231,3.871-3.231c0.469,0,0.9,0.035,1.053,0.074v-1.092c0-1.614-0.488-2.144-1.654-2.144
			c-1.314,0-1.617,0.582-1.805,1.709l-1.184-0.223c0.264-1.787,1.127-2.521,2.986-2.521c1.863,0,2.916,0.681,2.916,3.291v4.962
			c0,0.525,0.074,0.752,0.486,0.752c0.148,0,0.283-0.039,0.49-0.111l0.074,0.809c-0.318,0.188-0.678,0.262-1.053,0.262
			c-0.697,0-1.129-0.375-1.166-1.184c-0.582,0.752-1.465,1.24-2.557,1.24C379.969,190.95,379.614,189.28,379.614,188.358"/>
		<path fill="#231F20" d="M392.731,182.266c-0.188-0.035-0.375-0.054-0.545-0.054c-0.938,0-1.785,0.449-2.35,1.105v7.406h-1.258
			v-9.603h1.09l0.131,1.2c0.732-1.2,1.523-1.392,2.48-1.392c0.15,0,0.357,0.021,0.451,0.039V182.266L392.731,182.266z"/>
		<path fill="#231F20" d="M394.252,181.121h1.262v9.604h-1.262V181.121z M393.954,177.89c0-0.64,0.338-0.996,0.939-0.996
			c0.582,0,0.92,0.356,0.92,0.996c0,0.637-0.338,0.996-0.92,0.996C394.292,178.886,393.954,178.526,393.954,177.89"/>
		<path fill="#231F20" d="M403.709,185.839c0-2.369-0.547-3.816-2.352-3.816c-2.066,0-2.5,2.068-2.5,3.948
			c0,2.575,0.809,3.926,2.482,3.926C402.975,189.897,403.709,188.489,403.709,185.839 M397.581,185.971
			c0-3.609,1.691-5.04,3.836-5.04c2.779,0,3.59,2.144,3.59,4.908c0,2.763-0.865,5.111-3.797,5.111
			C398.145,190.95,397.581,188.223,397.581,185.971"/>
	</g>
	<polygon fill="#231F20" points="292.611,210.837 286.785,198.656 286.785,210.837 285.619,210.837 285.619,197.229 
		287.386,197.229 293.042,209.238 293.042,197.229 294.208,197.229 294.208,210.837 	"/>
	<g>
		<path fill="#231F20" d="M301.595,208.771v-2.443c-0.148-0.039-0.621-0.096-0.863-0.096c-1.129,0-2.818,0.096-2.818,2.051
			c0,0.938,0.338,1.785,1.502,1.785C300.298,210.068,301.144,209.466,301.595,208.771 M296.671,208.47
			c0-2.727,2.01-3.234,3.869-3.234c0.471,0,0.904,0.039,1.055,0.078v-1.094c0-1.615-0.486-2.143-1.652-2.143
			c-1.316,0-1.617,0.584-1.807,1.711l-1.184-0.227c0.264-1.785,1.127-2.52,2.988-2.52c1.859,0,2.914,0.682,2.914,3.291v4.959
			c0,0.529,0.074,0.756,0.488,0.756c0.15,0,0.281-0.039,0.488-0.115l0.076,0.812c-0.32,0.188-0.678,0.262-1.055,0.262
			c-0.695,0-1.127-0.375-1.164-1.186c-0.582,0.752-1.469,1.24-2.559,1.24C297.027,211.064,296.671,209.39,296.671,208.47"/>
		<path fill="#231F20" d="M304.978,206.101c0-3.496,1.428-5.057,3.797-5.057c2.086,0,3.006,1.334,3.1,3.213l-1.221,0.17
			c-0.15-1.541-0.75-2.236-1.898-2.236c-1.652,0-2.461,1.127-2.461,3.855c0,2.668,0.883,3.926,2.424,3.926
			c1.24,0,1.861-0.639,2.068-2.16l1.146,0.246c-0.207,1.541-1.033,3.006-3.27,3.006
			C305.937,211.064,304.978,208.998,304.978,206.101"/>
		<path fill="#231F20" d="M313.849,201.232h1.262v9.605h-1.262V201.232z M313.548,198c0-0.639,0.338-0.997,0.941-0.997
			c0.582,0,0.92,0.358,0.92,0.997s-0.338,0.996-0.92,0.996C313.886,198.996,313.548,198.638,313.548,198"/>
		<path fill="#231F20" d="M323.304,205.949c0-2.365-0.547-3.812-2.35-3.812c-2.068,0-2.502,2.068-2.502,3.947
			c0,2.576,0.809,3.928,2.482,3.928C322.57,210.011,323.304,208.601,323.304,205.949 M317.175,206.083
			c0-3.609,1.691-5.039,3.834-5.039c2.783,0,3.592,2.143,3.592,4.904c0,2.766-0.865,5.113-3.799,5.113
			C317.74,211.064,317.175,208.337,317.175,206.083"/>
		<path fill="#231F20" d="M326.761,201.232h1.09l0.113,1.07c0.846-0.75,1.748-1.258,2.781-1.258c1.729,0,2.744,0.732,2.744,3.213
			v6.58h-1.258v-6.502c0-1.297-0.246-2.162-1.562-2.162c-1.107,0-1.973,0.602-2.648,1.24v7.424h-1.26V201.232L326.761,201.232z"/>
		<path fill="#231F20" d="M340.519,208.771v-2.443c-0.148-0.039-0.619-0.096-0.861-0.096c-1.129,0-2.82,0.096-2.82,2.051
			c0,0.938,0.338,1.785,1.504,1.785C339.222,210.068,340.068,209.466,340.519,208.771 M335.595,208.47
			c0-2.727,2.012-3.234,3.871-3.234c0.471,0,0.902,0.039,1.053,0.078v-1.094c0-1.615-0.486-2.143-1.652-2.143
			c-1.316,0-1.617,0.584-1.805,1.711l-1.184-0.227c0.262-1.785,1.127-2.52,2.986-2.52c1.861,0,2.914,0.682,2.914,3.291v4.959
			c0,0.529,0.074,0.756,0.488,0.756c0.15,0,0.281-0.039,0.488-0.115l0.074,0.812c-0.318,0.188-0.676,0.262-1.051,0.262
			c-0.697,0-1.129-0.375-1.166-1.186c-0.582,0.752-1.467,1.24-2.559,1.24C335.953,211.064,335.595,209.39,335.595,208.47"/>
	</g>
	<rect x="344.58" y="196.647" fill="#231F20" width="1.26" height="14.19"/>
	<rect x="207.173" y="177.384" fill="#FFFFFF" width="9.696" height="33.454"/>
	<polygon fill="#FFFFFF" points="248.107,210.837 235.865,182.839 235.865,210.837 226.775,210.837 226.775,161.021 
		236.591,161.021 248.833,191.202 248.833,161.021 257.923,161.021 257.923,210.837 	"/>
	<g>
		<path fill="#FFFFFF" d="M188.867,193.02h9.696v4.729c0,9.334-5.089,14.18-14.423,14.18c-9.333,0-14.787-4.846-14.787-14.18V173.87
			c0-9.334,5.455-14.061,14.787-14.061c9.334,0,14.423,4.726,14.423,14.061v3.515h-9.696v-3.515c0-3.879-0.605-6.425-4.727-6.425
			c-4.12,0-5.09,2.546-5.09,6.425v23.999c0,3.879,1.212,6.424,5.09,6.424c3.879,0,4.727-2.545,4.727-6.424V193.02z"/>
		<path fill="#FFFFFF" d="M206.325,165.506c0-3.152,2.545-5.696,5.696-5.696s5.697,2.544,5.697,5.696
			c0,3.149-2.546,5.696-5.697,5.696S206.325,168.656,206.325,165.506"/>
	</g>
	<path fill="none" stroke="#00ADEE" stroke-width="0.3459" stroke-linecap="round" stroke-linejoin="round" d="M130.604,227.433
		L130.604,227.433"/>
</g>
</svg>
