<svg width="225" height="77.7" xmlns="http://www.w3.org/2000/svg" xml:space="preserve" enable-background="new 0 0 595.28 841.89" version="1.1">

 <g>
  <title>Layer 1</title>
  <rect id="svg_1" height="123.486" width="245.86" fill="none" y="359.408" x="175.572"/>
  <g id="svg_2">
   <path id="svg_3" d="m3.18,58.717c-1.327,-0.887 -2.263,-2.51 -2.263,-4.281c0,-2.953 2.499,-5.243 5.612,-5.243c1.565,0 2.649,0.517 3.437,1.034c4.131,2.879 8.661,4.652 13.969,4.652c4.912,0 7.876,-1.845 7.876,-4.874l0,-0.147c0,-2.878 -1.872,-4.355 -10.999,-6.574c-11.007,-2.657 -18.101,-5.54 -18.101,-15.798l0,-0.151c0,-9.381 7.958,-15.58 19.107,-15.58c6.639,0 12.409,1.624 17.327,4.578c1.321,0.733 2.649,2.289 2.649,4.507c0,2.951 -2.494,5.24 -5.615,5.24c-1.167,0 -2.109,-0.293 -3.042,-0.812c-3.981,-2.218 -7.721,-3.47 -11.468,-3.47c-4.604,0 -7.023,1.992 -7.023,4.5l0,0.153c0,3.394 2.337,4.504 11.781,6.793c11.079,2.729 17.324,6.496 17.324,15.505l0,0.146c0,10.266 -8.272,16.027 -20.051,16.027c-7.182,0.002 -14.441,-2.073 -20.52,-6.205z" fill="#FFFFFF"/>
   <path id="svg_4" d="m83.465,60.119c0,2.439 -2.103,4.434 -4.758,4.434c-2.569,0 -4.756,-1.923 -4.756,-4.434l0,-1.992c-2.65,3.694 -6.479,6.867 -12.871,6.867c-9.279,0 -14.666,-5.906 -14.666,-14.99l0,-20.75c0,-2.515 2.102,-4.507 4.679,-4.507c2.652,0 4.755,1.993 4.755,4.507l0,18.087c0,6.059 3.206,9.454 8.82,9.454c5.459,0 9.284,-3.544 9.284,-9.601l0,-17.941c0,-2.515 2.11,-4.507 4.756,-4.507c2.581,0 4.758,1.993 4.758,4.507l-0.001,30.866l0,0z" fill="#FFFFFF"/>
   <path id="svg_5" d="m86.522,16.479c0,-2.507 2.024,-4.428 4.679,-4.428c2.654,0 4.757,1.921 4.757,4.428l0,15.212c3.046,-4.062 7.334,-7.314 14.044,-7.314c9.669,0 19.119,7.239 19.119,20.233l0,0.149c0,12.924 -9.371,20.234 -19.119,20.234c-6.867,0 -11.159,-3.248 -14.044,-6.867l0,1.992c0,2.439 -2.103,4.434 -4.757,4.434c-2.576,0 -4.679,-1.994 -4.679,-4.434l0,-43.639zm33,28.283l0,-0.15c0,-7.529 -5.381,-12.476 -11.783,-12.476c-6.397,0 -12.013,5.021 -12.013,12.476l0,0.15c0,7.457 5.615,12.479 12.013,12.479c6.481,-0.001 11.783,-4.798 11.783,-12.479z" fill="#FFFFFF"/>
   <path id="svg_6" d="m142.322,60.492l-17.71,-40.099c-0.392,-0.888 -0.707,-1.771 -0.707,-2.731c0,-3.176 2.653,-5.612 6.006,-5.612c3.12,0 5.148,1.696 6.089,3.985l13.651,33.45l13.809,-33.818c0.785,-1.85 2.889,-3.617 5.776,-3.617c3.271,0 5.927,2.364 5.927,5.459c0,0.887 -0.315,1.848 -0.621,2.513l-17.865,40.467c-1.253,2.805 -3.147,4.031 -6.432,4.031l-0.773,0c-3.276,0.001 -5.905,-1.223 -7.15,-4.028z" fill="#FFFFFF"/>
   <path id="svg_7" d="m195.011,23.104l-11.544,0c-3.047,0 -5.543,-2.36 -5.543,-5.243c0,-2.876 2.496,-5.244 5.543,-5.244l35.106,0c3.044,0 5.543,2.367 5.543,5.244c0,2.883 -2.499,5.243 -5.543,5.243l-11.551,0l0,35.962c0,3.176 -2.639,4.916 -5.997,4.916c-3.354,0 -6.015,-1.74 -6.015,-4.916l0,-35.962l0.001,0z" fill="#FFFFFF"/>
  </g>
 </g>
</svg>