<?xml version="1.0" encoding="utf-8"?>
<!-- Generator: Adobe Illustrator 26.4.1, SVG Export Plug-In . SVG Version: 6.00 Build 0)  -->
<svg version="1.1" id="Layer_1" xmlns="http://www.w3.org/2000/svg" xmlns:xlink="http://www.w3.org/1999/xlink" x="0px" y="0px"
	 viewBox="0 0 353.1 227.8" style="enable-background:new 0 0 353.1 227.8;" xml:space="preserve">
<style type="text/css">
	.st0{fill:#00A79D;}
	.st1{fill:url(#SVGID_1_);}
</style>
<g>
	<g>
		<g>
			<path class="st0" d="M0,216.3L0,216.3c0-6.4,4.7-11.6,11.3-11.6c4.1,0,6.5,1.4,8.7,3.5l-1.7,1.9c-1.9-1.8-4-3.1-7-3.1
				c-5,0-8.7,4-8.7,9.2v0.1c0,5.2,3.7,9.2,8.7,9.2c3.1,0,5.1-1.2,7.2-3.2l1.7,1.6c-2.3,2.4-4.9,3.9-8.9,3.9
				C4.8,227.8,0,222.7,0,216.3z"/>
			<path class="st0" d="M22.8,219.2L22.8,219.2c0-4.7,3.6-8.7,8.6-8.7c5,0,8.6,3.9,8.6,8.6v0.1c0,4.7-3.7,8.6-8.7,8.6
				C26.4,227.8,22.8,223.9,22.8,219.2z M37.5,219.2L37.5,219.2c0-3.6-2.7-6.5-6.1-6.5c-3.6,0-6,2.9-6,6.4v0.1c0,3.5,2.6,6.4,6.1,6.4
				C35,225.6,37.5,222.7,37.5,219.2z"/>
			<path class="st0" d="M44.5,210.9h2.5v2.8c1.1-1.6,2.6-3.1,5.3-3.1c2.7,0,4.4,1.4,5.3,3.3c1.2-1.8,2.9-3.3,5.8-3.3
				c3.8,0,6.1,2.6,6.1,6.6v10.2h-2.5v-9.7c0-3.2-1.6-5-4.3-5c-2.5,0-4.5,1.9-4.5,5.1v9.5h-2.5v-9.7c0-3.1-1.6-4.9-4.2-4.9
				s-4.6,2.2-4.6,5.2v9.4h-2.5V210.9z"/>
			<path class="st0" d="M74.9,204.5h2.8v2.7h-2.8V204.5z M75.1,210.9h2.5v16.5h-2.5V210.9z"/>
			<path class="st0" d="M84.1,223v-10h-2.3v-2.2h2.3v-5h2.5v5h5.2v2.2h-5.2v9.7c0,2,1.1,2.7,2.8,2.7c0.8,0,1.5-0.2,2.4-0.6v2.1
				c-0.9,0.4-1.8,0.7-3,0.7C86.2,227.7,84.1,226.4,84.1,223z"/>
			<path class="st0" d="M94.7,219.2L94.7,219.2c0-4.8,3.4-8.7,7.9-8.7c4.9,0,7.7,3.9,7.7,8.7c0,0.3,0,0.5,0,0.8H97.2
				c0.4,3.6,2.9,5.6,5.8,5.6c2.3,0,3.9-0.9,5.2-2.3l1.5,1.4c-1.7,1.9-3.7,3.1-6.8,3.1C98.4,227.8,94.7,224.3,94.7,219.2z
				 M107.8,218.2c-0.3-3-2-5.6-5.3-5.6c-2.9,0-5,2.4-5.4,5.6H107.8z M104.6,203.7l2.6,1.2l-3.6,3.5h-1.9L104.6,203.7z"/>
			<path class="st0" d="M123.3,219.2L123.3,219.2c0-5.5,3.9-8.7,7.9-8.7c3.1,0,5,1.7,6.3,3.5v-10h2.5v23.3h-2.5v-3.3
				c-1.3,2-3.3,3.7-6.3,3.7C127.2,227.7,123.3,224.6,123.3,219.2z M137.6,219.1L137.6,219.1c0-3.9-2.9-6.4-6-6.4
				c-3.2,0-5.8,2.4-5.8,6.4v0.1c0,3.9,2.7,6.4,5.8,6.4C134.7,225.5,137.6,222.9,137.6,219.1z"/>
			<path class="st0" d="M144.4,219.2L144.4,219.2c0-4.8,3.4-8.7,7.9-8.7c4.9,0,7.7,3.9,7.7,8.7c0,0.3,0,0.5,0,0.8h-13.1
				c0.4,3.6,2.9,5.6,5.8,5.6c2.3,0,3.9-0.9,5.2-2.3l1.5,1.4c-1.7,1.9-3.7,3.1-6.8,3.1C148.1,227.8,144.4,224.3,144.4,219.2z
				 M157.5,218.2c-0.3-3-2-5.6-5.3-5.6c-2.9,0-5,2.4-5.4,5.6H157.5z"/>
			<path class="st0" d="M172.4,205h2.8l8,19.3l8-19.3h2.7l-9.6,22.5h-2.2L172.4,205z"/>
			<path class="st0" d="M197.3,204.5h2.8v2.7h-2.8V204.5z M197.5,210.9h2.5v16.5h-2.5V210.9z"/>
			<path class="st0" d="M205.7,210.9h2.5v2.9c1.1-1.8,2.8-3.2,5.7-3.2c4,0,6.3,2.7,6.3,6.6v10.3h-2.5v-9.7c0-3.1-1.7-5-4.6-5
				c-2.8,0-5,2.1-5,5.2v9.5h-2.5L205.7,210.9L205.7,210.9z"/>
			<path class="st0" d="M224.3,219.2L224.3,219.2c0-4.7,3.6-8.7,8.5-8.7c3.1,0,5.1,1.3,6.6,2.9l-1.6,1.7c-1.3-1.4-2.8-2.5-5-2.5
				c-3.4,0-5.9,2.8-5.9,6.4v0.1c0,3.6,2.6,6.4,6.1,6.4c2.1,0,3.7-1.1,5-2.5l1.6,1.5c-1.7,1.9-3.6,3.2-6.7,3.2
				C228,227.8,224.3,223.8,224.3,219.2z"/>
			<path class="st0" d="M243.4,221.1v-10.3h2.5v9.7c0,3.1,1.7,5,4.6,5c2.8,0,5-2.1,5-5.2v-9.5h2.4v16.5h-2.4v-2.9
				c-1.1,1.8-2.8,3.2-5.7,3.2C245.7,227.7,243.4,225.1,243.4,221.1z"/>
			<path class="st0" d="M263.5,204.1h2.5v23.3h-2.5V204.1z"/>
			<path class="st0" d="M270.5,222.6L270.5,222.6c0-3.5,2.9-5.4,7.1-5.4c2.1,0,3.6,0.3,5.1,0.7v-0.6c0-3-1.8-4.5-4.9-4.5
				c-1.9,0-3.5,0.5-5,1.2l-0.7-2c1.8-0.8,3.6-1.4,6-1.4c2.3,0,4.1,0.6,5.3,1.8c1.1,1.1,1.7,2.7,1.7,4.8v10.1h-2.4v-2.5
				c-1.2,1.5-3.1,2.8-6,2.8C273.6,227.7,270.5,226,270.5,222.6z M282.6,221.3v-1.6c-1.2-0.4-2.8-0.7-4.9-0.7c-3.1,0-4.8,1.3-4.8,3.4
				v0.1c0,2.1,1.9,3.3,4.2,3.3C280.1,225.8,282.6,223.9,282.6,221.3z"/>
			<path class="st0" d="M289.2,219.2L289.2,219.2c0-4.7,3.6-8.7,8.5-8.7c3.1,0,5.1,1.3,6.6,2.9l-1.6,1.7c-1.3-1.4-2.8-2.5-5-2.5
				c-3.4,0-5.9,2.8-5.9,6.4v0.1c0,3.6,2.6,6.4,6.1,6.4c2.1,0,3.7-1.1,5-2.5l1.6,1.5c-1.7,1.9-3.6,3.2-6.7,3.2
				C292.8,227.8,289.2,223.8,289.2,219.2z"/>
			<path class="st0" d="M308.5,204.5h2.8v2.7h-2.8V204.5z M308.7,210.9h2.5v16.5h-2.5V210.9z"/>
			<path class="st0" d="M315.8,219.2L315.8,219.2c0-4.7,3.6-8.7,8.6-8.7c5,0,8.6,3.9,8.6,8.6v0.1c0,4.7-3.7,8.6-8.7,8.6
				C319.4,227.8,315.8,223.9,315.8,219.2z M330.5,219.2L330.5,219.2c0-3.6-2.7-6.5-6.1-6.5c-3.6,0-6,2.9-6,6.4v0.1
				c0,3.5,2.6,6.4,6.1,6.4C328,225.6,330.5,222.7,330.5,219.2z M326.4,203.7l2.6,1.2l-3.6,3.5h-1.9L326.4,203.7z"/>
			<path class="st0" d="M337.5,210.9h2.5v2.9c1.1-1.8,2.8-3.2,5.7-3.2c4,0,6.3,2.7,6.3,6.6v10.3h-2.5v-9.7c0-3.1-1.7-5-4.6-5
				c-2.8,0-5,2.1-5,5.2v9.5h-2.5L337.5,210.9L337.5,210.9z"/>
		</g>
	</g>
	
		<linearGradient id="SVGID_1_" gradientUnits="userSpaceOnUse" x1="20.422" y1="355.0587" x2="83.9619" y2="193.8556" gradientTransform="matrix(1.26 0 0 -1.26 114.5854 415.8951)">
		<stop  offset="0" style="stop-color:#00A79D"/>
		<stop  offset="1" style="stop-color:#27AAE1"/>
	</linearGradient>
	<path class="st1" d="M237.3,44.8l-27,74.7l-26.8-74.7h-36.4l15.7,39.1c-5.7,5.6-12.2,9-21.8,9c-16.5,0-28.1-13.8-28.1-31.5V61
		c0-17.2,11.6-31.3,28.1-31.3c11.3,0,19,5.6,25.8,13.8l24.6-19C180.9,10.1,165.4,0,141.3,0c-35.7,0-62,27-62,61.3v0.3
		c0,35.2,27.1,61,60.8,61c14.5,0,25.6-3.5,34.5-9.3l20.2,50.2h30.3L273,44.8L237.3,44.8L237.3,44.8z"/>
</g>
</svg>
