<?xml version="1.0" encoding="utf-8"?>
<!-- Generator: Adobe Illustrator 26.4.1, SVG Export Plug-In . SVG Version: 6.00 Build 0)  -->
<svg version="1.1" id="Layer_1" xmlns="http://www.w3.org/2000/svg" xmlns:xlink="http://www.w3.org/1999/xlink" x="0px" y="0px"
	 viewBox="0 0 361.1 227.1" style="enable-background:new 0 0 361.1 227.1;" xml:space="preserve">
<style type="text/css">
	.st0{fill:url(#SVGID_1_);}
	.st1{fill:url(#SVGID_00000146476330855565485770000005566376459793554070_);}
	.st2{fill:url(#SVGID_00000009570865837117939460000013058831876081247662_);}
	.st3{fill:url(#SVGID_00000127751829902513525120000011732899795017359265_);}
	.st4{fill:url(#SVGID_00000182488790599255867210000009335083206920039817_);}
	.st5{fill:none;}
	.st6{fill:url(#SVGID_00000129193605891542724810000003137769191400224922_);}
	.st7{fill:#00A79D;}
	.st8{fill:url(#SVGID_00000045605891347385210890000015197733234181210786_);}
	.st9{fill:url(#SVGID_00000083787793206471505010000005199514426794153885_);}
	.st10{fill:url(#SVGID_00000081630165615885214470000018424704576493600945_);}
	.st11{fill:url(#SVGID_00000096753603839338526930000013305310687054382520_);}
	.st12{fill:url(#SVGID_00000124875628867048601550000015108749602013606075_);}
	.st13{fill:url(#SVGID_00000070822447077181166210000004958761702528266943_);}
	.st14{fill:url(#SVGID_00000092442034890172914940000007834252628950159274_);}
	.st15{fill:url(#SVGID_00000100346409797425373580000018271156603409808038_);}
	.st16{fill:url(#SVGID_00000107580080538229086230000015167283343275038609_);}
	.st17{fill:url(#SVGID_00000117657628309547269000000010847418345801597581_);}
	.st18{fill:url(#SVGID_00000180347683451535574850000016707758603434639278_);}
	.st19{fill:url(#SVGID_00000065048857354837369280000014540515766421950894_);}
	.st20{fill:url(#SVGID_00000020356391726251647230000013619792500000232589_);}
	.st21{fill:url(#SVGID_00000130641812158388638040000002719495036459619504_);}
</style>
<g>
	<g>
		<g>
			
				<linearGradient id="SVGID_1_" gradientUnits="userSpaceOnUse" x1="48.8836" y1="-660.3954" x2="295.736" y2="-931.5524" gradientTransform="matrix(1.0089 0 0 -1.0089 39.1612 -720.5337)">
				<stop  offset="0" style="stop-color:#00A79D"/>
				<stop  offset="1" style="stop-color:#27AAE1"/>
			</linearGradient>
			<path class="st0" d="M165.6,1.7c-8.9-4.7-21,0.8-27,12.3c-2.3,4.4-3.3,9.1-3.2,13.4h0.1c0-0.4-0.1-0.8-0.1-1.3
				c10.4,3,15.1,10.9,15.1,10.9c1.8,2.6,3.3,4.9,4.6,7.1c-0.4,0.1-0.7,0.1-1.2,0.2l0.1,0.1c6.5-1.3,13-6.2,16.8-13.7
				C177,19.3,174.6,6.3,165.6,1.7z"/>
		</g>
		<g>
			
				<linearGradient id="SVGID_00000072982304119917068000000014926656996968808864_" gradientUnits="userSpaceOnUse" x1="31.9341" y1="-675.7046" x2="279.0282" y2="-947.1268" gradientTransform="matrix(1.0089 0 0 -1.0089 39.1612 -720.5337)">
				<stop  offset="0" style="stop-color:#00A79D"/>
				<stop  offset="1" style="stop-color:#27AAE1"/>
			</linearGradient>
			<path style="fill:url(#SVGID_00000072982304119917068000000014926656996968808864_);" d="M134.5,30.2c-0.2,0-0.4,0-0.6,0
				C134.1,30.3,134.3,30.3,134.5,30.2C134.5,30.3,134.5,30.3,134.5,30.2z"/>
			
				<linearGradient id="SVGID_00000071562007143422172690000008803630614610005419_" gradientUnits="userSpaceOnUse" x1="-13.9251" y1="-717.54" x2="233.0025" y2="-988.7794" gradientTransform="matrix(1.0089 0 0 -1.0089 39.1612 -720.5337)">
				<stop  offset="0" style="stop-color:#00A79D"/>
				<stop  offset="1" style="stop-color:#27AAE1"/>
			</linearGradient>
			<path style="fill:url(#SVGID_00000071562007143422172690000008803630614610005419_);" d="M97.9,40.3c-14.3,7.9-31.1,30.5-39.4,43
				C68,70.6,84.5,48.3,97.9,40.3z"/>
			
				<linearGradient id="SVGID_00000023983400500393866720000009559943662403776425_" gradientUnits="userSpaceOnUse" x1="25.8705" y1="-681.7617" x2="272.1533" y2="-952.293" gradientTransform="matrix(1.0089 0 0 -1.0089 39.1612 -720.5337)">
				<stop  offset="0" style="stop-color:#00A79D"/>
				<stop  offset="1" style="stop-color:#27AAE1"/>
			</linearGradient>
			<path style="fill:url(#SVGID_00000023983400500393866720000009559943662403776425_);" d="M155.5,65.5c0.4-0.9-0.2,1.7-0.2,0.2
				c-0.3,2,0-0.4-0.6,1C155,66.2,155.2,66,155.5,65.5z"/>
			
				<linearGradient id="SVGID_00000051355238325518786030000003981079152418803895_" gradientUnits="userSpaceOnUse" x1="32.3645" y1="-675.3133" x2="279.4493" y2="-946.7255" gradientTransform="matrix(1.0089 0 0 -1.0089 39.1612 -720.5337)">
				<stop  offset="0" style="stop-color:#00A79D"/>
				<stop  offset="1" style="stop-color:#27AAE1"/>
			</linearGradient>
			<path style="fill:url(#SVGID_00000051355238325518786030000003981079152418803895_);" d="M134.5,30.3c0.4,0,0.7,0,1.2,0
				C135.3,30.3,135,30.2,134.5,30.3L134.5,30.3z"/>
			<g>
				<path class="st5" d="M235.5,91.4c0-6.6-3.3-10-8.5-10c-5.1,0-8.8,3.6-8.8,10v27.5c4.5-4,10.4-6.7,17.1-7.2V91.4H235.5z"/>
				<path class="st5" d="M209.4,139c0-5.6,1.8-11,4.9-15.5h-6.4c0.2,0.9,0.3,2,0.3,3v0.2c0,8.8-4.6,13.4-12.8,19.3l-9.5,6.6h22.8
					v3.2h6.6c-3.8-4.6-5.9-10.5-5.9-16.7L209.4,139L209.4,139z"/>
				<path class="st5" d="M238.2,127c-6.7,0-11,5.3-11,11.7v0.2c0,6.4,4.6,11.8,11.2,11.8c6.7,0,11.1-5.3,11.1-11.6V139
					C249.4,132.5,244.6,127,238.2,127z"/>
				<path class="st5" d="M269.8,96.6c-5.1-1.4-9.8-2.9-13.5-5.1v8.5c6.1,3.5,12.3,5.2,17.8,5.2c3.7,0,5.3-1,5.3-3.1v-0.2
					C279.5,99.3,276,98.4,269.8,96.6z"/>
				<path class="st5" d="M272.4,72.5c-3.1,0-4.8,1.3-4.8,2.9v0.2c0,2.3,3.5,3.3,9.6,5.2c5.9,1.7,11.1,3.5,14.8,6.3V74l-2.1,4
					C283.8,74.5,277.1,72.5,272.4,72.5z"/>
				<g>
					<path class="st5" d="M235.5,91.4c0-6.6-3.3-10-8.5-10c-5.1,0-8.8,3.6-8.8,10v27.5c4.5-4,10.4-6.7,17.1-7.2V91.4H235.5z"/>
					<path class="st5" d="M238.2,127c-6.7,0-11,5.3-11,11.7v0.2c0,6.4,4.6,11.8,11.2,11.8c6.7,0,11.1-5.3,11.1-11.6V139
						C249.4,132.5,244.6,127,238.2,127z"/>
					<path class="st5" d="M152.7,46.5c-13.3,2.5-17-9.1-18.2-16.2c-0.2,0-0.4,0-0.7,0c-17.4-0.9-19.2,0.1-35.9,9.9
						c-13.5,8.1-29.9,30.3-39.4,43c-2.3,3-4.2,5.5-5.5,7.1c-2.5,2.9,0.4,3.3,0.4,3.3S83.5,49.8,100,47.1c16.4-2.8,19.7,10.2,21.6,17
						c2,6.8-10.8,39-12.2,42.3c-1.6,3.2-11.7,25.9-11.7,25.9c-0.8,1.5-33.8,77.4-36.9,83.6c-3.1,6.2,1.2,7.9,1.2,7.9
						c12.5,1.5,31.9-2.5,31.9-2.5c1.4-2.2-2.8-3.1-2.8-3.1c-11,0.9-10.1-2.9-12.7-6.2c-2.5-3.3,18.8-46,25.6-53.1
						c6.7-7,14.3-27.9,15.6-31.4c4.2-11,24.9-31.8,30.2-53.5c0.2-0.8,4.5-6,4.9-7.2c0.5-1.5,1.6-1.9,2-3.9
						c0.7-4.2-0.1-10.7-3.7-16.4C152.9,46.5,152.8,46.5,152.7,46.5z"/>
					<path class="st5" d="M209.4,139c0-5.6,1.8-11,4.9-15.5h-6.4c0.2,0.9,0.3,2,0.3,3v0.2c0,8.8-4.6,13.4-12.8,19.3l-9.5,6.6h22.8
						v3.2h6.6c-3.8-4.6-5.9-10.5-5.9-16.7L209.4,139L209.4,139z"/>
					<path class="st5" d="M269.8,96.6c-5.1-1.4-9.8-2.9-13.5-5.1v8.5c6.1,3.5,12.3,5.2,17.8,5.2c3.7,0,5.3-1,5.3-3.1v-0.2
						C279.5,99.3,276,98.4,269.8,96.6z"/>
					<path class="st5" d="M272.4,72.5c-3.1,0-4.8,1.3-4.8,2.9v0.2c0,2.3,3.5,3.3,9.6,5.2c5.9,1.7,11.1,3.5,14.8,6.3V74l-2.1,4
						C283.8,74.5,277.1,72.5,272.4,72.5z"/>
					
						<linearGradient id="SVGID_00000136405448994377810460000011940438367235004041_" gradientUnits="userSpaceOnUse" x1="7.8178" y1="-697.7748" x2="254.6777" y2="-968.9398" gradientTransform="matrix(1.0089 0 0 -1.0089 39.1612 -720.5337)">
						<stop  offset="0" style="stop-color:#00A79D"/>
						<stop  offset="1" style="stop-color:#27AAE1"/>
					</linearGradient>
					<path style="fill:url(#SVGID_00000136405448994377810460000011940438367235004041_);" d="M292,44v18.2
						c-6-2.7-12.8-4.2-19.4-4.2c-10,0-18.1,3.8-21.7,10.8c-3.5-3.7-8.5-5.8-14.7-5.8c-8.5,0-13.9,4.7-17.8,9.6v-8.4H202V51.4h-18.6
						v28.8c0,5.8-3.3,9-7.8,9c-4.5,0-7.5-3.1-7.5-9V51.4h-9.1c-0.8-1.8-1.8-3.8-3.1-6.2c-0.3-0.5-0.3-0.6-0.6-1.3
						c-0.7,0.1-3.8,0.3-5.6,0.1c0-0.1-3.1-0.3-5.5-1.7c-6.5-3.8-8.5-15.5-8.5-16.3c-0.4-0.1-0.8,1-1.3,0.9
						c-3.2-0.7-7.4-0.7-10.7-0.6c-14.6,0.4-16.5,3.5-24.4,9c-8.6,6.1-37.6,34.1-51.9,58.9c0,0-1.3,2,0.4,2.7c0,0,0.3,1.5-0.4,1.8
						c-0.7,0.3-3.2,3.7-2.3,6.2c0.9,2.4,2.5,5.8,4.6,5.5c2-0.1,10.6,0.7,8.1-8.8c0,0-0.5-1.7,1-2.1c1.6-0.4,1.9-4.1,2.3-4.6
						c0.4-0.5,14.3-19.2,14.5-19.7c0.2-0.4,9.7-11,11.6-12.4c1.9-1.6,6.9-8.3,16.7-5.9c7.3,1.9,10.8,3.9,11.2,9.9
						c0.5,7.4-0.9,15.7-2.4,21.1c0,0-15.5,34.6-20,45.3c-4.5,10.8-36.4,74-36.4,74s-1.7,5.6,2,5.6c1.7,0-7.8,12.2,1.6,13.6
						s36-2.9,37.2-3.8c1.3-0.8,6.1-5.8,6.9-7.3c3.2-5.9-13.3-2.7-17.5-3.8s-1.7-4,0.4-8.6c2-4.7,35.7-67.8,36.6-70.9
						c0.3-1,5.4-6.5,10.5-14.5c0.1,0.6-0.5,0.5,1.3,0.8c2.3,0.4,5.8-5.9,5.6-7.7c0-1,4.8-10.8,9-19.9c1.7,9.2,8.1,14.7,17.8,14.7
						c7.5,0,12.4-4.1,15.9-8.6v7.3h14v6.3c-2.8-1.2-6.1-1.9-9.7-1.9c-10.7,0-16.5,4.2-22.5,11.8l10.4,8.6c4.3-4.9,7.2-7.2,11-7.2
						c3.8,0,6.3,2.1,6.3,5.6c0,3.3-2.1,6-7.2,9.9l-20.7,15.9v11.5h41.5v6.2h15.6v-9.4c4.5,2.8,10,4.5,16.1,4.5
						c16.8,0,29.1-12.5,29.1-27.4v-0.2c0-8.7-4.2-16.5-11-21.5v-0.7c5.6,2.2,11.6,3.2,17.7,3.2c7.5,0,13.8-1.9,18-5.4v9.6h20.7V44
						H292z M50.2,108.4c-0.6,0.1-2-0.7-3.3-4.1c-1.4-3.3,3.2-5.2,3.2-5.2c1.4,0.4,0,1.6,0,1.6c-5.5,1.7,0.6,5.3,2.3,6
						C54.1,107.3,50.8,108.3,50.2,108.4z M156.6,62.9c-0.3,2-1.4,2.4-2,3.9c-0.5,1.3-4.7,6.3-4.9,7.2c-5.3,21.9-26,42.7-30.2,53.5
						c-1.3,3.3-8.9,24.3-15.6,31.4c-6.7,7-28.1,49.8-25.6,53.1c2.5,3.3,1.7,7.1,12.7,6.3c0,0,4.2,0.8,2.8,3.1c0,0-19.3,4-31.9,2.5
						c0,0-4.3-1.8-1.2-7.9c3.1-6.2,36.2-82.2,36.9-83.6c0,0,10.1-22.7,11.7-25.9c1.6-3.2,14.3-35.6,12.2-42.3
						c-2-6.8-5.2-19.8-21.6-17c-16.4,2.7-46.5,46.5-46.5,46.5s-2.9-0.4-0.4-3.3c1.4-1.6,3.2-4.1,5.5-7.1c9.5-12.7,25.9-34.9,39.4-43
						c16.6-9.8,18.6-10.8,36-9.8c0.2,0,0.4,0,0.7,0c1,7.1,4.9,18.7,18.1,16.2c0.1,0,0.2,0,0.3,0C156.5,52.3,157.3,58.8,156.6,62.9z
						 M208.7,155.9v-3.2H186l9.5-6.6c8.2-6,12.8-10.5,12.8-19.3v-0.2c0-1-0.1-2.1-0.3-3h6.4c-3.1,4.4-4.9,9.7-4.9,15.5v0.2
						c0,6.3,2.2,12.1,5.9,16.7L208.7,155.9L208.7,155.9z M218.4,118.9V91.4c0-6.6,3.8-10,8.8-10c5,0,8.5,3.6,8.5,10v20.2
						C228.8,112.2,222.9,114.8,218.4,118.9z M249.4,139.2c0,6.3-4.4,11.6-11.1,11.6c-6.5,0-11.2-5.4-11.2-11.8v-0.2
						c0-6.4,4.3-11.7,11-11.7c6.5,0,11.2,5.4,11.2,11.9v0.2H249.4z M279.5,102c0,2.1-1.8,3.1-5.3,3.1c-5.4,0-11.7-1.8-17.8-5.2v-8.5
						c3.7,2.3,8.4,3.9,13.5,5.1c6.3,1.8,9.6,2.7,9.6,5.1V102L279.5,102z M292,87.1c-3.8-2.8-9-4.7-14.8-6.3
						c-6.2-1.9-9.6-2.9-9.6-5.2v-0.2c0-1.8,1.7-2.9,4.8-2.9c4.7,0,11.4,2.1,17.6,5.5l2.1-4V87.1L292,87.1z"/>
				</g>
			</g>
		</g>
	</g>
	<g>
		<path class="st7" d="M113.7,183.5c1.9-1.6,4.3-2.9,6.9-2.9c4.3,0,6.7,2.6,6.1,7c-0.2,1.4-0.8,3-1.5,4.6l-4,9.7
			c-0.9,2.2-2.5,3.5-4.3,3.5c-2.3,0-3.2-1.7-2.1-4.5l3.7-9c0.3-0.6,0.5-1.6,0.6-2.2c0.3-1.9-0.8-2.9-2.9-2.9c-2.7,0-4.7,1.9-5.9,4.8
			l-4.2,10.4c-0.9,2.2-2.5,3.5-4.3,3.5c-2.3,0-3.2-1.7-2.1-4.5l6.8-16.6c0.9-2.2,2.5-3.5,4.4-3.5C113,180.7,113.9,181.9,113.7,183.5
			z"/>
		<path class="st7" d="M139.1,183.5c1.9-1.6,4.3-2.9,6.9-2.9c4.3,0,6.7,2.6,6.1,7c-0.2,1.4-0.8,3-1.5,4.6l-4,9.7
			c-0.9,2.2-2.5,3.5-4.3,3.5c-2.3,0-3.2-1.7-2.1-4.5l3.7-9c0.3-0.6,0.5-1.6,0.6-2.2c0.3-1.9-0.8-2.9-2.9-2.9c-2.7,0-4.7,1.9-5.9,4.8
			l-4.2,10.4c-0.9,2.2-2.5,3.5-4.3,3.5c-2.3,0-3.2-1.7-2.1-4.5l6.8-16.6c0.9-2.2,2.5-3.5,4.4-3.5
			C138.5,180.7,139.4,181.9,139.1,183.5z"/>
		<path class="st7" d="M152.6,194.5c1-7.2,8.2-13.9,15.8-13.9c7.1,0,10.9,4.7,10,11.1c-1,7.2-8.2,13.9-15.8,13.9
			C155.5,205.6,151.7,200.9,152.6,194.5z M171.7,191.9c0.5-3.5-1.4-5.4-4.4-5.4c-4.2,0-7.5,4.5-8.1,7.8c-0.5,3.5,1.4,5.4,4.4,5.4
			C167.9,199.7,171.2,195.2,171.7,191.9z"/>
		<path class="st7" d="M189.2,202.6c-1.6,1.9-2.9,2.8-4.9,2.8h-0.2c-2,0-2.9-0.9-2.9-3l-0.3-16.9c0-0.5,0-1.2,0.1-1.6
			c0.2-1.9,2.2-3.1,3.9-3.1c2,0,3.1,1,3,2.8l-0.5,13.4l10.9-14.1c1-1.4,2.3-2.2,3.9-2.2c1.8,0,2.7,0.9,2.5,2.6
			c-0.1,0.6-0.4,1.4-0.8,1.8L189.2,202.6z"/>
		<path class="st7" d="M212.6,202.2c-2.2,2.1-4.8,3.2-7.6,3.2c-4.2,0-6.6-2.7-6.1-6.5c0.7-5.5,5.8-8.7,11.6-8.7c2.6,0,4.7,0.4,6.6,1
			l0.1-0.3c0.2-0.5,0.4-1,0.5-1.8c0.2-1.7-0.7-2.8-4.1-2.8c-1.4,0-3,0.2-4.3,0.5c-0.4,0.1-0.8,0.2-1.2,0.2c-1.6,0-2.5-1.2-2.3-2.7
			c0.2-1.4,1.3-2.3,2.4-2.6c2.3-0.7,4.8-1.2,7.5-1.2c6.5,0,9.3,2.7,8.7,7.4c-0.2,1.3-0.5,2.4-1,3.7l-4.1,10
			c-0.9,2.2-2.5,3.5-4.3,3.5C212.4,205.3,212.3,203.6,212.6,202.2z M215.3,196l0.3-0.6c-1.2-0.4-2.7-0.8-4.4-0.8
			c-2.8,0-5.1,1.5-5.4,3.8c-0.2,1.5,0.8,2.5,2.8,2.5C211.4,200.8,214.1,198.6,215.3,196z"/>
		<path class="st7" d="M234.8,205.6c-6.6,0-10.6-4.3-9.6-10.9c1.2-7.8,8.5-14.1,16.1-14.1c4.4,0,6.5,1.7,7.6,3
			c0.6,0.6,1,1.5,0.8,2.6c-0.2,1.8-1.9,3.1-3.8,3.1c-0.9,0-1.6-0.3-2.1-0.9c-0.8-1.3-2.1-2-4.1-2c-3.6,0-7.4,3.9-8.1,8.4
			c-0.4,3.1,1.4,5,4,5c1.4,0,2.7-0.3,4.3-1.4c0.6-0.3,1.4-0.7,2.1-0.7c1.6,0,2.5,1.3,2.3,2.8c-0.1,0.9-0.6,1.7-1.4,2.2
			C240.7,204.6,238.1,205.6,234.8,205.6z"/>
		<path class="st7" d="M252.9,201.8c-0.9,2.2-2.5,3.5-4.3,3.5c-2.3,0-3.2-1.7-2.1-4.5l6.8-16.6c0.9-2.2,2.5-3.5,4.3-3.5
			c2.3,0,3.2,1.7,2.1,4.5L252.9,201.8z M259.3,178.6c-2.2,0-3.5-1.4-2.8-3.1l0.1-0.2c0.6-1.9,2.7-3.1,4.8-3.1c2.2,0,3.5,1.4,2.8,3.1
			l-0.1,0.2C263.5,177.3,261.5,178.6,259.3,178.6z"/>
		<path class="st7" d="M259.3,194.5c1-7.2,8.2-13.9,15.8-13.9c7.1,0,10.9,4.7,10,11.1c-1,7.2-8.2,13.9-15.8,13.9
			C262.2,205.6,258.4,200.9,259.3,194.5z M278.4,191.9c0.5-3.5-1.4-5.4-4.4-5.4c-4.2,0-7.5,4.5-8.1,7.8c-0.5,3.5,1.4,5.4,4.4,5.4
			C274.7,199.7,278,195.2,278.4,191.9z M282.7,177.1c-1.6,1-2.8,1.5-4.2,1.5c-1.2,0-1.8-0.4-1.7-1.3c0.1-0.4,0.3-0.8,0.7-1.3l4-3.8
			c0.8-0.8,1.7-1.5,2.7-1.5c1.7,0,3.7,1,3.5,2.2c-0.1,0.5-0.4,0.9-1.2,1.5L282.7,177.1z"/>
		<path class="st7" d="M298.3,183.5c1.9-1.6,4.3-2.9,7-2.9c4.3,0,6.7,2.6,6.1,7c-0.2,1.4-0.8,3-1.5,4.6l-4,9.7
			c-0.9,2.2-2.5,3.5-4.3,3.5c-2.3,0-3.2-1.7-2.1-4.5l3.7-9c0.3-0.6,0.5-1.6,0.6-2.2c0.3-1.9-0.8-2.9-2.9-2.9c-2.7,0-4.7,1.9-5.9,4.8
			l-4.2,10.4c-0.9,2.2-2.5,3.5-4.3,3.5c-2.3,0-3.2-1.7-2.1-4.5l6.8-16.6c0.9-2.2,2.5-3.5,4.4-3.5
			C297.7,180.7,298.5,181.9,298.3,183.5z"/>
	</g>
	<g>
		<path class="st7" d="M126.1,212.2c0.2-0.9,0.8-1.5,1.7-1.5c1,0,1.6,0.7,1.2,2l-0.2,0.8h1c0.7,0,1.3,0.5,1.3,1.3
			c0,0.7-0.5,1.3-1.3,1.3h-1.7l-1.2,4.4c0,0.2-0.1,0.3-0.1,0.4c0,0.4,0.2,0.6,0.7,0.6h0.2c0.6,0,1,0.4,1,1.2c0,0.6-0.3,1-0.7,1.3
			c-0.5,0.2-1,0.3-1.8,0.3c-1.8,0-2.7-0.9-2.7-2.1c0-0.4,0.1-0.8,0.2-1.3l1.3-4.7c-0.5-0.1-1-0.5-1-1.3c0-0.7,0.5-1.3,1.3-1.3h0.5
			L126.1,212.2z"/>
		<path class="st7" d="M137.1,221.4c0.2-0.1,0.6-0.3,0.9-0.3c0.6,0,1.2,0.4,1.2,1.2c0,0.4-0.2,0.7-0.5,1c-0.9,0.6-2.1,0.9-3.3,0.9
			c-3,0-4.8-1.8-4.8-4.6c0-3,2.4-6.3,6.2-6.3c2.7,0,4.3,1.8,4.3,4.1c0,0.3,0,0.7-0.1,1c-0.2,0.8-0.6,1.3-1.5,1.3h-6.2
			c0.1,1.3,0.8,2.1,2.4,2.1C136,221.8,136.6,221.6,137.1,221.4z M137.8,217.8c0.1-0.2,0.1-0.4,0.1-0.7c0-0.8-0.5-1.6-1.7-1.6
			c-1.4,0-2.4,0.9-2.9,2.2h4.5V217.8z"/>
		<path class="st7" d="M145.9,224.1c-2.8,0-4.9-1.9-4.9-4.7c0-3.5,2.8-6.2,6.2-6.2c1.9,0,2.9,0.7,3.6,1.3c0.3,0.3,0.5,0.6,0.5,1.2
			c0,0.7-0.6,1.4-1.5,1.4c-0.4,0-0.7-0.1-0.9-0.4c-0.4-0.5-1-0.8-1.9-0.8c-1.6,0-3,1.7-3,3.7c0,1.4,0.9,2.2,2.1,2.2
			c0.6,0,1.2-0.2,1.8-0.6c0.2-0.1,0.5-0.3,0.8-0.3c0.7,0,1.2,0.5,1.2,1.3c0,0.4-0.2,0.7-0.4,0.9
			C148.4,223.8,147.4,224.1,145.9,224.1z"/>
		<path class="st7" d="M155.7,214.6c0.7-0.6,1.7-1.3,2.8-1.3c1.9,0,3,1.2,3,3c0,0.6-0.2,1.4-0.3,2l-1.2,4.2
			c-0.2,0.9-0.8,1.5-1.7,1.5c-0.9,0-1.6-0.7-1.2-2l1-3.9c0.1-0.3,0.1-0.7,0.1-0.9c0-0.8-0.5-1.3-1.5-1.3c-1.2,0-1.9,0.8-2.3,2.1
			l-1.3,4.5c-0.2,0.9-0.8,1.5-1.7,1.5c-0.9,0-1.6-0.7-1.2-2l1.9-7.2c0.2-0.9,0.8-1.5,1.7-1.5C155.1,213.3,155.7,213.8,155.7,214.6z"
			/>
		<path class="st7" d="M162.1,219.3c0-3.1,2.7-6.1,6.1-6.1c3.1,0,5,2.1,5,4.8c0,3.1-2.7,6.1-6.1,6.1
			C164,224.1,162.1,222.1,162.1,219.3z M170.3,218.1c0-1.6-0.9-2.4-2.3-2.4c-1.8,0-3,2-3,3.5c0,1.6,0.9,2.4,2.3,2.4
			C169.2,221.6,170.3,219.6,170.3,218.1z"/>
		<path class="st7" d="M176.5,222.5c-0.2,0.9-0.8,1.5-1.7,1.5c-1,0-1.6-0.7-1.2-2l2.9-11c0.2-0.9,0.8-1.5,1.7-1.5c1,0,1.6,0.7,1.2,2
			L176.5,222.5z"/>
		<path class="st7" d="M178.8,219.3c0-3.1,2.7-6.1,6.1-6.1c3.1,0,5,2.1,5,4.8c0,3.1-2.7,6.1-6.1,6.1
			C180.7,224.1,178.8,222.1,178.8,219.3z M186.9,218.1c0-1.6-0.9-2.4-2.3-2.4c-1.8,0-3,2-3,3.5c0,1.6,0.9,2.4,2.3,2.4
			C185.8,221.6,186.9,219.6,186.9,218.1z M187.9,211.7c-0.6,0.4-1.2,0.6-1.8,0.6c-0.5,0-0.8-0.2-0.8-0.5c0-0.2,0.1-0.3,0.2-0.5
			l1.5-1.7c0.3-0.3,0.6-0.6,1.2-0.6c0.7,0,1.7,0.4,1.7,0.9c0,0.2-0.1,0.4-0.4,0.6L187.9,211.7z"/>
		<path class="st7" d="M199.5,214.8c0.2-0.8,0.7-1.5,1.7-1.5s1.6,0.7,1.2,2l-1.8,6.6c-0.5,2.1-0.9,2.9-1.8,3.8
			c-0.9,0.9-2.3,1.5-4.2,1.5c-1.7,0-3.1-0.3-4.5-0.9c-0.5-0.2-0.8-0.6-0.8-1.2c0-0.7,0.5-1.3,1.3-1.3c0.3,0,0.5,0.1,0.8,0.2
			c1,0.5,2.1,0.7,3,0.7c0.9,0,1.7-0.3,2.3-0.8c0.4-0.4,0.7-1,0.9-1.9l0.1-0.3c-1,0.9-2,1.4-3.2,1.4c-2,0-3.9-1.3-3.9-3.7
			c0-3.5,2.8-6.2,5.8-6.2c1.8,0,2.6,0.8,3.1,1.8V214.8z M198.6,217.6c0-1.2-0.8-1.9-2.1-1.9c-1.7,0-3,1.5-3,3.1c0,1.3,0.8,1.9,2,1.9
			C197.2,220.6,198.6,219.3,198.6,217.6z"/>
		<path class="st7" d="M205.1,222.5c-0.2,0.9-0.8,1.5-1.7,1.5c-1,0-1.6-0.7-1.2-2l2-7.2c0.2-0.9,0.8-1.5,1.7-1.5
			c0.9,0,1.6,0.7,1.2,2L205.1,222.5z M206.5,212.4c-0.9,0-1.6-0.6-1.5-1.4v-0.1c0.2-0.8,0.9-1.4,1.9-1.4c0.9,0,1.6,0.6,1.5,1.4v0.1
			C208.3,211.8,207.4,212.4,206.5,212.4z"/>
		<path class="st7" d="M212.3,224.1c-2.8,0-4.9-1.9-4.9-4.7c0-3.5,2.8-6.2,6.2-6.2c1.9,0,2.9,0.7,3.6,1.3c0.3,0.3,0.5,0.6,0.5,1.2
			c0,0.7-0.6,1.4-1.5,1.4c-0.4,0-0.7-0.1-0.9-0.4c-0.4-0.5-1-0.8-1.9-0.8c-1.6,0-3,1.7-3,3.7c0,1.4,0.9,2.2,2.1,2.2
			c0.6,0,1.2-0.2,1.8-0.6c0.2-0.1,0.5-0.3,0.8-0.3c0.7,0,1.2,0.5,1.2,1.3c0,0.4-0.2,0.7-0.4,0.9
			C214.8,223.8,213.8,224.1,212.3,224.1z"/>
		<path class="st7" d="M222.9,222.7c-0.8,0.9-1.9,1.4-3.1,1.4c-1.8,0-3-1.2-3-2.8c0-2.4,2-3.8,4.5-3.8c1.2,0,2.1,0.2,2.9,0.4v-0.1
			c0.1-0.2,0.1-0.4,0.1-0.7c0-0.7-0.5-1.3-2-1.3c-0.6,0-1.3,0.1-1.8,0.2c-0.2,0-0.3,0.1-0.5,0.1c-0.6,0-1.2-0.5-1.2-1.2
			c0-0.6,0.4-0.9,0.9-1.2c0.9-0.3,2.1-0.5,3.2-0.5c2.8,0,4.2,1.2,4.2,3.2c0,0.5-0.1,1-0.2,1.6l-1.2,4.4c-0.2,0.9-0.8,1.5-1.7,1.5
			C223,224,222.9,223.2,222.9,222.7z M223.7,219.9l0.1-0.3c-0.5-0.2-1.3-0.4-2-0.4c-1.3,0-2.1,0.6-2.1,1.7c0,0.6,0.5,1.2,1.4,1.2
			C222.3,222.1,223.3,221,223.7,219.9z"/>
		<path class="st7" d="M234.1,224.6c0.3,0,0.6-0.1,1-0.6l-1.3-8.6c0-0.2-0.1-0.5-0.1-0.7c0-0.7,0.6-1.4,1.5-1.4
			c0.8,0,1.4,0.5,1.5,1.3l0.6,6.1l3.7-6.4c0.3-0.5,0.8-0.9,1.5-0.9c0.7,0,1.3,0.4,1.3,1.2c0,0.2-0.1,0.6-0.4,1l-5.4,8.7
			c-1.4,2.2-2.5,2.9-4.2,2.9c-0.5,0-1,0-1.4-0.2c-0.4-0.2-0.9-0.5-0.9-1.3c0-0.7,0.5-1.3,1.2-1.3c0.2,0,0.4,0.1,0.6,0.1
			C233.5,224.5,233.7,224.6,234.1,224.6z"/>
		<path class="st7" d="M255.3,220c0-0.6-0.5-1-2.3-1.8c-1.8-0.7-3.3-1.7-3.3-3.7c0-2.8,2.5-4.5,5.4-4.5c2.1,0,3.2,0.6,4.2,1.3
			c0.4,0.3,0.7,0.6,0.7,1.3c0,0.8-0.6,1.5-1.5,1.5c-0.3,0-0.6-0.1-0.8-0.2c-0.9-0.7-1.7-1-2.8-1c-1.3,0-2,0.7-2,1.4
			c0,0.7,0.5,1,2.4,1.8c1.9,0.7,3.2,1.7,3.2,3.7c0,2.8-2.5,4.5-5.4,4.5c-1.6,0-3.7-0.3-5-1.6c-0.3-0.3-0.6-0.7-0.6-1.3
			c0-0.8,0.6-1.6,1.5-1.6c0.4,0,0.7,0.2,0.9,0.4c1.2,0.9,2,1.4,3.3,1.4C254.5,221.5,255.3,220.8,255.3,220z"/>
		<path class="st7" d="M259.6,219.3c0-3.1,2.7-6.1,6.1-6.1c3.1,0,5,2.1,5,4.8c0,3.1-2.7,6.1-6.1,6.1
			C261.6,224.1,259.6,222.1,259.6,219.3z M267.8,218.1c0-1.6-0.9-2.4-2.3-2.4c-1.8,0-3,2-3,3.5c0,1.6,0.9,2.4,2.3,2.4
			C266.6,221.6,267.8,219.6,267.8,218.1z"/>
		<path class="st7" d="M276.2,224.1c-2.8,0-4.9-1.9-4.9-4.7c0-3.5,2.8-6.2,6.2-6.2c1.9,0,2.9,0.7,3.6,1.3c0.3,0.3,0.5,0.6,0.5,1.2
			c0,0.7-0.6,1.4-1.5,1.4c-0.4,0-0.7-0.1-0.9-0.4c-0.4-0.5-1-0.8-1.9-0.8c-1.6,0-3,1.7-3,3.7c0,1.4,0.9,2.2,2.1,2.2
			c0.6,0,1.2-0.2,1.8-0.6c0.2-0.1,0.5-0.3,0.8-0.3c0.7,0,1.2,0.5,1.2,1.3c0,0.4-0.2,0.7-0.4,0.9
			C278.7,223.8,277.6,224.1,276.2,224.1z"/>
		<path class="st7" d="M283.9,222.5c-0.2,0.9-0.8,1.5-1.7,1.5c-0.9,0-1.6-0.7-1.2-2l2-7.2c0.2-0.9,0.8-1.5,1.7-1.5
			c1,0,1.6,0.7,1.2,2L283.9,222.5z M285.2,212.4c-0.9,0-1.6-0.6-1.5-1.4v-0.1c0.2-0.8,0.9-1.4,1.9-1.4c0.9,0,1.6,0.6,1.5,1.4v0.1
			C287,211.8,286.2,212.4,285.2,212.4z"/>
		<path class="st7" d="M291.7,222.7c-0.8,0.9-1.9,1.4-3.1,1.4c-1.8,0-3-1.2-3-2.8c0-2.4,2-3.8,4.5-3.8c1.2,0,2.1,0.2,2.9,0.4v-0.1
			c0.1-0.2,0.1-0.4,0.1-0.7c0-0.7-0.5-1.3-2-1.3c-0.6,0-1.3,0.1-1.8,0.2c-0.2,0-0.3,0.1-0.5,0.1c-0.6,0-1.2-0.5-1.2-1.2
			c0-0.6,0.4-0.9,0.9-1.2c0.9-0.3,2.1-0.5,3.2-0.5c2.8,0,4.2,1.2,4.2,3.2c0,0.5-0.1,1-0.2,1.6l-1.2,4.4c-0.2,0.9-0.8,1.5-1.7,1.5
			C291.8,224,291.6,223.2,291.7,222.7z M292.4,219.9l0.1-0.3c-0.5-0.2-1.3-0.4-2-0.4c-1.3,0-2.1,0.6-2.1,1.7c0,0.6,0.5,1.2,1.4,1.2
			C291.1,222.1,292.1,221,292.4,219.9z"/>
		<path class="st7" d="M299.2,222.5c-0.2,0.9-0.8,1.5-1.7,1.5c-1,0-1.6-0.7-1.2-2l2.9-11c0.2-0.9,0.8-1.5,1.7-1.5c1,0,1.6,0.7,1.2,2
			L299.2,222.5z"/>
	</g>
</g>
<g>
	
		<linearGradient id="SVGID_00000127726198333536202170000015698297815091606401_" gradientUnits="userSpaceOnUse" x1="154.9591" y1="877.5997" x2="163.3211" y2="877.5997" gradientTransform="matrix(1.0089 0 0 1.0089 47.5952 -855.9053)">
		<stop  offset="0" style="stop-color:#00A79D"/>
		<stop  offset="1" style="stop-color:#27AAE1"/>
	</linearGradient>
	<path style="fill:url(#SVGID_00000127726198333536202170000015698297815091606401_);" d="M203.9,24.8c0-0.3,0.3-0.6,0.6-0.6h4
		c1.3,0,2.4,0.4,3,1.1c0.5,0.5,0.8,1.3,0.8,2.1l0,0c0,1.8-1.2,2.8-2.8,3.1l2.6,3.4c0.1,0.1,0.2,0.3,0.2,0.4c0,0.3-0.3,0.6-0.6,0.6
		c-0.2,0-0.4-0.1-0.6-0.3l-3-3.9H205v3.6c0,0.3-0.3,0.6-0.6,0.6s-0.6-0.3-0.6-0.6L203.9,24.8L203.9,24.8z M208.4,29.6
		c1.6,0,2.7-0.8,2.7-2.2l0,0c0-1.3-1-2.1-2.7-2.1h-3.3v4.3H208.4z"/>
	
		<linearGradient id="SVGID_00000013878360201599721060000017466081863180972478_" gradientUnits="userSpaceOnUse" x1="165.0401" y1="878.9377" x2="172.4051" y2="878.9377" gradientTransform="matrix(1.0089 0 0 1.0089 47.5952 -855.9053)">
		<stop  offset="0" style="stop-color:#00A79D"/>
		<stop  offset="1" style="stop-color:#27AAE1"/>
	</linearGradient>
	<path style="fill:url(#SVGID_00000013878360201599721060000017466081863180972478_);" d="M218,35c-2.2,0-3.9-1.7-3.9-4.1l0,0
		c0-2.3,1.6-4.1,3.8-4.1c2.3,0,3.7,1.9,3.7,4c0,0.3-0.3,0.5-0.5,0.5h-5.7c0.2,1.7,1.4,2.7,2.8,2.7c1,0,1.7-0.4,2.3-0.9
		c0.1-0.1,0.2-0.1,0.3-0.1c0.3,0,0.5,0.2,0.5,0.5c0,0.1-0.1,0.3-0.2,0.4C220.2,34.5,219.3,35,218,35z M220.3,30.5
		c-0.1-1.4-0.9-2.7-2.5-2.7c-1.4,0-2.4,1.1-2.6,2.7H220.3z"/>
	
		<linearGradient id="SVGID_00000169520736990573133800000004447777217399654030_" gradientUnits="userSpaceOnUse" x1="173.5061" y1="878.9873" x2="180.8861" y2="878.9873" gradientTransform="matrix(1.0089 0 0 1.0089 47.5952 -855.9053)">
		<stop  offset="0" style="stop-color:#00A79D"/>
		<stop  offset="1" style="stop-color:#27AAE1"/>
	</linearGradient>
	<path style="fill:url(#SVGID_00000169520736990573133800000004447777217399654030_);" d="M226.4,35L226.4,35
		c-0.4,0-0.6-0.2-0.7-0.5l-3-6.7c0-0.1-0.1-0.2-0.1-0.3c0-0.3,0.3-0.6,0.6-0.6s0.5,0.2,0.6,0.5l2.5,6.2l2.6-6.2
		c0.1-0.2,0.2-0.4,0.5-0.4s0.6,0.3,0.6,0.6c0,0.1,0,0.2-0.1,0.3l-3,6.7C226.9,34.8,226.7,35,226.4,35z"/>
	
		<linearGradient id="SVGID_00000071556639735217031900000016372451550654387348_" gradientUnits="userSpaceOnUse" x1="182.9061" y1="877.451" x2="184.2791" y2="877.451" gradientTransform="matrix(1.0089 0 0 1.0089 47.5952 -855.9053)">
		<stop  offset="0" style="stop-color:#00A79D"/>
		<stop  offset="1" style="stop-color:#27AAE1"/>
	</linearGradient>
	<path style="fill:url(#SVGID_00000071556639735217031900000016372451550654387348_);" d="M232.1,24.5c0-0.4,0.3-0.6,0.7-0.6
		s0.7,0.2,0.7,0.6v0.2c0,0.4-0.3,0.6-0.7,0.6s-0.7-0.3-0.7-0.6V24.5z M232.2,27.5c0-0.3,0.3-0.6,0.6-0.6s0.6,0.3,0.6,0.6v6.8
		c0,0.3-0.2,0.6-0.6,0.6s-0.6-0.3-0.6-0.6V27.5z"/>
	
		<linearGradient id="SVGID_00000028317210556642982450000006395358161593512381_" gradientUnits="userSpaceOnUse" x1="186.2411" y1="879.0369" x2="192.2311" y2="879.0369" gradientTransform="matrix(1.0089 0 0 1.0089 47.5952 -855.9053)">
		<stop  offset="0" style="stop-color:#00A79D"/>
		<stop  offset="1" style="stop-color:#27AAE1"/>
	</linearGradient>
	<path style="fill:url(#SVGID_00000028317210556642982450000006395358161593512381_);" d="M235.7,34c-0.1-0.1-0.2-0.2-0.2-0.4
		c0-0.3,0.2-0.5,0.5-0.5c0.1,0,0.2,0,0.3,0.1c0.8,0.5,1.6,0.8,2.5,0.8s1.6-0.5,1.6-1.2l0,0c0-0.8-0.9-1.1-2-1.4
		c-1.2-0.4-2.6-0.8-2.6-2.2l0,0c0-1.4,1.1-2.3,2.7-2.3c0.8,0,1.8,0.3,2.5,0.7c0.2,0.1,0.3,0.3,0.3,0.5c0,0.3-0.2,0.5-0.5,0.5
		c-0.1,0-0.2,0-0.3-0.1c-0.7-0.4-1.4-0.6-2.1-0.6c-0.9,0-1.5,0.5-1.5,1.1l0,0c0,0.7,1,1,2,1.4c1.2,0.4,2.5,0.8,2.5,2.3l0,0
		c0,1.5-1.2,2.4-2.8,2.4C237.7,35,236.5,34.6,235.7,34z"/>
	
		<linearGradient id="SVGID_00000019672480296685516000000008747826123489808769_" gradientUnits="userSpaceOnUse" x1="193.4991" y1="877.7979" x2="198.3581" y2="877.7979" gradientTransform="matrix(1.0089 0 0 1.0089 47.5952 -855.9053)">
		<stop  offset="0" style="stop-color:#00A79D"/>
		<stop  offset="1" style="stop-color:#27AAE1"/>
	</linearGradient>
	<path style="fill:url(#SVGID_00000019672480296685516000000008747826123489808769_);" d="M243.9,32.7V28h-0.6
		c-0.3,0-0.5-0.2-0.5-0.5s0.2-0.5,0.5-0.5h0.6v-1.9c0-0.3,0.2-0.6,0.6-0.6c0.3,0,0.6,0.3,0.6,0.6V27h2c0.3,0,0.5,0.2,0.5,0.5
		s-0.2,0.5-0.5,0.5h-2v4.6c0,1,0.5,1.3,1.3,1.3c0.4,0,0.6-0.1,0.7-0.1c0.3,0,0.5,0.2,0.5,0.5c0,0.2-0.1,0.4-0.3,0.5
		c-0.3,0.1-0.7,0.2-1.2,0.2C244.9,35,243.9,34.3,243.9,32.7z"/>
	
		<linearGradient id="SVGID_00000078014503338272117280000005451927295841406650_" gradientUnits="userSpaceOnUse" x1="199.7451" y1="878.8882" x2="206.5971" y2="878.8882" gradientTransform="matrix(1.0089 0 0 1.0089 47.5952 -855.9053)">
		<stop  offset="0" style="stop-color:#00A79D"/>
		<stop  offset="1" style="stop-color:#27AAE1"/>
	</linearGradient>
	<path style="fill:url(#SVGID_00000078014503338272117280000005451927295841406650_);" d="M249.1,32.5L249.1,32.5
		c0-1.7,1.4-2.6,3.4-2.6c1,0,1.7,0.1,2.4,0.3v-0.3c0-1.4-0.9-2.1-2.3-2.1c-0.8,0-1.5,0.2-2,0.4c-0.1,0-0.2,0-0.2,0
		c-0.3,0-0.5-0.2-0.5-0.5c0-0.2,0.2-0.4,0.3-0.5c0.8-0.3,1.6-0.5,2.6-0.5c1.1,0,2,0.3,2.5,0.9c0.5,0.5,0.8,1.3,0.8,2.3v4.3
		c0,0.3-0.2,0.6-0.6,0.6c-0.3,0-0.6-0.2-0.6-0.5v-0.7c-0.5,0.7-1.5,1.4-2.8,1.4C250.6,35,249.1,34.2,249.1,32.5z M254.9,31.9v-0.8
		c-0.6-0.2-1.4-0.3-2.3-0.3c-1.5,0-2.3,0.6-2.3,1.6l0,0c0,1,0.9,1.6,2,1.6C253.7,34.1,254.9,33.2,254.9,31.9z"/>
	
		<linearGradient id="SVGID_00000160183815298512787420000005404749288899382658_" gradientUnits="userSpaceOnUse" x1="213.7941" y1="877.5501" x2="223.0751" y2="877.5501" gradientTransform="matrix(1.0089 0 0 1.0089 47.5952 -855.9053)">
		<stop  offset="0" style="stop-color:#00A79D"/>
		<stop  offset="1" style="stop-color:#27AAE1"/>
	</linearGradient>
	<path style="fill:url(#SVGID_00000160183815298512787420000005404749288899382658_);" d="M263.3,24.8c0-0.3,0.3-0.6,0.6-0.6h3.1
		c3.3,0,5.7,2.3,5.7,5.3l0,0c0,3-2.3,5.3-5.7,5.3h-3.1c-0.3,0-0.6-0.3-0.6-0.6V24.8z M267,33.7c2.7,0,4.4-1.8,4.4-4.2l0,0
		c0-2.4-1.7-4.2-4.4-4.2h-2.5v8.4H267z"/>
	
		<linearGradient id="SVGID_00000155860428581125826650000013615959869300197272_" gradientUnits="userSpaceOnUse" x1="225.3981" y1="877.451" x2="226.7711" y2="877.451" gradientTransform="matrix(1.0089 0 0 1.0089 47.5952 -855.9053)">
		<stop  offset="0" style="stop-color:#00A79D"/>
		<stop  offset="1" style="stop-color:#27AAE1"/>
	</linearGradient>
	<path style="fill:url(#SVGID_00000155860428581125826650000013615959869300197272_);" d="M275,24.5c0-0.4,0.3-0.6,0.7-0.6
		s0.7,0.2,0.7,0.6v0.2c0,0.4-0.3,0.6-0.7,0.6S275,25,275,24.7V24.5z M275.1,27.5c0-0.3,0.3-0.6,0.6-0.6c0.3,0,0.6,0.3,0.6,0.6v6.8
		c0,0.3-0.2,0.6-0.6,0.6c-0.3,0-0.6-0.3-0.6-0.6V27.5z"/>
	
		<linearGradient id="SVGID_00000008138194599712147340000001663452219022560412_" gradientUnits="userSpaceOnUse" x1="228.9141" y1="880.3254" x2="236.7911" y2="880.3254" gradientTransform="matrix(1.0089 0 0 1.0089 47.5952 -855.9053)">
		<stop  offset="0" style="stop-color:#00A79D"/>
		<stop  offset="1" style="stop-color:#27AAE1"/>
	</linearGradient>
	<path style="fill:url(#SVGID_00000008138194599712147340000001663452219022560412_);" d="M279.2,36.4c-0.2-0.1-0.3-0.3-0.3-0.5
		c0-0.3,0.3-0.5,0.5-0.5c0.1,0,0.2,0,0.3,0.1c0.8,0.5,1.8,0.9,2.8,0.9c1.7,0,2.9-1,2.9-2.8v-0.9c-0.7,0.9-1.6,1.7-3.1,1.7
		c-1.9,0-3.7-1.4-3.7-3.7l0,0c0-2.3,1.8-3.7,3.7-3.7c1.5,0,2.4,0.7,3.1,1.6v-0.9c0-0.3,0.2-0.6,0.6-0.6c0.3,0,0.6,0.3,0.6,0.6v6
		c0,1.2-0.4,2.1-1,2.8c-0.7,0.7-1.7,1.1-3,1.1C281.2,37.3,280.1,37,279.2,36.4z M285.3,30.5L285.3,30.5c0-1.6-1.4-2.7-2.9-2.7
		s-2.7,1-2.7,2.6l0,0c0,1.6,1.3,2.7,2.7,2.7C283.9,33.2,285.3,32.1,285.3,30.5z"/>
	
		<linearGradient id="SVGID_00000016753414901587837500000014745522882209524111_" gradientUnits="userSpaceOnUse" x1="239.3851" y1="877.451" x2="240.7581" y2="877.451" gradientTransform="matrix(1.0089 0 0 1.0089 47.5952 -855.9053)">
		<stop  offset="0" style="stop-color:#00A79D"/>
		<stop  offset="1" style="stop-color:#27AAE1"/>
	</linearGradient>
	<path style="fill:url(#SVGID_00000016753414901587837500000014745522882209524111_);" d="M289.1,24.5c0-0.4,0.3-0.6,0.7-0.6
		s0.7,0.2,0.7,0.6v0.2c0,0.4-0.3,0.6-0.7,0.6s-0.7-0.3-0.7-0.6V24.5z M289.2,27.5c0-0.3,0.3-0.6,0.6-0.6c0.3,0,0.6,0.3,0.6,0.6v6.8
		c0,0.3-0.2,0.6-0.6,0.6c-0.4,0-0.6-0.3-0.6-0.6V27.5z"/>
	
		<linearGradient id="SVGID_00000057868025461351198110000010452820177892216450_" gradientUnits="userSpaceOnUse" x1="242.6141" y1="877.7979" x2="247.4721" y2="877.7979" gradientTransform="matrix(1.0089 0 0 1.0089 47.5952 -855.9053)">
		<stop  offset="0" style="stop-color:#00A79D"/>
		<stop  offset="1" style="stop-color:#27AAE1"/>
	</linearGradient>
	<path style="fill:url(#SVGID_00000057868025461351198110000010452820177892216450_);" d="M293.5,32.7V28h-0.6
		c-0.3,0-0.5-0.2-0.5-0.5s0.2-0.5,0.5-0.5h0.6v-1.9c0-0.3,0.2-0.6,0.6-0.6c0.3,0,0.6,0.3,0.6,0.6V27h2c0.3,0,0.5,0.2,0.5,0.5
		S297,28,296.7,28h-2v4.6c0,1,0.5,1.3,1.3,1.3c0.4,0,0.6-0.1,0.7-0.1c0.3,0,0.5,0.2,0.5,0.5c0,0.2-0.1,0.4-0.3,0.5
		c-0.3,0.1-0.7,0.2-1.2,0.2C294.4,35,293.5,34.3,293.5,32.7z"/>
	
		<linearGradient id="SVGID_00000049932866371623379560000009965504974176779685_" gradientUnits="userSpaceOnUse" x1="248.8601" y1="878.8882" x2="255.7121" y2="878.8882" gradientTransform="matrix(1.0089 0 0 1.0089 47.5952 -855.9053)">
		<stop  offset="0" style="stop-color:#00A79D"/>
		<stop  offset="1" style="stop-color:#27AAE1"/>
	</linearGradient>
	<path style="fill:url(#SVGID_00000049932866371623379560000009965504974176779685_);" d="M298.6,32.5L298.6,32.5
		c0-1.7,1.4-2.6,3.4-2.6c1,0,1.7,0.1,2.4,0.3v-0.3c0-1.4-0.9-2.1-2.3-2.1c-0.8,0-1.5,0.2-2,0.4c-0.1,0-0.2,0-0.2,0
		c-0.3,0-0.5-0.2-0.5-0.5c0-0.2,0.2-0.4,0.3-0.5c0.8-0.3,1.6-0.5,2.6-0.5c1.1,0,2,0.3,2.5,0.9c0.5,0.5,0.8,1.3,0.8,2.3v4.3
		c0,0.3-0.2,0.6-0.6,0.6c-0.3,0-0.6-0.2-0.6-0.5v-0.7c-0.5,0.7-1.5,1.4-2.8,1.4C300.1,35,298.6,34.2,298.6,32.5z M304.4,31.9v-0.8
		c-0.6-0.2-1.4-0.3-2.3-0.3c-1.5,0-2.3,0.6-2.3,1.6l0,0c0,1,0.9,1.6,2,1.6C303.2,34.1,304.4,33.2,304.4,31.9z"/>
	
		<linearGradient id="SVGID_00000072258511036715733380000010809132153834128786_" gradientUnits="userSpaceOnUse" x1="258.2911" y1="877.3023" x2="259.4531" y2="877.3023" gradientTransform="matrix(1.0089 0 0 1.0089 47.5952 -855.9053)">
		<stop  offset="0" style="stop-color:#00A79D"/>
		<stop  offset="1" style="stop-color:#27AAE1"/>
	</linearGradient>
	<path style="fill:url(#SVGID_00000072258511036715733380000010809132153834128786_);" d="M308.1,24.2c0-0.3,0.3-0.6,0.6-0.6
		c0.3,0,0.6,0.3,0.6,0.6v10.1c0,0.3-0.2,0.6-0.6,0.6c-0.3,0-0.6-0.3-0.6-0.6V24.2z"/>
</g>
</svg>
